<?xml version="1.0" encoding="utf-8" standalone="no"?>
<!DOCTYPE svg PUBLIC "-//W3C//DTD SVG 1.1//EN"
  "http://www.w3.org/Graphics/SVG/1.1/DTD/svg11.dtd">
<svg xmlns:xlink="http://www.w3.org/1999/xlink" width="691.2pt" height="345.6pt" viewBox="0 0 691.2 345.6" xmlns="http://www.w3.org/2000/svg" version="1.1">
 <metadata>
  <rdf:RDF xmlns:dc="http://purl.org/dc/elements/1.1/" xmlns:cc="http://creativecommons.org/ns#" xmlns:rdf="http://www.w3.org/1999/02/22-rdf-syntax-ns#">
   <cc:Work>
    <dc:type rdf:resource="http://purl.org/dc/dcmitype/StillImage"/>
    <dc:date>2022-09-19T21:36:44.711453</dc:date>
    <dc:format>image/svg+xml</dc:format>
    <dc:creator>
     <cc:Agent>
      <dc:title>Matplotlib v3.5.2, https://matplotlib.org/</dc:title>
     </cc:Agent>
    </dc:creator>
   </cc:Work>
  </rdf:RDF>
 </metadata>
 <defs>
  <style type="text/css">*{stroke-linejoin: round; stroke-linecap: butt}</style>
 </defs>
 <g id="figure_1">
  <g id="patch_1">
   <path d="M 0 345.6 
L 691.2 345.6 
L 691.2 0 
L 0 0 
z
" style="fill: #ffffff"/>
  </g>
  <g id="axes_1">
   <g id="patch_2">
    <path d="M 71.788693 288.647244 
L 677.311461 288.647244 
L 677.311461 2.952756 
L 71.788693 2.952756 
z
" style="fill: #ffffff"/>
   </g>
   <g id="matplotlib.axis_1">
    <g id="xtick_1">
     <g id="line2d_1">
      <path d="M 88.354311 288.647244 
L 88.354311 2.952756 
" clip-path="url(#pf2d93beb93)" style="fill: none; stroke: #000000; stroke-opacity: 0.1; stroke-width: 0.5; stroke-linecap: square"/>
     </g>
     <g id="line2d_2">
      <defs>
       <path id="m62588650d0" d="M 0 0 
L 0 -2.5 
" style="stroke: #000000; stroke-width: 0.5"/>
      </defs>
      <g>
       <use xlink:href="#m62588650d0" x="88.354311" y="288.647244" style="stroke: #000000; stroke-width: 0.5"/>
      </g>
     </g>
     <g id="text_1">
      <!-- $0$ -->
      <g transform="translate(80.674311 310.383494)scale(0.24 -0.24)">
       <defs>
        <path id="DejaVuSans-30" d="M 2034 4250 
Q 1547 4250 1301 3770 
Q 1056 3291 1056 2328 
Q 1056 1369 1301 889 
Q 1547 409 2034 409 
Q 2525 409 2770 889 
Q 3016 1369 3016 2328 
Q 3016 3291 2770 3770 
Q 2525 4250 2034 4250 
z
M 2034 4750 
Q 2819 4750 3233 4129 
Q 3647 3509 3647 2328 
Q 3647 1150 3233 529 
Q 2819 -91 2034 -91 
Q 1250 -91 836 529 
Q 422 1150 422 2328 
Q 422 3509 836 4129 
Q 1250 4750 2034 4750 
z
" transform="scale(0.015625)"/>
       </defs>
       <use xlink:href="#DejaVuSans-30" transform="translate(0 0.78125)"/>
      </g>
     </g>
    </g>
    <g id="xtick_2">
     <g id="line2d_3">
      <path d="M 231.309239 288.647244 
L 231.309239 2.952756 
" clip-path="url(#pf2d93beb93)" style="fill: none; stroke: #000000; stroke-opacity: 0.1; stroke-width: 0.5; stroke-linecap: square"/>
     </g>
     <g id="line2d_4">
      <g>
       <use xlink:href="#m62588650d0" x="231.309239" y="288.647244" style="stroke: #000000; stroke-width: 0.5"/>
      </g>
     </g>
     <g id="text_2">
      <!-- $250$ -->
      <g transform="translate(208.389239 310.383494)scale(0.24 -0.24)">
       <defs>
        <path id="DejaVuSans-32" d="M 1228 531 
L 3431 531 
L 3431 0 
L 469 0 
L 469 531 
Q 828 903 1448 1529 
Q 2069 2156 2228 2338 
Q 2531 2678 2651 2914 
Q 2772 3150 2772 3378 
Q 2772 3750 2511 3984 
Q 2250 4219 1831 4219 
Q 1534 4219 1204 4116 
Q 875 4013 500 3803 
L 500 4441 
Q 881 4594 1212 4672 
Q 1544 4750 1819 4750 
Q 2544 4750 2975 4387 
Q 3406 4025 3406 3419 
Q 3406 3131 3298 2873 
Q 3191 2616 2906 2266 
Q 2828 2175 2409 1742 
Q 1991 1309 1228 531 
z
" transform="scale(0.015625)"/>
        <path id="DejaVuSans-35" d="M 691 4666 
L 3169 4666 
L 3169 4134 
L 1269 4134 
L 1269 2991 
Q 1406 3038 1543 3061 
Q 1681 3084 1819 3084 
Q 2600 3084 3056 2656 
Q 3513 2228 3513 1497 
Q 3513 744 3044 326 
Q 2575 -91 1722 -91 
Q 1428 -91 1123 -41 
Q 819 9 494 109 
L 494 744 
Q 775 591 1075 516 
Q 1375 441 1709 441 
Q 2250 441 2565 725 
Q 2881 1009 2881 1497 
Q 2881 1984 2565 2268 
Q 2250 2553 1709 2553 
Q 1456 2553 1204 2497 
Q 953 2441 691 2322 
L 691 4666 
z
" transform="scale(0.015625)"/>
       </defs>
       <use xlink:href="#DejaVuSans-32" transform="translate(0 0.78125)"/>
       <use xlink:href="#DejaVuSans-35" transform="translate(63.623047 0.78125)"/>
       <use xlink:href="#DejaVuSans-30" transform="translate(127.246094 0.78125)"/>
      </g>
     </g>
    </g>
    <g id="xtick_3">
     <g id="line2d_5">
      <path d="M 374.264168 288.647244 
L 374.264168 2.952756 
" clip-path="url(#pf2d93beb93)" style="fill: none; stroke: #000000; stroke-opacity: 0.1; stroke-width: 0.5; stroke-linecap: square"/>
     </g>
     <g id="line2d_6">
      <g>
       <use xlink:href="#m62588650d0" x="374.264168" y="288.647244" style="stroke: #000000; stroke-width: 0.5"/>
      </g>
     </g>
     <g id="text_3">
      <!-- $500$ -->
      <g transform="translate(351.344168 310.383494)scale(0.24 -0.24)">
       <use xlink:href="#DejaVuSans-35" transform="translate(0 0.78125)"/>
       <use xlink:href="#DejaVuSans-30" transform="translate(63.623047 0.78125)"/>
       <use xlink:href="#DejaVuSans-30" transform="translate(127.246094 0.78125)"/>
      </g>
     </g>
    </g>
    <g id="xtick_4">
     <g id="line2d_7">
      <path d="M 517.219096 288.647244 
L 517.219096 2.952756 
" clip-path="url(#pf2d93beb93)" style="fill: none; stroke: #000000; stroke-opacity: 0.1; stroke-width: 0.5; stroke-linecap: square"/>
     </g>
     <g id="line2d_8">
      <g>
       <use xlink:href="#m62588650d0" x="517.219096" y="288.647244" style="stroke: #000000; stroke-width: 0.5"/>
      </g>
     </g>
     <g id="text_4">
      <!-- $750$ -->
      <g transform="translate(494.299096 310.383494)scale(0.24 -0.24)">
       <defs>
        <path id="DejaVuSans-37" d="M 525 4666 
L 3525 4666 
L 3525 4397 
L 1831 0 
L 1172 0 
L 2766 4134 
L 525 4134 
L 525 4666 
z
" transform="scale(0.015625)"/>
       </defs>
       <use xlink:href="#DejaVuSans-37" transform="translate(0 0.78125)"/>
       <use xlink:href="#DejaVuSans-35" transform="translate(63.623047 0.78125)"/>
       <use xlink:href="#DejaVuSans-30" transform="translate(127.246094 0.78125)"/>
      </g>
     </g>
    </g>
    <g id="xtick_5">
     <g id="line2d_9">
      <path d="M 660.174025 288.647244 
L 660.174025 2.952756 
" clip-path="url(#pf2d93beb93)" style="fill: none; stroke: #000000; stroke-opacity: 0.1; stroke-width: 0.5; stroke-linecap: square"/>
     </g>
     <g id="line2d_10">
      <g>
       <use xlink:href="#m62588650d0" x="660.174025" y="288.647244" style="stroke: #000000; stroke-width: 0.5"/>
      </g>
     </g>
     <g id="text_5">
      <!-- $1000$ -->
      <g transform="translate(629.574025 310.383494)scale(0.24 -0.24)">
       <defs>
        <path id="DejaVuSans-31" d="M 794 531 
L 1825 531 
L 1825 4091 
L 703 3866 
L 703 4441 
L 1819 4666 
L 2450 4666 
L 2450 531 
L 3481 531 
L 3481 0 
L 794 0 
L 794 531 
z
" transform="scale(0.015625)"/>
       </defs>
       <use xlink:href="#DejaVuSans-31" transform="translate(0 0.78125)"/>
       <use xlink:href="#DejaVuSans-30" transform="translate(63.623047 0.78125)"/>
       <use xlink:href="#DejaVuSans-30" transform="translate(127.246094 0.78125)"/>
       <use xlink:href="#DejaVuSans-30" transform="translate(190.869141 0.78125)"/>
      </g>
     </g>
    </g>
    <g id="text_6">
     <!-- MC steps -->
     <g transform="translate(319.794452 337.610994)scale(0.24 -0.24)">
      <defs>
       <path id="DejaVuSans-4d" d="M 628 4666 
L 1569 4666 
L 2759 1491 
L 3956 4666 
L 4897 4666 
L 4897 0 
L 4281 0 
L 4281 4097 
L 3078 897 
L 2444 897 
L 1241 4097 
L 1241 0 
L 628 0 
L 628 4666 
z
" transform="scale(0.015625)"/>
       <path id="DejaVuSans-43" d="M 4122 4306 
L 4122 3641 
Q 3803 3938 3442 4084 
Q 3081 4231 2675 4231 
Q 1875 4231 1450 3742 
Q 1025 3253 1025 2328 
Q 1025 1406 1450 917 
Q 1875 428 2675 428 
Q 3081 428 3442 575 
Q 3803 722 4122 1019 
L 4122 359 
Q 3791 134 3420 21 
Q 3050 -91 2638 -91 
Q 1578 -91 968 557 
Q 359 1206 359 2328 
Q 359 3453 968 4101 
Q 1578 4750 2638 4750 
Q 3056 4750 3426 4639 
Q 3797 4528 4122 4306 
z
" transform="scale(0.015625)"/>
       <path id="DejaVuSans-20" transform="scale(0.015625)"/>
       <path id="DejaVuSans-73" d="M 2834 3397 
L 2834 2853 
Q 2591 2978 2328 3040 
Q 2066 3103 1784 3103 
Q 1356 3103 1142 2972 
Q 928 2841 928 2578 
Q 928 2378 1081 2264 
Q 1234 2150 1697 2047 
L 1894 2003 
Q 2506 1872 2764 1633 
Q 3022 1394 3022 966 
Q 3022 478 2636 193 
Q 2250 -91 1575 -91 
Q 1294 -91 989 -36 
Q 684 19 347 128 
L 347 722 
Q 666 556 975 473 
Q 1284 391 1588 391 
Q 1994 391 2212 530 
Q 2431 669 2431 922 
Q 2431 1156 2273 1281 
Q 2116 1406 1581 1522 
L 1381 1569 
Q 847 1681 609 1914 
Q 372 2147 372 2553 
Q 372 3047 722 3315 
Q 1072 3584 1716 3584 
Q 2034 3584 2315 3537 
Q 2597 3491 2834 3397 
z
" transform="scale(0.015625)"/>
       <path id="DejaVuSans-74" d="M 1172 4494 
L 1172 3500 
L 2356 3500 
L 2356 3053 
L 1172 3053 
L 1172 1153 
Q 1172 725 1289 603 
Q 1406 481 1766 481 
L 2356 481 
L 2356 0 
L 1766 0 
Q 1100 0 847 248 
Q 594 497 594 1153 
L 594 3053 
L 172 3053 
L 172 3500 
L 594 3500 
L 594 4494 
L 1172 4494 
z
" transform="scale(0.015625)"/>
       <path id="DejaVuSans-65" d="M 3597 1894 
L 3597 1613 
L 953 1613 
Q 991 1019 1311 708 
Q 1631 397 2203 397 
Q 2534 397 2845 478 
Q 3156 559 3463 722 
L 3463 178 
Q 3153 47 2828 -22 
Q 2503 -91 2169 -91 
Q 1331 -91 842 396 
Q 353 884 353 1716 
Q 353 2575 817 3079 
Q 1281 3584 2069 3584 
Q 2775 3584 3186 3129 
Q 3597 2675 3597 1894 
z
M 3022 2063 
Q 3016 2534 2758 2815 
Q 2500 3097 2075 3097 
Q 1594 3097 1305 2825 
Q 1016 2553 972 2059 
L 3022 2063 
z
" transform="scale(0.015625)"/>
       <path id="DejaVuSans-70" d="M 1159 525 
L 1159 -1331 
L 581 -1331 
L 581 3500 
L 1159 3500 
L 1159 2969 
Q 1341 3281 1617 3432 
Q 1894 3584 2278 3584 
Q 2916 3584 3314 3078 
Q 3713 2572 3713 1747 
Q 3713 922 3314 415 
Q 2916 -91 2278 -91 
Q 1894 -91 1617 61 
Q 1341 213 1159 525 
z
M 3116 1747 
Q 3116 2381 2855 2742 
Q 2594 3103 2138 3103 
Q 1681 3103 1420 2742 
Q 1159 2381 1159 1747 
Q 1159 1113 1420 752 
Q 1681 391 2138 391 
Q 2594 391 2855 752 
Q 3116 1113 3116 1747 
z
" transform="scale(0.015625)"/>
      </defs>
      <use xlink:href="#DejaVuSans-4d"/>
      <use xlink:href="#DejaVuSans-43" x="86.279297"/>
      <use xlink:href="#DejaVuSans-20" x="156.103516"/>
      <use xlink:href="#DejaVuSans-73" x="187.890625"/>
      <use xlink:href="#DejaVuSans-74" x="239.990234"/>
      <use xlink:href="#DejaVuSans-65" x="279.199219"/>
      <use xlink:href="#DejaVuSans-70" x="340.722656"/>
      <use xlink:href="#DejaVuSans-73" x="404.199219"/>
     </g>
    </g>
   </g>
   <g id="matplotlib.axis_2">
    <g id="ytick_1">
     <g id="line2d_11">
      <path d="M 71.788693 226.051617 
L 677.311461 226.051617 
" clip-path="url(#pf2d93beb93)" style="fill: none; stroke: #000000; stroke-opacity: 0.1; stroke-width: 0.5; stroke-linecap: square"/>
     </g>
     <g id="line2d_12">
      <defs>
       <path id="m33c87c09c5" d="M 0 0 
L 2.5 0 
" style="stroke: #000000; stroke-width: 0.5"/>
      </defs>
      <g>
       <use xlink:href="#m33c87c09c5" x="71.788693" y="226.051617" style="stroke: #000000; stroke-width: 0.5"/>
      </g>
     </g>
     <g id="text_7">
      <!-- $2.5$ -->
      <g transform="translate(29.888693 235.169742)scale(0.24 -0.24)">
       <defs>
        <path id="DejaVuSans-2e" d="M 684 794 
L 1344 794 
L 1344 0 
L 684 0 
L 684 794 
z
" transform="scale(0.015625)"/>
       </defs>
       <use xlink:href="#DejaVuSans-32" transform="translate(0 0.78125)"/>
       <use xlink:href="#DejaVuSans-2e" transform="translate(63.623047 0.78125)"/>
       <use xlink:href="#DejaVuSans-35" transform="translate(95.410156 0.78125)"/>
      </g>
     </g>
    </g>
    <g id="ytick_2">
     <g id="line2d_13">
      <path d="M 71.788693 161.24501 
L 677.311461 161.24501 
" clip-path="url(#pf2d93beb93)" style="fill: none; stroke: #000000; stroke-opacity: 0.1; stroke-width: 0.5; stroke-linecap: square"/>
     </g>
     <g id="line2d_14">
      <g>
       <use xlink:href="#m33c87c09c5" x="71.788693" y="161.24501" style="stroke: #000000; stroke-width: 0.5"/>
      </g>
     </g>
     <g id="text_8">
      <!-- $3.0$ -->
      <g transform="translate(29.888693 170.363135)scale(0.24 -0.24)">
       <defs>
        <path id="DejaVuSans-33" d="M 2597 2516 
Q 3050 2419 3304 2112 
Q 3559 1806 3559 1356 
Q 3559 666 3084 287 
Q 2609 -91 1734 -91 
Q 1441 -91 1130 -33 
Q 819 25 488 141 
L 488 750 
Q 750 597 1062 519 
Q 1375 441 1716 441 
Q 2309 441 2620 675 
Q 2931 909 2931 1356 
Q 2931 1769 2642 2001 
Q 2353 2234 1838 2234 
L 1294 2234 
L 1294 2753 
L 1863 2753 
Q 2328 2753 2575 2939 
Q 2822 3125 2822 3475 
Q 2822 3834 2567 4026 
Q 2313 4219 1838 4219 
Q 1578 4219 1281 4162 
Q 984 4106 628 3988 
L 628 4550 
Q 988 4650 1302 4700 
Q 1616 4750 1894 4750 
Q 2613 4750 3031 4423 
Q 3450 4097 3450 3541 
Q 3450 3153 3228 2886 
Q 3006 2619 2597 2516 
z
" transform="scale(0.015625)"/>
       </defs>
       <use xlink:href="#DejaVuSans-33" transform="translate(0 0.78125)"/>
       <use xlink:href="#DejaVuSans-2e" transform="translate(63.623047 0.78125)"/>
       <use xlink:href="#DejaVuSans-30" transform="translate(95.410156 0.78125)"/>
      </g>
     </g>
    </g>
    <g id="ytick_3">
     <g id="line2d_15">
      <path d="M 71.788693 96.438403 
L 677.311461 96.438403 
" clip-path="url(#pf2d93beb93)" style="fill: none; stroke: #000000; stroke-opacity: 0.1; stroke-width: 0.5; stroke-linecap: square"/>
     </g>
     <g id="line2d_16">
      <g>
       <use xlink:href="#m33c87c09c5" x="71.788693" y="96.438403" style="stroke: #000000; stroke-width: 0.5"/>
      </g>
     </g>
     <g id="text_9">
      <!-- $3.5$ -->
      <g transform="translate(29.888693 105.556528)scale(0.24 -0.24)">
       <use xlink:href="#DejaVuSans-33" transform="translate(0 0.78125)"/>
       <use xlink:href="#DejaVuSans-2e" transform="translate(63.623047 0.78125)"/>
       <use xlink:href="#DejaVuSans-35" transform="translate(95.410156 0.78125)"/>
      </g>
     </g>
    </g>
    <g id="ytick_4">
     <g id="line2d_17">
      <path d="M 71.788693 31.631796 
L 677.311461 31.631796 
" clip-path="url(#pf2d93beb93)" style="fill: none; stroke: #000000; stroke-opacity: 0.1; stroke-width: 0.5; stroke-linecap: square"/>
     </g>
     <g id="line2d_18">
      <g>
       <use xlink:href="#m33c87c09c5" x="71.788693" y="31.631796" style="stroke: #000000; stroke-width: 0.5"/>
      </g>
     </g>
     <g id="text_10">
      <!-- $4.0$ -->
      <g transform="translate(29.888693 40.749921)scale(0.24 -0.24)">
       <defs>
        <path id="DejaVuSans-34" d="M 2419 4116 
L 825 1625 
L 2419 1625 
L 2419 4116 
z
M 2253 4666 
L 3047 4666 
L 3047 1625 
L 3713 1625 
L 3713 1100 
L 3047 1100 
L 3047 0 
L 2419 0 
L 2419 1100 
L 313 1100 
L 313 1709 
L 2253 4666 
z
" transform="scale(0.015625)"/>
       </defs>
       <use xlink:href="#DejaVuSans-34" transform="translate(0 0.78125)"/>
       <use xlink:href="#DejaVuSans-2e" transform="translate(63.623047 0.78125)"/>
       <use xlink:href="#DejaVuSans-30" transform="translate(95.410156 0.78125)"/>
      </g>
     </g>
    </g>
    <g id="text_11">
     <!-- MC value -->
     <g transform="translate(20.897443 201.125625)rotate(-90)scale(0.24 -0.24)">
      <defs>
       <path id="DejaVuSans-76" d="M 191 3500 
L 800 3500 
L 1894 563 
L 2988 3500 
L 3597 3500 
L 2284 0 
L 1503 0 
L 191 3500 
z
" transform="scale(0.015625)"/>
       <path id="DejaVuSans-61" d="M 2194 1759 
Q 1497 1759 1228 1600 
Q 959 1441 959 1056 
Q 959 750 1161 570 
Q 1363 391 1709 391 
Q 2188 391 2477 730 
Q 2766 1069 2766 1631 
L 2766 1759 
L 2194 1759 
z
M 3341 1997 
L 3341 0 
L 2766 0 
L 2766 531 
Q 2569 213 2275 61 
Q 1981 -91 1556 -91 
Q 1019 -91 701 211 
Q 384 513 384 1019 
Q 384 1609 779 1909 
Q 1175 2209 1959 2209 
L 2766 2209 
L 2766 2266 
Q 2766 2663 2505 2880 
Q 2244 3097 1772 3097 
Q 1472 3097 1187 3025 
Q 903 2953 641 2809 
L 641 3341 
Q 956 3463 1253 3523 
Q 1550 3584 1831 3584 
Q 2591 3584 2966 3190 
Q 3341 2797 3341 1997 
z
" transform="scale(0.015625)"/>
       <path id="DejaVuSans-6c" d="M 603 4863 
L 1178 4863 
L 1178 0 
L 603 0 
L 603 4863 
z
" transform="scale(0.015625)"/>
       <path id="DejaVuSans-75" d="M 544 1381 
L 544 3500 
L 1119 3500 
L 1119 1403 
Q 1119 906 1312 657 
Q 1506 409 1894 409 
Q 2359 409 2629 706 
Q 2900 1003 2900 1516 
L 2900 3500 
L 3475 3500 
L 3475 0 
L 2900 0 
L 2900 538 
Q 2691 219 2414 64 
Q 2138 -91 1772 -91 
Q 1169 -91 856 284 
Q 544 659 544 1381 
z
M 1991 3584 
L 1991 3584 
z
" transform="scale(0.015625)"/>
      </defs>
      <use xlink:href="#DejaVuSans-4d"/>
      <use xlink:href="#DejaVuSans-43" x="86.279297"/>
      <use xlink:href="#DejaVuSans-20" x="156.103516"/>
      <use xlink:href="#DejaVuSans-76" x="187.890625"/>
      <use xlink:href="#DejaVuSans-61" x="247.070312"/>
      <use xlink:href="#DejaVuSans-6c" x="308.349609"/>
      <use xlink:href="#DejaVuSans-75" x="336.132812"/>
      <use xlink:href="#DejaVuSans-65" x="399.511719"/>
     </g>
    </g>
   </g>
   <g id="line2d_19">
    <path d="M 88.92613 11.038449 
L 89.49795 280.561551 
L 90.06977 190.720517 
L 90.641589 145.8 
L 91.213409 118.84769 
L 91.785229 190.720517 
L 92.357049 242.058251 
L 92.928868 280.561551 
L 93.500688 250.61454 
L 94.644327 207.05525 
L 95.787967 176.898819 
L 96.931606 226.656931 
L 97.503426 246.871163 
L 98.647065 220.667528 
L 99.790705 199.70462 
L 100.934344 182.55315 
L 102.077984 168.260259 
L 103.221623 156.166273 
L 104.365263 184.3033 
L 105.508902 172.75231 
L 106.080722 184.924321 
L 106.652541 179.490388 
L 107.796181 201.29005 
L 108.93982 190.720517 
L 110.08346 209.634419 
L 111.798919 195.103006 
L 112.370739 190.720517 
L 113.514378 207.05525 
L 114.086198 202.699322 
L 114.658017 210.251177 
L 115.229837 206.012608 
L 116.945296 226.656931 
L 117.517116 232.998651 
L 118.088936 228.730185 
L 118.660755 234.793477 
L 120.376215 222.806601 
L 120.948034 219.09137 
L 121.519854 224.798151 
L 123.807133 211.007202 
L 125.522592 226.656931 
L 126.666231 220.220558 
L 127.238051 225.071501 
L 129.52533 213.180776 
L 130.09715 217.795897 
L 131.240789 212.282365 
L 131.812609 216.727132 
L 132.956248 211.453063 
L 133.528068 215.739539 
L 135.815347 205.874426 
L 138.102626 196.91645 
L 138.674445 200.929725 
L 140.961724 192.673583 
L 142.677183 186.937737 
L 143.249003 190.720517 
L 145.536282 183.533234 
L 146.679921 190.720517 
L 147.823561 187.265093 
L 148.39538 190.720517 
L 149.53902 187.361974 
L 150.11084 190.720517 
L 150.682659 189.072058 
L 151.254479 192.35399 
L 152.969938 187.540303 
L 153.541758 190.720517 
L 154.685397 187.62255 
L 155.829037 193.765976 
L 156.400856 192.23045 
L 157.544496 198.145396 
L 158.116316 196.611732 
L 158.688135 199.485496 
L 159.259955 197.965762 
L 160.975414 206.283531 
L 161.547234 204.758179 
L 163.834513 215.222617 
L 164.406332 213.687398 
L 166.121792 221.107926 
L 168.40907 215.105941 
L 168.98089 217.481676 
L 170.12453 214.594358 
L 171.268169 219.221811 
L 172.983628 215.001878 
L 174.127268 219.469648 
L 177.558186 211.453063 
L 178.130006 213.609952 
L 178.701825 212.327854 
L 179.845465 216.549814 
L 182.704563 210.322197 
L 183.276383 212.368959 
L 183.848203 211.163387 
L 184.420022 213.180776 
L 187.279121 207.338512 
L 187.850941 209.308317 
L 189.5664 205.947811 
L 190.13822 207.881164 
L 191.281859 205.694023 
L 191.853679 207.596733 
L 192.425498 206.516743 
L 192.997318 208.394163 
L 193.569138 207.321578 
L 194.140958 209.174351 
L 196.428236 204.980999 
L 197.571876 208.594649 
L 198.143696 207.565711 
L 198.715515 209.34042 
L 199.287335 208.318245 
L 201.002794 213.52281 
L 201.574614 212.500162 
L 202.146434 214.196566 
L 203.861893 211.179366 
L 204.433712 212.848851 
L 205.005532 211.859584 
L 207.292811 218.363912 
L 210.15191 213.497117 
L 210.723729 215.069956 
L 211.867369 213.180776 
L 213.011008 216.271637 
L 214.154648 214.405881 
L 214.726467 215.924789 
L 218.729205 209.634419 
L 219.872845 207.907497 
L 221.588304 212.313212 
L 222.160124 211.453063 
L 223.303763 214.322823 
L 223.875583 213.465083 
L 224.447402 214.879451 
L 226.734681 211.510178 
L 228.45014 215.655988 
L 230.1656 213.180776 
L 230.737419 214.533803 
L 231.309239 213.719822 
L 231.881059 215.059921 
L 234.168338 211.859584 
L 235.883797 215.792433 
L 237.027436 214.217403 
L 237.599256 215.504251 
L 241.030174 210.909513 
L 242.745633 214.678126 
L 243.317453 213.926688 
L 243.889273 215.162563 
L 245.604732 212.935755 
L 246.748371 215.370043 
L 248.46383 213.180776 
L 249.03565 214.379722 
L 251.322929 211.525809 
L 252.466568 213.885104 
L 254.753847 211.096834 
L 255.325667 212.257751 
L 255.897487 211.570996 
L 256.469306 212.722403 
L 257.612946 211.359673 
L 258.184766 212.500162 
L 258.756585 211.824116 
L 259.328405 212.955422 
L 259.900225 212.282365 
L 260.472044 213.404632 
L 263.902963 209.449593 
L 264.474782 210.55555 
L 265.618422 209.268343 
L 266.762061 211.453063 
L 267.905701 210.176537 
L 268.47752 211.255611 
L 269.04934 210.622012 
L 270.764799 213.814451 
L 271.336619 213.180776 
L 271.908439 214.23032 
L 272.480258 213.59929 
L 273.052078 214.64104 
L 275.911177 211.537342 
L 276.482996 212.566361 
L 277.054816 211.955671 
L 278.198456 213.992592 
L 278.770275 213.38312 
L 279.342095 214.391209 
L 281.057554 212.580947 
L 282.773013 215.558921 
L 283.344833 214.959154 
L 283.916653 215.939053 
L 284.488472 215.341675 
L 285.632112 217.282214 
L 286.203932 216.686134 
L 289.06303 221.4354 
L 290.20667 220.24335 
L 290.778489 221.175105 
L 294.209408 217.672827 
L 294.781227 218.593636 
L 298.783965 214.645575 
L 302.214884 220.026951 
L 304.502162 217.815432 
L 305.073982 218.692132 
L 305.645802 218.145675 
L 306.789441 219.883575 
L 309.07672 217.719377 
L 310.792179 220.282605 
L 311.363999 219.746082 
L 313.651278 223.099773 
L 315.366737 221.497294 
L 315.938557 222.322891 
L 317.082196 221.266469 
L 317.654016 222.086464 
L 319.941295 220.002039 
L 322.228574 223.230231 
L 325.659492 220.162398 
L 326.803131 221.744759 
L 328.51859 220.239714 
L 330.23405 222.57904 
L 331.949509 221.089317 
L 334.808607 224.905968 
L 337.095886 222.939371 
L 337.667706 223.689704 
L 338.811345 222.718694 
L 340.526804 224.945673 
L 342.814083 223.022911 
L 343.957723 224.486275 
L 344.529542 224.009829 
L 346.245002 226.178841 
L 347.388641 225.228994 
L 347.960461 225.944535 
L 348.53228 225.472214 
L 350.819559 228.30108 
L 353.678658 225.959888 
L 354.822297 227.350982 
L 355.394117 226.887786 
L 355.965937 227.578377 
L 358.825035 225.289372 
L 359.396855 225.974594 
L 362.255954 223.731001 
L 363.399593 225.087981 
L 365.686872 223.322624 
L 366.830511 224.664563 
L 370.26143 222.064651 
L 370.833249 222.728659 
L 373.692348 220.607514 
L 375.407807 222.576501 
L 377.123266 221.319839 
L 377.695086 221.969572 
L 378.266906 221.553535 
L 379.410545 222.844423 
L 379.982365 222.429117 
L 380.554184 223.070322 
L 383.413283 221.015749 
L 383.985103 221.652246 
L 385.128742 220.840632 
L 385.700562 221.473794 
L 387.416021 220.266708 
L 388.55966 221.523157 
L 389.7033 220.724354 
L 390.27512 221.348142 
L 390.846939 220.950581 
L 391.418759 221.571589 
L 391.990579 221.175105 
L 395.993317 225.454597 
L 397.136956 224.660463 
L 399.424235 227.053288 
L 399.996055 226.656931 
L 401.139694 227.839482 
L 402.283334 227.049678 
L 402.855153 227.637015 
L 405.142432 226.073126 
L 405.714252 226.656931 
L 406.286072 226.269128 
L 406.857891 226.850484 
L 408.57335 225.694348 
L 409.14517 226.272584 
L 410.28881 225.507987 
L 414.291548 229.494016 
L 417.722466 227.218437 
L 418.294286 227.777997 
L 418.866105 227.403015 
L 420.009745 228.515711 
L 421.153384 227.768366 
L 422.297024 228.872189 
L 423.440663 228.128729 
L 424.012483 228.677206 
L 424.584302 228.307072 
L 425.727942 229.397844 
L 427.443401 228.293159 
L 430.3025 230.983723 
L 432.017959 229.885826 
L 433.161598 230.947846 
L 433.733418 230.583757 
L 434.877057 231.638216 
L 436.020697 230.912559 
L 436.592516 231.436651 
L 438.879795 229.998489 
L 440.595254 231.557351 
L 441.167074 231.199946 
L 442.882533 232.742936 
L 445.169812 231.321754 
L 445.741632 231.831774 
L 446.885271 231.127489 
L 449.74437 233.650885 
L 450.316189 233.299206 
L 450.888009 233.798868 
L 452.603468 232.749761 
L 453.175288 233.247151 
L 453.747108 232.899406 
L 454.318927 233.395008 
L 454.890747 233.048118 
L 456.034387 234.034235 
L 457.178026 233.342775 
L 457.749846 233.833088 
L 458.893485 233.14545 
L 459.465305 233.6338 
L 461.752584 232.270275 
L 462.896223 233.240701 
L 464.611682 232.227621 
L 465.755322 233.190824 
L 468.61442 231.520505 
L 469.75806 232.47572 
L 470.329879 232.144227 
L 470.901699 232.619475 
L 473.188978 231.3025 
L 474.904437 232.717213 
L 475.476257 232.389771 
L 476.619896 233.325543 
L 477.191716 232.998651 
L 477.763536 233.464269 
L 478.335355 233.138131 
L 480.622634 234.986216 
L 481.194454 234.660237 
L 482.338093 235.575837 
L 482.909913 235.250421 
L 483.481733 235.706042 
L 488.62811 232.817459 
L 489.19993 233.270051 
L 490.343569 232.637813 
L 492.059029 233.986737 
L 492.630848 233.671393 
L 493.202668 234.118305 
L 494.346307 233.489911 
L 497.205406 235.70386 
L 497.777226 235.390081 
L 498.349045 235.828986 
L 498.920865 235.515907 
L 500.064505 236.389709 
L 502.923603 234.835563 
L 504.067243 235.702823 
L 504.639062 235.394218 
L 505.210882 235.825892 
L 505.782702 235.517964 
L 506.354521 235.948288 
L 507.498161 235.334618 
L 509.21362 236.617567 
L 511.500899 235.39822 
L 512.072719 235.822898 
L 516.647276 233.421996 
L 517.219096 233.844213 
L 518.362735 233.251645 
L 518.934555 233.672406 
L 519.506375 233.377135 
L 520.078195 233.796615 
L 521.793654 232.914987 
L 522.937293 233.749644 
L 524.080933 233.1651 
L 525.796392 234.407922 
L 526.368211 234.116317 
L 526.940031 234.52827 
L 530.942769 232.507044 
L 532.086409 233.325543 
L 533.801868 232.469496 
L 534.373687 232.876695 
L 535.517327 232.309333 
L 537.232786 233.523761 
L 538.376425 232.95836 
L 539.520065 233.762229 
L 541.235524 232.918578 
L 541.807344 233.318536 
L 548.097361 230.27739 
L 548.66918 230.674666 
L 549.241 230.402165 
L 549.81282 230.798302 
L 550.384639 230.526322 
L 550.956459 230.921326 
L 556.102837 228.502077 
L 556.674656 228.894729 
L 560.105575 227.31032 
L 561.249214 228.090911 
L 561.821034 227.82877 
L 563.536493 228.992149 
L 564.108313 228.730185 
L 564.680132 229.115965 
L 565.251952 228.854481 
L 568.111051 230.768844 
L 569.82651 229.985957 
L 570.398329 230.365671 
L 575.544707 228.048834 
L 576.688346 228.803016 
L 581.834724 226.532007 
L 582.406543 226.906489 
L 582.978363 226.656931 
L 584.122003 227.403015 
L 584.693822 227.153747 
L 588.124741 229.370664 
L 589.8402 228.623804 
L 590.412019 228.989932 
L 590.983839 228.741979 
L 591.555659 229.107141 
L 592.127479 228.859617 
L 593.842938 229.949747 
L 595.558397 229.209348 
L 596.130217 229.570694 
L 596.702036 229.324876 
L 597.273856 229.68528 
L 597.845676 229.439885 
L 598.417495 229.799352 
L 601.276594 228.579949 
L 602.420233 229.295199 
L 602.992053 229.052692 
L 603.563873 229.408998 
L 607.566611 227.725524 
L 609.85389 229.13938 
L 610.425709 228.900496 
L 610.997529 229.251901 
L 612.141169 228.775453 
L 612.712988 229.125845 
L 613.284808 228.888277 
L 614.428447 229.58653 
L 615.572087 229.112456 
L 616.143907 229.460204 
L 616.715726 229.223817 
L 617.287546 229.570694 
L 617.859366 229.334698 
L 618.431185 229.680707 
L 619.574825 229.210002 
L 620.146645 229.555028 
L 620.718464 229.320317 
L 621.862104 230.007915 
L 625.293022 228.608749 
L 625.864842 228.950744 
L 627.008481 228.488085 
L 629.29576 229.847902 
L 633.870318 228.013022 
L 635.013957 228.686812 
L 635.585777 228.459384 
L 637.301236 229.464463 
L 638.444875 229.010355 
L 641.303974 230.670511 
L 645.306712 229.092047 
L 645.878532 229.42127 
L 647.593991 228.751384 
L 648.73763 229.407166 
L 649.88127 228.962424 
L 650.453089 229.289099 
L 651.596729 228.845951 
L 652.168549 229.171751 
L 653.884008 228.510072 
L 654.455827 228.834895 
L 657.314926 227.740441 
L 658.458565 228.387069 
L 659.030385 228.169285 
L 659.602205 228.491522 
L 660.174025 228.274069 
L 660.174025 228.274069 
" clip-path="url(#pf2d93beb93)" style="fill: none; stroke: #009afa; stroke-width: 3"/>
   </g>
   <g id="line2d_20">
    <path d="M -1 220.196024 
L 692.2 220.196024 
" clip-path="url(#pf2d93beb93)" style="fill: none; stroke: #e36f47; stroke-width: 2"/>
   </g>
   <g id="patch_3">
    <path d="M 71.788693 288.647244 
L 71.788693 2.952756 
" style="fill: none; stroke: #000000; stroke-linejoin: miter; stroke-linecap: square"/>
   </g>
   <g id="patch_4">
    <path d="M 71.788693 288.647244 
L 677.311461 288.647244 
" style="fill: none; stroke: #000000; stroke-linejoin: miter; stroke-linecap: square"/>
   </g>
   <g id="legend_1">
    <g id="patch_5">
     <path d="M 490.996461 75.522756 
L 669.311461 75.522756 
L 669.311461 10.952756 
L 490.996461 10.952756 
z
" style="fill: #ffffff; stroke: #000000; stroke-linejoin: miter"/>
    </g>
    <g id="line2d_21">
     <path d="M 503.796461 30.310256 
L 519.796461 30.310256 
L 535.796461 30.310256 
" style="fill: none; stroke: #009afa; stroke-width: 2; stroke-linejoin: miter"/>
    </g>
    <g id="text_12">
     <!-- MC trajectory -->
     <g transform="translate(548.596461 35.910256)scale(0.16 -0.16)">
      <defs>
       <path id="DejaVuSans-72" d="M 2631 2963 
Q 2534 3019 2420 3045 
Q 2306 3072 2169 3072 
Q 1681 3072 1420 2755 
Q 1159 2438 1159 1844 
L 1159 0 
L 581 0 
L 581 3500 
L 1159 3500 
L 1159 2956 
Q 1341 3275 1631 3429 
Q 1922 3584 2338 3584 
Q 2397 3584 2469 3576 
Q 2541 3569 2628 3553 
L 2631 2963 
z
" transform="scale(0.015625)"/>
       <path id="DejaVuSans-6a" d="M 603 3500 
L 1178 3500 
L 1178 -63 
Q 1178 -731 923 -1031 
Q 669 -1331 103 -1331 
L -116 -1331 
L -116 -844 
L 38 -844 
Q 366 -844 484 -692 
Q 603 -541 603 -63 
L 603 3500 
z
M 603 4863 
L 1178 4863 
L 1178 4134 
L 603 4134 
L 603 4863 
z
" transform="scale(0.015625)"/>
       <path id="DejaVuSans-63" d="M 3122 3366 
L 3122 2828 
Q 2878 2963 2633 3030 
Q 2388 3097 2138 3097 
Q 1578 3097 1268 2742 
Q 959 2388 959 1747 
Q 959 1106 1268 751 
Q 1578 397 2138 397 
Q 2388 397 2633 464 
Q 2878 531 3122 666 
L 3122 134 
Q 2881 22 2623 -34 
Q 2366 -91 2075 -91 
Q 1284 -91 818 406 
Q 353 903 353 1747 
Q 353 2603 823 3093 
Q 1294 3584 2113 3584 
Q 2378 3584 2631 3529 
Q 2884 3475 3122 3366 
z
" transform="scale(0.015625)"/>
       <path id="DejaVuSans-6f" d="M 1959 3097 
Q 1497 3097 1228 2736 
Q 959 2375 959 1747 
Q 959 1119 1226 758 
Q 1494 397 1959 397 
Q 2419 397 2687 759 
Q 2956 1122 2956 1747 
Q 2956 2369 2687 2733 
Q 2419 3097 1959 3097 
z
M 1959 3584 
Q 2709 3584 3137 3096 
Q 3566 2609 3566 1747 
Q 3566 888 3137 398 
Q 2709 -91 1959 -91 
Q 1206 -91 779 398 
Q 353 888 353 1747 
Q 353 2609 779 3096 
Q 1206 3584 1959 3584 
z
" transform="scale(0.015625)"/>
       <path id="DejaVuSans-79" d="M 2059 -325 
Q 1816 -950 1584 -1140 
Q 1353 -1331 966 -1331 
L 506 -1331 
L 506 -850 
L 844 -850 
Q 1081 -850 1212 -737 
Q 1344 -625 1503 -206 
L 1606 56 
L 191 3500 
L 800 3500 
L 1894 763 
L 2988 3500 
L 3597 3500 
L 2059 -325 
z
" transform="scale(0.015625)"/>
      </defs>
      <use xlink:href="#DejaVuSans-4d"/>
      <use xlink:href="#DejaVuSans-43" x="86.279297"/>
      <use xlink:href="#DejaVuSans-20" x="156.103516"/>
      <use xlink:href="#DejaVuSans-74" x="187.890625"/>
      <use xlink:href="#DejaVuSans-72" x="227.099609"/>
      <use xlink:href="#DejaVuSans-61" x="268.212891"/>
      <use xlink:href="#DejaVuSans-6a" x="329.492188"/>
      <use xlink:href="#DejaVuSans-65" x="357.275391"/>
      <use xlink:href="#DejaVuSans-63" x="418.798828"/>
      <use xlink:href="#DejaVuSans-74" x="473.779297"/>
      <use xlink:href="#DejaVuSans-6f" x="512.988281"/>
      <use xlink:href="#DejaVuSans-72" x="574.169922"/>
      <use xlink:href="#DejaVuSans-79" x="615.283203"/>
     </g>
    </g>
    <g id="line2d_22">
     <path d="M 503.796461 53.795256 
L 519.796461 53.795256 
L 535.796461 53.795256 
" style="fill: none; stroke: #e36f47; stroke-width: 2; stroke-linejoin: miter"/>
    </g>
    <g id="text_13">
     <!-- Analytical -->
     <g transform="translate(548.596461 59.395256)scale(0.16 -0.16)">
      <defs>
       <path id="DejaVuSans-41" d="M 2188 4044 
L 1331 1722 
L 3047 1722 
L 2188 4044 
z
M 1831 4666 
L 2547 4666 
L 4325 0 
L 3669 0 
L 3244 1197 
L 1141 1197 
L 716 0 
L 50 0 
L 1831 4666 
z
" transform="scale(0.015625)"/>
       <path id="DejaVuSans-6e" d="M 3513 2113 
L 3513 0 
L 2938 0 
L 2938 2094 
Q 2938 2591 2744 2837 
Q 2550 3084 2163 3084 
Q 1697 3084 1428 2787 
Q 1159 2491 1159 1978 
L 1159 0 
L 581 0 
L 581 3500 
L 1159 3500 
L 1159 2956 
Q 1366 3272 1645 3428 
Q 1925 3584 2291 3584 
Q 2894 3584 3203 3211 
Q 3513 2838 3513 2113 
z
" transform="scale(0.015625)"/>
       <path id="DejaVuSans-69" d="M 603 3500 
L 1178 3500 
L 1178 0 
L 603 0 
L 603 3500 
z
M 603 4863 
L 1178 4863 
L 1178 4134 
L 603 4134 
L 603 4863 
z
" transform="scale(0.015625)"/>
      </defs>
      <use xlink:href="#DejaVuSans-41"/>
      <use xlink:href="#DejaVuSans-6e" x="68.408203"/>
      <use xlink:href="#DejaVuSans-61" x="131.787109"/>
      <use xlink:href="#DejaVuSans-6c" x="193.066406"/>
      <use xlink:href="#DejaVuSans-79" x="220.849609"/>
      <use xlink:href="#DejaVuSans-74" x="280.029297"/>
      <use xlink:href="#DejaVuSans-69" x="319.238281"/>
      <use xlink:href="#DejaVuSans-63" x="347.021484"/>
      <use xlink:href="#DejaVuSans-61" x="402.001953"/>
      <use xlink:href="#DejaVuSans-6c" x="463.28125"/>
     </g>
    </g>
   </g>
  </g>
 </g>
 <defs>
  <clipPath id="pf2d93beb93">
   <rect x="71.788693" y="2.952756" width="605.522768" height="285.694488"/>
  </clipPath>
 </defs>
</svg>
