<?xml version="1.0" encoding="utf-8" standalone="no"?>
<!DOCTYPE svg PUBLIC "-//W3C//DTD SVG 1.1//EN"
  "http://www.w3.org/Graphics/SVG/1.1/DTD/svg11.dtd">
<svg xmlns:xlink="http://www.w3.org/1999/xlink" width="691.2pt" height="345.6pt" viewBox="0 0 691.2 345.6" xmlns="http://www.w3.org/2000/svg" version="1.1">
 <metadata>
  <rdf:RDF xmlns:dc="http://purl.org/dc/elements/1.1/" xmlns:cc="http://creativecommons.org/ns#" xmlns:rdf="http://www.w3.org/1999/02/22-rdf-syntax-ns#">
   <cc:Work>
    <dc:type rdf:resource="http://purl.org/dc/dcmitype/StillImage"/>
    <dc:date>2022-09-06T13:55:06.775250</dc:date>
    <dc:format>image/svg+xml</dc:format>
    <dc:creator>
     <cc:Agent>
      <dc:title>Matplotlib v3.5.2, https://matplotlib.org/</dc:title>
     </cc:Agent>
    </dc:creator>
   </cc:Work>
  </rdf:RDF>
 </metadata>
 <defs>
  <style type="text/css">*{stroke-linejoin: round; stroke-linecap: butt}</style>
 </defs>
 <g id="figure_1">
  <g id="patch_1">
   <path d="M 0 345.6 
L 691.2 345.6 
L 691.2 0 
L 0 0 
z
" style="fill: #ffffff"/>
  </g>
  <g id="axes_1">
   <g id="patch_2">
    <path d="M 71.788693 288.647244 
L 677.311461 288.647244 
L 677.311461 2.952756 
L 71.788693 2.952756 
z
" style="fill: #ffffff"/>
   </g>
   <g id="matplotlib.axis_1">
    <g id="xtick_1">
     <g id="line2d_1">
      <path d="M 88.354311 288.647244 
L 88.354311 2.952756 
" clip-path="url(#peb728aea8e)" style="fill: none; stroke: #000000; stroke-opacity: 0.1; stroke-width: 0.5; stroke-linecap: square"/>
     </g>
     <g id="line2d_2">
      <defs>
       <path id="mde2eed08ef" d="M 0 0 
L 0 -2.5 
" style="stroke: #000000; stroke-width: 0.5"/>
      </defs>
      <g>
       <use xlink:href="#mde2eed08ef" x="88.354311" y="288.647244" style="stroke: #000000; stroke-width: 0.5"/>
      </g>
     </g>
     <g id="text_1">
      <!-- $0$ -->
      <g transform="translate(80.674311 310.383494)scale(0.24 -0.24)">
       <defs>
        <path id="DejaVuSans-30" d="M 2034 4250 
Q 1547 4250 1301 3770 
Q 1056 3291 1056 2328 
Q 1056 1369 1301 889 
Q 1547 409 2034 409 
Q 2525 409 2770 889 
Q 3016 1369 3016 2328 
Q 3016 3291 2770 3770 
Q 2525 4250 2034 4250 
z
M 2034 4750 
Q 2819 4750 3233 4129 
Q 3647 3509 3647 2328 
Q 3647 1150 3233 529 
Q 2819 -91 2034 -91 
Q 1250 -91 836 529 
Q 422 1150 422 2328 
Q 422 3509 836 4129 
Q 1250 4750 2034 4750 
z
" transform="scale(0.015625)"/>
       </defs>
       <use xlink:href="#DejaVuSans-30" transform="translate(0 0.78125)"/>
      </g>
     </g>
    </g>
    <g id="xtick_2">
     <g id="line2d_3">
      <path d="M 231.309239 288.647244 
L 231.309239 2.952756 
" clip-path="url(#peb728aea8e)" style="fill: none; stroke: #000000; stroke-opacity: 0.1; stroke-width: 0.5; stroke-linecap: square"/>
     </g>
     <g id="line2d_4">
      <g>
       <use xlink:href="#mde2eed08ef" x="231.309239" y="288.647244" style="stroke: #000000; stroke-width: 0.5"/>
      </g>
     </g>
     <g id="text_2">
      <!-- $250$ -->
      <g transform="translate(208.389239 310.383494)scale(0.24 -0.24)">
       <defs>
        <path id="DejaVuSans-32" d="M 1228 531 
L 3431 531 
L 3431 0 
L 469 0 
L 469 531 
Q 828 903 1448 1529 
Q 2069 2156 2228 2338 
Q 2531 2678 2651 2914 
Q 2772 3150 2772 3378 
Q 2772 3750 2511 3984 
Q 2250 4219 1831 4219 
Q 1534 4219 1204 4116 
Q 875 4013 500 3803 
L 500 4441 
Q 881 4594 1212 4672 
Q 1544 4750 1819 4750 
Q 2544 4750 2975 4387 
Q 3406 4025 3406 3419 
Q 3406 3131 3298 2873 
Q 3191 2616 2906 2266 
Q 2828 2175 2409 1742 
Q 1991 1309 1228 531 
z
" transform="scale(0.015625)"/>
        <path id="DejaVuSans-35" d="M 691 4666 
L 3169 4666 
L 3169 4134 
L 1269 4134 
L 1269 2991 
Q 1406 3038 1543 3061 
Q 1681 3084 1819 3084 
Q 2600 3084 3056 2656 
Q 3513 2228 3513 1497 
Q 3513 744 3044 326 
Q 2575 -91 1722 -91 
Q 1428 -91 1123 -41 
Q 819 9 494 109 
L 494 744 
Q 775 591 1075 516 
Q 1375 441 1709 441 
Q 2250 441 2565 725 
Q 2881 1009 2881 1497 
Q 2881 1984 2565 2268 
Q 2250 2553 1709 2553 
Q 1456 2553 1204 2497 
Q 953 2441 691 2322 
L 691 4666 
z
" transform="scale(0.015625)"/>
       </defs>
       <use xlink:href="#DejaVuSans-32" transform="translate(0 0.78125)"/>
       <use xlink:href="#DejaVuSans-35" transform="translate(63.623047 0.78125)"/>
       <use xlink:href="#DejaVuSans-30" transform="translate(127.246094 0.78125)"/>
      </g>
     </g>
    </g>
    <g id="xtick_3">
     <g id="line2d_5">
      <path d="M 374.264168 288.647244 
L 374.264168 2.952756 
" clip-path="url(#peb728aea8e)" style="fill: none; stroke: #000000; stroke-opacity: 0.1; stroke-width: 0.5; stroke-linecap: square"/>
     </g>
     <g id="line2d_6">
      <g>
       <use xlink:href="#mde2eed08ef" x="374.264168" y="288.647244" style="stroke: #000000; stroke-width: 0.5"/>
      </g>
     </g>
     <g id="text_3">
      <!-- $500$ -->
      <g transform="translate(351.344168 310.383494)scale(0.24 -0.24)">
       <use xlink:href="#DejaVuSans-35" transform="translate(0 0.78125)"/>
       <use xlink:href="#DejaVuSans-30" transform="translate(63.623047 0.78125)"/>
       <use xlink:href="#DejaVuSans-30" transform="translate(127.246094 0.78125)"/>
      </g>
     </g>
    </g>
    <g id="xtick_4">
     <g id="line2d_7">
      <path d="M 517.219096 288.647244 
L 517.219096 2.952756 
" clip-path="url(#peb728aea8e)" style="fill: none; stroke: #000000; stroke-opacity: 0.1; stroke-width: 0.5; stroke-linecap: square"/>
     </g>
     <g id="line2d_8">
      <g>
       <use xlink:href="#mde2eed08ef" x="517.219096" y="288.647244" style="stroke: #000000; stroke-width: 0.5"/>
      </g>
     </g>
     <g id="text_4">
      <!-- $750$ -->
      <g transform="translate(494.299096 310.383494)scale(0.24 -0.24)">
       <defs>
        <path id="DejaVuSans-37" d="M 525 4666 
L 3525 4666 
L 3525 4397 
L 1831 0 
L 1172 0 
L 2766 4134 
L 525 4134 
L 525 4666 
z
" transform="scale(0.015625)"/>
       </defs>
       <use xlink:href="#DejaVuSans-37" transform="translate(0 0.78125)"/>
       <use xlink:href="#DejaVuSans-35" transform="translate(63.623047 0.78125)"/>
       <use xlink:href="#DejaVuSans-30" transform="translate(127.246094 0.78125)"/>
      </g>
     </g>
    </g>
    <g id="xtick_5">
     <g id="line2d_9">
      <path d="M 660.174025 288.647244 
L 660.174025 2.952756 
" clip-path="url(#peb728aea8e)" style="fill: none; stroke: #000000; stroke-opacity: 0.1; stroke-width: 0.5; stroke-linecap: square"/>
     </g>
     <g id="line2d_10">
      <g>
       <use xlink:href="#mde2eed08ef" x="660.174025" y="288.647244" style="stroke: #000000; stroke-width: 0.5"/>
      </g>
     </g>
     <g id="text_5">
      <!-- $1000$ -->
      <g transform="translate(629.574025 310.383494)scale(0.24 -0.24)">
       <defs>
        <path id="DejaVuSans-31" d="M 794 531 
L 1825 531 
L 1825 4091 
L 703 3866 
L 703 4441 
L 1819 4666 
L 2450 4666 
L 2450 531 
L 3481 531 
L 3481 0 
L 794 0 
L 794 531 
z
" transform="scale(0.015625)"/>
       </defs>
       <use xlink:href="#DejaVuSans-31" transform="translate(0 0.78125)"/>
       <use xlink:href="#DejaVuSans-30" transform="translate(63.623047 0.78125)"/>
       <use xlink:href="#DejaVuSans-30" transform="translate(127.246094 0.78125)"/>
       <use xlink:href="#DejaVuSans-30" transform="translate(190.869141 0.78125)"/>
      </g>
     </g>
    </g>
    <g id="text_6">
     <!-- MC steps -->
     <g transform="translate(319.794452 337.610994)scale(0.24 -0.24)">
      <defs>
       <path id="DejaVuSans-4d" d="M 628 4666 
L 1569 4666 
L 2759 1491 
L 3956 4666 
L 4897 4666 
L 4897 0 
L 4281 0 
L 4281 4097 
L 3078 897 
L 2444 897 
L 1241 4097 
L 1241 0 
L 628 0 
L 628 4666 
z
" transform="scale(0.015625)"/>
       <path id="DejaVuSans-43" d="M 4122 4306 
L 4122 3641 
Q 3803 3938 3442 4084 
Q 3081 4231 2675 4231 
Q 1875 4231 1450 3742 
Q 1025 3253 1025 2328 
Q 1025 1406 1450 917 
Q 1875 428 2675 428 
Q 3081 428 3442 575 
Q 3803 722 4122 1019 
L 4122 359 
Q 3791 134 3420 21 
Q 3050 -91 2638 -91 
Q 1578 -91 968 557 
Q 359 1206 359 2328 
Q 359 3453 968 4101 
Q 1578 4750 2638 4750 
Q 3056 4750 3426 4639 
Q 3797 4528 4122 4306 
z
" transform="scale(0.015625)"/>
       <path id="DejaVuSans-20" transform="scale(0.015625)"/>
       <path id="DejaVuSans-73" d="M 2834 3397 
L 2834 2853 
Q 2591 2978 2328 3040 
Q 2066 3103 1784 3103 
Q 1356 3103 1142 2972 
Q 928 2841 928 2578 
Q 928 2378 1081 2264 
Q 1234 2150 1697 2047 
L 1894 2003 
Q 2506 1872 2764 1633 
Q 3022 1394 3022 966 
Q 3022 478 2636 193 
Q 2250 -91 1575 -91 
Q 1294 -91 989 -36 
Q 684 19 347 128 
L 347 722 
Q 666 556 975 473 
Q 1284 391 1588 391 
Q 1994 391 2212 530 
Q 2431 669 2431 922 
Q 2431 1156 2273 1281 
Q 2116 1406 1581 1522 
L 1381 1569 
Q 847 1681 609 1914 
Q 372 2147 372 2553 
Q 372 3047 722 3315 
Q 1072 3584 1716 3584 
Q 2034 3584 2315 3537 
Q 2597 3491 2834 3397 
z
" transform="scale(0.015625)"/>
       <path id="DejaVuSans-74" d="M 1172 4494 
L 1172 3500 
L 2356 3500 
L 2356 3053 
L 1172 3053 
L 1172 1153 
Q 1172 725 1289 603 
Q 1406 481 1766 481 
L 2356 481 
L 2356 0 
L 1766 0 
Q 1100 0 847 248 
Q 594 497 594 1153 
L 594 3053 
L 172 3053 
L 172 3500 
L 594 3500 
L 594 4494 
L 1172 4494 
z
" transform="scale(0.015625)"/>
       <path id="DejaVuSans-65" d="M 3597 1894 
L 3597 1613 
L 953 1613 
Q 991 1019 1311 708 
Q 1631 397 2203 397 
Q 2534 397 2845 478 
Q 3156 559 3463 722 
L 3463 178 
Q 3153 47 2828 -22 
Q 2503 -91 2169 -91 
Q 1331 -91 842 396 
Q 353 884 353 1716 
Q 353 2575 817 3079 
Q 1281 3584 2069 3584 
Q 2775 3584 3186 3129 
Q 3597 2675 3597 1894 
z
M 3022 2063 
Q 3016 2534 2758 2815 
Q 2500 3097 2075 3097 
Q 1594 3097 1305 2825 
Q 1016 2553 972 2059 
L 3022 2063 
z
" transform="scale(0.015625)"/>
       <path id="DejaVuSans-70" d="M 1159 525 
L 1159 -1331 
L 581 -1331 
L 581 3500 
L 1159 3500 
L 1159 2969 
Q 1341 3281 1617 3432 
Q 1894 3584 2278 3584 
Q 2916 3584 3314 3078 
Q 3713 2572 3713 1747 
Q 3713 922 3314 415 
Q 2916 -91 2278 -91 
Q 1894 -91 1617 61 
Q 1341 213 1159 525 
z
M 3116 1747 
Q 3116 2381 2855 2742 
Q 2594 3103 2138 3103 
Q 1681 3103 1420 2742 
Q 1159 2381 1159 1747 
Q 1159 1113 1420 752 
Q 1681 391 2138 391 
Q 2594 391 2855 752 
Q 3116 1113 3116 1747 
z
" transform="scale(0.015625)"/>
      </defs>
      <use xlink:href="#DejaVuSans-4d"/>
      <use xlink:href="#DejaVuSans-43" x="86.279297"/>
      <use xlink:href="#DejaVuSans-20" x="156.103516"/>
      <use xlink:href="#DejaVuSans-73" x="187.890625"/>
      <use xlink:href="#DejaVuSans-74" x="239.990234"/>
      <use xlink:href="#DejaVuSans-65" x="279.199219"/>
      <use xlink:href="#DejaVuSans-70" x="340.722656"/>
      <use xlink:href="#DejaVuSans-73" x="404.199219"/>
     </g>
    </g>
   </g>
   <g id="matplotlib.axis_2">
    <g id="ytick_1">
     <g id="line2d_11">
      <path d="M 71.788693 250.860829 
L 677.311461 250.860829 
" clip-path="url(#peb728aea8e)" style="fill: none; stroke: #000000; stroke-opacity: 0.1; stroke-width: 0.5; stroke-linecap: square"/>
     </g>
     <g id="line2d_12">
      <defs>
       <path id="md8c1550271" d="M 0 0 
L 2.5 0 
" style="stroke: #000000; stroke-width: 0.5"/>
      </defs>
      <g>
       <use xlink:href="#md8c1550271" x="71.788693" y="250.860829" style="stroke: #000000; stroke-width: 0.5"/>
      </g>
     </g>
     <g id="text_7">
      <!-- $2.5$ -->
      <g transform="translate(29.888693 259.978954)scale(0.24 -0.24)">
       <defs>
        <path id="DejaVuSans-2e" d="M 684 794 
L 1344 794 
L 1344 0 
L 684 0 
L 684 794 
z
" transform="scale(0.015625)"/>
       </defs>
       <use xlink:href="#DejaVuSans-32" transform="translate(0 0.78125)"/>
       <use xlink:href="#DejaVuSans-2e" transform="translate(63.623047 0.78125)"/>
       <use xlink:href="#DejaVuSans-35" transform="translate(95.410156 0.78125)"/>
      </g>
     </g>
    </g>
    <g id="ytick_2">
     <g id="line2d_13">
      <path d="M 71.788693 178.576537 
L 677.311461 178.576537 
" clip-path="url(#peb728aea8e)" style="fill: none; stroke: #000000; stroke-opacity: 0.1; stroke-width: 0.5; stroke-linecap: square"/>
     </g>
     <g id="line2d_14">
      <g>
       <use xlink:href="#md8c1550271" x="71.788693" y="178.576537" style="stroke: #000000; stroke-width: 0.5"/>
      </g>
     </g>
     <g id="text_8">
      <!-- $3.0$ -->
      <g transform="translate(29.888693 187.694662)scale(0.24 -0.24)">
       <defs>
        <path id="DejaVuSans-33" d="M 2597 2516 
Q 3050 2419 3304 2112 
Q 3559 1806 3559 1356 
Q 3559 666 3084 287 
Q 2609 -91 1734 -91 
Q 1441 -91 1130 -33 
Q 819 25 488 141 
L 488 750 
Q 750 597 1062 519 
Q 1375 441 1716 441 
Q 2309 441 2620 675 
Q 2931 909 2931 1356 
Q 2931 1769 2642 2001 
Q 2353 2234 1838 2234 
L 1294 2234 
L 1294 2753 
L 1863 2753 
Q 2328 2753 2575 2939 
Q 2822 3125 2822 3475 
Q 2822 3834 2567 4026 
Q 2313 4219 1838 4219 
Q 1578 4219 1281 4162 
Q 984 4106 628 3988 
L 628 4550 
Q 988 4650 1302 4700 
Q 1616 4750 1894 4750 
Q 2613 4750 3031 4423 
Q 3450 4097 3450 3541 
Q 3450 3153 3228 2886 
Q 3006 2619 2597 2516 
z
" transform="scale(0.015625)"/>
       </defs>
       <use xlink:href="#DejaVuSans-33" transform="translate(0 0.78125)"/>
       <use xlink:href="#DejaVuSans-2e" transform="translate(63.623047 0.78125)"/>
       <use xlink:href="#DejaVuSans-30" transform="translate(95.410156 0.78125)"/>
      </g>
     </g>
    </g>
    <g id="ytick_3">
     <g id="line2d_15">
      <path d="M 71.788693 106.292244 
L 677.311461 106.292244 
" clip-path="url(#peb728aea8e)" style="fill: none; stroke: #000000; stroke-opacity: 0.1; stroke-width: 0.5; stroke-linecap: square"/>
     </g>
     <g id="line2d_16">
      <g>
       <use xlink:href="#md8c1550271" x="71.788693" y="106.292244" style="stroke: #000000; stroke-width: 0.5"/>
      </g>
     </g>
     <g id="text_9">
      <!-- $3.5$ -->
      <g transform="translate(29.888693 115.410369)scale(0.24 -0.24)">
       <use xlink:href="#DejaVuSans-33" transform="translate(0 0.78125)"/>
       <use xlink:href="#DejaVuSans-2e" transform="translate(63.623047 0.78125)"/>
       <use xlink:href="#DejaVuSans-35" transform="translate(95.410156 0.78125)"/>
      </g>
     </g>
    </g>
    <g id="ytick_4">
     <g id="line2d_17">
      <path d="M 71.788693 34.007952 
L 677.311461 34.007952 
" clip-path="url(#peb728aea8e)" style="fill: none; stroke: #000000; stroke-opacity: 0.1; stroke-width: 0.5; stroke-linecap: square"/>
     </g>
     <g id="line2d_18">
      <g>
       <use xlink:href="#md8c1550271" x="71.788693" y="34.007952" style="stroke: #000000; stroke-width: 0.5"/>
      </g>
     </g>
     <g id="text_10">
      <!-- $4.0$ -->
      <g transform="translate(29.888693 43.126077)scale(0.24 -0.24)">
       <defs>
        <path id="DejaVuSans-34" d="M 2419 4116 
L 825 1625 
L 2419 1625 
L 2419 4116 
z
M 2253 4666 
L 3047 4666 
L 3047 1625 
L 3713 1625 
L 3713 1100 
L 3047 1100 
L 3047 0 
L 2419 0 
L 2419 1100 
L 313 1100 
L 313 1709 
L 2253 4666 
z
" transform="scale(0.015625)"/>
       </defs>
       <use xlink:href="#DejaVuSans-34" transform="translate(0 0.78125)"/>
       <use xlink:href="#DejaVuSans-2e" transform="translate(63.623047 0.78125)"/>
       <use xlink:href="#DejaVuSans-30" transform="translate(95.410156 0.78125)"/>
      </g>
     </g>
    </g>
    <g id="text_11">
     <!-- MC value -->
     <g transform="translate(20.897443 201.125625)rotate(-90)scale(0.24 -0.24)">
      <defs>
       <path id="DejaVuSans-76" d="M 191 3500 
L 800 3500 
L 1894 563 
L 2988 3500 
L 3597 3500 
L 2284 0 
L 1503 0 
L 191 3500 
z
" transform="scale(0.015625)"/>
       <path id="DejaVuSans-61" d="M 2194 1759 
Q 1497 1759 1228 1600 
Q 959 1441 959 1056 
Q 959 750 1161 570 
Q 1363 391 1709 391 
Q 2188 391 2477 730 
Q 2766 1069 2766 1631 
L 2766 1759 
L 2194 1759 
z
M 3341 1997 
L 3341 0 
L 2766 0 
L 2766 531 
Q 2569 213 2275 61 
Q 1981 -91 1556 -91 
Q 1019 -91 701 211 
Q 384 513 384 1019 
Q 384 1609 779 1909 
Q 1175 2209 1959 2209 
L 2766 2209 
L 2766 2266 
Q 2766 2663 2505 2880 
Q 2244 3097 1772 3097 
Q 1472 3097 1187 3025 
Q 903 2953 641 2809 
L 641 3341 
Q 956 3463 1253 3523 
Q 1550 3584 1831 3584 
Q 2591 3584 2966 3190 
Q 3341 2797 3341 1997 
z
" transform="scale(0.015625)"/>
       <path id="DejaVuSans-6c" d="M 603 4863 
L 1178 4863 
L 1178 0 
L 603 0 
L 603 4863 
z
" transform="scale(0.015625)"/>
       <path id="DejaVuSans-75" d="M 544 1381 
L 544 3500 
L 1119 3500 
L 1119 1403 
Q 1119 906 1312 657 
Q 1506 409 1894 409 
Q 2359 409 2629 706 
Q 2900 1003 2900 1516 
L 2900 3500 
L 3475 3500 
L 3475 0 
L 2900 0 
L 2900 538 
Q 2691 219 2414 64 
Q 2138 -91 1772 -91 
Q 1169 -91 856 284 
Q 544 659 544 1381 
z
M 1991 3584 
L 1991 3584 
z
" transform="scale(0.015625)"/>
      </defs>
      <use xlink:href="#DejaVuSans-4d"/>
      <use xlink:href="#DejaVuSans-43" x="86.279297"/>
      <use xlink:href="#DejaVuSans-20" x="156.103516"/>
      <use xlink:href="#DejaVuSans-76" x="187.890625"/>
      <use xlink:href="#DejaVuSans-61" x="247.070312"/>
      <use xlink:href="#DejaVuSans-6c" x="308.349609"/>
      <use xlink:href="#DejaVuSans-75" x="336.132812"/>
      <use xlink:href="#DejaVuSans-65" x="399.511719"/>
     </g>
    </g>
   </g>
   <g id="line2d_19">
    <path d="M 88.92613 11.038449 
L 89.49795 11.038449 
L 90.06977 211.453063 
L 90.641589 161.34941 
L 91.213409 131.287218 
L 91.785229 111.245756 
L 92.357049 96.930427 
L 92.928868 86.193929 
L 93.500688 77.84332 
L 94.644327 175.014043 
L 95.216147 161.34941 
L 95.787967 196.036555 
L 96.359787 182.822404 
L 96.931606 211.453063 
L 97.503426 198.92715 
L 98.075246 223.242158 
L 99.218885 200.904926 
L 99.790705 191.411602 
L 100.362525 211.453063 
L 101.506164 194.025706 
L 102.649803 179.386725 
L 103.793443 211.453063 
L 104.937082 197.631366 
L 105.508902 211.453063 
L 107.224361 193.233553 
L 108.368001 217.179195 
L 108.93982 211.453063 
L 109.51164 222.286286 
L 110.655279 211.453063 
L 111.227099 221.473794 
L 112.370739 211.453063 
L 114.086198 238.175012 
L 115.801657 261.556717 
L 116.945296 251.535986 
L 117.517116 258.609443 
L 118.660755 249.267142 
L 119.804395 262.467692 
L 120.376215 257.977885 
L 120.948034 264.193751 
L 121.519854 259.829005 
L 122.091674 265.802789 
L 123.235313 257.44986 
L 124.378953 268.714382 
L 124.950772 264.688195 
L 126.666231 280.25211 
L 128.95351 265.085143 
L 129.52533 261.556717 
L 130.09715 266.361177 
L 131.240789 259.552571 
L 132.956248 273.119099 
L 134.099888 266.567082 
L 134.671707 270.835171 
L 135.815347 264.575009 
L 138.102626 280.561551 
L 140.389904 268.714382 
L 142.677183 257.864869 
L 143.249003 255.29376 
L 143.820823 258.974054 
L 145.536282 251.535986 
L 146.679921 258.609443 
L 147.251741 256.205841 
L 147.823561 259.629653 
L 149.53902 252.659806 
L 150.11084 255.989644 
L 151.254479 251.535986 
L 151.826299 254.785953 
L 152.969938 250.471838 
L 153.541758 253.645614 
L 154.113578 251.535986 
L 154.685397 254.645868 
L 155.257217 252.563753 
L 155.829037 255.612216 
L 158.688135 245.670193 
L 161.547234 236.50489 
L 162.119054 239.417893 
L 162.690873 237.661128 
L 163.262693 240.520832 
L 164.978152 235.383167 
L 166.121792 240.925801 
L 167.837251 235.964203 
L 168.40907 238.65219 
L 170.12453 233.877076 
L 170.696349 236.50489 
L 171.839989 233.416309 
L 172.411808 235.993628 
L 172.983628 234.473661 
L 174.127268 239.511109 
L 177.558186 230.723699 
L 178.130006 229.32443 
L 178.701825 231.748214 
L 179.273645 230.360102 
L 180.417284 235.104477 
L 181.560924 232.355201 
L 182.132744 234.67183 
L 182.704563 233.316476 
L 183.848203 237.854989 
L 187.279121 229.988519 
L 188.42276 234.357591 
L 188.99458 233.088732 
L 189.5664 235.231068 
L 190.710039 232.726123 
L 191.281859 234.834768 
L 194.712777 227.615532 
L 197.000056 235.71378 
L 197.571876 234.537469 
L 198.143696 236.50489 
L 202.146434 228.57391 
L 202.718253 227.486232 
L 203.290073 229.400641 
L 203.861893 228.31964 
L 204.433712 230.211081 
L 207.864631 223.919044 
L 209.00827 227.600212 
L 209.58009 226.578695 
L 210.15191 228.38951 
L 211.867369 225.370745 
L 212.439188 227.153747 
L 213.011008 226.162393 
L 213.582828 227.925497 
L 216.441926 223.084269 
L 217.013746 224.814038 
L 217.585566 223.868128 
L 218.157386 225.579204 
L 219.301025 223.705485 
L 219.872845 225.39495 
L 221.588304 222.634995 
L 223.875583 229.21132 
L 226.734681 224.703616 
L 227.306501 226.29859 
L 227.878321 225.416377 
L 229.02196 228.561628 
L 230.1656 226.807409 
L 230.737419 228.355501 
L 231.309239 227.486232 
L 232.452878 230.540169 
L 233.596518 228.811809 
L 234.740157 231.807673 
L 235.311977 230.948648 
L 236.455616 233.89331 
L 237.599256 232.18561 
L 238.171076 233.63636 
L 239.314715 231.950013 
L 239.886535 233.385229 
L 240.458354 232.549339 
L 241.601994 235.383167 
L 243.889273 232.08398 
L 244.461092 233.476647 
L 245.032912 232.664829 
L 245.604732 234.045256 
L 246.176552 233.237261 
L 246.748371 234.605654 
L 249.60747 230.641697 
L 250.17929 231.99025 
L 251.322929 230.439711 
L 252.466568 233.100635 
L 253.038388 232.329586 
L 253.610208 233.644301 
L 255.325667 231.357254 
L 258.184766 237.770134 
L 258.756585 237.009289 
L 259.328405 238.264383 
L 261.043864 236.007172 
L 261.615684 237.249004 
L 262.759323 235.765656 
L 263.902963 238.218533 
L 265.046602 236.748112 
L 266.190242 239.163123 
L 267.905701 236.983587 
L 269.04934 239.358896 
L 273.623898 233.721354 
L 274.195718 234.886157 
L 275.339357 233.517058 
L 275.911177 234.67183 
L 276.482996 233.992093 
L 277.054816 235.138427 
L 278.770275 233.119508 
L 279.913915 235.383167 
L 280.485734 234.715474 
L 281.629374 236.949597 
L 282.773013 235.620708 
L 283.344833 236.725287 
L 283.916653 236.065384 
L 284.488472 237.162227 
L 285.060292 236.50489 
L 287.347571 240.824171 
L 287.919391 240.165759 
L 288.49121 241.228949 
L 289.63485 239.921048 
L 290.20667 240.975896 
L 290.778489 240.326355 
L 291.350309 241.374118 
L 291.922129 240.727108 
L 292.493948 241.767879 
L 297.640326 236.094204 
L 298.212146 237.11924 
L 298.783965 236.50489 
L 299.355785 237.523257 
L 299.927605 236.911136 
L 301.643064 239.930207 
L 302.786703 238.709451 
L 303.358523 239.702996 
L 304.502162 238.49313 
L 305.645802 240.460442 
L 306.789441 239.259279 
L 307.361261 240.23323 
L 311.935819 235.543823 
L 312.507638 236.50489 
L 315.366737 233.665262 
L 316.510376 235.563092 
L 318.225836 233.887535 
L 318.797655 234.82648 
L 319.369475 234.272549 
L 319.941295 235.205907 
L 323.372213 231.933389 
L 324.515852 233.775272 
L 325.659492 232.701842 
L 326.231312 233.614295 
L 327.374951 232.549339 
L 327.946771 233.455622 
L 328.51859 232.926058 
L 329.09041 233.827141 
L 329.66223 233.299206 
L 330.23405 234.195147 
L 330.805869 233.668834 
L 331.377689 234.559689 
L 331.949509 234.034992 
L 332.521328 234.920817 
L 336.524066 231.309811 
L 337.095886 232.18561 
L 338.811345 230.670903 
L 339.383165 231.540177 
L 340.526804 230.540169 
L 341.098624 231.403839 
L 343.957723 228.938902 
L 344.529542 229.794579 
L 345.101362 229.307372 
L 347.388641 232.689049 
L 347.960461 232.200832 
L 349.1041 233.867856 
L 349.67592 233.380264 
L 350.24774 234.207561 
L 351.391379 233.237261 
L 351.963199 234.059484 
L 352.535018 233.576755 
L 353.106838 234.394693 
L 353.678658 233.913322 
L 354.822297 235.537223 
L 358.253216 232.683425 
L 358.825035 233.48596 
L 362.827773 230.241933 
L 363.971413 231.827163 
L 364.543232 231.370044 
L 365.115052 232.157052 
L 365.686872 231.701138 
L 366.258692 232.484227 
L 366.830511 232.029512 
L 367.402331 232.808719 
L 368.54597 231.903534 
L 369.11779 232.678236 
L 370.833249 231.332246 
L 371.405069 232.101842 
L 373.120528 230.770135 
L 373.692348 231.534688 
L 374.835987 230.654464 
L 375.979627 232.17187 
L 376.551446 231.733114 
L 377.123266 232.486676 
L 378.266906 231.613113 
L 378.838725 232.362462 
L 380.554184 231.063104 
L 382.269644 233.288119 
L 383.413283 232.426686 
L 384.556922 233.89331 
L 385.700562 233.036176 
L 386.844201 234.489226 
L 387.416021 234.061978 
L 388.55966 235.502817 
L 389.13148 235.076079 
L 389.7033 235.79184 
L 390.27512 235.366171 
L 391.418759 236.788496 
L 391.990579 236.363354 
L 393.134218 237.773932 
L 394.277858 236.926323 
L 394.849677 237.626614 
L 395.421497 237.204662 
L 395.993317 237.901832 
L 400.567874 234.577827 
L 401.139694 235.268328 
L 405.142432 232.435099 
L 406.286072 233.801456 
L 406.857891 233.401522 
L 407.429711 234.08052 
L 412.004269 230.927982 
L 412.576088 231.600564 
L 413.147908 231.212251 
L 413.719728 231.88197 
L 414.291548 231.494525 
L 416.007007 233.488178 
L 417.722466 232.329586 
L 418.294286 232.988083 
L 419.437925 232.221417 
L 420.009745 232.876695 
L 424.012483 230.231264 
L 424.584302 230.881011 
L 425.727942 230.135782 
L 426.871581 231.426817 
L 430.874319 228.851327 
L 431.446139 229.490379 
L 433.733418 228.043677 
L 434.305238 228.678782 
L 435.448877 227.961681 
L 440.023435 232.960973 
L 440.595254 232.600709 
L 441.167074 233.216077 
L 442.882533 232.141024 
L 443.454353 232.753167 
L 446.313451 230.982283 
L 446.885271 231.590417 
L 447.457091 231.23922 
L 448.028911 231.845011 
L 448.60073 231.494525 
L 449.17255 232.097992 
L 449.74437 231.748214 
L 450.316189 232.349374 
L 451.459829 231.652332 
L 452.031649 232.250806 
L 453.747108 231.212251 
L 454.890747 232.401237 
L 455.462567 232.056435 
L 456.034387 232.647766 
L 458.321665 231.277693 
L 458.893485 231.865663 
L 459.465305 231.525405 
L 460.037125 232.111185 
L 461.180764 231.433048 
L 462.324403 232.597724 
L 463.468043 231.922239 
L 464.039863 232.501174 
L 464.611682 232.164604 
L 465.755322 233.316476 
L 466.898961 232.644941 
L 467.470781 233.217546 
L 468.042601 232.882939 
L 468.61442 233.453465 
L 469.75806 232.786553 
L 470.329879 233.35466 
L 471.473519 232.69103 
L 472.617158 233.820766 
L 473.760798 233.159691 
L 474.904437 234.281355 
L 475.476257 233.951602 
L 476.619896 235.065978 
L 477.763536 234.408041 
L 478.335355 234.962109 
L 479.478995 234.307361 
L 480.050815 234.85915 
L 481.766274 233.883187 
L 482.338093 234.432388 
L 484.053553 233.463917 
L 484.625372 234.010552 
L 485.197192 233.689267 
L 485.769012 234.234005 
L 486.340831 233.913322 
L 486.912651 234.456175 
L 489.19993 233.181324 
L 489.77175 233.721354 
L 493.202668 231.834211 
L 493.774488 232.370809 
L 495.489947 231.438229 
L 496.633586 232.505019 
L 497.205406 232.195275 
L 497.777226 232.726123 
L 498.349045 232.416935 
L 499.492685 233.473584 
L 500.064505 233.164647 
L 500.636324 233.690469 
L 501.208144 233.382086 
L 502.351783 234.428772 
L 503.495423 233.813372 
L 504.067243 234.333962 
L 504.639062 234.027237 
L 505.210882 234.546105 
L 506.354521 233.934593 
L 506.926341 234.451462 
L 509.21362 233.237261 
L 509.78544 233.751569 
L 512.072719 232.549339 
L 512.644538 233.061108 
L 513.216358 232.762289 
L 513.788178 233.272396 
L 516.075457 232.08398 
L 517.219096 233.097842 
L 517.790916 232.802157 
L 518.362735 233.306785 
L 518.934555 233.011607 
L 520.650014 234.51665 
L 523.509113 233.048331 
L 524.652752 234.042391 
L 525.224572 233.750501 
L 526.368211 234.738834 
L 528.083671 233.866141 
L 530.370949 235.82431 
L 531.514589 235.244218 
L 532.086409 235.730091 
L 532.658228 235.440913 
L 533.801868 236.408413 
L 535.517327 235.543823 
L 537.232786 236.983587 
L 538.376425 236.409394 
L 538.948245 236.88639 
L 542.950983 234.897792 
L 543.522803 235.371893 
L 544.094623 235.090421 
L 545.810082 236.50489 
L 548.66918 235.104477 
L 549.241 235.57244 
L 550.956459 234.739805 
L 551.528279 235.205907 
L 553.815558 234.104347 
L 555.531017 235.493005 
L 556.102837 235.218611 
L 556.674656 235.679006 
L 557.246476 235.405054 
L 558.961935 236.778847 
L 559.533755 236.50489 
L 560.105575 236.960378 
L 561.249214 236.414013 
L 562.964673 237.772573 
L 563.536493 237.499728 
L 564.680132 238.399566 
L 565.823772 237.854989 
L 566.967411 238.749677 
L 568.111051 238.206862 
L 568.68287 238.65219 
L 570.398329 237.842176 
L 570.970149 238.285826 
L 571.541969 238.016894 
L 572.113789 238.459288 
L 573.829248 237.655681 
L 574.401067 238.096418 
L 575.544707 237.563418 
L 576.116527 238.002713 
L 577.260166 237.471803 
L 577.831986 237.909665 
L 578.403805 237.644938 
L 580.691084 239.385414 
L 582.406543 238.592542 
L 583.550183 239.455567 
L 586.409281 238.144332 
L 588.124741 239.428559 
L 590.983839 238.129411 
L 591.555659 238.554585 
L 593.271118 237.781597 
L 593.842938 238.20524 
L 595.558397 237.43692 
L 596.130217 237.859043 
L 600.704774 235.833859 
L 601.276594 236.253534 
L 604.135693 235.005113 
L 604.707512 235.422918 
L 605.279332 235.174705 
L 605.851152 235.591398 
L 606.422971 235.343547 
L 609.85389 237.823407 
L 610.997529 237.32716 
L 612.141169 238.145839 
L 616.715726 236.179542 
L 617.287546 236.586139 
L 619.003005 235.856998 
L 619.574825 236.262192 
L 620.718464 235.77836 
L 621.862104 236.585443 
L 623.005743 236.102989 
L 623.577563 236.50489 
L 626.436661 235.306875 
L 627.580301 236.106399 
L 628.152121 235.867979 
L 629.86758 237.060422 
L 632.726678 235.873331 
L 633.870318 236.662449 
L 635.013957 236.190432 
L 636.729416 237.366945 
L 637.301236 237.131186 
L 638.444875 237.911126 
L 639.016695 237.675536 
L 639.588515 238.064132 
L 644.163073 236.195608 
L 644.734892 236.582131 
L 645.306712 236.350567 
L 645.878532 236.736138 
L 649.30945 235.355724 
L 649.88127 235.739559 
L 652.168549 234.827993 
L 653.312188 235.592071 
L 654.455827 235.138427 
L 655.027647 235.518996 
L 656.743106 234.841489 
L 658.458565 235.977219 
L 659.030385 235.751829 
L 660.174025 236.50489 
L 660.174025 236.50489 
" clip-path="url(#peb728aea8e)" style="fill: none; stroke: #009afa; stroke-width: 3"/>
   </g>
   <g id="line2d_20">
    <path d="M -1 244.32959 
L 692.2 244.32959 
" clip-path="url(#peb728aea8e)" style="fill: none; stroke: #e36f47; stroke-width: 2"/>
   </g>
   <g id="patch_3">
    <path d="M 71.788693 288.647244 
L 71.788693 2.952756 
" style="fill: none; stroke: #000000; stroke-linejoin: miter; stroke-linecap: square"/>
   </g>
   <g id="patch_4">
    <path d="M 71.788693 288.647244 
L 677.311461 288.647244 
" style="fill: none; stroke: #000000; stroke-linejoin: miter; stroke-linecap: square"/>
   </g>
   <g id="legend_1">
    <g id="patch_5">
     <path d="M 490.996461 75.522756 
L 669.311461 75.522756 
L 669.311461 10.952756 
L 490.996461 10.952756 
z
" style="fill: #ffffff; stroke: #000000; stroke-linejoin: miter"/>
    </g>
    <g id="line2d_21">
     <path d="M 503.796461 30.310256 
L 519.796461 30.310256 
L 535.796461 30.310256 
" style="fill: none; stroke: #009afa; stroke-width: 2; stroke-linejoin: miter"/>
    </g>
    <g id="text_12">
     <!-- MC trajectory -->
     <g transform="translate(548.596461 35.910256)scale(0.16 -0.16)">
      <defs>
       <path id="DejaVuSans-72" d="M 2631 2963 
Q 2534 3019 2420 3045 
Q 2306 3072 2169 3072 
Q 1681 3072 1420 2755 
Q 1159 2438 1159 1844 
L 1159 0 
L 581 0 
L 581 3500 
L 1159 3500 
L 1159 2956 
Q 1341 3275 1631 3429 
Q 1922 3584 2338 3584 
Q 2397 3584 2469 3576 
Q 2541 3569 2628 3553 
L 2631 2963 
z
" transform="scale(0.015625)"/>
       <path id="DejaVuSans-6a" d="M 603 3500 
L 1178 3500 
L 1178 -63 
Q 1178 -731 923 -1031 
Q 669 -1331 103 -1331 
L -116 -1331 
L -116 -844 
L 38 -844 
Q 366 -844 484 -692 
Q 603 -541 603 -63 
L 603 3500 
z
M 603 4863 
L 1178 4863 
L 1178 4134 
L 603 4134 
L 603 4863 
z
" transform="scale(0.015625)"/>
       <path id="DejaVuSans-63" d="M 3122 3366 
L 3122 2828 
Q 2878 2963 2633 3030 
Q 2388 3097 2138 3097 
Q 1578 3097 1268 2742 
Q 959 2388 959 1747 
Q 959 1106 1268 751 
Q 1578 397 2138 397 
Q 2388 397 2633 464 
Q 2878 531 3122 666 
L 3122 134 
Q 2881 22 2623 -34 
Q 2366 -91 2075 -91 
Q 1284 -91 818 406 
Q 353 903 353 1747 
Q 353 2603 823 3093 
Q 1294 3584 2113 3584 
Q 2378 3584 2631 3529 
Q 2884 3475 3122 3366 
z
" transform="scale(0.015625)"/>
       <path id="DejaVuSans-6f" d="M 1959 3097 
Q 1497 3097 1228 2736 
Q 959 2375 959 1747 
Q 959 1119 1226 758 
Q 1494 397 1959 397 
Q 2419 397 2687 759 
Q 2956 1122 2956 1747 
Q 2956 2369 2687 2733 
Q 2419 3097 1959 3097 
z
M 1959 3584 
Q 2709 3584 3137 3096 
Q 3566 2609 3566 1747 
Q 3566 888 3137 398 
Q 2709 -91 1959 -91 
Q 1206 -91 779 398 
Q 353 888 353 1747 
Q 353 2609 779 3096 
Q 1206 3584 1959 3584 
z
" transform="scale(0.015625)"/>
       <path id="DejaVuSans-79" d="M 2059 -325 
Q 1816 -950 1584 -1140 
Q 1353 -1331 966 -1331 
L 506 -1331 
L 506 -850 
L 844 -850 
Q 1081 -850 1212 -737 
Q 1344 -625 1503 -206 
L 1606 56 
L 191 3500 
L 800 3500 
L 1894 763 
L 2988 3500 
L 3597 3500 
L 2059 -325 
z
" transform="scale(0.015625)"/>
      </defs>
      <use xlink:href="#DejaVuSans-4d"/>
      <use xlink:href="#DejaVuSans-43" x="86.279297"/>
      <use xlink:href="#DejaVuSans-20" x="156.103516"/>
      <use xlink:href="#DejaVuSans-74" x="187.890625"/>
      <use xlink:href="#DejaVuSans-72" x="227.099609"/>
      <use xlink:href="#DejaVuSans-61" x="268.212891"/>
      <use xlink:href="#DejaVuSans-6a" x="329.492188"/>
      <use xlink:href="#DejaVuSans-65" x="357.275391"/>
      <use xlink:href="#DejaVuSans-63" x="418.798828"/>
      <use xlink:href="#DejaVuSans-74" x="473.779297"/>
      <use xlink:href="#DejaVuSans-6f" x="512.988281"/>
      <use xlink:href="#DejaVuSans-72" x="574.169922"/>
      <use xlink:href="#DejaVuSans-79" x="615.283203"/>
     </g>
    </g>
    <g id="line2d_22">
     <path d="M 503.796461 53.795256 
L 519.796461 53.795256 
L 535.796461 53.795256 
" style="fill: none; stroke: #e36f47; stroke-width: 2; stroke-linejoin: miter"/>
    </g>
    <g id="text_13">
     <!-- Analytical -->
     <g transform="translate(548.596461 59.395256)scale(0.16 -0.16)">
      <defs>
       <path id="DejaVuSans-41" d="M 2188 4044 
L 1331 1722 
L 3047 1722 
L 2188 4044 
z
M 1831 4666 
L 2547 4666 
L 4325 0 
L 3669 0 
L 3244 1197 
L 1141 1197 
L 716 0 
L 50 0 
L 1831 4666 
z
" transform="scale(0.015625)"/>
       <path id="DejaVuSans-6e" d="M 3513 2113 
L 3513 0 
L 2938 0 
L 2938 2094 
Q 2938 2591 2744 2837 
Q 2550 3084 2163 3084 
Q 1697 3084 1428 2787 
Q 1159 2491 1159 1978 
L 1159 0 
L 581 0 
L 581 3500 
L 1159 3500 
L 1159 2956 
Q 1366 3272 1645 3428 
Q 1925 3584 2291 3584 
Q 2894 3584 3203 3211 
Q 3513 2838 3513 2113 
z
" transform="scale(0.015625)"/>
       <path id="DejaVuSans-69" d="M 603 3500 
L 1178 3500 
L 1178 0 
L 603 0 
L 603 3500 
z
M 603 4863 
L 1178 4863 
L 1178 4134 
L 603 4134 
L 603 4863 
z
" transform="scale(0.015625)"/>
      </defs>
      <use xlink:href="#DejaVuSans-41"/>
      <use xlink:href="#DejaVuSans-6e" x="68.408203"/>
      <use xlink:href="#DejaVuSans-61" x="131.787109"/>
      <use xlink:href="#DejaVuSans-6c" x="193.066406"/>
      <use xlink:href="#DejaVuSans-79" x="220.849609"/>
      <use xlink:href="#DejaVuSans-74" x="280.029297"/>
      <use xlink:href="#DejaVuSans-69" x="319.238281"/>
      <use xlink:href="#DejaVuSans-63" x="347.021484"/>
      <use xlink:href="#DejaVuSans-61" x="402.001953"/>
      <use xlink:href="#DejaVuSans-6c" x="463.28125"/>
     </g>
    </g>
   </g>
  </g>
 </g>
 <defs>
  <clipPath id="peb728aea8e">
   <rect x="71.788693" y="2.952756" width="605.522768" height="285.694488"/>
  </clipPath>
 </defs>
</svg>
