<?xml version="1.0" encoding="utf-8" standalone="no"?>
<!DOCTYPE svg PUBLIC "-//W3C//DTD SVG 1.1//EN"
  "http://www.w3.org/Graphics/SVG/1.1/DTD/svg11.dtd">
<svg xmlns:xlink="http://www.w3.org/1999/xlink" width="691.2pt" height="345.6pt" viewBox="0 0 691.2 345.6" xmlns="http://www.w3.org/2000/svg" version="1.1">
 <metadata>
  <rdf:RDF xmlns:dc="http://purl.org/dc/elements/1.1/" xmlns:cc="http://creativecommons.org/ns#" xmlns:rdf="http://www.w3.org/1999/02/22-rdf-syntax-ns#">
   <cc:Work>
    <dc:type rdf:resource="http://purl.org/dc/dcmitype/StillImage"/>
    <dc:date>2022-09-30T16:01:42.938198</dc:date>
    <dc:format>image/svg+xml</dc:format>
    <dc:creator>
     <cc:Agent>
      <dc:title>Matplotlib v3.5.2, https://matplotlib.org/</dc:title>
     </cc:Agent>
    </dc:creator>
   </cc:Work>
  </rdf:RDF>
 </metadata>
 <defs>
  <style type="text/css">*{stroke-linejoin: round; stroke-linecap: butt}</style>
 </defs>
 <g id="figure_1">
  <g id="patch_1">
   <path d="M 0 345.6 
L 691.2 345.6 
L 691.2 0 
L 0 0 
z
" style="fill: #ffffff"/>
  </g>
  <g id="axes_1">
   <g id="patch_2">
    <path d="M 71.788693 288.647244 
L 677.311461 288.647244 
L 677.311461 2.952756 
L 71.788693 2.952756 
z
" style="fill: #ffffff"/>
   </g>
   <g id="matplotlib.axis_1">
    <g id="xtick_1">
     <g id="line2d_1">
      <path d="M 88.354311 288.647244 
L 88.354311 2.952756 
" clip-path="url(#pb019511355)" style="fill: none; stroke: #000000; stroke-opacity: 0.1; stroke-width: 0.5; stroke-linecap: square"/>
     </g>
     <g id="line2d_2">
      <defs>
       <path id="m0c7f39dd3d" d="M 0 0 
L 0 -2.5 
" style="stroke: #000000; stroke-width: 0.5"/>
      </defs>
      <g>
       <use xlink:href="#m0c7f39dd3d" x="88.354311" y="288.647244" style="stroke: #000000; stroke-width: 0.5"/>
      </g>
     </g>
     <g id="text_1">
      <!-- $0$ -->
      <g transform="translate(80.674311 310.383494)scale(0.24 -0.24)">
       <defs>
        <path id="DejaVuSans-30" d="M 2034 4250 
Q 1547 4250 1301 3770 
Q 1056 3291 1056 2328 
Q 1056 1369 1301 889 
Q 1547 409 2034 409 
Q 2525 409 2770 889 
Q 3016 1369 3016 2328 
Q 3016 3291 2770 3770 
Q 2525 4250 2034 4250 
z
M 2034 4750 
Q 2819 4750 3233 4129 
Q 3647 3509 3647 2328 
Q 3647 1150 3233 529 
Q 2819 -91 2034 -91 
Q 1250 -91 836 529 
Q 422 1150 422 2328 
Q 422 3509 836 4129 
Q 1250 4750 2034 4750 
z
" transform="scale(0.015625)"/>
       </defs>
       <use xlink:href="#DejaVuSans-30" transform="translate(0 0.78125)"/>
      </g>
     </g>
    </g>
    <g id="xtick_2">
     <g id="line2d_3">
      <path d="M 231.309239 288.647244 
L 231.309239 2.952756 
" clip-path="url(#pb019511355)" style="fill: none; stroke: #000000; stroke-opacity: 0.1; stroke-width: 0.5; stroke-linecap: square"/>
     </g>
     <g id="line2d_4">
      <g>
       <use xlink:href="#m0c7f39dd3d" x="231.309239" y="288.647244" style="stroke: #000000; stroke-width: 0.5"/>
      </g>
     </g>
     <g id="text_2">
      <!-- $250$ -->
      <g transform="translate(208.389239 310.383494)scale(0.24 -0.24)">
       <defs>
        <path id="DejaVuSans-32" d="M 1228 531 
L 3431 531 
L 3431 0 
L 469 0 
L 469 531 
Q 828 903 1448 1529 
Q 2069 2156 2228 2338 
Q 2531 2678 2651 2914 
Q 2772 3150 2772 3378 
Q 2772 3750 2511 3984 
Q 2250 4219 1831 4219 
Q 1534 4219 1204 4116 
Q 875 4013 500 3803 
L 500 4441 
Q 881 4594 1212 4672 
Q 1544 4750 1819 4750 
Q 2544 4750 2975 4387 
Q 3406 4025 3406 3419 
Q 3406 3131 3298 2873 
Q 3191 2616 2906 2266 
Q 2828 2175 2409 1742 
Q 1991 1309 1228 531 
z
" transform="scale(0.015625)"/>
        <path id="DejaVuSans-35" d="M 691 4666 
L 3169 4666 
L 3169 4134 
L 1269 4134 
L 1269 2991 
Q 1406 3038 1543 3061 
Q 1681 3084 1819 3084 
Q 2600 3084 3056 2656 
Q 3513 2228 3513 1497 
Q 3513 744 3044 326 
Q 2575 -91 1722 -91 
Q 1428 -91 1123 -41 
Q 819 9 494 109 
L 494 744 
Q 775 591 1075 516 
Q 1375 441 1709 441 
Q 2250 441 2565 725 
Q 2881 1009 2881 1497 
Q 2881 1984 2565 2268 
Q 2250 2553 1709 2553 
Q 1456 2553 1204 2497 
Q 953 2441 691 2322 
L 691 4666 
z
" transform="scale(0.015625)"/>
       </defs>
       <use xlink:href="#DejaVuSans-32" transform="translate(0 0.78125)"/>
       <use xlink:href="#DejaVuSans-35" transform="translate(63.623047 0.78125)"/>
       <use xlink:href="#DejaVuSans-30" transform="translate(127.246094 0.78125)"/>
      </g>
     </g>
    </g>
    <g id="xtick_3">
     <g id="line2d_5">
      <path d="M 374.264168 288.647244 
L 374.264168 2.952756 
" clip-path="url(#pb019511355)" style="fill: none; stroke: #000000; stroke-opacity: 0.1; stroke-width: 0.5; stroke-linecap: square"/>
     </g>
     <g id="line2d_6">
      <g>
       <use xlink:href="#m0c7f39dd3d" x="374.264168" y="288.647244" style="stroke: #000000; stroke-width: 0.5"/>
      </g>
     </g>
     <g id="text_3">
      <!-- $500$ -->
      <g transform="translate(351.344168 310.383494)scale(0.24 -0.24)">
       <use xlink:href="#DejaVuSans-35" transform="translate(0 0.78125)"/>
       <use xlink:href="#DejaVuSans-30" transform="translate(63.623047 0.78125)"/>
       <use xlink:href="#DejaVuSans-30" transform="translate(127.246094 0.78125)"/>
      </g>
     </g>
    </g>
    <g id="xtick_4">
     <g id="line2d_7">
      <path d="M 517.219096 288.647244 
L 517.219096 2.952756 
" clip-path="url(#pb019511355)" style="fill: none; stroke: #000000; stroke-opacity: 0.1; stroke-width: 0.5; stroke-linecap: square"/>
     </g>
     <g id="line2d_8">
      <g>
       <use xlink:href="#m0c7f39dd3d" x="517.219096" y="288.647244" style="stroke: #000000; stroke-width: 0.5"/>
      </g>
     </g>
     <g id="text_4">
      <!-- $750$ -->
      <g transform="translate(494.299096 310.383494)scale(0.24 -0.24)">
       <defs>
        <path id="DejaVuSans-37" d="M 525 4666 
L 3525 4666 
L 3525 4397 
L 1831 0 
L 1172 0 
L 2766 4134 
L 525 4134 
L 525 4666 
z
" transform="scale(0.015625)"/>
       </defs>
       <use xlink:href="#DejaVuSans-37" transform="translate(0 0.78125)"/>
       <use xlink:href="#DejaVuSans-35" transform="translate(63.623047 0.78125)"/>
       <use xlink:href="#DejaVuSans-30" transform="translate(127.246094 0.78125)"/>
      </g>
     </g>
    </g>
    <g id="xtick_5">
     <g id="line2d_9">
      <path d="M 660.174025 288.647244 
L 660.174025 2.952756 
" clip-path="url(#pb019511355)" style="fill: none; stroke: #000000; stroke-opacity: 0.1; stroke-width: 0.5; stroke-linecap: square"/>
     </g>
     <g id="line2d_10">
      <g>
       <use xlink:href="#m0c7f39dd3d" x="660.174025" y="288.647244" style="stroke: #000000; stroke-width: 0.5"/>
      </g>
     </g>
     <g id="text_5">
      <!-- $1000$ -->
      <g transform="translate(629.574025 310.383494)scale(0.24 -0.24)">
       <defs>
        <path id="DejaVuSans-31" d="M 794 531 
L 1825 531 
L 1825 4091 
L 703 3866 
L 703 4441 
L 1819 4666 
L 2450 4666 
L 2450 531 
L 3481 531 
L 3481 0 
L 794 0 
L 794 531 
z
" transform="scale(0.015625)"/>
       </defs>
       <use xlink:href="#DejaVuSans-31" transform="translate(0 0.78125)"/>
       <use xlink:href="#DejaVuSans-30" transform="translate(63.623047 0.78125)"/>
       <use xlink:href="#DejaVuSans-30" transform="translate(127.246094 0.78125)"/>
       <use xlink:href="#DejaVuSans-30" transform="translate(190.869141 0.78125)"/>
      </g>
     </g>
    </g>
    <g id="text_6">
     <!-- MC steps -->
     <g transform="translate(319.794452 337.610994)scale(0.24 -0.24)">
      <defs>
       <path id="DejaVuSans-4d" d="M 628 4666 
L 1569 4666 
L 2759 1491 
L 3956 4666 
L 4897 4666 
L 4897 0 
L 4281 0 
L 4281 4097 
L 3078 897 
L 2444 897 
L 1241 4097 
L 1241 0 
L 628 0 
L 628 4666 
z
" transform="scale(0.015625)"/>
       <path id="DejaVuSans-43" d="M 4122 4306 
L 4122 3641 
Q 3803 3938 3442 4084 
Q 3081 4231 2675 4231 
Q 1875 4231 1450 3742 
Q 1025 3253 1025 2328 
Q 1025 1406 1450 917 
Q 1875 428 2675 428 
Q 3081 428 3442 575 
Q 3803 722 4122 1019 
L 4122 359 
Q 3791 134 3420 21 
Q 3050 -91 2638 -91 
Q 1578 -91 968 557 
Q 359 1206 359 2328 
Q 359 3453 968 4101 
Q 1578 4750 2638 4750 
Q 3056 4750 3426 4639 
Q 3797 4528 4122 4306 
z
" transform="scale(0.015625)"/>
       <path id="DejaVuSans-20" transform="scale(0.015625)"/>
       <path id="DejaVuSans-73" d="M 2834 3397 
L 2834 2853 
Q 2591 2978 2328 3040 
Q 2066 3103 1784 3103 
Q 1356 3103 1142 2972 
Q 928 2841 928 2578 
Q 928 2378 1081 2264 
Q 1234 2150 1697 2047 
L 1894 2003 
Q 2506 1872 2764 1633 
Q 3022 1394 3022 966 
Q 3022 478 2636 193 
Q 2250 -91 1575 -91 
Q 1294 -91 989 -36 
Q 684 19 347 128 
L 347 722 
Q 666 556 975 473 
Q 1284 391 1588 391 
Q 1994 391 2212 530 
Q 2431 669 2431 922 
Q 2431 1156 2273 1281 
Q 2116 1406 1581 1522 
L 1381 1569 
Q 847 1681 609 1914 
Q 372 2147 372 2553 
Q 372 3047 722 3315 
Q 1072 3584 1716 3584 
Q 2034 3584 2315 3537 
Q 2597 3491 2834 3397 
z
" transform="scale(0.015625)"/>
       <path id="DejaVuSans-74" d="M 1172 4494 
L 1172 3500 
L 2356 3500 
L 2356 3053 
L 1172 3053 
L 1172 1153 
Q 1172 725 1289 603 
Q 1406 481 1766 481 
L 2356 481 
L 2356 0 
L 1766 0 
Q 1100 0 847 248 
Q 594 497 594 1153 
L 594 3053 
L 172 3053 
L 172 3500 
L 594 3500 
L 594 4494 
L 1172 4494 
z
" transform="scale(0.015625)"/>
       <path id="DejaVuSans-65" d="M 3597 1894 
L 3597 1613 
L 953 1613 
Q 991 1019 1311 708 
Q 1631 397 2203 397 
Q 2534 397 2845 478 
Q 3156 559 3463 722 
L 3463 178 
Q 3153 47 2828 -22 
Q 2503 -91 2169 -91 
Q 1331 -91 842 396 
Q 353 884 353 1716 
Q 353 2575 817 3079 
Q 1281 3584 2069 3584 
Q 2775 3584 3186 3129 
Q 3597 2675 3597 1894 
z
M 3022 2063 
Q 3016 2534 2758 2815 
Q 2500 3097 2075 3097 
Q 1594 3097 1305 2825 
Q 1016 2553 972 2059 
L 3022 2063 
z
" transform="scale(0.015625)"/>
       <path id="DejaVuSans-70" d="M 1159 525 
L 1159 -1331 
L 581 -1331 
L 581 3500 
L 1159 3500 
L 1159 2969 
Q 1341 3281 1617 3432 
Q 1894 3584 2278 3584 
Q 2916 3584 3314 3078 
Q 3713 2572 3713 1747 
Q 3713 922 3314 415 
Q 2916 -91 2278 -91 
Q 1894 -91 1617 61 
Q 1341 213 1159 525 
z
M 3116 1747 
Q 3116 2381 2855 2742 
Q 2594 3103 2138 3103 
Q 1681 3103 1420 2742 
Q 1159 2381 1159 1747 
Q 1159 1113 1420 752 
Q 1681 391 2138 391 
Q 2594 391 2855 752 
Q 3116 1113 3116 1747 
z
" transform="scale(0.015625)"/>
      </defs>
      <use xlink:href="#DejaVuSans-4d"/>
      <use xlink:href="#DejaVuSans-43" x="86.279297"/>
      <use xlink:href="#DejaVuSans-20" x="156.103516"/>
      <use xlink:href="#DejaVuSans-73" x="187.890625"/>
      <use xlink:href="#DejaVuSans-74" x="239.990234"/>
      <use xlink:href="#DejaVuSans-65" x="279.199219"/>
      <use xlink:href="#DejaVuSans-70" x="340.722656"/>
      <use xlink:href="#DejaVuSans-73" x="404.199219"/>
     </g>
    </g>
   </g>
   <g id="matplotlib.axis_2">
    <g id="ytick_1">
     <g id="line2d_11">
      <path d="M 71.788693 226.051617 
L 677.311461 226.051617 
" clip-path="url(#pb019511355)" style="fill: none; stroke: #000000; stroke-opacity: 0.1; stroke-width: 0.5; stroke-linecap: square"/>
     </g>
     <g id="line2d_12">
      <defs>
       <path id="m489bcbc8f7" d="M 0 0 
L 2.5 0 
" style="stroke: #000000; stroke-width: 0.5"/>
      </defs>
      <g>
       <use xlink:href="#m489bcbc8f7" x="71.788693" y="226.051617" style="stroke: #000000; stroke-width: 0.5"/>
      </g>
     </g>
     <g id="text_7">
      <!-- $2.5$ -->
      <g transform="translate(29.888693 235.169742)scale(0.24 -0.24)">
       <defs>
        <path id="DejaVuSans-2e" d="M 684 794 
L 1344 794 
L 1344 0 
L 684 0 
L 684 794 
z
" transform="scale(0.015625)"/>
       </defs>
       <use xlink:href="#DejaVuSans-32" transform="translate(0 0.78125)"/>
       <use xlink:href="#DejaVuSans-2e" transform="translate(63.623047 0.78125)"/>
       <use xlink:href="#DejaVuSans-35" transform="translate(95.410156 0.78125)"/>
      </g>
     </g>
    </g>
    <g id="ytick_2">
     <g id="line2d_13">
      <path d="M 71.788693 161.24501 
L 677.311461 161.24501 
" clip-path="url(#pb019511355)" style="fill: none; stroke: #000000; stroke-opacity: 0.1; stroke-width: 0.5; stroke-linecap: square"/>
     </g>
     <g id="line2d_14">
      <g>
       <use xlink:href="#m489bcbc8f7" x="71.788693" y="161.24501" style="stroke: #000000; stroke-width: 0.5"/>
      </g>
     </g>
     <g id="text_8">
      <!-- $3.0$ -->
      <g transform="translate(29.888693 170.363135)scale(0.24 -0.24)">
       <defs>
        <path id="DejaVuSans-33" d="M 2597 2516 
Q 3050 2419 3304 2112 
Q 3559 1806 3559 1356 
Q 3559 666 3084 287 
Q 2609 -91 1734 -91 
Q 1441 -91 1130 -33 
Q 819 25 488 141 
L 488 750 
Q 750 597 1062 519 
Q 1375 441 1716 441 
Q 2309 441 2620 675 
Q 2931 909 2931 1356 
Q 2931 1769 2642 2001 
Q 2353 2234 1838 2234 
L 1294 2234 
L 1294 2753 
L 1863 2753 
Q 2328 2753 2575 2939 
Q 2822 3125 2822 3475 
Q 2822 3834 2567 4026 
Q 2313 4219 1838 4219 
Q 1578 4219 1281 4162 
Q 984 4106 628 3988 
L 628 4550 
Q 988 4650 1302 4700 
Q 1616 4750 1894 4750 
Q 2613 4750 3031 4423 
Q 3450 4097 3450 3541 
Q 3450 3153 3228 2886 
Q 3006 2619 2597 2516 
z
" transform="scale(0.015625)"/>
       </defs>
       <use xlink:href="#DejaVuSans-33" transform="translate(0 0.78125)"/>
       <use xlink:href="#DejaVuSans-2e" transform="translate(63.623047 0.78125)"/>
       <use xlink:href="#DejaVuSans-30" transform="translate(95.410156 0.78125)"/>
      </g>
     </g>
    </g>
    <g id="ytick_3">
     <g id="line2d_15">
      <path d="M 71.788693 96.438403 
L 677.311461 96.438403 
" clip-path="url(#pb019511355)" style="fill: none; stroke: #000000; stroke-opacity: 0.1; stroke-width: 0.5; stroke-linecap: square"/>
     </g>
     <g id="line2d_16">
      <g>
       <use xlink:href="#m489bcbc8f7" x="71.788693" y="96.438403" style="stroke: #000000; stroke-width: 0.5"/>
      </g>
     </g>
     <g id="text_9">
      <!-- $3.5$ -->
      <g transform="translate(29.888693 105.556528)scale(0.24 -0.24)">
       <use xlink:href="#DejaVuSans-33" transform="translate(0 0.78125)"/>
       <use xlink:href="#DejaVuSans-2e" transform="translate(63.623047 0.78125)"/>
       <use xlink:href="#DejaVuSans-35" transform="translate(95.410156 0.78125)"/>
      </g>
     </g>
    </g>
    <g id="ytick_4">
     <g id="line2d_17">
      <path d="M 71.788693 31.631796 
L 677.311461 31.631796 
" clip-path="url(#pb019511355)" style="fill: none; stroke: #000000; stroke-opacity: 0.1; stroke-width: 0.5; stroke-linecap: square"/>
     </g>
     <g id="line2d_18">
      <g>
       <use xlink:href="#m489bcbc8f7" x="71.788693" y="31.631796" style="stroke: #000000; stroke-width: 0.5"/>
      </g>
     </g>
     <g id="text_10">
      <!-- $4.0$ -->
      <g transform="translate(29.888693 40.749921)scale(0.24 -0.24)">
       <defs>
        <path id="DejaVuSans-34" d="M 2419 4116 
L 825 1625 
L 2419 1625 
L 2419 4116 
z
M 2253 4666 
L 3047 4666 
L 3047 1625 
L 3713 1625 
L 3713 1100 
L 3047 1100 
L 3047 0 
L 2419 0 
L 2419 1100 
L 313 1100 
L 313 1709 
L 2253 4666 
z
" transform="scale(0.015625)"/>
       </defs>
       <use xlink:href="#DejaVuSans-34" transform="translate(0 0.78125)"/>
       <use xlink:href="#DejaVuSans-2e" transform="translate(63.623047 0.78125)"/>
       <use xlink:href="#DejaVuSans-30" transform="translate(95.410156 0.78125)"/>
      </g>
     </g>
    </g>
    <g id="text_11">
     <!-- MC value -->
     <g transform="translate(20.897443 201.125625)rotate(-90)scale(0.24 -0.24)">
      <defs>
       <path id="DejaVuSans-76" d="M 191 3500 
L 800 3500 
L 1894 563 
L 2988 3500 
L 3597 3500 
L 2284 0 
L 1503 0 
L 191 3500 
z
" transform="scale(0.015625)"/>
       <path id="DejaVuSans-61" d="M 2194 1759 
Q 1497 1759 1228 1600 
Q 959 1441 959 1056 
Q 959 750 1161 570 
Q 1363 391 1709 391 
Q 2188 391 2477 730 
Q 2766 1069 2766 1631 
L 2766 1759 
L 2194 1759 
z
M 3341 1997 
L 3341 0 
L 2766 0 
L 2766 531 
Q 2569 213 2275 61 
Q 1981 -91 1556 -91 
Q 1019 -91 701 211 
Q 384 513 384 1019 
Q 384 1609 779 1909 
Q 1175 2209 1959 2209 
L 2766 2209 
L 2766 2266 
Q 2766 2663 2505 2880 
Q 2244 3097 1772 3097 
Q 1472 3097 1187 3025 
Q 903 2953 641 2809 
L 641 3341 
Q 956 3463 1253 3523 
Q 1550 3584 1831 3584 
Q 2591 3584 2966 3190 
Q 3341 2797 3341 1997 
z
" transform="scale(0.015625)"/>
       <path id="DejaVuSans-6c" d="M 603 4863 
L 1178 4863 
L 1178 0 
L 603 0 
L 603 4863 
z
" transform="scale(0.015625)"/>
       <path id="DejaVuSans-75" d="M 544 1381 
L 544 3500 
L 1119 3500 
L 1119 1403 
Q 1119 906 1312 657 
Q 1506 409 1894 409 
Q 2359 409 2629 706 
Q 2900 1003 2900 1516 
L 2900 3500 
L 3475 3500 
L 3475 0 
L 2900 0 
L 2900 538 
Q 2691 219 2414 64 
Q 2138 -91 1772 -91 
Q 1169 -91 856 284 
Q 544 659 544 1381 
z
M 1991 3584 
L 1991 3584 
z
" transform="scale(0.015625)"/>
      </defs>
      <use xlink:href="#DejaVuSans-4d"/>
      <use xlink:href="#DejaVuSans-43" x="86.279297"/>
      <use xlink:href="#DejaVuSans-20" x="156.103516"/>
      <use xlink:href="#DejaVuSans-76" x="187.890625"/>
      <use xlink:href="#DejaVuSans-61" x="247.070312"/>
      <use xlink:href="#DejaVuSans-6c" x="308.349609"/>
      <use xlink:href="#DejaVuSans-75" x="336.132812"/>
      <use xlink:href="#DejaVuSans-65" x="399.511719"/>
     </g>
    </g>
   </g>
   <g id="line2d_19">
    <path d="M 88.92613 11.038449 
L 89.49795 280.561551 
L 90.06977 190.720517 
L 90.641589 145.8 
L 91.213409 226.656931 
L 91.785229 190.720517 
L 92.357049 165.05165 
L 92.928868 145.8 
L 93.500688 190.720517 
L 94.644327 158.05105 
L 95.216147 145.8 
L 96.359787 203.55495 
L 97.503426 179.490388 
L 98.647065 160.773506 
L 99.790705 145.8 
L 100.934344 182.55315 
L 102.077984 213.180776 
L 102.649803 205.095082 
L 103.221623 218.363912 
L 104.365263 203.55495 
L 105.508902 190.720517 
L 106.080722 202.312908 
L 106.652541 196.335582 
L 107.224361 207.05525 
L 108.368001 195.85429 
L 109.51164 215.001878 
L 110.08346 209.634419 
L 111.227099 226.656931 
L 112.370739 216.389384 
L 112.942558 224.149739 
L 114.086198 214.678126 
L 114.658017 221.969572 
L 115.801657 213.180776 
L 116.945296 226.656931 
L 118.660755 214.452111 
L 119.804395 207.05525 
L 120.376215 213.180776 
L 120.948034 209.634419 
L 121.519854 215.504251 
L 122.663493 208.688724 
L 123.235313 214.285378 
L 123.807133 211.007202 
L 124.950772 221.603372 
L 125.522592 218.363912 
L 126.094412 223.389984 
L 128.381691 211.255611 
L 129.52533 205.694023 
L 130.09715 210.411703 
L 132.384429 200.05465 
L 133.528068 195.26943 
L 134.099888 199.70462 
L 135.815347 192.885361 
L 136.387166 197.137734 
L 138.674445 188.678675 
L 140.961724 180.955187 
L 142.105364 188.809006 
L 143.820823 183.310947 
L 144.392642 187.053536 
L 144.964462 185.275606 
L 145.536282 188.923696 
L 146.108102 187.162456 
L 147.251741 194.209489 
L 147.823561 192.448229 
L 149.53902 202.475419 
L 150.682659 198.962814 
L 151.254479 202.15483 
L 151.826299 200.433061 
L 152.969938 206.621585 
L 155.829037 198.334164 
L 156.400856 196.76025 
L 156.972676 199.70462 
L 157.544496 198.145396 
L 159.259955 206.660055 
L 160.975414 202.039072 
L 162.119054 207.435128 
L 163.834513 202.971567 
L 164.406332 205.58144 
L 165.549972 202.699322 
L 166.121792 205.253625 
L 168.98089 198.366562 
L 169.55271 200.84345 
L 171.268169 196.91645 
L 173.555448 206.397476 
L 174.127268 205.095082 
L 174.699087 207.379782 
L 175.842727 204.813228 
L 176.986366 209.268343 
L 177.558186 207.997639 
L 178.130006 210.176537 
L 178.701825 208.916169 
L 179.845465 213.180776 
L 180.417284 211.925233 
L 180.989104 214.012637 
L 181.560924 212.767397 
L 182.132744 214.824209 
L 183.276383 212.368959 
L 183.848203 214.391209 
L 184.991842 211.984667 
L 185.563662 213.973491 
L 186.135482 212.786736 
L 186.707301 214.74777 
L 188.99458 210.118013 
L 190.13822 213.937863 
L 191.281859 211.683425 
L 192.425498 215.40212 
L 192.997318 214.285378 
L 193.569138 216.110374 
L 194.140958 215.001878 
L 194.712777 216.803398 
L 198.143696 210.373243 
L 199.859155 215.599573 
L 201.002794 213.52281 
L 201.574614 215.222617 
L 205.005532 209.2172 
L 205.577352 210.879969 
L 209.58009 204.281428 
L 213.582828 215.334499 
L 215.870107 211.669996 
L 216.441926 213.180776 
L 217.013746 212.282365 
L 218.157386 215.258597 
L 220.444664 211.722317 
L 221.016484 213.180776 
L 221.588304 212.313212 
L 222.160124 213.75668 
L 223.303763 212.038728 
L 224.447402 214.879451 
L 225.019222 214.026559 
L 225.591042 215.426801 
L 226.734681 213.737641 
L 228.45014 217.856176 
L 233.024698 211.316485 
L 233.596518 210.527989 
L 234.168338 211.859584 
L 235.311977 210.296773 
L 235.883797 211.613781 
L 237.599256 209.308317 
L 238.171076 210.60899 
L 240.458354 207.607929 
L 241.601994 210.163726 
L 242.745633 208.688724 
L 243.317453 209.948487 
L 243.889273 209.2172 
L 244.461092 210.465799 
L 245.604732 209.015418 
L 246.176552 210.251177 
L 246.748371 209.531997 
L 247.892011 211.973235 
L 249.03565 210.543094 
L 250.17929 212.942681 
L 250.751109 212.231751 
L 251.322929 213.417199 
L 251.894749 212.709581 
L 253.610208 216.211745 
L 254.753847 214.801619 
L 256.469306 218.222874 
L 257.612946 216.82298 
L 258.756585 219.059635 
L 259.900225 217.672827 
L 260.472044 218.777185 
L 262.759323 216.052743 
L 263.331143 217.144351 
L 265.046602 215.143322 
L 265.618422 216.223778 
L 266.190242 215.564018 
L 267.905701 218.760075 
L 268.47752 218.100642 
L 269.62116 220.195178 
L 270.19298 219.537452 
L 270.764799 220.573651 
L 271.336619 219.918853 
L 271.908439 220.947407 
L 273.623898 219.003805 
L 274.195718 220.022516 
L 278.198456 215.616225 
L 279.913915 218.611465 
L 281.629374 216.769101 
L 283.344833 219.701496 
L 286.203932 216.686134 
L 286.775751 217.646936 
L 289.63485 214.712157 
L 290.20667 215.662221 
L 291.922129 213.937863 
L 293.065768 215.815778 
L 295.924867 212.995154 
L 297.068506 214.842219 
L 298.212146 213.731572 
L 298.783965 214.645575 
L 299.927605 213.544996 
L 300.499424 214.452111 
L 301.071244 213.9053 
L 302.214884 215.703051 
L 304.502162 213.537288 
L 305.073982 214.425275 
L 305.645802 213.890047 
L 306.217622 214.772447 
L 309.07672 212.133406 
L 309.64854 213.006665 
L 313.079458 209.923181 
L 315.366737 213.3505 
L 315.938557 212.842179 
L 318.225836 216.197825 
L 319.369475 215.182185 
L 321.084934 217.650753 
L 321.656754 217.144351 
L 322.228574 217.958386 
L 323.944033 216.451687 
L 324.515852 217.259515 
L 325.087672 216.761396 
L 325.659492 217.564585 
L 326.803131 216.574052 
L 327.374951 217.371924 
L 331.377689 213.973491 
L 331.949509 214.762484 
L 337.667706 210.089914 
L 340.526804 213.94473 
L 341.098624 213.485666 
L 342.814083 215.754873 
L 345.673182 213.480246 
L 347.388641 215.709414 
L 348.53228 214.809761 
L 349.1041 215.545013 
L 350.24774 214.651971 
L 352.535018 217.556151 
L 353.678658 216.665988 
L 354.250478 217.383017 
L 355.394117 216.499315 
L 355.965937 217.212104 
L 357.681396 215.898896 
L 358.253216 216.606917 
L 358.825035 216.172311 
L 359.396855 216.876767 
L 360.540494 216.011901 
L 361.112314 216.712263 
L 361.684134 216.281983 
L 362.255954 216.978857 
L 363.971413 215.69707 
L 365.115052 217.078837 
L 367.974151 214.972084 
L 368.54597 215.655988 
L 369.11779 215.239251 
L 370.26143 216.597651 
L 371.405069 215.767108 
L 373.692348 218.447008 
L 374.264168 218.032191 
L 374.835987 218.694971 
L 377.123266 217.050167 
L 377.695086 217.708338 
L 379.410545 216.490244 
L 379.982365 217.144351 
L 381.126004 216.339249 
L 381.697824 216.989825 
L 384.556922 215.001878 
L 385.128742 215.647509 
L 385.700562 215.25403 
L 386.272382 215.896699 
L 387.987841 214.723847 
L 388.55966 215.362629 
L 389.13148 214.97418 
L 389.7033 215.610063 
L 390.27512 215.222617 
L 390.846939 215.855627 
L 392.562398 214.700643 
L 393.134218 215.329881 
L 393.706038 214.947313 
L 394.277858 215.573738 
L 395.993317 214.433206 
L 398.280596 216.910339 
L 399.424235 216.153457 
L 400.567874 217.376648 
L 403.426973 215.504251 
L 403.998793 216.110374 
L 404.570612 215.739539 
L 405.142432 216.34305 
L 405.714252 215.973132 
L 406.286072 216.574052 
L 406.857891 216.205047 
L 408.001531 217.399608 
L 409.71699 216.298036 
L 410.28881 216.890907 
L 411.432449 216.162226 
L 412.004269 216.752195 
L 412.576088 216.389384 
L 413.147908 216.976876 
L 414.863367 215.894887 
L 415.435187 216.479135 
L 417.722466 215.052464 
L 418.294286 215.633109 
L 420.581564 214.22454 
L 421.153384 214.801619 
L 421.725204 214.452111 
L 422.868843 215.599573 
L 423.440663 215.250492 
L 424.012483 215.820908 
L 428.015221 213.407647 
L 428.58704 213.973491 
L 429.15886 213.632995 
L 429.73068 214.196566 
L 430.3025 213.856837 
L 431.446139 214.977596 
L 432.589778 214.300058 
L 434.877057 216.516457 
L 437.736156 214.834968 
L 439.451615 216.472996 
L 440.023435 216.138956 
L 440.595254 216.681076 
L 441.738894 216.015565 
L 442.882533 217.093208 
L 448.028911 214.144888 
L 449.17255 215.209674 
L 450.316189 214.564583 
L 450.888009 215.093794 
L 451.459829 214.772447 
L 452.031649 215.299668 
L 453.747108 214.340695 
L 454.318927 214.865295 
L 454.890747 214.547312 
L 456.034387 215.590974 
L 457.178026 214.956703 
L 457.749846 215.475477 
L 460.608944 213.9053 
L 461.180764 214.420912 
L 464.039863 212.873101 
L 464.611682 213.38558 
L 468.042601 211.557142 
L 468.61442 212.066206 
L 469.75806 211.463424 
L 470.329879 211.970342 
L 470.901699 211.669996 
L 472.617158 213.180776 
L 475.476257 211.687848 
L 476.048077 212.186959 
L 478.335355 211.007202 
L 478.907175 211.503655 
L 481.194454 210.336463 
L 482.909913 211.813629 
L 483.481733 211.523072 
L 484.053553 212.012323 
L 488.056291 209.999709 
L 490.915389 212.415085 
L 491.487209 212.129444 
L 493.202668 213.561458 
L 493.774488 213.275812 
L 494.346307 213.750191 
L 497.777226 212.051489 
L 499.492685 213.461919 
L 500.636324 212.900412 
L 504.067243 215.683225 
L 505.210882 215.121786 
L 506.354521 216.038237 
L 506.926341 215.758182 
L 507.498161 216.214289 
L 510.929079 214.54845 
L 511.500899 215.001878 
L 513.788178 213.9053 
L 514.931817 214.806585 
L 516.075457 214.261751 
L 517.219096 215.157278 
L 517.790916 214.885482 
L 518.934555 215.775785 
L 521.221834 214.69395 
L 521.793654 215.136418 
L 524.080933 214.065038 
L 524.652752 214.50543 
L 529.22731 212.394229 
L 530.942769 213.703107 
L 531.514589 213.441604 
L 534.373687 215.599573 
L 536.089147 214.815813 
L 536.660966 215.243452 
L 537.804606 214.723847 
L 538.376425 215.149972 
L 538.948245 214.890947 
L 539.520065 215.315781 
L 540.663704 214.799277 
L 541.235524 215.222617 
L 541.807344 214.965134 
L 542.379163 215.387199 
L 542.950983 215.130156 
L 544.094623 215.970695 
L 544.666442 215.713887 
L 545.238262 216.132374 
L 545.810082 215.876007 
L 546.381901 216.293246 
L 547.525541 215.782026 
L 548.097361 216.197825 
L 549.241 215.688745 
L 550.956459 216.928779 
L 552.100099 216.421035 
L 552.671918 216.831951 
L 554.387377 216.074428 
L 556.674656 217.705736 
L 558.961935 216.701278 
L 559.533755 217.105869 
L 560.677394 216.606917 
L 561.821034 217.412418 
L 563.536493 216.667386 
L 564.680132 217.467908 
L 566.395591 216.727132 
L 567.539231 217.522735 
L 569.82651 216.541812 
L 570.398329 216.937474 
L 570.970149 216.693517 
L 571.541969 217.088063 
L 574.972887 215.635304 
L 576.688346 216.810185 
L 577.260166 216.569516 
L 577.831986 216.959137 
L 578.975625 216.479135 
L 579.547445 216.8675 
L 580.119265 216.628164 
L 580.691084 217.015454 
L 581.262904 216.776501 
L 583.550183 218.316031 
L 584.693822 217.838433 
L 585.265642 218.220764 
L 586.409281 217.74503 
L 587.552921 218.506404 
L 588.124741 218.269026 
L 589.8402 219.404085 
L 591.555659 218.693748 
L 593.271118 219.819651 
L 595.558397 218.878135 
L 596.130217 219.251116 
L 596.702036 219.016906 
L 597.273856 219.388892 
L 598.417495 218.921738 
L 600.132955 220.031782 
L 601.848414 219.333586 
L 603.563873 220.434866 
L 604.135693 220.202719 
L 604.707512 220.568037 
L 605.279332 220.336256 
L 606.422971 221.064178 
L 609.28207 219.911457 
L 609.85389 220.273489 
L 610.997529 219.815644 
L 611.569349 220.176594 
L 612.712988 219.720458 
L 613.284808 220.080332 
L 614.428447 219.625893 
L 615.572087 220.342723 
L 616.143907 220.115958 
L 616.715726 220.473067 
L 618.431185 219.795285 
L 620.146645 220.860735 
L 620.718464 220.635362 
L 623.577563 222.395241 
L 625.293022 221.719979 
L 625.864842 222.069303 
L 628.152121 221.175105 
L 628.72394 221.523157 
L 631.583039 220.415343 
L 632.154859 220.761998 
L 635.585777 219.447117 
L 636.729416 220.136664 
L 637.301236 219.918853 
L 637.873056 220.262418 
L 638.444875 220.044929 
L 639.016695 220.38765 
L 639.588515 220.170483 
L 640.160335 220.512362 
L 640.732154 220.295516 
L 641.303974 220.636559 
L 641.875794 220.420032 
L 642.447613 220.760244 
L 644.163073 220.112954 
L 646.450351 221.465297 
L 651.596729 219.542615 
L 652.168549 219.877851 
L 652.740368 219.66626 
L 653.884008 220.334447 
L 654.455827 220.123037 
L 656.171287 221.1199 
L 657.314926 220.697626 
L 657.886746 221.028336 
L 659.602205 220.397735 
L 660.174025 220.727422 
L 660.174025 220.727422 
" clip-path="url(#pb019511355)" style="fill: none; stroke: #009afa; stroke-width: 3"/>
   </g>
   <g id="line2d_20">
    <path d="M -1 220.196024 
L 692.2 220.196024 
" clip-path="url(#pb019511355)" style="fill: none; stroke: #e36f47; stroke-width: 2"/>
   </g>
   <g id="patch_3">
    <path d="M 71.788693 288.647244 
L 71.788693 2.952756 
" style="fill: none; stroke: #000000; stroke-linejoin: miter; stroke-linecap: square"/>
   </g>
   <g id="patch_4">
    <path d="M 71.788693 288.647244 
L 677.311461 288.647244 
" style="fill: none; stroke: #000000; stroke-linejoin: miter; stroke-linecap: square"/>
   </g>
   <g id="legend_1">
    <g id="patch_5">
     <path d="M 490.996461 75.522756 
L 669.311461 75.522756 
L 669.311461 10.952756 
L 490.996461 10.952756 
z
" style="fill: #ffffff; stroke: #000000; stroke-linejoin: miter"/>
    </g>
    <g id="line2d_21">
     <path d="M 503.796461 30.310256 
L 519.796461 30.310256 
L 535.796461 30.310256 
" style="fill: none; stroke: #009afa; stroke-width: 2; stroke-linejoin: miter"/>
    </g>
    <g id="text_12">
     <!-- MC trajectory -->
     <g transform="translate(548.596461 35.910256)scale(0.16 -0.16)">
      <defs>
       <path id="DejaVuSans-72" d="M 2631 2963 
Q 2534 3019 2420 3045 
Q 2306 3072 2169 3072 
Q 1681 3072 1420 2755 
Q 1159 2438 1159 1844 
L 1159 0 
L 581 0 
L 581 3500 
L 1159 3500 
L 1159 2956 
Q 1341 3275 1631 3429 
Q 1922 3584 2338 3584 
Q 2397 3584 2469 3576 
Q 2541 3569 2628 3553 
L 2631 2963 
z
" transform="scale(0.015625)"/>
       <path id="DejaVuSans-6a" d="M 603 3500 
L 1178 3500 
L 1178 -63 
Q 1178 -731 923 -1031 
Q 669 -1331 103 -1331 
L -116 -1331 
L -116 -844 
L 38 -844 
Q 366 -844 484 -692 
Q 603 -541 603 -63 
L 603 3500 
z
M 603 4863 
L 1178 4863 
L 1178 4134 
L 603 4134 
L 603 4863 
z
" transform="scale(0.015625)"/>
       <path id="DejaVuSans-63" d="M 3122 3366 
L 3122 2828 
Q 2878 2963 2633 3030 
Q 2388 3097 2138 3097 
Q 1578 3097 1268 2742 
Q 959 2388 959 1747 
Q 959 1106 1268 751 
Q 1578 397 2138 397 
Q 2388 397 2633 464 
Q 2878 531 3122 666 
L 3122 134 
Q 2881 22 2623 -34 
Q 2366 -91 2075 -91 
Q 1284 -91 818 406 
Q 353 903 353 1747 
Q 353 2603 823 3093 
Q 1294 3584 2113 3584 
Q 2378 3584 2631 3529 
Q 2884 3475 3122 3366 
z
" transform="scale(0.015625)"/>
       <path id="DejaVuSans-6f" d="M 1959 3097 
Q 1497 3097 1228 2736 
Q 959 2375 959 1747 
Q 959 1119 1226 758 
Q 1494 397 1959 397 
Q 2419 397 2687 759 
Q 2956 1122 2956 1747 
Q 2956 2369 2687 2733 
Q 2419 3097 1959 3097 
z
M 1959 3584 
Q 2709 3584 3137 3096 
Q 3566 2609 3566 1747 
Q 3566 888 3137 398 
Q 2709 -91 1959 -91 
Q 1206 -91 779 398 
Q 353 888 353 1747 
Q 353 2609 779 3096 
Q 1206 3584 1959 3584 
z
" transform="scale(0.015625)"/>
       <path id="DejaVuSans-79" d="M 2059 -325 
Q 1816 -950 1584 -1140 
Q 1353 -1331 966 -1331 
L 506 -1331 
L 506 -850 
L 844 -850 
Q 1081 -850 1212 -737 
Q 1344 -625 1503 -206 
L 1606 56 
L 191 3500 
L 800 3500 
L 1894 763 
L 2988 3500 
L 3597 3500 
L 2059 -325 
z
" transform="scale(0.015625)"/>
      </defs>
      <use xlink:href="#DejaVuSans-4d"/>
      <use xlink:href="#DejaVuSans-43" x="86.279297"/>
      <use xlink:href="#DejaVuSans-20" x="156.103516"/>
      <use xlink:href="#DejaVuSans-74" x="187.890625"/>
      <use xlink:href="#DejaVuSans-72" x="227.099609"/>
      <use xlink:href="#DejaVuSans-61" x="268.212891"/>
      <use xlink:href="#DejaVuSans-6a" x="329.492188"/>
      <use xlink:href="#DejaVuSans-65" x="357.275391"/>
      <use xlink:href="#DejaVuSans-63" x="418.798828"/>
      <use xlink:href="#DejaVuSans-74" x="473.779297"/>
      <use xlink:href="#DejaVuSans-6f" x="512.988281"/>
      <use xlink:href="#DejaVuSans-72" x="574.169922"/>
      <use xlink:href="#DejaVuSans-79" x="615.283203"/>
     </g>
    </g>
    <g id="line2d_22">
     <path d="M 503.796461 53.795256 
L 519.796461 53.795256 
L 535.796461 53.795256 
" style="fill: none; stroke: #e36f47; stroke-width: 2; stroke-linejoin: miter"/>
    </g>
    <g id="text_13">
     <!-- Analytical -->
     <g transform="translate(548.596461 59.395256)scale(0.16 -0.16)">
      <defs>
       <path id="DejaVuSans-41" d="M 2188 4044 
L 1331 1722 
L 3047 1722 
L 2188 4044 
z
M 1831 4666 
L 2547 4666 
L 4325 0 
L 3669 0 
L 3244 1197 
L 1141 1197 
L 716 0 
L 50 0 
L 1831 4666 
z
" transform="scale(0.015625)"/>
       <path id="DejaVuSans-6e" d="M 3513 2113 
L 3513 0 
L 2938 0 
L 2938 2094 
Q 2938 2591 2744 2837 
Q 2550 3084 2163 3084 
Q 1697 3084 1428 2787 
Q 1159 2491 1159 1978 
L 1159 0 
L 581 0 
L 581 3500 
L 1159 3500 
L 1159 2956 
Q 1366 3272 1645 3428 
Q 1925 3584 2291 3584 
Q 2894 3584 3203 3211 
Q 3513 2838 3513 2113 
z
" transform="scale(0.015625)"/>
       <path id="DejaVuSans-69" d="M 603 3500 
L 1178 3500 
L 1178 0 
L 603 0 
L 603 3500 
z
M 603 4863 
L 1178 4863 
L 1178 4134 
L 603 4134 
L 603 4863 
z
" transform="scale(0.015625)"/>
      </defs>
      <use xlink:href="#DejaVuSans-41"/>
      <use xlink:href="#DejaVuSans-6e" x="68.408203"/>
      <use xlink:href="#DejaVuSans-61" x="131.787109"/>
      <use xlink:href="#DejaVuSans-6c" x="193.066406"/>
      <use xlink:href="#DejaVuSans-79" x="220.849609"/>
      <use xlink:href="#DejaVuSans-74" x="280.029297"/>
      <use xlink:href="#DejaVuSans-69" x="319.238281"/>
      <use xlink:href="#DejaVuSans-63" x="347.021484"/>
      <use xlink:href="#DejaVuSans-61" x="402.001953"/>
      <use xlink:href="#DejaVuSans-6c" x="463.28125"/>
     </g>
    </g>
   </g>
  </g>
 </g>
 <defs>
  <clipPath id="pb019511355">
   <rect x="71.788693" y="2.952756" width="605.522768" height="285.694488"/>
  </clipPath>
 </defs>
</svg>
