<?xml version="1.0" encoding="utf-8" standalone="no"?>
<!DOCTYPE svg PUBLIC "-//W3C//DTD SVG 1.1//EN"
  "http://www.w3.org/Graphics/SVG/1.1/DTD/svg11.dtd">
<svg xmlns:xlink="http://www.w3.org/1999/xlink" width="691.2pt" height="345.6pt" viewBox="0 0 691.2 345.6" xmlns="http://www.w3.org/2000/svg" version="1.1">
 <metadata>
  <rdf:RDF xmlns:dc="http://purl.org/dc/elements/1.1/" xmlns:cc="http://creativecommons.org/ns#" xmlns:rdf="http://www.w3.org/1999/02/22-rdf-syntax-ns#">
   <cc:Work>
    <dc:type rdf:resource="http://purl.org/dc/dcmitype/StillImage"/>
    <dc:date>2022-09-04T22:34:29.690756</dc:date>
    <dc:format>image/svg+xml</dc:format>
    <dc:creator>
     <cc:Agent>
      <dc:title>Matplotlib v3.5.2, https://matplotlib.org/</dc:title>
     </cc:Agent>
    </dc:creator>
   </cc:Work>
  </rdf:RDF>
 </metadata>
 <defs>
  <style type="text/css">*{stroke-linejoin: round; stroke-linecap: butt}</style>
 </defs>
 <g id="figure_1">
  <g id="patch_1">
   <path d="M 0 345.6 
L 691.2 345.6 
L 691.2 0 
L 0 0 
z
" style="fill: #ffffff"/>
  </g>
  <g id="axes_1">
   <g id="patch_2">
    <path d="M 71.788693 288.647244 
L 677.311461 288.647244 
L 677.311461 2.952756 
L 71.788693 2.952756 
z
" style="fill: #ffffff"/>
   </g>
   <g id="matplotlib.axis_1">
    <g id="xtick_1">
     <g id="line2d_1">
      <path d="M 88.354311 288.647244 
L 88.354311 2.952756 
" clip-path="url(#pbbd7504877)" style="fill: none; stroke: #000000; stroke-opacity: 0.1; stroke-width: 0.5; stroke-linecap: square"/>
     </g>
     <g id="line2d_2">
      <defs>
       <path id="m615bfdc836" d="M 0 0 
L 0 -2.5 
" style="stroke: #000000; stroke-width: 0.5"/>
      </defs>
      <g>
       <use xlink:href="#m615bfdc836" x="88.354311" y="288.647244" style="stroke: #000000; stroke-width: 0.5"/>
      </g>
     </g>
     <g id="text_1">
      <!-- $0$ -->
      <g transform="translate(80.674311 310.383494)scale(0.24 -0.24)">
       <defs>
        <path id="DejaVuSans-30" d="M 2034 4250 
Q 1547 4250 1301 3770 
Q 1056 3291 1056 2328 
Q 1056 1369 1301 889 
Q 1547 409 2034 409 
Q 2525 409 2770 889 
Q 3016 1369 3016 2328 
Q 3016 3291 2770 3770 
Q 2525 4250 2034 4250 
z
M 2034 4750 
Q 2819 4750 3233 4129 
Q 3647 3509 3647 2328 
Q 3647 1150 3233 529 
Q 2819 -91 2034 -91 
Q 1250 -91 836 529 
Q 422 1150 422 2328 
Q 422 3509 836 4129 
Q 1250 4750 2034 4750 
z
" transform="scale(0.015625)"/>
       </defs>
       <use xlink:href="#DejaVuSans-30" transform="translate(0 0.78125)"/>
      </g>
     </g>
    </g>
    <g id="xtick_2">
     <g id="line2d_3">
      <path d="M 231.309239 288.647244 
L 231.309239 2.952756 
" clip-path="url(#pbbd7504877)" style="fill: none; stroke: #000000; stroke-opacity: 0.1; stroke-width: 0.5; stroke-linecap: square"/>
     </g>
     <g id="line2d_4">
      <g>
       <use xlink:href="#m615bfdc836" x="231.309239" y="288.647244" style="stroke: #000000; stroke-width: 0.5"/>
      </g>
     </g>
     <g id="text_2">
      <!-- $250$ -->
      <g transform="translate(208.389239 310.383494)scale(0.24 -0.24)">
       <defs>
        <path id="DejaVuSans-32" d="M 1228 531 
L 3431 531 
L 3431 0 
L 469 0 
L 469 531 
Q 828 903 1448 1529 
Q 2069 2156 2228 2338 
Q 2531 2678 2651 2914 
Q 2772 3150 2772 3378 
Q 2772 3750 2511 3984 
Q 2250 4219 1831 4219 
Q 1534 4219 1204 4116 
Q 875 4013 500 3803 
L 500 4441 
Q 881 4594 1212 4672 
Q 1544 4750 1819 4750 
Q 2544 4750 2975 4387 
Q 3406 4025 3406 3419 
Q 3406 3131 3298 2873 
Q 3191 2616 2906 2266 
Q 2828 2175 2409 1742 
Q 1991 1309 1228 531 
z
" transform="scale(0.015625)"/>
        <path id="DejaVuSans-35" d="M 691 4666 
L 3169 4666 
L 3169 4134 
L 1269 4134 
L 1269 2991 
Q 1406 3038 1543 3061 
Q 1681 3084 1819 3084 
Q 2600 3084 3056 2656 
Q 3513 2228 3513 1497 
Q 3513 744 3044 326 
Q 2575 -91 1722 -91 
Q 1428 -91 1123 -41 
Q 819 9 494 109 
L 494 744 
Q 775 591 1075 516 
Q 1375 441 1709 441 
Q 2250 441 2565 725 
Q 2881 1009 2881 1497 
Q 2881 1984 2565 2268 
Q 2250 2553 1709 2553 
Q 1456 2553 1204 2497 
Q 953 2441 691 2322 
L 691 4666 
z
" transform="scale(0.015625)"/>
       </defs>
       <use xlink:href="#DejaVuSans-32" transform="translate(0 0.78125)"/>
       <use xlink:href="#DejaVuSans-35" transform="translate(63.623047 0.78125)"/>
       <use xlink:href="#DejaVuSans-30" transform="translate(127.246094 0.78125)"/>
      </g>
     </g>
    </g>
    <g id="xtick_3">
     <g id="line2d_5">
      <path d="M 374.264168 288.647244 
L 374.264168 2.952756 
" clip-path="url(#pbbd7504877)" style="fill: none; stroke: #000000; stroke-opacity: 0.1; stroke-width: 0.5; stroke-linecap: square"/>
     </g>
     <g id="line2d_6">
      <g>
       <use xlink:href="#m615bfdc836" x="374.264168" y="288.647244" style="stroke: #000000; stroke-width: 0.5"/>
      </g>
     </g>
     <g id="text_3">
      <!-- $500$ -->
      <g transform="translate(351.344168 310.383494)scale(0.24 -0.24)">
       <use xlink:href="#DejaVuSans-35" transform="translate(0 0.78125)"/>
       <use xlink:href="#DejaVuSans-30" transform="translate(63.623047 0.78125)"/>
       <use xlink:href="#DejaVuSans-30" transform="translate(127.246094 0.78125)"/>
      </g>
     </g>
    </g>
    <g id="xtick_4">
     <g id="line2d_7">
      <path d="M 517.219096 288.647244 
L 517.219096 2.952756 
" clip-path="url(#pbbd7504877)" style="fill: none; stroke: #000000; stroke-opacity: 0.1; stroke-width: 0.5; stroke-linecap: square"/>
     </g>
     <g id="line2d_8">
      <g>
       <use xlink:href="#m615bfdc836" x="517.219096" y="288.647244" style="stroke: #000000; stroke-width: 0.5"/>
      </g>
     </g>
     <g id="text_4">
      <!-- $750$ -->
      <g transform="translate(494.299096 310.383494)scale(0.24 -0.24)">
       <defs>
        <path id="DejaVuSans-37" d="M 525 4666 
L 3525 4666 
L 3525 4397 
L 1831 0 
L 1172 0 
L 2766 4134 
L 525 4134 
L 525 4666 
z
" transform="scale(0.015625)"/>
       </defs>
       <use xlink:href="#DejaVuSans-37" transform="translate(0 0.78125)"/>
       <use xlink:href="#DejaVuSans-35" transform="translate(63.623047 0.78125)"/>
       <use xlink:href="#DejaVuSans-30" transform="translate(127.246094 0.78125)"/>
      </g>
     </g>
    </g>
    <g id="xtick_5">
     <g id="line2d_9">
      <path d="M 660.174025 288.647244 
L 660.174025 2.952756 
" clip-path="url(#pbbd7504877)" style="fill: none; stroke: #000000; stroke-opacity: 0.1; stroke-width: 0.5; stroke-linecap: square"/>
     </g>
     <g id="line2d_10">
      <g>
       <use xlink:href="#m615bfdc836" x="660.174025" y="288.647244" style="stroke: #000000; stroke-width: 0.5"/>
      </g>
     </g>
     <g id="text_5">
      <!-- $1000$ -->
      <g transform="translate(629.574025 310.383494)scale(0.24 -0.24)">
       <defs>
        <path id="DejaVuSans-31" d="M 794 531 
L 1825 531 
L 1825 4091 
L 703 3866 
L 703 4441 
L 1819 4666 
L 2450 4666 
L 2450 531 
L 3481 531 
L 3481 0 
L 794 0 
L 794 531 
z
" transform="scale(0.015625)"/>
       </defs>
       <use xlink:href="#DejaVuSans-31" transform="translate(0 0.78125)"/>
       <use xlink:href="#DejaVuSans-30" transform="translate(63.623047 0.78125)"/>
       <use xlink:href="#DejaVuSans-30" transform="translate(127.246094 0.78125)"/>
       <use xlink:href="#DejaVuSans-30" transform="translate(190.869141 0.78125)"/>
      </g>
     </g>
    </g>
    <g id="text_6">
     <!-- MC steps -->
     <g transform="translate(319.794452 337.610994)scale(0.24 -0.24)">
      <defs>
       <path id="DejaVuSans-4d" d="M 628 4666 
L 1569 4666 
L 2759 1491 
L 3956 4666 
L 4897 4666 
L 4897 0 
L 4281 0 
L 4281 4097 
L 3078 897 
L 2444 897 
L 1241 4097 
L 1241 0 
L 628 0 
L 628 4666 
z
" transform="scale(0.015625)"/>
       <path id="DejaVuSans-43" d="M 4122 4306 
L 4122 3641 
Q 3803 3938 3442 4084 
Q 3081 4231 2675 4231 
Q 1875 4231 1450 3742 
Q 1025 3253 1025 2328 
Q 1025 1406 1450 917 
Q 1875 428 2675 428 
Q 3081 428 3442 575 
Q 3803 722 4122 1019 
L 4122 359 
Q 3791 134 3420 21 
Q 3050 -91 2638 -91 
Q 1578 -91 968 557 
Q 359 1206 359 2328 
Q 359 3453 968 4101 
Q 1578 4750 2638 4750 
Q 3056 4750 3426 4639 
Q 3797 4528 4122 4306 
z
" transform="scale(0.015625)"/>
       <path id="DejaVuSans-20" transform="scale(0.015625)"/>
       <path id="DejaVuSans-73" d="M 2834 3397 
L 2834 2853 
Q 2591 2978 2328 3040 
Q 2066 3103 1784 3103 
Q 1356 3103 1142 2972 
Q 928 2841 928 2578 
Q 928 2378 1081 2264 
Q 1234 2150 1697 2047 
L 1894 2003 
Q 2506 1872 2764 1633 
Q 3022 1394 3022 966 
Q 3022 478 2636 193 
Q 2250 -91 1575 -91 
Q 1294 -91 989 -36 
Q 684 19 347 128 
L 347 722 
Q 666 556 975 473 
Q 1284 391 1588 391 
Q 1994 391 2212 530 
Q 2431 669 2431 922 
Q 2431 1156 2273 1281 
Q 2116 1406 1581 1522 
L 1381 1569 
Q 847 1681 609 1914 
Q 372 2147 372 2553 
Q 372 3047 722 3315 
Q 1072 3584 1716 3584 
Q 2034 3584 2315 3537 
Q 2597 3491 2834 3397 
z
" transform="scale(0.015625)"/>
       <path id="DejaVuSans-74" d="M 1172 4494 
L 1172 3500 
L 2356 3500 
L 2356 3053 
L 1172 3053 
L 1172 1153 
Q 1172 725 1289 603 
Q 1406 481 1766 481 
L 2356 481 
L 2356 0 
L 1766 0 
Q 1100 0 847 248 
Q 594 497 594 1153 
L 594 3053 
L 172 3053 
L 172 3500 
L 594 3500 
L 594 4494 
L 1172 4494 
z
" transform="scale(0.015625)"/>
       <path id="DejaVuSans-65" d="M 3597 1894 
L 3597 1613 
L 953 1613 
Q 991 1019 1311 708 
Q 1631 397 2203 397 
Q 2534 397 2845 478 
Q 3156 559 3463 722 
L 3463 178 
Q 3153 47 2828 -22 
Q 2503 -91 2169 -91 
Q 1331 -91 842 396 
Q 353 884 353 1716 
Q 353 2575 817 3079 
Q 1281 3584 2069 3584 
Q 2775 3584 3186 3129 
Q 3597 2675 3597 1894 
z
M 3022 2063 
Q 3016 2534 2758 2815 
Q 2500 3097 2075 3097 
Q 1594 3097 1305 2825 
Q 1016 2553 972 2059 
L 3022 2063 
z
" transform="scale(0.015625)"/>
       <path id="DejaVuSans-70" d="M 1159 525 
L 1159 -1331 
L 581 -1331 
L 581 3500 
L 1159 3500 
L 1159 2969 
Q 1341 3281 1617 3432 
Q 1894 3584 2278 3584 
Q 2916 3584 3314 3078 
Q 3713 2572 3713 1747 
Q 3713 922 3314 415 
Q 2916 -91 2278 -91 
Q 1894 -91 1617 61 
Q 1341 213 1159 525 
z
M 3116 1747 
Q 3116 2381 2855 2742 
Q 2594 3103 2138 3103 
Q 1681 3103 1420 2742 
Q 1159 2381 1159 1747 
Q 1159 1113 1420 752 
Q 1681 391 2138 391 
Q 2594 391 2855 752 
Q 3116 1113 3116 1747 
z
" transform="scale(0.015625)"/>
      </defs>
      <use xlink:href="#DejaVuSans-4d"/>
      <use xlink:href="#DejaVuSans-43" x="86.279297"/>
      <use xlink:href="#DejaVuSans-20" x="156.103516"/>
      <use xlink:href="#DejaVuSans-73" x="187.890625"/>
      <use xlink:href="#DejaVuSans-74" x="239.990234"/>
      <use xlink:href="#DejaVuSans-65" x="279.199219"/>
      <use xlink:href="#DejaVuSans-70" x="340.722656"/>
      <use xlink:href="#DejaVuSans-73" x="404.199219"/>
     </g>
    </g>
   </g>
   <g id="matplotlib.axis_2">
    <g id="ytick_1">
     <g id="line2d_11">
      <path d="M 71.788693 280.561551 
L 677.311461 280.561551 
" clip-path="url(#pbbd7504877)" style="fill: none; stroke: #000000; stroke-opacity: 0.1; stroke-width: 0.5; stroke-linecap: square"/>
     </g>
     <g id="line2d_12">
      <defs>
       <path id="m28bf1f5db9" d="M 0 0 
L 2.5 0 
" style="stroke: #000000; stroke-width: 0.5"/>
      </defs>
      <g>
       <use xlink:href="#m28bf1f5db9" x="71.788693" y="280.561551" style="stroke: #000000; stroke-width: 0.5"/>
      </g>
     </g>
     <g id="text_7">
      <!-- $0.0$ -->
      <g transform="translate(29.888693 289.679676)scale(0.24 -0.24)">
       <defs>
        <path id="DejaVuSans-2e" d="M 684 794 
L 1344 794 
L 1344 0 
L 684 0 
L 684 794 
z
" transform="scale(0.015625)"/>
       </defs>
       <use xlink:href="#DejaVuSans-30" transform="translate(0 0.78125)"/>
       <use xlink:href="#DejaVuSans-2e" transform="translate(63.623047 0.78125)"/>
       <use xlink:href="#DejaVuSans-30" transform="translate(95.410156 0.78125)"/>
      </g>
     </g>
    </g>
    <g id="ytick_2">
     <g id="line2d_13">
      <path d="M 71.788693 231.956596 
L 677.311461 231.956596 
" clip-path="url(#pbbd7504877)" style="fill: none; stroke: #000000; stroke-opacity: 0.1; stroke-width: 0.5; stroke-linecap: square"/>
     </g>
     <g id="line2d_14">
      <g>
       <use xlink:href="#m28bf1f5db9" x="71.788693" y="231.956596" style="stroke: #000000; stroke-width: 0.5"/>
      </g>
     </g>
     <g id="text_8">
      <!-- $0.5$ -->
      <g transform="translate(29.888693 241.074721)scale(0.24 -0.24)">
       <use xlink:href="#DejaVuSans-30" transform="translate(0 0.78125)"/>
       <use xlink:href="#DejaVuSans-2e" transform="translate(63.623047 0.78125)"/>
       <use xlink:href="#DejaVuSans-35" transform="translate(95.410156 0.78125)"/>
      </g>
     </g>
    </g>
    <g id="ytick_3">
     <g id="line2d_15">
      <path d="M 71.788693 183.35164 
L 677.311461 183.35164 
" clip-path="url(#pbbd7504877)" style="fill: none; stroke: #000000; stroke-opacity: 0.1; stroke-width: 0.5; stroke-linecap: square"/>
     </g>
     <g id="line2d_16">
      <g>
       <use xlink:href="#m28bf1f5db9" x="71.788693" y="183.35164" style="stroke: #000000; stroke-width: 0.5"/>
      </g>
     </g>
     <g id="text_9">
      <!-- $1.0$ -->
      <g transform="translate(29.888693 192.469765)scale(0.24 -0.24)">
       <use xlink:href="#DejaVuSans-31" transform="translate(0 0.78125)"/>
       <use xlink:href="#DejaVuSans-2e" transform="translate(63.623047 0.78125)"/>
       <use xlink:href="#DejaVuSans-30" transform="translate(95.410156 0.78125)"/>
      </g>
     </g>
    </g>
    <g id="ytick_4">
     <g id="line2d_17">
      <path d="M 71.788693 134.746685 
L 677.311461 134.746685 
" clip-path="url(#pbbd7504877)" style="fill: none; stroke: #000000; stroke-opacity: 0.1; stroke-width: 0.5; stroke-linecap: square"/>
     </g>
     <g id="line2d_18">
      <g>
       <use xlink:href="#m28bf1f5db9" x="71.788693" y="134.746685" style="stroke: #000000; stroke-width: 0.5"/>
      </g>
     </g>
     <g id="text_10">
      <!-- $1.5$ -->
      <g transform="translate(29.888693 143.86481)scale(0.24 -0.24)">
       <use xlink:href="#DejaVuSans-31" transform="translate(0 0.09375)"/>
       <use xlink:href="#DejaVuSans-2e" transform="translate(63.623047 0.09375)"/>
       <use xlink:href="#DejaVuSans-35" transform="translate(95.410156 0.09375)"/>
      </g>
     </g>
    </g>
    <g id="ytick_5">
     <g id="line2d_19">
      <path d="M 71.788693 86.14173 
L 677.311461 86.14173 
" clip-path="url(#pbbd7504877)" style="fill: none; stroke: #000000; stroke-opacity: 0.1; stroke-width: 0.5; stroke-linecap: square"/>
     </g>
     <g id="line2d_20">
      <g>
       <use xlink:href="#m28bf1f5db9" x="71.788693" y="86.14173" style="stroke: #000000; stroke-width: 0.5"/>
      </g>
     </g>
     <g id="text_11">
      <!-- $2.0$ -->
      <g transform="translate(29.888693 95.259855)scale(0.24 -0.24)">
       <use xlink:href="#DejaVuSans-32" transform="translate(0 0.78125)"/>
       <use xlink:href="#DejaVuSans-2e" transform="translate(63.623047 0.78125)"/>
       <use xlink:href="#DejaVuSans-30" transform="translate(95.410156 0.78125)"/>
      </g>
     </g>
    </g>
    <g id="ytick_6">
     <g id="line2d_21">
      <path d="M 71.788693 37.536774 
L 677.311461 37.536774 
" clip-path="url(#pbbd7504877)" style="fill: none; stroke: #000000; stroke-opacity: 0.1; stroke-width: 0.5; stroke-linecap: square"/>
     </g>
     <g id="line2d_22">
      <g>
       <use xlink:href="#m28bf1f5db9" x="71.788693" y="37.536774" style="stroke: #000000; stroke-width: 0.5"/>
      </g>
     </g>
     <g id="text_12">
      <!-- $2.5$ -->
      <g transform="translate(29.888693 46.654899)scale(0.24 -0.24)">
       <use xlink:href="#DejaVuSans-32" transform="translate(0 0.78125)"/>
       <use xlink:href="#DejaVuSans-2e" transform="translate(63.623047 0.78125)"/>
       <use xlink:href="#DejaVuSans-35" transform="translate(95.410156 0.78125)"/>
      </g>
     </g>
    </g>
    <g id="text_13">
     <!-- MC value -->
     <g transform="translate(20.897443 201.125625)rotate(-90)scale(0.24 -0.24)">
      <defs>
       <path id="DejaVuSans-76" d="M 191 3500 
L 800 3500 
L 1894 563 
L 2988 3500 
L 3597 3500 
L 2284 0 
L 1503 0 
L 191 3500 
z
" transform="scale(0.015625)"/>
       <path id="DejaVuSans-61" d="M 2194 1759 
Q 1497 1759 1228 1600 
Q 959 1441 959 1056 
Q 959 750 1161 570 
Q 1363 391 1709 391 
Q 2188 391 2477 730 
Q 2766 1069 2766 1631 
L 2766 1759 
L 2194 1759 
z
M 3341 1997 
L 3341 0 
L 2766 0 
L 2766 531 
Q 2569 213 2275 61 
Q 1981 -91 1556 -91 
Q 1019 -91 701 211 
Q 384 513 384 1019 
Q 384 1609 779 1909 
Q 1175 2209 1959 2209 
L 2766 2209 
L 2766 2266 
Q 2766 2663 2505 2880 
Q 2244 3097 1772 3097 
Q 1472 3097 1187 3025 
Q 903 2953 641 2809 
L 641 3341 
Q 956 3463 1253 3523 
Q 1550 3584 1831 3584 
Q 2591 3584 2966 3190 
Q 3341 2797 3341 1997 
z
" transform="scale(0.015625)"/>
       <path id="DejaVuSans-6c" d="M 603 4863 
L 1178 4863 
L 1178 0 
L 603 0 
L 603 4863 
z
" transform="scale(0.015625)"/>
       <path id="DejaVuSans-75" d="M 544 1381 
L 544 3500 
L 1119 3500 
L 1119 1403 
Q 1119 906 1312 657 
Q 1506 409 1894 409 
Q 2359 409 2629 706 
Q 2900 1003 2900 1516 
L 2900 3500 
L 3475 3500 
L 3475 0 
L 2900 0 
L 2900 538 
Q 2691 219 2414 64 
Q 2138 -91 1772 -91 
Q 1169 -91 856 284 
Q 544 659 544 1381 
z
M 1991 3584 
L 1991 3584 
z
" transform="scale(0.015625)"/>
      </defs>
      <use xlink:href="#DejaVuSans-4d"/>
      <use xlink:href="#DejaVuSans-43" x="86.279297"/>
      <use xlink:href="#DejaVuSans-20" x="156.103516"/>
      <use xlink:href="#DejaVuSans-76" x="187.890625"/>
      <use xlink:href="#DejaVuSans-61" x="247.070312"/>
      <use xlink:href="#DejaVuSans-6c" x="308.349609"/>
      <use xlink:href="#DejaVuSans-75" x="336.132812"/>
      <use xlink:href="#DejaVuSans-65" x="399.511719"/>
     </g>
    </g>
   </g>
   <g id="line2d_23">
    <path d="M 88.92613 280.561551 
L 89.49795 78.419224 
L 90.06977 145.8 
L 90.641589 179.490388 
L 91.213409 118.84769 
L 91.785229 78.419224 
L 92.357049 107.2967 
L 92.928868 78.419224 
L 93.500688 55.958966 
L 94.644327 23.289499 
L 95.216147 11.038449 
L 95.787967 31.770995 
L 96.359787 20.664274 
L 97.503426 53.151434 
L 98.075246 42.747049 
L 98.647065 55.958966 
L 99.218885 46.502015 
L 100.362525 68.793399 
L 100.934344 60.042649 
L 101.506164 69.630428 
L 102.649803 54.162145 
L 103.793443 70.932472 
L 104.365263 78.419224 
L 104.937082 71.448799 
L 106.652541 91.05312 
L 107.796181 78.419224 
L 108.368001 84.19472 
L 109.51164 72.955918 
L 110.08346 78.419224 
L 111.798919 63.628323 
L 112.370739 59.167574 
L 114.086198 73.927173 
L 115.801657 61.574031 
L 116.373477 66.043164 
L 118.088936 55.09511 
L 118.660755 51.721181 
L 119.232575 55.958966 
L 119.804395 52.692019 
L 120.376215 56.761118 
L 122.091674 47.583954 
L 124.378953 62.376183 
L 124.950772 59.468381 
L 125.522592 62.869815 
L 126.666231 57.299877 
L 127.238051 60.583137 
L 128.95351 52.795549 
L 129.52533 55.958966 
L 130.09715 53.497568 
L 131.812609 62.46062 
L 133.528068 55.390352 
L 134.099888 58.204992 
L 134.671707 55.958966 
L 135.243527 58.698022 
L 136.387166 54.354662 
L 136.958986 57.015919 
L 139.246265 48.892817 
L 140.389904 45.099061 
L 140.961724 47.658436 
L 141.533544 45.815623 
L 143.249003 53.151434 
L 143.820823 51.327985 
L 144.392642 53.667103 
L 144.964462 51.875283 
L 146.108102 56.403724 
L 146.679921 54.637774 
L 147.251741 56.831209 
L 147.823561 55.09511 
L 148.39538 57.242409 
L 148.9672 55.535188 
L 149.53902 57.638238 
L 150.11084 55.958966 
L 150.682659 58.01954 
L 151.254479 56.367334 
L 151.826299 58.387102 
L 153.541758 53.594728 
L 155.257217 59.41439 
L 155.829037 57.862378 
L 156.400856 59.733799 
L 157.544496 56.701454 
L 158.116316 58.536373 
L 159.259955 55.596704 
L 160.975414 60.910834 
L 163.834513 53.917124 
L 166.693611 47.433904 
L 167.837251 44.971214 
L 168.40907 46.654002 
L 168.98089 45.445653 
L 169.55271 47.101399 
L 170.12453 45.906822 
L 171.268169 49.143439 
L 172.983628 45.639388 
L 173.555448 47.216047 
L 174.699087 44.951952 
L 175.270907 46.502015 
L 175.842727 45.389433 
L 176.414546 46.916524 
L 178.701825 42.596534 
L 179.273645 44.093169 
L 180.417284 42.008495 
L 180.989104 43.481045 
L 182.704563 40.440969 
L 183.848203 43.316665 
L 187.279121 37.523378 
L 187.850941 36.596674 
L 188.42276 37.990759 
L 188.99458 37.07193 
L 190.13822 39.807769 
L 190.710039 38.894189 
L 191.281859 40.236785 
L 193.569138 36.67244 
L 194.712777 39.294903 
L 195.284597 38.423149 
L 195.856417 39.711119 
L 198.715515 35.477072 
L 199.859155 37.990759 
L 200.430974 37.165688 
L 201.002794 38.4012 
L 202.146434 36.77181 
L 203.861893 40.39245 
L 205.005532 38.783474 
L 206.149172 41.130834 
L 207.292811 39.5457 
L 207.864631 40.698886 
L 208.43645 39.915924 
L 209.00827 41.056425 
L 210.15191 39.509199 
L 210.723729 40.635612 
L 211.295549 39.871153 
L 211.867369 40.98546 
L 212.439188 40.226435 
L 213.011008 41.328889 
L 214.726467 39.088365 
L 215.870107 41.254043 
L 217.013746 39.78758 
L 218.157386 41.908936 
L 219.872845 39.748519 
L 222.731943 44.8722 
L 223.303763 44.157813 
L 225.591042 48.097876 
L 226.734681 46.677867 
L 227.306501 47.640352 
L 227.878321 46.938042 
L 228.45014 47.891608 
L 229.02196 47.193987 
L 229.59378 48.138795 
L 230.1656 47.445803 
L 230.737419 48.382011 
L 231.309239 47.693591 
L 231.881059 48.621352 
L 233.024698 47.258945 
L 233.596518 48.177459 
L 234.740157 46.834486 
L 235.883797 48.646324 
L 239.314715 44.728837 
L 240.458354 46.502015 
L 241.030174 45.864468 
L 241.601994 46.740203 
L 243.317453 44.853155 
L 244.461092 46.579957 
L 246.748371 44.120707 
L 247.892011 45.815623 
L 249.03565 44.608942 
L 251.322929 47.920558 
L 252.466568 46.724435 
L 253.038388 47.536369 
L 253.610208 46.943776 
L 254.182028 47.749354 
L 255.325667 46.574885 
L 257.041126 48.954411 
L 257.612946 48.371041 
L 258.184766 49.152827 
L 258.756585 48.572706 
L 259.328405 49.348589 
L 260.472044 48.198611 
L 261.043864 48.968025 
L 262.759323 47.269423 
L 263.331143 48.031816 
L 266.190242 45.270483 
L 266.762061 46.024621 
L 267.333881 45.482296 
L 267.905701 46.230956 
L 270.764799 43.567099 
L 271.908439 45.0437 
L 272.480258 44.51958 
L 273.052078 45.25036 
L 273.623898 44.728837 
L 274.767537 46.175663 
L 275.911177 45.139695 
L 278.198456 47.976103 
L 281.057554 45.428637 
L 281.629374 46.124297 
L 282.201194 45.623272 
L 283.344833 47.001209 
L 284.488472 46.005732 
L 285.060292 46.68758 
L 285.632112 46.193636 
L 286.775751 47.54446 
L 287.347571 47.052312 
L 288.49121 48.38665 
L 289.06303 47.896309 
L 289.63485 48.55729 
L 291.350309 47.101399 
L 291.922129 47.757186 
L 293.065768 46.799196 
L 294.209408 48.097876 
L 294.781227 47.621917 
L 295.353047 48.265397 
L 295.924867 47.791599 
L 297.640326 49.69955 
L 298.212146 49.227008 
L 298.783965 49.855635 
L 302.214884 47.070949 
L 302.786703 47.693591 
L 303.358523 47.237695 
L 303.930343 47.856592 
L 306.789441 45.610784 
L 307.361261 46.224233 
L 313.079458 41.899873 
L 314.223098 43.108286 
L 314.794917 42.686995 
L 315.366737 43.286175 
L 315.938557 42.866554 
L 316.510376 43.462281 
L 318.797655 41.802873 
L 320.513114 43.567099 
L 321.084934 43.156067 
L 323.372213 45.466582 
L 324.515852 44.647262 
L 325.659492 45.784198 
L 327.374951 44.567639 
L 329.09041 46.249306 
L 333.093148 43.469383 
L 334.236788 44.572137 
L 334.808607 44.181661 
L 335.952247 45.273485 
L 336.524066 44.884092 
L 337.095886 45.425879 
L 339.383165 43.884658 
L 339.954985 44.42256 
L 340.526804 44.041278 
L 341.098624 44.576392 
L 343.385903 43.066979 
L 343.957723 43.598287 
L 344.529542 43.224802 
L 345.673182 44.279632 
L 346.245002 43.90712 
L 347.960461 45.470916 
L 350.819559 43.627844 
L 351.391379 44.142917 
L 353.678658 42.695796 
L 356.537756 45.231678 
L 357.109576 44.8722 
L 357.681396 45.372602 
L 358.825035 44.65761 
L 359.396855 45.155297 
L 361.684134 43.742089 
L 362.255954 44.236493 
L 365.686872 42.158642 
L 366.830511 43.13771 
L 369.11779 41.778355 
L 370.26143 42.747049 
L 371.976889 41.740173 
L 373.692348 43.175973 
L 374.835987 42.509709 
L 375.407807 42.983916 
L 375.979627 42.652491 
L 377.695086 44.063019 
L 378.266906 43.73208 
L 378.838725 44.198279 
L 379.982365 43.539764 
L 380.554184 44.003603 
L 381.126004 43.676012 
L 381.697824 44.137777 
L 382.269644 43.8112 
L 382.841463 44.270909 
L 383.985103 43.621029 
L 384.556922 44.078443 
L 385.128742 43.755126 
L 386.844201 45.116083 
L 387.416021 44.793254 
L 389.13148 46.13794 
L 390.27512 45.494527 
L 390.846939 45.938888 
L 392.562398 44.982148 
L 393.706038 45.864468 
L 394.849677 45.231678 
L 395.421497 45.669909 
L 395.993317 45.355052 
L 397.136956 46.226187 
L 398.280596 45.599068 
L 399.424235 46.462901 
L 402.283334 44.912937 
L 403.426973 45.768286 
L 403.998793 45.461236 
L 405.142432 46.309974 
L 406.857891 45.394177 
L 408.57335 46.654002 
L 409.14517 46.350299 
L 410.28881 47.182311 
L 410.860629 46.879287 
L 412.004269 47.705019 
L 413.719728 46.80118 
L 414.291548 47.211286 
L 415.435187 46.613614 
L 416.007007 47.0219 
L 416.578826 46.724435 
L 418.866105 48.342685 
L 419.437925 48.045507 
L 420.581564 48.845906 
L 422.297024 47.959422 
L 422.868843 48.357032 
L 424.012483 47.770729 
L 424.584302 48.166631 
L 426.299762 47.294095 
L 426.871581 47.688128 
L 428.015221 47.110985 
L 429.15886 47.894377 
L 431.446139 46.75026 
L 432.017959 47.139297 
L 433.161598 46.572589 
L 434.305238 47.346107 
L 436.592516 46.222499 
L 437.164336 46.606662 
L 437.736156 46.327889 
L 439.451615 47.472354 
L 441.738894 46.364292 
L 442.882533 47.119767 
L 443.454353 46.844658 
L 444.026173 47.220409 
L 444.597992 46.946021 
L 445.169812 47.320405 
L 445.741632 47.046735 
L 446.313451 47.419762 
L 447.457091 46.874721 
L 449.74437 48.353752 
L 452.603468 47.00307 
L 453.175288 47.369149 
L 456.606206 45.775122 
L 457.178026 46.139132 
L 458.321665 45.614056 
L 459.465305 46.338085 
L 460.608944 45.815623 
L 461.752584 46.5346 
L 462.896223 46.014729 
L 464.611682 47.084092 
L 467.470781 45.795953 
L 468.042601 46.149516 
L 468.61442 45.894068 
L 469.18624 46.246422 
L 469.75806 45.991595 
L 470.329879 46.342748 
L 470.901699 46.088538 
L 471.473519 46.438498 
L 473.760798 45.428637 
L 474.332617 45.776982 
L 475.476257 45.276243 
L 476.048077 45.623272 
L 480.050815 43.892725 
L 483.481733 45.947736 
L 484.625372 45.458066 
L 485.197192 45.796832 
L 492.059029 42.915473 
L 492.630848 43.251606 
L 493.774488 42.780591 
L 495.489947 43.782478 
L 498.349045 42.614377 
L 498.920865 42.94578 
L 500.064505 42.482811 
L 500.636324 42.813017 
L 501.208144 42.582358 
L 501.779964 42.911513 
L 502.923603 42.451831 
L 503.495423 42.779806 
L 506.354521 41.640935 
L 506.926341 41.96733 
L 508.069981 41.515857 
L 508.6418 41.841089 
L 510.929079 40.944937 
L 511.500899 41.268743 
L 513.788178 40.38169 
L 514.359997 40.704079 
L 516.075457 40.044612 
L 516.647276 40.365729 
L 517.219096 40.146944 
L 517.790916 40.46707 
L 518.934555 40.030974 
L 519.506375 40.34998 
L 520.078195 40.132665 
L 520.650014 40.450692 
L 521.221834 40.233818 
L 522.365473 40.867093 
L 525.224572 39.789932 
L 525.796392 40.104666 
L 528.65549 39.040849 
L 530.370949 39.978187 
L 530.942769 39.766687 
L 531.514589 40.07739 
L 532.658228 39.655767 
L 533.801868 40.274267 
L 534.945507 39.854299 
L 535.517327 40.162109 
L 537.232786 39.535796 
L 537.804606 39.842445 
L 538.376425 39.63461 
L 538.948245 39.940355 
L 540.091885 39.526017 
L 540.663704 39.83074 
L 541.807344 39.418246 
L 542.950983 40.024896 
L 544.666442 39.409302 
L 545.810082 40.012182 
L 546.381901 39.807769 
L 547.525541 40.407405 
L 548.097361 40.203262 
L 549.241 40.799685 
L 549.81282 40.595815 
L 550.384639 40.892802 
L 553.815558 39.679417 
L 555.531017 40.56393 
L 556.102837 40.36309 
L 556.674656 40.656372 
L 558.390115 40.056447 
L 558.961935 40.348677 
L 560.105575 39.950927 
L 560.677394 40.242223 
L 561.249214 40.043958 
L 561.821034 40.334438 
L 564.680132 39.349699 
L 565.251952 39.638922 
L 569.25469 38.279191 
L 570.398329 38.854 
L 570.970149 38.661374 
L 571.541969 38.947646 
L 572.685608 38.563536 
L 574.972887 39.701012 
L 576.688346 39.126922 
L 577.260166 39.409302 
L 579.547445 38.649663 
L 580.691084 39.211596 
L 581.834724 38.833995 
L 582.406543 39.113772 
L 583.550183 38.737705 
L 585.837462 39.849539 
L 586.409281 39.661741 
L 586.981101 39.938002 
L 587.552921 39.750532 
L 588.124741 40.026059 
L 588.69656 39.838918 
L 589.8402 40.387886 
L 590.412019 40.200971 
L 590.983839 40.474419 
L 591.555659 40.287831 
L 592.127479 40.560559 
L 593.842938 40.003036 
L 594.414757 40.274853 
L 596.130217 39.720806 
L 597.845676 40.531718 
L 598.417495 40.347576 
L 598.989315 40.616572 
L 602.420233 39.519756 
L 602.992053 39.78758 
L 603.563873 39.606103 
L 604.707512 40.139781 
L 606.994791 39.417122 
L 607.566611 39.682699 
L 608.138431 39.502935 
L 609.28207 40.032153 
L 610.997529 39.494663 
L 612.141169 40.02101 
L 612.712988 39.842445 
L 613.284808 40.104666 
L 615.572087 39.393916 
L 616.143907 39.655203 
L 619.003005 38.774932 
L 619.574825 39.035197 
L 623.005743 37.990759 
L 623.577563 38.249916 
L 625.293022 37.73243 
L 625.864842 37.990759 
L 627.580301 37.476293 
L 628.152121 37.733799 
L 629.29576 37.392452 
L 630.439399 37.905467 
L 634.442137 36.720755 
L 636.157597 37.484348 
L 637.301236 37.148499 
L 638.444875 37.654556 
L 639.016695 37.486978 
L 639.588515 37.73913 
L 640.732154 37.404839 
L 641.303974 37.656294 
L 641.875794 37.48958 
L 642.447613 37.740428 
L 643.019433 37.573971 
L 643.591253 37.824216 
L 644.734892 37.492155 
L 645.306712 37.741713 
L 646.450351 37.410843 
L 647.593991 37.908083 
L 648.73763 37.578224 
L 649.30945 37.825913 
L 653.312188 36.681335 
L 654.455827 37.174023 
L 655.599467 36.849633 
L 656.743106 37.339999 
L 658.458565 36.855356 
L 660.174025 37.586475 
L 660.174025 37.586475 
" clip-path="url(#pbbd7504877)" style="fill: none; stroke: #009afa; stroke-width: 3"/>
   </g>
   <g id="line2d_24">
    <path d="M -1 33.145079 
L 692.2 33.145079 
" clip-path="url(#pbbd7504877)" style="fill: none; stroke: #e36f47; stroke-width: 2"/>
   </g>
   <g id="patch_3">
    <path d="M 71.788693 288.647244 
L 71.788693 2.952756 
" style="fill: none; stroke: #000000; stroke-linejoin: miter; stroke-linecap: square"/>
   </g>
   <g id="patch_4">
    <path d="M 71.788693 288.647244 
L 677.311461 288.647244 
" style="fill: none; stroke: #000000; stroke-linejoin: miter; stroke-linecap: square"/>
   </g>
   <g id="legend_1">
    <g id="patch_5">
     <path d="M 490.996461 75.522756 
L 669.311461 75.522756 
L 669.311461 10.952756 
L 490.996461 10.952756 
z
" style="fill: #ffffff; stroke: #000000; stroke-linejoin: miter"/>
    </g>
    <g id="line2d_25">
     <path d="M 503.796461 30.310256 
L 519.796461 30.310256 
L 535.796461 30.310256 
" style="fill: none; stroke: #009afa; stroke-width: 2; stroke-linejoin: miter"/>
    </g>
    <g id="text_14">
     <!-- MC trajectory -->
     <g transform="translate(548.596461 35.910256)scale(0.16 -0.16)">
      <defs>
       <path id="DejaVuSans-72" d="M 2631 2963 
Q 2534 3019 2420 3045 
Q 2306 3072 2169 3072 
Q 1681 3072 1420 2755 
Q 1159 2438 1159 1844 
L 1159 0 
L 581 0 
L 581 3500 
L 1159 3500 
L 1159 2956 
Q 1341 3275 1631 3429 
Q 1922 3584 2338 3584 
Q 2397 3584 2469 3576 
Q 2541 3569 2628 3553 
L 2631 2963 
z
" transform="scale(0.015625)"/>
       <path id="DejaVuSans-6a" d="M 603 3500 
L 1178 3500 
L 1178 -63 
Q 1178 -731 923 -1031 
Q 669 -1331 103 -1331 
L -116 -1331 
L -116 -844 
L 38 -844 
Q 366 -844 484 -692 
Q 603 -541 603 -63 
L 603 3500 
z
M 603 4863 
L 1178 4863 
L 1178 4134 
L 603 4134 
L 603 4863 
z
" transform="scale(0.015625)"/>
       <path id="DejaVuSans-63" d="M 3122 3366 
L 3122 2828 
Q 2878 2963 2633 3030 
Q 2388 3097 2138 3097 
Q 1578 3097 1268 2742 
Q 959 2388 959 1747 
Q 959 1106 1268 751 
Q 1578 397 2138 397 
Q 2388 397 2633 464 
Q 2878 531 3122 666 
L 3122 134 
Q 2881 22 2623 -34 
Q 2366 -91 2075 -91 
Q 1284 -91 818 406 
Q 353 903 353 1747 
Q 353 2603 823 3093 
Q 1294 3584 2113 3584 
Q 2378 3584 2631 3529 
Q 2884 3475 3122 3366 
z
" transform="scale(0.015625)"/>
       <path id="DejaVuSans-6f" d="M 1959 3097 
Q 1497 3097 1228 2736 
Q 959 2375 959 1747 
Q 959 1119 1226 758 
Q 1494 397 1959 397 
Q 2419 397 2687 759 
Q 2956 1122 2956 1747 
Q 2956 2369 2687 2733 
Q 2419 3097 1959 3097 
z
M 1959 3584 
Q 2709 3584 3137 3096 
Q 3566 2609 3566 1747 
Q 3566 888 3137 398 
Q 2709 -91 1959 -91 
Q 1206 -91 779 398 
Q 353 888 353 1747 
Q 353 2609 779 3096 
Q 1206 3584 1959 3584 
z
" transform="scale(0.015625)"/>
       <path id="DejaVuSans-79" d="M 2059 -325 
Q 1816 -950 1584 -1140 
Q 1353 -1331 966 -1331 
L 506 -1331 
L 506 -850 
L 844 -850 
Q 1081 -850 1212 -737 
Q 1344 -625 1503 -206 
L 1606 56 
L 191 3500 
L 800 3500 
L 1894 763 
L 2988 3500 
L 3597 3500 
L 2059 -325 
z
" transform="scale(0.015625)"/>
      </defs>
      <use xlink:href="#DejaVuSans-4d"/>
      <use xlink:href="#DejaVuSans-43" x="86.279297"/>
      <use xlink:href="#DejaVuSans-20" x="156.103516"/>
      <use xlink:href="#DejaVuSans-74" x="187.890625"/>
      <use xlink:href="#DejaVuSans-72" x="227.099609"/>
      <use xlink:href="#DejaVuSans-61" x="268.212891"/>
      <use xlink:href="#DejaVuSans-6a" x="329.492188"/>
      <use xlink:href="#DejaVuSans-65" x="357.275391"/>
      <use xlink:href="#DejaVuSans-63" x="418.798828"/>
      <use xlink:href="#DejaVuSans-74" x="473.779297"/>
      <use xlink:href="#DejaVuSans-6f" x="512.988281"/>
      <use xlink:href="#DejaVuSans-72" x="574.169922"/>
      <use xlink:href="#DejaVuSans-79" x="615.283203"/>
     </g>
    </g>
    <g id="line2d_26">
     <path d="M 503.796461 53.795256 
L 519.796461 53.795256 
L 535.796461 53.795256 
" style="fill: none; stroke: #e36f47; stroke-width: 2; stroke-linejoin: miter"/>
    </g>
    <g id="text_15">
     <!-- Analytical -->
     <g transform="translate(548.596461 59.395256)scale(0.16 -0.16)">
      <defs>
       <path id="DejaVuSans-41" d="M 2188 4044 
L 1331 1722 
L 3047 1722 
L 2188 4044 
z
M 1831 4666 
L 2547 4666 
L 4325 0 
L 3669 0 
L 3244 1197 
L 1141 1197 
L 716 0 
L 50 0 
L 1831 4666 
z
" transform="scale(0.015625)"/>
       <path id="DejaVuSans-6e" d="M 3513 2113 
L 3513 0 
L 2938 0 
L 2938 2094 
Q 2938 2591 2744 2837 
Q 2550 3084 2163 3084 
Q 1697 3084 1428 2787 
Q 1159 2491 1159 1978 
L 1159 0 
L 581 0 
L 581 3500 
L 1159 3500 
L 1159 2956 
Q 1366 3272 1645 3428 
Q 1925 3584 2291 3584 
Q 2894 3584 3203 3211 
Q 3513 2838 3513 2113 
z
" transform="scale(0.015625)"/>
       <path id="DejaVuSans-69" d="M 603 3500 
L 1178 3500 
L 1178 0 
L 603 0 
L 603 3500 
z
M 603 4863 
L 1178 4863 
L 1178 4134 
L 603 4134 
L 603 4863 
z
" transform="scale(0.015625)"/>
      </defs>
      <use xlink:href="#DejaVuSans-41"/>
      <use xlink:href="#DejaVuSans-6e" x="68.408203"/>
      <use xlink:href="#DejaVuSans-61" x="131.787109"/>
      <use xlink:href="#DejaVuSans-6c" x="193.066406"/>
      <use xlink:href="#DejaVuSans-79" x="220.849609"/>
      <use xlink:href="#DejaVuSans-74" x="280.029297"/>
      <use xlink:href="#DejaVuSans-69" x="319.238281"/>
      <use xlink:href="#DejaVuSans-63" x="347.021484"/>
      <use xlink:href="#DejaVuSans-61" x="402.001953"/>
      <use xlink:href="#DejaVuSans-6c" x="463.28125"/>
     </g>
    </g>
   </g>
  </g>
 </g>
 <defs>
  <clipPath id="pbbd7504877">
   <rect x="71.788693" y="2.952756" width="605.522768" height="285.694488"/>
  </clipPath>
 </defs>
</svg>
