<?xml version="1.0" encoding="utf-8" standalone="no"?>
<!DOCTYPE svg PUBLIC "-//W3C//DTD SVG 1.1//EN"
  "http://www.w3.org/Graphics/SVG/1.1/DTD/svg11.dtd">
<svg xmlns:xlink="http://www.w3.org/1999/xlink" width="691.2pt" height="345.6pt" viewBox="0 0 691.2 345.6" xmlns="http://www.w3.org/2000/svg" version="1.1">
 <metadata>
  <rdf:RDF xmlns:dc="http://purl.org/dc/elements/1.1/" xmlns:cc="http://creativecommons.org/ns#" xmlns:rdf="http://www.w3.org/1999/02/22-rdf-syntax-ns#">
   <cc:Work>
    <dc:type rdf:resource="http://purl.org/dc/dcmitype/StillImage"/>
    <dc:date>2022-09-04T22:48:10.248605</dc:date>
    <dc:format>image/svg+xml</dc:format>
    <dc:creator>
     <cc:Agent>
      <dc:title>Matplotlib v3.5.2, https://matplotlib.org/</dc:title>
     </cc:Agent>
    </dc:creator>
   </cc:Work>
  </rdf:RDF>
 </metadata>
 <defs>
  <style type="text/css">*{stroke-linejoin: round; stroke-linecap: butt}</style>
 </defs>
 <g id="figure_1">
  <g id="patch_1">
   <path d="M 0 345.6 
L 691.2 345.6 
L 691.2 0 
L 0 0 
z
" style="fill: #ffffff"/>
  </g>
  <g id="axes_1">
   <g id="patch_2">
    <path d="M 48.890256 288.647244 
L 677.311461 288.647244 
L 677.311461 2.952756 
L 48.890256 2.952756 
z
" style="fill: #ffffff"/>
   </g>
   <g id="matplotlib.axis_1">
    <g id="xtick_1">
     <g id="line2d_1">
      <path d="M 66.082318 288.647244 
L 66.082318 2.952756 
" clip-path="url(#pa9d94773cf)" style="fill: none; stroke: #000000; stroke-opacity: 0.1; stroke-width: 0.5; stroke-linecap: square"/>
     </g>
     <g id="line2d_2">
      <defs>
       <path id="m12567f5a91" d="M 0 0 
L 0 -2.5 
" style="stroke: #000000; stroke-width: 0.5"/>
      </defs>
      <g>
       <use xlink:href="#m12567f5a91" x="66.082318" y="288.647244" style="stroke: #000000; stroke-width: 0.5"/>
      </g>
     </g>
     <g id="text_1">
      <!-- $0$ -->
      <g transform="translate(58.402318 310.383494)scale(0.24 -0.24)">
       <defs>
        <path id="DejaVuSans-30" d="M 2034 4250 
Q 1547 4250 1301 3770 
Q 1056 3291 1056 2328 
Q 1056 1369 1301 889 
Q 1547 409 2034 409 
Q 2525 409 2770 889 
Q 3016 1369 3016 2328 
Q 3016 3291 2770 3770 
Q 2525 4250 2034 4250 
z
M 2034 4750 
Q 2819 4750 3233 4129 
Q 3647 3509 3647 2328 
Q 3647 1150 3233 529 
Q 2819 -91 2034 -91 
Q 1250 -91 836 529 
Q 422 1150 422 2328 
Q 422 3509 836 4129 
Q 1250 4750 2034 4750 
z
" transform="scale(0.015625)"/>
       </defs>
       <use xlink:href="#DejaVuSans-30" transform="translate(0 0.78125)"/>
      </g>
     </g>
    </g>
    <g id="xtick_2">
     <g id="line2d_3">
      <path d="M 214.443227 288.647244 
L 214.443227 2.952756 
" clip-path="url(#pa9d94773cf)" style="fill: none; stroke: #000000; stroke-opacity: 0.1; stroke-width: 0.5; stroke-linecap: square"/>
     </g>
     <g id="line2d_4">
      <g>
       <use xlink:href="#m12567f5a91" x="214.443227" y="288.647244" style="stroke: #000000; stroke-width: 0.5"/>
      </g>
     </g>
     <g id="text_2">
      <!-- $250$ -->
      <g transform="translate(191.523227 310.383494)scale(0.24 -0.24)">
       <defs>
        <path id="DejaVuSans-32" d="M 1228 531 
L 3431 531 
L 3431 0 
L 469 0 
L 469 531 
Q 828 903 1448 1529 
Q 2069 2156 2228 2338 
Q 2531 2678 2651 2914 
Q 2772 3150 2772 3378 
Q 2772 3750 2511 3984 
Q 2250 4219 1831 4219 
Q 1534 4219 1204 4116 
Q 875 4013 500 3803 
L 500 4441 
Q 881 4594 1212 4672 
Q 1544 4750 1819 4750 
Q 2544 4750 2975 4387 
Q 3406 4025 3406 3419 
Q 3406 3131 3298 2873 
Q 3191 2616 2906 2266 
Q 2828 2175 2409 1742 
Q 1991 1309 1228 531 
z
" transform="scale(0.015625)"/>
        <path id="DejaVuSans-35" d="M 691 4666 
L 3169 4666 
L 3169 4134 
L 1269 4134 
L 1269 2991 
Q 1406 3038 1543 3061 
Q 1681 3084 1819 3084 
Q 2600 3084 3056 2656 
Q 3513 2228 3513 1497 
Q 3513 744 3044 326 
Q 2575 -91 1722 -91 
Q 1428 -91 1123 -41 
Q 819 9 494 109 
L 494 744 
Q 775 591 1075 516 
Q 1375 441 1709 441 
Q 2250 441 2565 725 
Q 2881 1009 2881 1497 
Q 2881 1984 2565 2268 
Q 2250 2553 1709 2553 
Q 1456 2553 1204 2497 
Q 953 2441 691 2322 
L 691 4666 
z
" transform="scale(0.015625)"/>
       </defs>
       <use xlink:href="#DejaVuSans-32" transform="translate(0 0.78125)"/>
       <use xlink:href="#DejaVuSans-35" transform="translate(63.623047 0.78125)"/>
       <use xlink:href="#DejaVuSans-30" transform="translate(127.246094 0.78125)"/>
      </g>
     </g>
    </g>
    <g id="xtick_3">
     <g id="line2d_5">
      <path d="M 362.804137 288.647244 
L 362.804137 2.952756 
" clip-path="url(#pa9d94773cf)" style="fill: none; stroke: #000000; stroke-opacity: 0.1; stroke-width: 0.5; stroke-linecap: square"/>
     </g>
     <g id="line2d_6">
      <g>
       <use xlink:href="#m12567f5a91" x="362.804137" y="288.647244" style="stroke: #000000; stroke-width: 0.5"/>
      </g>
     </g>
     <g id="text_3">
      <!-- $500$ -->
      <g transform="translate(339.884137 310.383494)scale(0.24 -0.24)">
       <use xlink:href="#DejaVuSans-35" transform="translate(0 0.78125)"/>
       <use xlink:href="#DejaVuSans-30" transform="translate(63.623047 0.78125)"/>
       <use xlink:href="#DejaVuSans-30" transform="translate(127.246094 0.78125)"/>
      </g>
     </g>
    </g>
    <g id="xtick_4">
     <g id="line2d_7">
      <path d="M 511.165046 288.647244 
L 511.165046 2.952756 
" clip-path="url(#pa9d94773cf)" style="fill: none; stroke: #000000; stroke-opacity: 0.1; stroke-width: 0.5; stroke-linecap: square"/>
     </g>
     <g id="line2d_8">
      <g>
       <use xlink:href="#m12567f5a91" x="511.165046" y="288.647244" style="stroke: #000000; stroke-width: 0.5"/>
      </g>
     </g>
     <g id="text_4">
      <!-- $750$ -->
      <g transform="translate(488.245046 310.383494)scale(0.24 -0.24)">
       <defs>
        <path id="DejaVuSans-37" d="M 525 4666 
L 3525 4666 
L 3525 4397 
L 1831 0 
L 1172 0 
L 2766 4134 
L 525 4134 
L 525 4666 
z
" transform="scale(0.015625)"/>
       </defs>
       <use xlink:href="#DejaVuSans-37" transform="translate(0 0.78125)"/>
       <use xlink:href="#DejaVuSans-35" transform="translate(63.623047 0.78125)"/>
       <use xlink:href="#DejaVuSans-30" transform="translate(127.246094 0.78125)"/>
      </g>
     </g>
    </g>
    <g id="xtick_5">
     <g id="line2d_9">
      <path d="M 659.525956 288.647244 
L 659.525956 2.952756 
" clip-path="url(#pa9d94773cf)" style="fill: none; stroke: #000000; stroke-opacity: 0.1; stroke-width: 0.5; stroke-linecap: square"/>
     </g>
     <g id="line2d_10">
      <g>
       <use xlink:href="#m12567f5a91" x="659.525956" y="288.647244" style="stroke: #000000; stroke-width: 0.5"/>
      </g>
     </g>
     <g id="text_5">
      <!-- $1000$ -->
      <g transform="translate(628.925956 310.383494)scale(0.24 -0.24)">
       <defs>
        <path id="DejaVuSans-31" d="M 794 531 
L 1825 531 
L 1825 4091 
L 703 3866 
L 703 4441 
L 1819 4666 
L 2450 4666 
L 2450 531 
L 3481 531 
L 3481 0 
L 794 0 
L 794 531 
z
" transform="scale(0.015625)"/>
       </defs>
       <use xlink:href="#DejaVuSans-31" transform="translate(0 0.78125)"/>
       <use xlink:href="#DejaVuSans-30" transform="translate(63.623047 0.78125)"/>
       <use xlink:href="#DejaVuSans-30" transform="translate(127.246094 0.78125)"/>
       <use xlink:href="#DejaVuSans-30" transform="translate(190.869141 0.78125)"/>
      </g>
     </g>
    </g>
    <g id="text_6">
     <!-- MC steps -->
     <g transform="translate(308.345234 337.610994)scale(0.24 -0.24)">
      <defs>
       <path id="DejaVuSans-4d" d="M 628 4666 
L 1569 4666 
L 2759 1491 
L 3956 4666 
L 4897 4666 
L 4897 0 
L 4281 0 
L 4281 4097 
L 3078 897 
L 2444 897 
L 1241 4097 
L 1241 0 
L 628 0 
L 628 4666 
z
" transform="scale(0.015625)"/>
       <path id="DejaVuSans-43" d="M 4122 4306 
L 4122 3641 
Q 3803 3938 3442 4084 
Q 3081 4231 2675 4231 
Q 1875 4231 1450 3742 
Q 1025 3253 1025 2328 
Q 1025 1406 1450 917 
Q 1875 428 2675 428 
Q 3081 428 3442 575 
Q 3803 722 4122 1019 
L 4122 359 
Q 3791 134 3420 21 
Q 3050 -91 2638 -91 
Q 1578 -91 968 557 
Q 359 1206 359 2328 
Q 359 3453 968 4101 
Q 1578 4750 2638 4750 
Q 3056 4750 3426 4639 
Q 3797 4528 4122 4306 
z
" transform="scale(0.015625)"/>
       <path id="DejaVuSans-20" transform="scale(0.015625)"/>
       <path id="DejaVuSans-73" d="M 2834 3397 
L 2834 2853 
Q 2591 2978 2328 3040 
Q 2066 3103 1784 3103 
Q 1356 3103 1142 2972 
Q 928 2841 928 2578 
Q 928 2378 1081 2264 
Q 1234 2150 1697 2047 
L 1894 2003 
Q 2506 1872 2764 1633 
Q 3022 1394 3022 966 
Q 3022 478 2636 193 
Q 2250 -91 1575 -91 
Q 1294 -91 989 -36 
Q 684 19 347 128 
L 347 722 
Q 666 556 975 473 
Q 1284 391 1588 391 
Q 1994 391 2212 530 
Q 2431 669 2431 922 
Q 2431 1156 2273 1281 
Q 2116 1406 1581 1522 
L 1381 1569 
Q 847 1681 609 1914 
Q 372 2147 372 2553 
Q 372 3047 722 3315 
Q 1072 3584 1716 3584 
Q 2034 3584 2315 3537 
Q 2597 3491 2834 3397 
z
" transform="scale(0.015625)"/>
       <path id="DejaVuSans-74" d="M 1172 4494 
L 1172 3500 
L 2356 3500 
L 2356 3053 
L 1172 3053 
L 1172 1153 
Q 1172 725 1289 603 
Q 1406 481 1766 481 
L 2356 481 
L 2356 0 
L 1766 0 
Q 1100 0 847 248 
Q 594 497 594 1153 
L 594 3053 
L 172 3053 
L 172 3500 
L 594 3500 
L 594 4494 
L 1172 4494 
z
" transform="scale(0.015625)"/>
       <path id="DejaVuSans-65" d="M 3597 1894 
L 3597 1613 
L 953 1613 
Q 991 1019 1311 708 
Q 1631 397 2203 397 
Q 2534 397 2845 478 
Q 3156 559 3463 722 
L 3463 178 
Q 3153 47 2828 -22 
Q 2503 -91 2169 -91 
Q 1331 -91 842 396 
Q 353 884 353 1716 
Q 353 2575 817 3079 
Q 1281 3584 2069 3584 
Q 2775 3584 3186 3129 
Q 3597 2675 3597 1894 
z
M 3022 2063 
Q 3016 2534 2758 2815 
Q 2500 3097 2075 3097 
Q 1594 3097 1305 2825 
Q 1016 2553 972 2059 
L 3022 2063 
z
" transform="scale(0.015625)"/>
       <path id="DejaVuSans-70" d="M 1159 525 
L 1159 -1331 
L 581 -1331 
L 581 3500 
L 1159 3500 
L 1159 2969 
Q 1341 3281 1617 3432 
Q 1894 3584 2278 3584 
Q 2916 3584 3314 3078 
Q 3713 2572 3713 1747 
Q 3713 922 3314 415 
Q 2916 -91 2278 -91 
Q 1894 -91 1617 61 
Q 1341 213 1159 525 
z
M 3116 1747 
Q 3116 2381 2855 2742 
Q 2594 3103 2138 3103 
Q 1681 3103 1420 2742 
Q 1159 2381 1159 1747 
Q 1159 1113 1420 752 
Q 1681 391 2138 391 
Q 2594 391 2855 752 
Q 3116 1113 3116 1747 
z
" transform="scale(0.015625)"/>
      </defs>
      <use xlink:href="#DejaVuSans-4d"/>
      <use xlink:href="#DejaVuSans-43" x="86.279297"/>
      <use xlink:href="#DejaVuSans-20" x="156.103516"/>
      <use xlink:href="#DejaVuSans-73" x="187.890625"/>
      <use xlink:href="#DejaVuSans-74" x="239.990234"/>
      <use xlink:href="#DejaVuSans-65" x="279.199219"/>
      <use xlink:href="#DejaVuSans-70" x="340.722656"/>
      <use xlink:href="#DejaVuSans-73" x="404.199219"/>
     </g>
    </g>
   </g>
   <g id="matplotlib.axis_2">
    <g id="ytick_1">
     <g id="line2d_11">
      <path d="M 48.890256 280.561551 
L 677.311461 280.561551 
" clip-path="url(#pa9d94773cf)" style="fill: none; stroke: #000000; stroke-opacity: 0.1; stroke-width: 0.5; stroke-linecap: square"/>
     </g>
     <g id="line2d_12">
      <defs>
       <path id="m84468bde2f" d="M 0 0 
L 2.5 0 
" style="stroke: #000000; stroke-width: 0.5"/>
      </defs>
      <g>
       <use xlink:href="#m84468bde2f" x="48.890256" y="280.561551" style="stroke: #000000; stroke-width: 0.5"/>
      </g>
     </g>
     <g id="text_7">
      <!-- $0$ -->
      <g transform="translate(30.030256 289.679676)scale(0.24 -0.24)">
       <use xlink:href="#DejaVuSans-30" transform="translate(0 0.78125)"/>
      </g>
     </g>
    </g>
    <g id="ytick_2">
     <g id="line2d_13">
      <path d="M 48.890256 198.473182 
L 677.311461 198.473182 
" clip-path="url(#pa9d94773cf)" style="fill: none; stroke: #000000; stroke-opacity: 0.1; stroke-width: 0.5; stroke-linecap: square"/>
     </g>
     <g id="line2d_14">
      <g>
       <use xlink:href="#m84468bde2f" x="48.890256" y="198.473182" style="stroke: #000000; stroke-width: 0.5"/>
      </g>
     </g>
     <g id="text_8">
      <!-- $1$ -->
      <g transform="translate(30.030256 207.591307)scale(0.24 -0.24)">
       <use xlink:href="#DejaVuSans-31" transform="translate(0 0.09375)"/>
      </g>
     </g>
    </g>
    <g id="ytick_3">
     <g id="line2d_15">
      <path d="M 48.890256 116.384813 
L 677.311461 116.384813 
" clip-path="url(#pa9d94773cf)" style="fill: none; stroke: #000000; stroke-opacity: 0.1; stroke-width: 0.5; stroke-linecap: square"/>
     </g>
     <g id="line2d_16">
      <g>
       <use xlink:href="#m84468bde2f" x="48.890256" y="116.384813" style="stroke: #000000; stroke-width: 0.5"/>
      </g>
     </g>
     <g id="text_9">
      <!-- $2$ -->
      <g transform="translate(30.030256 125.502938)scale(0.24 -0.24)">
       <use xlink:href="#DejaVuSans-32" transform="translate(0 0.78125)"/>
      </g>
     </g>
    </g>
    <g id="ytick_4">
     <g id="line2d_17">
      <path d="M 48.890256 34.296444 
L 677.311461 34.296444 
" clip-path="url(#pa9d94773cf)" style="fill: none; stroke: #000000; stroke-opacity: 0.1; stroke-width: 0.5; stroke-linecap: square"/>
     </g>
     <g id="line2d_18">
      <g>
       <use xlink:href="#m84468bde2f" x="48.890256" y="34.296444" style="stroke: #000000; stroke-width: 0.5"/>
      </g>
     </g>
     <g id="text_10">
      <!-- $3$ -->
      <g transform="translate(30.030256 43.414569)scale(0.24 -0.24)">
       <defs>
        <path id="DejaVuSans-33" d="M 2597 2516 
Q 3050 2419 3304 2112 
Q 3559 1806 3559 1356 
Q 3559 666 3084 287 
Q 2609 -91 1734 -91 
Q 1441 -91 1130 -33 
Q 819 25 488 141 
L 488 750 
Q 750 597 1062 519 
Q 1375 441 1716 441 
Q 2309 441 2620 675 
Q 2931 909 2931 1356 
Q 2931 1769 2642 2001 
Q 2353 2234 1838 2234 
L 1294 2234 
L 1294 2753 
L 1863 2753 
Q 2328 2753 2575 2939 
Q 2822 3125 2822 3475 
Q 2822 3834 2567 4026 
Q 2313 4219 1838 4219 
Q 1578 4219 1281 4162 
Q 984 4106 628 3988 
L 628 4550 
Q 988 4650 1302 4700 
Q 1616 4750 1894 4750 
Q 2613 4750 3031 4423 
Q 3450 4097 3450 3541 
Q 3450 3153 3228 2886 
Q 3006 2619 2597 2516 
z
" transform="scale(0.015625)"/>
       </defs>
       <use xlink:href="#DejaVuSans-33" transform="translate(0 0.78125)"/>
      </g>
     </g>
    </g>
    <g id="text_11">
     <!-- MC value -->
     <g transform="translate(21.039006 201.125625)rotate(-90)scale(0.24 -0.24)">
      <defs>
       <path id="DejaVuSans-76" d="M 191 3500 
L 800 3500 
L 1894 563 
L 2988 3500 
L 3597 3500 
L 2284 0 
L 1503 0 
L 191 3500 
z
" transform="scale(0.015625)"/>
       <path id="DejaVuSans-61" d="M 2194 1759 
Q 1497 1759 1228 1600 
Q 959 1441 959 1056 
Q 959 750 1161 570 
Q 1363 391 1709 391 
Q 2188 391 2477 730 
Q 2766 1069 2766 1631 
L 2766 1759 
L 2194 1759 
z
M 3341 1997 
L 3341 0 
L 2766 0 
L 2766 531 
Q 2569 213 2275 61 
Q 1981 -91 1556 -91 
Q 1019 -91 701 211 
Q 384 513 384 1019 
Q 384 1609 779 1909 
Q 1175 2209 1959 2209 
L 2766 2209 
L 2766 2266 
Q 2766 2663 2505 2880 
Q 2244 3097 1772 3097 
Q 1472 3097 1187 3025 
Q 903 2953 641 2809 
L 641 3341 
Q 956 3463 1253 3523 
Q 1550 3584 1831 3584 
Q 2591 3584 2966 3190 
Q 3341 2797 3341 1997 
z
" transform="scale(0.015625)"/>
       <path id="DejaVuSans-6c" d="M 603 4863 
L 1178 4863 
L 1178 0 
L 603 0 
L 603 4863 
z
" transform="scale(0.015625)"/>
       <path id="DejaVuSans-75" d="M 544 1381 
L 544 3500 
L 1119 3500 
L 1119 1403 
Q 1119 906 1312 657 
Q 1506 409 1894 409 
Q 2359 409 2629 706 
Q 2900 1003 2900 1516 
L 2900 3500 
L 3475 3500 
L 3475 0 
L 2900 0 
L 2900 538 
Q 2691 219 2414 64 
Q 2138 -91 1772 -91 
Q 1169 -91 856 284 
Q 544 659 544 1381 
z
M 1991 3584 
L 1991 3584 
z
" transform="scale(0.015625)"/>
      </defs>
      <use xlink:href="#DejaVuSans-4d"/>
      <use xlink:href="#DejaVuSans-43" x="86.279297"/>
      <use xlink:href="#DejaVuSans-20" x="156.103516"/>
      <use xlink:href="#DejaVuSans-76" x="187.890625"/>
      <use xlink:href="#DejaVuSans-61" x="247.070312"/>
      <use xlink:href="#DejaVuSans-6c" x="308.349609"/>
      <use xlink:href="#DejaVuSans-75" x="336.132812"/>
      <use xlink:href="#DejaVuSans-65" x="399.511719"/>
     </g>
    </g>
   </g>
   <g id="line2d_19">
    <path d="M 66.675762 280.561551 
L 67.269205 280.561551 
L 67.862649 166.762908 
L 68.456093 109.863586 
L 69.049536 75.723993 
L 69.64298 52.964265 
L 70.236424 36.707316 
L 70.829867 24.514604 
L 71.423311 52.964265 
L 72.610198 32.273602 
L 73.203642 24.514604 
L 73.797085 44.210523 
L 74.983973 30.204536 
L 76.17086 19.494076 
L 77.357747 11.038449 
L 77.951191 24.514604 
L 78.544634 20.450367 
L 79.138078 32.273602 
L 79.731522 28.225429 
L 80.324965 38.739434 
L 81.511853 31.07991 
L 82.105296 27.675677 
L 83.292184 45.116083 
L 85.072514 67.189095 
L 86.259402 79.740416 
L 88.039733 68.34246 
L 89.22662 61.718007 
L 89.820064 67.189095 
L 91.600394 58.257225 
L 93.380725 50.490381 
L 93.974169 55.385513 
L 95.7545 48.412319 
L 96.941387 57.341136 
L 97.534831 55.111409 
L 98.128275 59.286412 
L 99.908605 52.964265 
L 101.688936 47.274333 
L 102.28238 45.502059 
L 102.875824 49.293341 
L 104.062711 45.85185 
L 104.656155 49.462768 
L 105.249598 47.791599 
L 105.843042 51.265778 
L 108.216816 44.950276 
L 109.403704 51.405379 
L 109.997147 49.888626 
L 110.590591 52.964265 
L 111.184035 51.466914 
L 111.777478 54.442169 
L 114.151253 48.7495 
L 114.744696 47.413112 
L 115.33814 50.222129 
L 115.931584 48.900028 
L 116.525027 51.625457 
L 118.305358 47.791599 
L 118.898802 50.406992 
L 120.679133 46.779556 
L 121.86602 51.753641 
L 124.833238 46.067377 
L 125.426682 44.99836 
L 127.800456 54.058483 
L 128.3939 52.964265 
L 130.767675 61.316459 
L 132.548005 58.044561 
L 134.92178 65.717561 
L 137.888998 60.488142 
L 139.669329 57.55292 
L 140.262773 59.336989 
L 141.44966 57.444526 
L 143.229991 62.593381 
L 146.790653 57.148038 
L 147.97754 60.385915 
L 150.351315 56.971259 
L 151.538202 60.07668 
L 152.725089 58.420364 
L 153.318533 59.931529 
L 153.911976 59.115543 
L 155.098864 62.068156 
L 156.285751 60.451018 
L 156.879195 61.889649 
L 159.846413 58.005977 
L 160.439856 59.405697 
L 162.813631 56.455021 
L 164.593962 60.505139 
L 165.187406 59.778555 
L 165.780849 61.092739 
L 166.374293 60.371277 
L 166.967736 61.666514 
L 167.56118 60.950135 
L 168.154624 62.226945 
L 168.748067 61.515608 
L 170.528398 65.249346 
L 174.08906 61.092739 
L 174.682504 62.292022 
L 175.869391 60.960926 
L 176.462835 62.141575 
L 177.056278 61.483949 
L 177.649722 62.649256 
L 178.243166 61.995903 
L 179.430053 64.284549 
L 180.61694 62.98798 
L 181.803827 65.219503 
L 183.584158 63.309596 
L 184.771046 65.482116 
L 187.738264 62.401225 
L 188.331707 63.460256 
L 190.112038 61.676123 
L 191.298926 63.750866 
L 191.892369 63.1632 
L 192.485813 64.183849 
L 193.079257 63.599652 
L 196.046475 68.55312 
L 197.233362 67.382192 
L 198.420249 69.294115 
L 202.574355 65.333683 
L 203.167798 66.265405 
L 204.948129 64.635921 
L 205.541573 65.554753 
L 210.289122 61.393794 
L 211.476009 60.396013 
L 212.662897 62.17873 
L 213.25634 61.682709 
L 215.036671 64.298791 
L 218.003889 61.854784 
L 218.597333 62.705783 
L 219.78422 61.751805 
L 220.377664 62.593381 
L 221.564551 61.651184 
L 222.157995 62.483543 
L 225.718657 59.732957 
L 226.3121 60.550841 
L 226.905544 60.102925 
L 229.279318 63.309596 
L 230.466206 62.41325 
L 231.653093 63.977037 
L 232.83998 63.088699 
L 234.026867 64.62561 
L 234.620311 64.183849 
L 236.400642 66.445637 
L 237.587529 65.564807 
L 238.774417 67.042447 
L 241.148191 65.308524 
L 242.335078 66.75804 
L 244.115409 65.482116 
L 245.89574 67.611615 
L 248.862958 65.526453 
L 249.456402 66.222359 
L 253.610508 63.407811 
L 254.203951 64.092839 
L 258.358057 61.393794 
L 259.544944 62.738381 
L 260.138388 62.360483 
L 261.325275 63.686933 
L 261.918718 63.309596 
L 262.512162 63.965946 
L 264.292493 62.844985 
L 266.072824 64.783115 
L 266.666268 64.411466 
L 267.259711 65.049077 
L 268.446598 64.310757 
L 270.226929 66.196665 
L 271.413817 65.462382 
L 272.00726 66.082264 
L 273.787591 64.994407 
L 274.974478 66.21922 
L 276.754809 65.145528 
L 277.348253 65.750629 
L 279.722028 64.344129 
L 280.315471 64.943069 
L 280.908915 64.595618 
L 281.502358 65.190565 
L 282.095802 64.844343 
L 282.689246 65.435349 
L 283.876133 64.747231 
L 286.249908 67.07407 
L 286.843351 66.73023 
L 287.436795 67.303504 
L 288.623682 66.620102 
L 289.217126 67.189095 
L 290.997457 66.175717 
L 291.5909 66.73989 
L 292.184344 66.405049 
L 292.777788 66.965669 
L 295.745006 65.314505 
L 296.931893 66.421174 
L 297.525337 66.094878 
L 299.899111 68.272204 
L 301.085999 67.620151 
L 303.459773 69.749565 
L 304.64666 69.099893 
L 305.240104 69.624612 
L 306.426991 68.98037 
L 307.020435 69.501506 
L 307.613879 69.18127 
L 308.207322 69.699359 
L 308.800766 69.380206 
L 309.987653 70.407852 
L 310.581097 70.089303 
L 312.954871 72.113075 
L 313.548315 71.794256 
L 314.735202 72.790759 
L 317.108977 71.527164 
L 317.70242 72.02017 
L 318.295864 71.707571 
L 319.482751 72.68581 
L 323.636857 70.532258 
L 324.2303 71.015084 
L 328.977849 68.634055 
L 330.164737 69.586539 
L 331.351624 69.003 
L 331.945068 69.475229 
L 334.912286 68.036933 
L 335.505729 68.505049 
L 336.099173 68.220786 
L 338.472948 70.07125 
L 339.066391 69.786673 
L 339.659835 70.243885 
L 342.03361 69.11633 
L 342.627053 69.570075 
L 343.81394 69.012791 
L 344.407384 69.463855 
L 346.187715 68.635688 
L 346.781159 69.083734 
L 348.56149 68.264923 
L 349.154933 68.709989 
L 351.528708 67.632697 
L 352.122151 68.074458 
L 352.715595 67.807566 
L 356.276257 70.418044 
L 358.650031 69.353116 
L 359.836919 70.206483 
L 362.210693 69.156056 
L 363.39758 69.99999 
L 363.991024 69.739364 
L 364.584468 70.158493 
L 368.738573 68.360552 
L 369.92546 69.189462 
L 372.892679 67.931978 
L 374.67301 69.158687 
L 375.266453 68.90918 
L 377.046784 70.120931 
L 377.640228 69.871492 
L 378.827115 70.671075 
L 379.420559 70.422011 
L 380.014002 70.81925 
L 382.387777 69.831231 
L 382.98122 70.225857 
L 384.168108 69.736826 
L 385.948439 70.910248 
L 386.541882 70.666276 
L 387.135326 71.054252 
L 388.915657 70.326925 
L 389.509101 70.712677 
L 390.102544 70.471748 
L 390.695988 70.855825 
L 393.069762 69.899816 
L 394.25665 70.661703 
L 395.443537 70.187843 
L 396.036981 70.566213 
L 399.597642 69.16336 
L 400.78453 69.912999 
L 401.971417 69.450994 
L 403.158304 70.194341 
L 403.751748 69.964062 
L 404.345191 70.333531 
L 406.718966 69.419469 
L 407.905853 70.152602 
L 417.994395 66.397494 
L 418.587839 66.75804 
L 420.961613 65.904579 
L 422.148501 66.620102 
L 422.741944 66.408031 
L 424.522275 67.471708 
L 426.89605 66.627589 
L 427.489493 66.978876 
L 428.082937 66.769346 
L 429.269824 67.468013 
L 429.863268 67.258711 
L 430.456711 67.60611 
L 431.643599 67.189095 
L 433.42393 68.223211 
L 434.017373 68.015053 
L 436.391148 69.377531 
L 439.358366 68.34246 
L 442.325584 70.016112 
L 442.919028 69.810048 
L 443.512472 70.141419 
L 444.699359 69.730836 
L 445.292802 70.060775 
L 446.47969 69.652365 
L 447.073133 69.980884 
L 448.853464 69.372441 
L 450.633795 70.350169 
L 453.00757 69.545355 
L 453.601013 69.868504 
L 455.381344 69.270778 
L 456.568232 69.912999 
L 457.161675 69.714596 
L 457.755119 70.034061 
L 460.722337 69.050088 
L 461.909224 69.684305 
L 463.689555 69.099893 
L 464.876442 69.729244 
L 466.06333 69.341814 
L 466.656773 69.654732 
L 467.250217 69.461701 
L 468.437104 70.084415 
L 470.217435 69.50768 
L 470.810879 69.817143 
L 473.184653 69.055327 
L 473.778097 69.363196 
L 474.371541 69.173955 
L 474.964984 69.480759 
L 477.932202 68.541889 
L 478.525646 68.846953 
L 479.712533 68.47484 
L 480.305977 68.778689 
L 488.614188 66.230118 
L 489.207632 66.530723 
L 490.394519 66.174457 
L 491.581406 66.772468 
L 492.768293 66.417512 
L 493.361737 66.714934 
L 493.955181 66.538028 
L 494.548624 66.83446 
L 496.922399 66.13105 
L 498.70273 67.01348 
L 499.296173 66.838346 
L 499.889617 67.130717 
L 501.669948 66.607699 
L 502.263392 66.898793 
L 507.010941 65.523469 
L 507.604384 65.812499 
L 510.571603 64.967059 
L 511.165046 65.254518 
L 511.75849 65.086624 
L 512.351933 65.373159 
L 515.912595 64.374155 
L 516.506039 64.658987 
L 517.099483 64.493864 
L 517.692926 64.77779 
L 520.066701 64.120995 
L 520.660144 64.403554 
L 522.440475 63.91498 
L 524.81425 65.036048 
L 525.407693 64.873425 
L 526.001137 65.151732 
L 529.561799 64.183849 
L 530.155243 64.460547 
L 531.935573 63.981713 
L 532.529017 64.25726 
L 533.715904 63.939768 
L 535.496235 64.761343 
L 538.463454 63.972425 
L 539.650341 64.515255 
L 542.617559 63.734747 
L 544.39789 64.541794 
L 546.178221 64.076864 
L 546.771664 64.344129 
L 547.958552 64.035808 
L 549.145439 64.567812 
L 549.738883 64.413944 
L 550.92577 64.943069 
L 552.706101 64.482908 
L 554.486432 65.270558 
L 558.640537 64.207022 
L 559.233981 64.467377 
L 560.420868 64.166532 
L 561.014312 64.425999 
L 563.98153 63.679513 
L 564.574974 63.937705 
L 565.168417 63.789344 
L 565.761861 64.046793 
L 566.948748 63.750866 
L 568.135635 64.263421 
L 568.729079 64.115726 
L 569.915966 64.62561 
L 570.50941 64.47801 
L 571.102854 64.731927 
L 572.883184 64.290828 
L 573.476628 64.543776 
L 574.663515 64.251178 
L 576.443846 65.005749 
L 580.004508 64.133878 
L 580.597952 64.383506 
L 581.191395 64.239246 
L 581.784839 64.488178 
L 585.938945 63.486742 
L 586.532388 63.734262 
L 587.125832 63.592384 
L 588.312719 64.085496 
L 588.906163 63.943703 
L 589.499606 64.189301 
L 590.686494 63.906442 
L 591.279937 64.15125 
L 592.466825 63.869434 
L 593.060268 64.113456 
L 593.653712 63.972907 
L 594.840599 64.459077 
L 596.62093 64.038629 
L 597.807817 64.52194 
L 600.181592 63.9648 
L 601.368479 64.445059 
L 602.555366 64.167892 
L 603.14881 64.407001 
L 606.709472 63.58214 
L 607.302915 63.820056 
L 607.896359 63.683524 
L 608.489803 63.920808 
L 610.863577 63.377213 
L 612.050465 63.849352 
L 613.830795 63.444097 
L 614.424239 63.679072 
L 615.017683 63.544463 
L 616.20457 64.012677 
L 617.984901 63.609944 
L 618.578345 63.842975 
L 619.765232 63.575714 
L 621.545563 64.271181 
L 622.139006 64.137664 
L 622.73245 64.368393 
L 625.699668 63.70454 
L 627.479999 64.392247 
L 628.073443 64.260012 
L 629.853774 64.943069 
L 630.447217 64.810811 
L 631.040661 65.03744 
L 632.227548 64.773558 
L 632.820992 64.999514 
L 634.601323 64.605462 
L 635.194766 64.830651 
L 636.381654 64.569121 
L 637.568541 65.017704 
L 638.755428 64.75687 
L 639.942316 65.203209 
L 642.31609 64.684002 
L 642.909534 64.906098 
L 643.502977 64.776868 
L 644.096421 64.998413 
L 645.283308 64.740559 
L 646.470196 65.181911 
L 647.063639 65.053191 
L 647.657083 65.273098 
L 649.437414 64.888233 
L 650.030857 65.107413 
L 651.217745 64.851953 
L 651.811188 65.070503 
L 653.591519 64.688974 
L 654.184963 64.906807 
L 655.965294 64.527306 
L 656.558737 64.744426 
L 657.745625 64.492513 
L 658.339068 64.709015 
L 658.932512 64.583346 
L 659.525956 64.799324 
L 659.525956 64.799324 
" clip-path="url(#pa9d94773cf)" style="fill: none; stroke: #009afa; stroke-width: 3"/>
   </g>
   <g id="line2d_20">
    <path d="M -1 71.632086 
L 692.2 71.632086 
" clip-path="url(#pa9d94773cf)" style="fill: none; stroke: #e36f47; stroke-width: 2"/>
   </g>
   <g id="patch_3">
    <path d="M 48.890256 288.647244 
L 48.890256 2.952756 
" style="fill: none; stroke: #000000; stroke-linejoin: miter; stroke-linecap: square"/>
   </g>
   <g id="patch_4">
    <path d="M 48.890256 288.647244 
L 677.311461 288.647244 
" style="fill: none; stroke: #000000; stroke-linejoin: miter; stroke-linecap: square"/>
   </g>
   <g id="legend_1">
    <g id="patch_5">
     <path d="M 490.996461 75.522756 
L 669.311461 75.522756 
L 669.311461 10.952756 
L 490.996461 10.952756 
z
" style="fill: #ffffff; stroke: #000000; stroke-linejoin: miter"/>
    </g>
    <g id="line2d_21">
     <path d="M 503.796461 30.310256 
L 519.796461 30.310256 
L 535.796461 30.310256 
" style="fill: none; stroke: #009afa; stroke-width: 2; stroke-linejoin: miter"/>
    </g>
    <g id="text_12">
     <!-- MC trajectory -->
     <g transform="translate(548.596461 35.910256)scale(0.16 -0.16)">
      <defs>
       <path id="DejaVuSans-72" d="M 2631 2963 
Q 2534 3019 2420 3045 
Q 2306 3072 2169 3072 
Q 1681 3072 1420 2755 
Q 1159 2438 1159 1844 
L 1159 0 
L 581 0 
L 581 3500 
L 1159 3500 
L 1159 2956 
Q 1341 3275 1631 3429 
Q 1922 3584 2338 3584 
Q 2397 3584 2469 3576 
Q 2541 3569 2628 3553 
L 2631 2963 
z
" transform="scale(0.015625)"/>
       <path id="DejaVuSans-6a" d="M 603 3500 
L 1178 3500 
L 1178 -63 
Q 1178 -731 923 -1031 
Q 669 -1331 103 -1331 
L -116 -1331 
L -116 -844 
L 38 -844 
Q 366 -844 484 -692 
Q 603 -541 603 -63 
L 603 3500 
z
M 603 4863 
L 1178 4863 
L 1178 4134 
L 603 4134 
L 603 4863 
z
" transform="scale(0.015625)"/>
       <path id="DejaVuSans-63" d="M 3122 3366 
L 3122 2828 
Q 2878 2963 2633 3030 
Q 2388 3097 2138 3097 
Q 1578 3097 1268 2742 
Q 959 2388 959 1747 
Q 959 1106 1268 751 
Q 1578 397 2138 397 
Q 2388 397 2633 464 
Q 2878 531 3122 666 
L 3122 134 
Q 2881 22 2623 -34 
Q 2366 -91 2075 -91 
Q 1284 -91 818 406 
Q 353 903 353 1747 
Q 353 2603 823 3093 
Q 1294 3584 2113 3584 
Q 2378 3584 2631 3529 
Q 2884 3475 3122 3366 
z
" transform="scale(0.015625)"/>
       <path id="DejaVuSans-6f" d="M 1959 3097 
Q 1497 3097 1228 2736 
Q 959 2375 959 1747 
Q 959 1119 1226 758 
Q 1494 397 1959 397 
Q 2419 397 2687 759 
Q 2956 1122 2956 1747 
Q 2956 2369 2687 2733 
Q 2419 3097 1959 3097 
z
M 1959 3584 
Q 2709 3584 3137 3096 
Q 3566 2609 3566 1747 
Q 3566 888 3137 398 
Q 2709 -91 1959 -91 
Q 1206 -91 779 398 
Q 353 888 353 1747 
Q 353 2609 779 3096 
Q 1206 3584 1959 3584 
z
" transform="scale(0.015625)"/>
       <path id="DejaVuSans-79" d="M 2059 -325 
Q 1816 -950 1584 -1140 
Q 1353 -1331 966 -1331 
L 506 -1331 
L 506 -850 
L 844 -850 
Q 1081 -850 1212 -737 
Q 1344 -625 1503 -206 
L 1606 56 
L 191 3500 
L 800 3500 
L 1894 763 
L 2988 3500 
L 3597 3500 
L 2059 -325 
z
" transform="scale(0.015625)"/>
      </defs>
      <use xlink:href="#DejaVuSans-4d"/>
      <use xlink:href="#DejaVuSans-43" x="86.279297"/>
      <use xlink:href="#DejaVuSans-20" x="156.103516"/>
      <use xlink:href="#DejaVuSans-74" x="187.890625"/>
      <use xlink:href="#DejaVuSans-72" x="227.099609"/>
      <use xlink:href="#DejaVuSans-61" x="268.212891"/>
      <use xlink:href="#DejaVuSans-6a" x="329.492188"/>
      <use xlink:href="#DejaVuSans-65" x="357.275391"/>
      <use xlink:href="#DejaVuSans-63" x="418.798828"/>
      <use xlink:href="#DejaVuSans-74" x="473.779297"/>
      <use xlink:href="#DejaVuSans-6f" x="512.988281"/>
      <use xlink:href="#DejaVuSans-72" x="574.169922"/>
      <use xlink:href="#DejaVuSans-79" x="615.283203"/>
     </g>
    </g>
    <g id="line2d_22">
     <path d="M 503.796461 53.795256 
L 519.796461 53.795256 
L 535.796461 53.795256 
" style="fill: none; stroke: #e36f47; stroke-width: 2; stroke-linejoin: miter"/>
    </g>
    <g id="text_13">
     <!-- Analytical -->
     <g transform="translate(548.596461 59.395256)scale(0.16 -0.16)">
      <defs>
       <path id="DejaVuSans-41" d="M 2188 4044 
L 1331 1722 
L 3047 1722 
L 2188 4044 
z
M 1831 4666 
L 2547 4666 
L 4325 0 
L 3669 0 
L 3244 1197 
L 1141 1197 
L 716 0 
L 50 0 
L 1831 4666 
z
" transform="scale(0.015625)"/>
       <path id="DejaVuSans-6e" d="M 3513 2113 
L 3513 0 
L 2938 0 
L 2938 2094 
Q 2938 2591 2744 2837 
Q 2550 3084 2163 3084 
Q 1697 3084 1428 2787 
Q 1159 2491 1159 1978 
L 1159 0 
L 581 0 
L 581 3500 
L 1159 3500 
L 1159 2956 
Q 1366 3272 1645 3428 
Q 1925 3584 2291 3584 
Q 2894 3584 3203 3211 
Q 3513 2838 3513 2113 
z
" transform="scale(0.015625)"/>
       <path id="DejaVuSans-69" d="M 603 3500 
L 1178 3500 
L 1178 0 
L 603 0 
L 603 3500 
z
M 603 4863 
L 1178 4863 
L 1178 4134 
L 603 4134 
L 603 4863 
z
" transform="scale(0.015625)"/>
      </defs>
      <use xlink:href="#DejaVuSans-41"/>
      <use xlink:href="#DejaVuSans-6e" x="68.408203"/>
      <use xlink:href="#DejaVuSans-61" x="131.787109"/>
      <use xlink:href="#DejaVuSans-6c" x="193.066406"/>
      <use xlink:href="#DejaVuSans-79" x="220.849609"/>
      <use xlink:href="#DejaVuSans-74" x="280.029297"/>
      <use xlink:href="#DejaVuSans-69" x="319.238281"/>
      <use xlink:href="#DejaVuSans-63" x="347.021484"/>
      <use xlink:href="#DejaVuSans-61" x="402.001953"/>
      <use xlink:href="#DejaVuSans-6c" x="463.28125"/>
     </g>
    </g>
   </g>
  </g>
 </g>
 <defs>
  <clipPath id="pa9d94773cf">
   <rect x="48.890256" y="2.952756" width="628.421205" height="285.694488"/>
  </clipPath>
 </defs>
</svg>
