<?xml version="1.0" encoding="utf-8"?>
<svg xmlns="http://www.w3.org/2000/svg" xmlns:xlink="http://www.w3.org/1999/xlink" width="672" height="480" viewBox="0 0 2688 1920">
<defs>
  <clipPath id="clip340">
    <rect x="0" y="0" width="2688" height="1920"/>
  </clipPath>
</defs>
<path clip-path="url(#clip340)" d="
M0 1920 L2688 1920 L2688 0 L0 0  Z
  " fill="#ffffff" fill-rule="evenodd" fill-opacity="1"/>
<defs>
  <clipPath id="clip341">
    <rect x="537" y="0" width="1883" height="1883"/>
  </clipPath>
</defs>
<path clip-path="url(#clip340)" d="
M225.654 1734.12 L2640.76 1734.12 L2640.76 47.2441 L225.654 47.2441  Z
  " fill="#ffffff" fill-rule="evenodd" fill-opacity="1"/>
<defs>
  <clipPath id="clip342">
    <rect x="225" y="47" width="2416" height="1688"/>
  </clipPath>
</defs>
<polyline clip-path="url(#clip342)" style="stroke:#000000; stroke-linecap:butt; stroke-linejoin:round; stroke-width:2; stroke-opacity:0.1; fill:none" points="
  291.726,1734.12 291.726,47.2441 
  "/>
<polyline clip-path="url(#clip342)" style="stroke:#000000; stroke-linecap:butt; stroke-linejoin:round; stroke-width:2; stroke-opacity:0.1; fill:none" points="
  861.895,1734.12 861.895,47.2441 
  "/>
<polyline clip-path="url(#clip342)" style="stroke:#000000; stroke-linecap:butt; stroke-linejoin:round; stroke-width:2; stroke-opacity:0.1; fill:none" points="
  1432.06,1734.12 1432.06,47.2441 
  "/>
<polyline clip-path="url(#clip342)" style="stroke:#000000; stroke-linecap:butt; stroke-linejoin:round; stroke-width:2; stroke-opacity:0.1; fill:none" points="
  2002.23,1734.12 2002.23,47.2441 
  "/>
<polyline clip-path="url(#clip342)" style="stroke:#000000; stroke-linecap:butt; stroke-linejoin:round; stroke-width:2; stroke-opacity:0.1; fill:none" points="
  2572.4,1734.12 2572.4,47.2441 
  "/>
<polyline clip-path="url(#clip340)" style="stroke:#000000; stroke-linecap:butt; stroke-linejoin:round; stroke-width:4; stroke-opacity:1; fill:none" points="
  225.654,1734.12 2640.76,1734.12 
  "/>
<polyline clip-path="url(#clip340)" style="stroke:#000000; stroke-linecap:butt; stroke-linejoin:round; stroke-width:4; stroke-opacity:1; fill:none" points="
  291.726,1734.12 291.726,1715.22 
  "/>
<polyline clip-path="url(#clip340)" style="stroke:#000000; stroke-linecap:butt; stroke-linejoin:round; stroke-width:4; stroke-opacity:1; fill:none" points="
  861.895,1734.12 861.895,1715.22 
  "/>
<polyline clip-path="url(#clip340)" style="stroke:#000000; stroke-linecap:butt; stroke-linejoin:round; stroke-width:4; stroke-opacity:1; fill:none" points="
  1432.06,1734.12 1432.06,1715.22 
  "/>
<polyline clip-path="url(#clip340)" style="stroke:#000000; stroke-linecap:butt; stroke-linejoin:round; stroke-width:4; stroke-opacity:1; fill:none" points="
  2002.23,1734.12 2002.23,1715.22 
  "/>
<polyline clip-path="url(#clip340)" style="stroke:#000000; stroke-linecap:butt; stroke-linejoin:round; stroke-width:4; stroke-opacity:1; fill:none" points="
  2572.4,1734.12 2572.4,1715.22 
  "/>
<path clip-path="url(#clip340)" d="M291.726 1767.34 Q288.115 1767.34 286.286 1770.9 Q284.48 1774.45 284.48 1781.58 Q284.48 1788.68 286.286 1792.25 Q288.115 1795.79 291.726 1795.79 Q295.36 1795.79 297.165 1792.25 Q298.994 1788.68 298.994 1781.58 Q298.994 1774.45 297.165 1770.9 Q295.36 1767.34 291.726 1767.34 M291.726 1763.64 Q297.536 1763.64 300.591 1768.24 Q303.67 1772.83 303.67 1781.58 Q303.67 1790.3 300.591 1794.91 Q297.536 1799.49 291.726 1799.49 Q285.916 1799.49 282.837 1794.91 Q279.781 1790.3 279.781 1781.58 Q279.781 1772.83 282.837 1768.24 Q285.916 1763.64 291.726 1763.64 Z" fill="#000000" fill-rule="evenodd" fill-opacity="1" /><path clip-path="url(#clip340)" d="M825.588 1794.89 L841.907 1794.89 L841.907 1798.82 L819.963 1798.82 L819.963 1794.89 Q822.625 1792.13 827.208 1787.5 Q831.814 1782.85 832.995 1781.51 Q835.24 1778.98 836.12 1777.25 Q837.023 1775.49 837.023 1773.8 Q837.023 1771.04 835.078 1769.31 Q833.157 1767.57 830.055 1767.57 Q827.856 1767.57 825.402 1768.34 Q822.972 1769.1 820.194 1770.65 L820.194 1765.93 Q823.018 1764.79 825.472 1764.21 Q827.926 1763.64 829.963 1763.64 Q835.333 1763.64 838.527 1766.32 Q841.722 1769.01 841.722 1773.5 Q841.722 1775.63 840.912 1777.55 Q840.125 1779.45 838.018 1782.04 Q837.439 1782.71 834.338 1785.93 Q831.236 1789.12 825.588 1794.89 Z" fill="#000000" fill-rule="evenodd" fill-opacity="1" /><path clip-path="url(#clip340)" d="M851.768 1764.26 L870.124 1764.26 L870.124 1768.2 L856.05 1768.2 L856.05 1776.67 Q857.069 1776.32 858.087 1776.16 Q859.106 1775.97 860.124 1775.97 Q865.911 1775.97 869.291 1779.15 Q872.671 1782.32 872.671 1787.73 Q872.671 1793.31 869.198 1796.41 Q865.726 1799.49 859.407 1799.49 Q857.231 1799.49 854.962 1799.12 Q852.717 1798.75 850.31 1798.01 L850.31 1793.31 Q852.393 1794.45 854.615 1795 Q856.837 1795.56 859.314 1795.56 Q863.319 1795.56 865.657 1793.45 Q867.995 1791.34 867.995 1787.73 Q867.995 1784.12 865.657 1782.02 Q863.319 1779.91 859.314 1779.91 Q857.439 1779.91 855.564 1780.33 Q853.712 1780.74 851.768 1781.62 L851.768 1764.26 Z" fill="#000000" fill-rule="evenodd" fill-opacity="1" /><path clip-path="url(#clip340)" d="M891.884 1767.34 Q888.272 1767.34 886.444 1770.9 Q884.638 1774.45 884.638 1781.58 Q884.638 1788.68 886.444 1792.25 Q888.272 1795.79 891.884 1795.79 Q895.518 1795.79 897.323 1792.25 Q899.152 1788.68 899.152 1781.58 Q899.152 1774.45 897.323 1770.9 Q895.518 1767.34 891.884 1767.34 M891.884 1763.64 Q897.694 1763.64 900.749 1768.24 Q903.828 1772.83 903.828 1781.58 Q903.828 1790.3 900.749 1794.91 Q897.694 1799.49 891.884 1799.49 Q886.073 1799.49 882.995 1794.91 Q879.939 1790.3 879.939 1781.58 Q879.939 1772.83 882.995 1768.24 Q886.073 1763.64 891.884 1763.64 Z" fill="#000000" fill-rule="evenodd" fill-opacity="1" /><path clip-path="url(#clip340)" d="M1391.68 1764.26 L1410.04 1764.26 L1410.04 1768.2 L1395.97 1768.2 L1395.97 1776.67 Q1396.98 1776.32 1398 1776.16 Q1399.02 1775.97 1400.04 1775.97 Q1405.83 1775.97 1409.21 1779.15 Q1412.59 1782.32 1412.59 1787.73 Q1412.59 1793.31 1409.11 1796.41 Q1405.64 1799.49 1399.32 1799.49 Q1397.15 1799.49 1394.88 1799.12 Q1392.63 1798.75 1390.22 1798.01 L1390.22 1793.31 Q1392.31 1794.45 1394.53 1795 Q1396.75 1795.56 1399.23 1795.56 Q1403.23 1795.56 1405.57 1793.45 Q1407.91 1791.34 1407.91 1787.73 Q1407.91 1784.12 1405.57 1782.02 Q1403.23 1779.91 1399.23 1779.91 Q1397.35 1779.91 1395.48 1780.33 Q1393.63 1780.74 1391.68 1781.62 L1391.68 1764.26 Z" fill="#000000" fill-rule="evenodd" fill-opacity="1" /><path clip-path="url(#clip340)" d="M1431.8 1767.34 Q1428.19 1767.34 1426.36 1770.9 Q1424.55 1774.45 1424.55 1781.58 Q1424.55 1788.68 1426.36 1792.25 Q1428.19 1795.79 1431.8 1795.79 Q1435.43 1795.79 1437.24 1792.25 Q1439.07 1788.68 1439.07 1781.58 Q1439.07 1774.45 1437.24 1770.9 Q1435.43 1767.34 1431.8 1767.34 M1431.8 1763.64 Q1437.61 1763.64 1440.66 1768.24 Q1443.74 1772.83 1443.74 1781.58 Q1443.74 1790.3 1440.66 1794.91 Q1437.61 1799.49 1431.8 1799.49 Q1425.99 1799.49 1422.91 1794.91 Q1419.85 1790.3 1419.85 1781.58 Q1419.85 1772.83 1422.91 1768.24 Q1425.99 1763.64 1431.8 1763.64 Z" fill="#000000" fill-rule="evenodd" fill-opacity="1" /><path clip-path="url(#clip340)" d="M1461.96 1767.34 Q1458.35 1767.34 1456.52 1770.9 Q1454.72 1774.45 1454.72 1781.58 Q1454.72 1788.68 1456.52 1792.25 Q1458.35 1795.79 1461.96 1795.79 Q1465.59 1795.79 1467.4 1792.25 Q1469.23 1788.68 1469.23 1781.58 Q1469.23 1774.45 1467.4 1770.9 Q1465.59 1767.34 1461.96 1767.34 M1461.96 1763.64 Q1467.77 1763.64 1470.83 1768.24 Q1473.9 1772.83 1473.9 1781.58 Q1473.9 1790.3 1470.83 1794.91 Q1467.77 1799.49 1461.96 1799.49 Q1456.15 1799.49 1453.07 1794.91 Q1450.02 1790.3 1450.02 1781.58 Q1450.02 1772.83 1453.07 1768.24 Q1456.15 1763.64 1461.96 1763.64 Z" fill="#000000" fill-rule="evenodd" fill-opacity="1" /><path clip-path="url(#clip340)" d="M1960.51 1764.26 L1982.73 1764.26 L1982.73 1766.25 L1970.19 1798.82 L1965.3 1798.82 L1977.11 1768.2 L1960.51 1768.2 L1960.51 1764.26 Z" fill="#000000" fill-rule="evenodd" fill-opacity="1" /><path clip-path="url(#clip340)" d="M1991.9 1764.26 L2010.26 1764.26 L2010.26 1768.2 L1996.18 1768.2 L1996.18 1776.67 Q1997.2 1776.32 1998.22 1776.16 Q1999.24 1775.97 2000.26 1775.97 Q2006.04 1775.97 2009.42 1779.15 Q2012.8 1782.32 2012.8 1787.73 Q2012.8 1793.31 2009.33 1796.41 Q2005.86 1799.49 1999.54 1799.49 Q1997.36 1799.49 1995.09 1799.12 Q1992.85 1798.75 1990.44 1798.01 L1990.44 1793.31 Q1992.52 1794.45 1994.75 1795 Q1996.97 1795.56 1999.45 1795.56 Q2003.45 1795.56 2005.79 1793.45 Q2008.13 1791.34 2008.13 1787.73 Q2008.13 1784.12 2005.79 1782.02 Q2003.45 1779.91 1999.45 1779.91 Q1997.57 1779.91 1995.7 1780.33 Q1993.84 1780.74 1991.9 1781.62 L1991.9 1764.26 Z" fill="#000000" fill-rule="evenodd" fill-opacity="1" /><path clip-path="url(#clip340)" d="M2032.01 1767.34 Q2028.4 1767.34 2026.57 1770.9 Q2024.77 1774.45 2024.77 1781.58 Q2024.77 1788.68 2026.57 1792.25 Q2028.4 1795.79 2032.01 1795.79 Q2035.65 1795.79 2037.45 1792.25 Q2039.28 1788.68 2039.28 1781.58 Q2039.28 1774.45 2037.45 1770.9 Q2035.65 1767.34 2032.01 1767.34 M2032.01 1763.64 Q2037.82 1763.64 2040.88 1768.24 Q2043.96 1772.83 2043.96 1781.58 Q2043.96 1790.3 2040.88 1794.91 Q2037.82 1799.49 2032.01 1799.49 Q2026.2 1799.49 2023.13 1794.91 Q2020.07 1790.3 2020.07 1781.58 Q2020.07 1772.83 2023.13 1768.24 Q2026.2 1763.64 2032.01 1763.64 Z" fill="#000000" fill-rule="evenodd" fill-opacity="1" /><path clip-path="url(#clip340)" d="M2516.93 1794.89 L2524.57 1794.89 L2524.57 1768.52 L2516.26 1770.19 L2516.26 1765.93 L2524.52 1764.26 L2529.2 1764.26 L2529.2 1794.89 L2536.84 1794.89 L2536.84 1798.82 L2516.93 1798.82 L2516.93 1794.89 Z" fill="#000000" fill-rule="evenodd" fill-opacity="1" /><path clip-path="url(#clip340)" d="M2556.28 1767.34 Q2552.67 1767.34 2550.84 1770.9 Q2549.04 1774.45 2549.04 1781.58 Q2549.04 1788.68 2550.84 1792.25 Q2552.67 1795.79 2556.28 1795.79 Q2559.92 1795.79 2561.72 1792.25 Q2563.55 1788.68 2563.55 1781.58 Q2563.55 1774.45 2561.72 1770.9 Q2559.92 1767.34 2556.28 1767.34 M2556.28 1763.64 Q2562.09 1763.64 2565.15 1768.24 Q2568.23 1772.83 2568.23 1781.58 Q2568.23 1790.3 2565.15 1794.91 Q2562.09 1799.49 2556.28 1799.49 Q2550.47 1799.49 2547.39 1794.91 Q2544.34 1790.3 2544.34 1781.58 Q2544.34 1772.83 2547.39 1768.24 Q2550.47 1763.64 2556.28 1763.64 Z" fill="#000000" fill-rule="evenodd" fill-opacity="1" /><path clip-path="url(#clip340)" d="M2586.44 1767.34 Q2582.83 1767.34 2581 1770.9 Q2579.2 1774.45 2579.2 1781.58 Q2579.2 1788.68 2581 1792.25 Q2582.83 1795.79 2586.44 1795.79 Q2590.08 1795.79 2591.88 1792.25 Q2593.71 1788.68 2593.71 1781.58 Q2593.71 1774.45 2591.88 1770.9 Q2590.08 1767.34 2586.44 1767.34 M2586.44 1763.64 Q2592.25 1763.64 2595.31 1768.24 Q2598.39 1772.83 2598.39 1781.58 Q2598.39 1790.3 2595.31 1794.91 Q2592.25 1799.49 2586.44 1799.49 Q2580.63 1799.49 2577.55 1794.91 Q2574.5 1790.3 2574.5 1781.58 Q2574.5 1772.83 2577.55 1768.24 Q2580.63 1763.64 2586.44 1763.64 Z" fill="#000000" fill-rule="evenodd" fill-opacity="1" /><path clip-path="url(#clip340)" d="M2616.61 1767.34 Q2612.99 1767.34 2611.17 1770.9 Q2609.36 1774.45 2609.36 1781.58 Q2609.36 1788.68 2611.17 1792.25 Q2612.99 1795.79 2616.61 1795.79 Q2620.24 1795.79 2622.04 1792.25 Q2623.87 1788.68 2623.87 1781.58 Q2623.87 1774.45 2622.04 1770.9 Q2620.24 1767.34 2616.61 1767.34 M2616.61 1763.64 Q2622.42 1763.64 2625.47 1768.24 Q2628.55 1772.83 2628.55 1781.58 Q2628.55 1790.3 2625.47 1794.91 Q2622.42 1799.49 2616.61 1799.49 Q2610.79 1799.49 2607.72 1794.91 Q2604.66 1790.3 2604.66 1781.58 Q2604.66 1772.83 2607.72 1768.24 Q2610.79 1763.64 2616.61 1763.64 Z" fill="#000000" fill-rule="evenodd" fill-opacity="1" /><path clip-path="url(#clip340)" d="M1289.28 1835.78 L1298.86 1835.78 L1310.98 1868.12 L1323.17 1835.78 L1332.75 1835.78 L1332.75 1883.3 L1326.48 1883.3 L1326.48 1841.57 L1314.23 1874.17 L1307.77 1874.17 L1295.51 1841.57 L1295.51 1883.3 L1289.28 1883.3 L1289.28 1835.78 Z" fill="#000000" fill-rule="evenodd" fill-opacity="1" /><path clip-path="url(#clip340)" d="M1381.1 1839.44 L1381.1 1846.22 Q1377.86 1843.2 1374.16 1841.7 Q1370.5 1840.21 1366.37 1840.21 Q1358.22 1840.21 1353.89 1845.2 Q1349.56 1850.17 1349.56 1859.59 Q1349.56 1868.98 1353.89 1873.98 Q1358.22 1878.94 1366.37 1878.94 Q1370.5 1878.94 1374.16 1877.44 Q1377.86 1875.95 1381.1 1872.92 L1381.1 1879.64 Q1377.73 1881.93 1373.94 1883.08 Q1370.18 1884.22 1365.98 1884.22 Q1355.19 1884.22 1348.99 1877.64 Q1342.78 1871.02 1342.78 1859.59 Q1342.78 1848.13 1348.99 1841.54 Q1355.19 1834.92 1365.98 1834.92 Q1370.25 1834.92 1374 1836.07 Q1377.79 1837.18 1381.1 1839.44 Z" fill="#000000" fill-rule="evenodd" fill-opacity="1" /><path clip-path="url(#clip340)" d="M1434.22 1848.7 L1434.22 1854.24 Q1431.74 1852.97 1429.07 1852.33 Q1426.39 1851.7 1423.53 1851.7 Q1419.17 1851.7 1416.97 1853.03 Q1414.81 1854.37 1414.81 1857.04 Q1414.81 1859.08 1416.37 1860.26 Q1417.93 1861.4 1422.64 1862.45 L1424.64 1862.9 Q1430.88 1864.24 1433.49 1866.69 Q1436.13 1869.11 1436.13 1873.47 Q1436.13 1878.43 1432.19 1881.33 Q1428.27 1884.22 1421.4 1884.22 Q1418.53 1884.22 1415.41 1883.65 Q1412.33 1883.11 1408.89 1882 L1408.89 1875.95 Q1412.13 1877.64 1415.29 1878.49 Q1418.44 1879.32 1421.52 1879.32 Q1425.66 1879.32 1427.89 1877.92 Q1430.12 1876.49 1430.12 1873.91 Q1430.12 1871.52 1428.49 1870.25 Q1426.9 1868.98 1421.46 1867.8 L1419.42 1867.32 Q1413.98 1866.18 1411.56 1863.82 Q1409.14 1861.43 1409.14 1857.3 Q1409.14 1852.27 1412.71 1849.53 Q1416.27 1846.79 1422.83 1846.79 Q1426.08 1846.79 1428.94 1847.27 Q1431.8 1847.75 1434.22 1848.7 Z" fill="#000000" fill-rule="evenodd" fill-opacity="1" /><path clip-path="url(#clip340)" d="M1451.25 1837.53 L1451.25 1847.65 L1463.31 1847.65 L1463.31 1852.2 L1451.25 1852.2 L1451.25 1871.56 Q1451.25 1875.92 1452.43 1877.16 Q1453.64 1878.4 1457.3 1878.4 L1463.31 1878.4 L1463.31 1883.3 L1457.3 1883.3 Q1450.52 1883.3 1447.94 1880.79 Q1445.36 1878.24 1445.36 1871.56 L1445.36 1852.2 L1441.07 1852.2 L1441.07 1847.65 L1445.36 1847.65 L1445.36 1837.53 L1451.25 1837.53 Z" fill="#000000" fill-rule="evenodd" fill-opacity="1" /><path clip-path="url(#clip340)" d="M1501.51 1864.01 L1501.51 1866.88 L1474.58 1866.88 Q1474.96 1872.92 1478.21 1876.11 Q1481.49 1879.26 1487.31 1879.26 Q1490.69 1879.26 1493.84 1878.43 Q1497.02 1877.6 1500.14 1875.95 L1500.14 1881.49 Q1496.99 1882.82 1493.68 1883.52 Q1490.37 1884.22 1486.96 1884.22 Q1478.43 1884.22 1473.44 1879.26 Q1468.47 1874.29 1468.47 1865.83 Q1468.47 1857.07 1473.18 1851.95 Q1477.92 1846.79 1485.95 1846.79 Q1493.14 1846.79 1497.31 1851.44 Q1501.51 1856.06 1501.51 1864.01 M1495.65 1862.29 Q1495.59 1857.49 1492.95 1854.62 Q1490.34 1851.76 1486.01 1851.76 Q1481.11 1851.76 1478.15 1854.53 Q1475.22 1857.3 1474.77 1862.33 L1495.65 1862.29 Z" fill="#000000" fill-rule="evenodd" fill-opacity="1" /><path clip-path="url(#clip340)" d="M1516.79 1877.95 L1516.79 1896.86 L1510.9 1896.86 L1510.9 1847.65 L1516.79 1847.65 L1516.79 1853.06 Q1518.63 1849.88 1521.43 1848.35 Q1524.27 1846.79 1528.18 1846.79 Q1534.67 1846.79 1538.72 1851.95 Q1542.79 1857.11 1542.79 1865.51 Q1542.79 1873.91 1538.72 1879.07 Q1534.67 1884.22 1528.18 1884.22 Q1524.27 1884.22 1521.43 1882.7 Q1518.63 1881.14 1516.79 1877.95 M1536.71 1865.51 Q1536.71 1859.05 1534.04 1855.39 Q1531.4 1851.7 1526.75 1851.7 Q1522.1 1851.7 1519.43 1855.39 Q1516.79 1859.05 1516.79 1865.51 Q1516.79 1871.97 1519.43 1875.66 Q1522.1 1879.32 1526.75 1879.32 Q1531.4 1879.32 1534.04 1875.66 Q1536.71 1871.97 1536.71 1865.51 Z" fill="#000000" fill-rule="evenodd" fill-opacity="1" /><path clip-path="url(#clip340)" d="M1575.22 1848.7 L1575.22 1854.24 Q1572.74 1852.97 1570.07 1852.33 Q1567.39 1851.7 1564.53 1851.7 Q1560.17 1851.7 1557.97 1853.03 Q1555.81 1854.37 1555.81 1857.04 Q1555.81 1859.08 1557.37 1860.26 Q1558.93 1861.4 1563.64 1862.45 L1565.64 1862.9 Q1571.88 1864.24 1574.49 1866.69 Q1577.13 1869.11 1577.13 1873.47 Q1577.13 1878.43 1573.19 1881.33 Q1569.27 1884.22 1562.4 1884.22 Q1559.53 1884.22 1556.41 1883.65 Q1553.33 1883.11 1549.89 1882 L1549.89 1875.95 Q1553.14 1877.64 1556.29 1878.49 Q1559.44 1879.32 1562.52 1879.32 Q1566.66 1879.32 1568.89 1877.92 Q1571.12 1876.49 1571.12 1873.91 Q1571.12 1871.52 1569.49 1870.25 Q1567.9 1868.98 1562.46 1867.8 L1560.42 1867.32 Q1554.98 1866.18 1552.56 1863.82 Q1550.14 1861.43 1550.14 1857.3 Q1550.14 1852.27 1553.71 1849.53 Q1557.27 1846.79 1563.83 1846.79 Q1567.08 1846.79 1569.94 1847.27 Q1572.81 1847.75 1575.22 1848.7 Z" fill="#000000" fill-rule="evenodd" fill-opacity="1" /><polyline clip-path="url(#clip342)" style="stroke:#000000; stroke-linecap:butt; stroke-linejoin:round; stroke-width:2; stroke-opacity:0.1; fill:none" points="
  225.654,1686.38 2640.76,1686.38 
  "/>
<polyline clip-path="url(#clip342)" style="stroke:#000000; stroke-linecap:butt; stroke-linejoin:round; stroke-width:2; stroke-opacity:0.1; fill:none" points="
  225.654,1399.39 2640.76,1399.39 
  "/>
<polyline clip-path="url(#clip342)" style="stroke:#000000; stroke-linecap:butt; stroke-linejoin:round; stroke-width:2; stroke-opacity:0.1; fill:none" points="
  225.654,1112.4 2640.76,1112.4 
  "/>
<polyline clip-path="url(#clip342)" style="stroke:#000000; stroke-linecap:butt; stroke-linejoin:round; stroke-width:2; stroke-opacity:0.1; fill:none" points="
  225.654,825.417 2640.76,825.417 
  "/>
<polyline clip-path="url(#clip342)" style="stroke:#000000; stroke-linecap:butt; stroke-linejoin:round; stroke-width:2; stroke-opacity:0.1; fill:none" points="
  225.654,538.43 2640.76,538.43 
  "/>
<polyline clip-path="url(#clip342)" style="stroke:#000000; stroke-linecap:butt; stroke-linejoin:round; stroke-width:2; stroke-opacity:0.1; fill:none" points="
  225.654,251.444 2640.76,251.444 
  "/>
<polyline clip-path="url(#clip340)" style="stroke:#000000; stroke-linecap:butt; stroke-linejoin:round; stroke-width:4; stroke-opacity:1; fill:none" points="
  225.654,1734.12 225.654,47.2441 
  "/>
<polyline clip-path="url(#clip340)" style="stroke:#000000; stroke-linecap:butt; stroke-linejoin:round; stroke-width:4; stroke-opacity:1; fill:none" points="
  225.654,1686.38 244.552,1686.38 
  "/>
<polyline clip-path="url(#clip340)" style="stroke:#000000; stroke-linecap:butt; stroke-linejoin:round; stroke-width:4; stroke-opacity:1; fill:none" points="
  225.654,1399.39 244.552,1399.39 
  "/>
<polyline clip-path="url(#clip340)" style="stroke:#000000; stroke-linecap:butt; stroke-linejoin:round; stroke-width:4; stroke-opacity:1; fill:none" points="
  225.654,1112.4 244.552,1112.4 
  "/>
<polyline clip-path="url(#clip340)" style="stroke:#000000; stroke-linecap:butt; stroke-linejoin:round; stroke-width:4; stroke-opacity:1; fill:none" points="
  225.654,825.417 244.552,825.417 
  "/>
<polyline clip-path="url(#clip340)" style="stroke:#000000; stroke-linecap:butt; stroke-linejoin:round; stroke-width:4; stroke-opacity:1; fill:none" points="
  225.654,538.43 244.552,538.43 
  "/>
<polyline clip-path="url(#clip340)" style="stroke:#000000; stroke-linecap:butt; stroke-linejoin:round; stroke-width:4; stroke-opacity:1; fill:none" points="
  225.654,251.444 244.552,251.444 
  "/>
<path clip-path="url(#clip340)" d="M128.159 1672.17 Q124.548 1672.17 122.719 1675.74 Q120.913 1679.28 120.913 1686.41 Q120.913 1693.52 122.719 1697.08 Q124.548 1700.62 128.159 1700.62 Q131.793 1700.62 133.599 1697.08 Q135.427 1693.52 135.427 1686.41 Q135.427 1679.28 133.599 1675.74 Q131.793 1672.17 128.159 1672.17 M128.159 1668.47 Q133.969 1668.47 137.025 1673.08 Q140.103 1677.66 140.103 1686.41 Q140.103 1695.14 137.025 1699.74 Q133.969 1704.33 128.159 1704.33 Q122.349 1704.33 119.27 1699.74 Q116.214 1695.14 116.214 1686.41 Q116.214 1677.66 119.27 1673.08 Q122.349 1668.47 128.159 1668.47 Z" fill="#000000" fill-rule="evenodd" fill-opacity="1" /><path clip-path="url(#clip340)" d="M148.321 1697.78 L153.205 1697.78 L153.205 1703.66 L148.321 1703.66 L148.321 1697.78 Z" fill="#000000" fill-rule="evenodd" fill-opacity="1" /><path clip-path="url(#clip340)" d="M173.39 1672.17 Q169.779 1672.17 167.95 1675.74 Q166.145 1679.28 166.145 1686.41 Q166.145 1693.52 167.95 1697.08 Q169.779 1700.62 173.39 1700.62 Q177.024 1700.62 178.83 1697.08 Q180.659 1693.52 180.659 1686.41 Q180.659 1679.28 178.83 1675.74 Q177.024 1672.17 173.39 1672.17 M173.39 1668.47 Q179.2 1668.47 182.256 1673.08 Q185.334 1677.66 185.334 1686.41 Q185.334 1695.14 182.256 1699.74 Q179.2 1704.33 173.39 1704.33 Q167.58 1704.33 164.501 1699.74 Q161.446 1695.14 161.446 1686.41 Q161.446 1677.66 164.501 1673.08 Q167.58 1668.47 173.39 1668.47 Z" fill="#000000" fill-rule="evenodd" fill-opacity="1" /><path clip-path="url(#clip340)" d="M129.154 1385.19 Q125.543 1385.19 123.714 1388.75 Q121.909 1392.29 121.909 1399.42 Q121.909 1406.53 123.714 1410.1 Q125.543 1413.64 129.154 1413.64 Q132.788 1413.64 134.594 1410.1 Q136.423 1406.53 136.423 1399.42 Q136.423 1392.29 134.594 1388.75 Q132.788 1385.19 129.154 1385.19 M129.154 1381.48 Q134.964 1381.48 138.02 1386.09 Q141.099 1390.67 141.099 1399.42 Q141.099 1408.15 138.02 1412.76 Q134.964 1417.34 129.154 1417.34 Q123.344 1417.34 120.265 1412.76 Q117.21 1408.15 117.21 1399.42 Q117.21 1390.67 120.265 1386.09 Q123.344 1381.48 129.154 1381.48 Z" fill="#000000" fill-rule="evenodd" fill-opacity="1" /><path clip-path="url(#clip340)" d="M149.316 1410.79 L154.2 1410.79 L154.2 1416.67 L149.316 1416.67 L149.316 1410.79 Z" fill="#000000" fill-rule="evenodd" fill-opacity="1" /><path clip-path="url(#clip340)" d="M164.432 1382.11 L182.788 1382.11 L182.788 1386.04 L168.714 1386.04 L168.714 1394.52 Q169.733 1394.17 170.751 1394.01 Q171.77 1393.82 172.788 1393.82 Q178.575 1393.82 181.955 1396.99 Q185.334 1400.16 185.334 1405.58 Q185.334 1411.16 181.862 1414.26 Q178.39 1417.34 172.071 1417.34 Q169.895 1417.34 167.626 1416.97 Q165.381 1416.6 162.973 1415.86 L162.973 1411.16 Q165.057 1412.29 167.279 1412.85 Q169.501 1413.41 171.978 1413.41 Q175.983 1413.41 178.321 1411.3 Q180.659 1409.19 180.659 1405.58 Q180.659 1401.97 178.321 1399.86 Q175.983 1397.76 171.978 1397.76 Q170.103 1397.76 168.228 1398.17 Q166.376 1398.59 164.432 1399.47 L164.432 1382.11 Z" fill="#000000" fill-rule="evenodd" fill-opacity="1" /><path clip-path="url(#clip340)" d="M118.969 1125.75 L126.608 1125.75 L126.608 1099.38 L118.298 1101.05 L118.298 1096.79 L126.562 1095.12 L131.238 1095.12 L131.238 1125.75 L138.876 1125.75 L138.876 1129.68 L118.969 1129.68 L118.969 1125.75 Z" fill="#000000" fill-rule="evenodd" fill-opacity="1" /><path clip-path="url(#clip340)" d="M148.321 1123.8 L153.205 1123.8 L153.205 1129.68 L148.321 1129.68 L148.321 1123.8 Z" fill="#000000" fill-rule="evenodd" fill-opacity="1" /><path clip-path="url(#clip340)" d="M173.39 1098.2 Q169.779 1098.2 167.95 1101.77 Q166.145 1105.31 166.145 1112.44 Q166.145 1119.54 167.95 1123.11 Q169.779 1126.65 173.39 1126.65 Q177.024 1126.65 178.83 1123.11 Q180.659 1119.54 180.659 1112.44 Q180.659 1105.31 178.83 1101.77 Q177.024 1098.2 173.39 1098.2 M173.39 1094.5 Q179.2 1094.5 182.256 1099.1 Q185.334 1103.69 185.334 1112.44 Q185.334 1121.16 182.256 1125.77 Q179.2 1130.35 173.39 1130.35 Q167.58 1130.35 164.501 1125.77 Q161.446 1121.16 161.446 1112.44 Q161.446 1103.69 164.501 1099.1 Q167.58 1094.5 173.39 1094.5 Z" fill="#000000" fill-rule="evenodd" fill-opacity="1" /><path clip-path="url(#clip340)" d="M119.964 838.761 L127.603 838.761 L127.603 812.396 L119.293 814.063 L119.293 809.803 L127.557 808.137 L132.233 808.137 L132.233 838.761 L139.872 838.761 L139.872 842.697 L119.964 842.697 L119.964 838.761 Z" fill="#000000" fill-rule="evenodd" fill-opacity="1" /><path clip-path="url(#clip340)" d="M149.316 836.817 L154.2 836.817 L154.2 842.697 L149.316 842.697 L149.316 836.817 Z" fill="#000000" fill-rule="evenodd" fill-opacity="1" /><path clip-path="url(#clip340)" d="M164.432 808.137 L182.788 808.137 L182.788 812.072 L168.714 812.072 L168.714 820.544 Q169.733 820.197 170.751 820.035 Q171.77 819.85 172.788 819.85 Q178.575 819.85 181.955 823.021 Q185.334 826.192 185.334 831.609 Q185.334 837.187 181.862 840.289 Q178.39 843.368 172.071 843.368 Q169.895 843.368 167.626 842.998 Q165.381 842.627 162.973 841.886 L162.973 837.187 Q165.057 838.322 167.279 838.877 Q169.501 839.433 171.978 839.433 Q175.983 839.433 178.321 837.326 Q180.659 835.22 180.659 831.609 Q180.659 827.998 178.321 825.891 Q175.983 823.785 171.978 823.785 Q170.103 823.785 168.228 824.201 Q166.376 824.618 164.432 825.498 L164.432 808.137 Z" fill="#000000" fill-rule="evenodd" fill-opacity="1" /><path clip-path="url(#clip340)" d="M122.187 551.775 L138.506 551.775 L138.506 555.71 L116.562 555.71 L116.562 551.775 Q119.224 549.021 123.807 544.391 Q128.413 539.738 129.594 538.396 Q131.839 535.873 132.719 534.136 Q133.622 532.377 133.622 530.687 Q133.622 527.933 131.677 526.197 Q129.756 524.461 126.654 524.461 Q124.455 524.461 122.001 525.224 Q119.571 525.988 116.793 527.539 L116.793 522.817 Q119.617 521.683 122.071 521.104 Q124.525 520.525 126.562 520.525 Q131.932 520.525 135.126 523.211 Q138.321 525.896 138.321 530.386 Q138.321 532.516 137.511 534.437 Q136.724 536.336 134.617 538.928 Q134.038 539.599 130.937 542.817 Q127.835 546.011 122.187 551.775 Z" fill="#000000" fill-rule="evenodd" fill-opacity="1" /><path clip-path="url(#clip340)" d="M148.321 549.831 L153.205 549.831 L153.205 555.71 L148.321 555.71 L148.321 549.831 Z" fill="#000000" fill-rule="evenodd" fill-opacity="1" /><path clip-path="url(#clip340)" d="M173.39 524.229 Q169.779 524.229 167.95 527.794 Q166.145 531.336 166.145 538.465 Q166.145 545.572 167.95 549.136 Q169.779 552.678 173.39 552.678 Q177.024 552.678 178.83 549.136 Q180.659 545.572 180.659 538.465 Q180.659 531.336 178.83 527.794 Q177.024 524.229 173.39 524.229 M173.39 520.525 Q179.2 520.525 182.256 525.132 Q185.334 529.715 185.334 538.465 Q185.334 547.192 182.256 551.798 Q179.2 556.382 173.39 556.382 Q167.58 556.382 164.501 551.798 Q161.446 547.192 161.446 538.465 Q161.446 529.715 164.501 525.132 Q167.58 520.525 173.39 520.525 Z" fill="#000000" fill-rule="evenodd" fill-opacity="1" /><path clip-path="url(#clip340)" d="M123.182 264.789 L139.501 264.789 L139.501 268.724 L117.557 268.724 L117.557 264.789 Q120.219 262.034 124.802 257.405 Q129.409 252.752 130.589 251.409 Q132.835 248.886 133.714 247.15 Q134.617 245.391 134.617 243.701 Q134.617 240.947 132.673 239.21 Q130.751 237.474 127.65 237.474 Q125.451 237.474 122.997 238.238 Q120.566 239.002 117.789 240.553 L117.789 235.831 Q120.613 234.697 123.066 234.118 Q125.52 233.539 127.557 233.539 Q132.927 233.539 136.122 236.224 Q139.316 238.91 139.316 243.4 Q139.316 245.53 138.506 247.451 Q137.719 249.349 135.612 251.942 Q135.034 252.613 131.932 255.831 Q128.83 259.025 123.182 264.789 Z" fill="#000000" fill-rule="evenodd" fill-opacity="1" /><path clip-path="url(#clip340)" d="M149.316 262.845 L154.2 262.845 L154.2 268.724 L149.316 268.724 L149.316 262.845 Z" fill="#000000" fill-rule="evenodd" fill-opacity="1" /><path clip-path="url(#clip340)" d="M164.432 234.164 L182.788 234.164 L182.788 238.099 L168.714 238.099 L168.714 246.572 Q169.733 246.224 170.751 246.062 Q171.77 245.877 172.788 245.877 Q178.575 245.877 181.955 249.048 Q185.334 252.22 185.334 257.636 Q185.334 263.215 181.862 266.317 Q178.39 269.395 172.071 269.395 Q169.895 269.395 167.626 269.025 Q165.381 268.655 162.973 267.914 L162.973 263.215 Q165.057 264.349 167.279 264.905 Q169.501 265.46 171.978 265.46 Q175.983 265.46 178.321 263.354 Q180.659 261.247 180.659 257.636 Q180.659 254.025 178.321 251.919 Q175.983 249.812 171.978 249.812 Q170.103 249.812 168.228 250.229 Q166.376 250.646 164.432 251.525 L164.432 234.164 Z" fill="#000000" fill-rule="evenodd" fill-opacity="1" /><path clip-path="url(#clip340)" d="M14.1184 1036.01 L14.1184 1026.43 L46.4562 1014.3 L14.1184 1002.11 L14.1184 992.532 L61.6384 992.532 L61.6384 998.802 L19.9112 998.802 L52.5037 1011.06 L52.5037 1017.52 L19.9112 1029.77 L61.6384 1029.77 L61.6384 1036.01 L14.1184 1036.01 Z" fill="#000000" fill-rule="evenodd" fill-opacity="1" /><path clip-path="url(#clip340)" d="M17.7787 944.184 L24.5582 944.184 Q21.5345 947.431 20.0386 951.123 Q18.5426 954.783 18.5426 958.921 Q18.5426 967.069 23.5397 971.398 Q28.5049 975.726 37.9262 975.726 Q47.3156 975.726 52.3127 971.398 Q57.2779 967.069 57.2779 958.921 Q57.2779 954.783 55.782 951.123 Q54.2861 947.431 51.2623 944.184 L57.9782 944.184 Q60.2698 947.558 61.4156 951.346 Q62.5615 955.101 62.5615 959.303 Q62.5615 970.093 55.973 976.299 Q49.3526 982.506 37.9262 982.506 Q26.4679 982.506 19.8794 976.299 Q13.2591 970.093 13.2591 959.303 Q13.2591 955.038 14.4049 951.282 Q15.5189 947.494 17.7787 944.184 Z" fill="#000000" fill-rule="evenodd" fill-opacity="1" /><path clip-path="url(#clip340)" d="M25.9905 917.989 L25.9905 911.783 L55.9093 900.643 L25.9905 889.503 L25.9905 883.296 L61.6384 896.664 L61.6384 904.621 L25.9905 917.989 Z" fill="#000000" fill-rule="evenodd" fill-opacity="1" /><path clip-path="url(#clip340)" d="M43.719 859.011 Q43.719 866.109 45.3422 868.846 Q46.9655 871.583 50.8804 871.583 Q53.9996 871.583 55.8457 869.546 Q57.6599 867.478 57.6599 863.945 Q57.6599 859.075 54.2224 856.147 Q50.7531 853.187 45.0239 853.187 L43.719 853.187 L43.719 859.011 M41.3 847.33 L61.6384 847.33 L61.6384 853.187 L56.2276 853.187 Q59.4741 855.192 61.0337 858.184 Q62.5615 861.175 62.5615 865.504 Q62.5615 870.979 59.5059 874.225 Q56.4186 877.44 51.2623 877.44 Q45.2467 877.44 42.1912 873.429 Q39.1357 869.387 39.1357 861.398 L39.1357 853.187 L38.5628 853.187 Q34.5205 853.187 32.3244 855.86 Q30.0964 858.502 30.0964 863.308 Q30.0964 866.364 30.8284 869.26 Q31.5605 872.156 33.0246 874.83 L27.6137 874.83 Q26.3724 871.615 25.7677 868.592 Q25.1311 865.568 25.1311 862.703 Q25.1311 854.969 29.1415 851.15 Q33.1519 847.33 41.3 847.33 Z" fill="#000000" fill-rule="evenodd" fill-opacity="1" /><path clip-path="url(#clip340)" d="M12.1132 835.267 L12.1132 829.411 L61.6384 829.411 L61.6384 835.267 L12.1132 835.267 Z" fill="#000000" fill-rule="evenodd" fill-opacity="1" /><path clip-path="url(#clip340)" d="M47.5702 817.761 L25.9905 817.761 L25.9905 811.905 L47.3474 811.905 Q52.4082 811.905 54.9545 809.932 Q57.4689 807.958 57.4689 804.011 Q57.4689 799.269 54.4452 796.532 Q51.4215 793.763 46.2016 793.763 L25.9905 793.763 L25.9905 787.906 L61.6384 787.906 L61.6384 793.763 L56.1639 793.763 Q59.4104 795.895 61.0019 798.728 Q62.5615 801.529 62.5615 805.253 Q62.5615 811.396 58.742 814.579 Q54.9226 817.761 47.5702 817.761 M25.1311 803.025 L25.1311 803.025 Z" fill="#000000" fill-rule="evenodd" fill-opacity="1" /><path clip-path="url(#clip340)" d="M42.3504 745.351 L45.2149 745.351 L45.2149 772.278 Q51.2623 771.896 54.4452 768.65 Q57.5962 765.372 57.5962 759.547 Q57.5962 756.173 56.7687 753.022 Q55.9411 749.839 54.2861 746.72 L59.8242 746.72 Q61.161 749.871 61.8612 753.181 Q62.5615 756.491 62.5615 759.897 Q62.5615 768.427 57.5962 773.424 Q52.631 778.389 44.1646 778.389 Q35.4117 778.389 30.2873 773.679 Q25.1311 768.936 25.1311 760.916 Q25.1311 753.722 29.7781 749.553 Q34.3932 745.351 42.3504 745.351 M40.6316 751.208 Q35.8255 751.272 32.9609 753.913 Q30.0964 756.523 30.0964 760.852 Q30.0964 765.754 32.8654 768.714 Q35.6345 771.642 40.6634 772.087 L40.6316 751.208 Z" fill="#000000" fill-rule="evenodd" fill-opacity="1" /><polyline clip-path="url(#clip342)" style="stroke:#009af9; stroke-linecap:butt; stroke-linejoin:round; stroke-width:4; stroke-opacity:1; fill:none" points="
  294.006,1686.38 296.287,1686.38 298.568,1686.38 300.848,1686.38 303.129,1208.96 305.41,890.681 307.69,663.339 309.971,492.833 312.252,360.217 314.532,254.125 
  316.813,384.329 319.094,293.909 321.375,401.022 323.655,492.833 325.936,413.264 328.217,343.64 330.497,282.208 332.778,227.602 335.059,178.743 337.339,134.771 
  339.62,94.9858 341.901,167.322 344.181,233.367 346.462,194.448 348.743,158.641 351.023,217.4 353.304,183.396 355.585,151.821 357.865,204.737 360.146,254.125 
  362.427,223.324 364.707,194.448 366.988,239.658 369.269,212 371.549,185.922 373.83,161.294 376.111,202.512 378.391,241.561 380.672,217.4 382.953,194.448 
  385.234,172.615 387.514,208.656 389.795,187.508 392.076,167.322 394.356,148.032 396.637,181.474 398.918,213.494 401.198,194.448 403.479,224.895 405.76,206.383 
  408.04,235.403 410.321,217.4 412.602,200.078 414.882,183.396 417.163,167.322 419.444,194.448 421.724,178.743 424.005,163.58 426.286,189.39 428.566,214.34 
  430.847,199.339 433.128,184.822 435.408,170.766 437.689,194.448 439.97,217.4 442.25,203.49 444.531,189.994 446.812,212 449.092,233.367 451.373,254.125 
  453.654,240.676 455.935,227.602 458.215,247.585 460.496,267.028 462.777,254.125 465.057,241.561 467.338,260.325 469.619,278.608 471.899,296.427 474.18,313.802 
  476.461,330.747 478.741,318.168 481.022,305.893 483.303,322.327 485.583,310.291 487.864,298.536 490.145,287.05 492.425,275.825 494.706,264.853 496.987,280.648 
  499.267,296.095 501.548,285.261 503.829,274.659 506.109,289.677 508.39,304.379 510.671,318.775 512.951,332.874 515.232,322.327 517.513,311.993 519.794,325.737 
  522.074,315.574 524.355,305.611 526.636,319.016 528.916,309.211 531.197,299.593 533.478,290.156 535.758,280.896 538.039,293.909 540.32,284.785 542.6,275.825 
  544.881,267.028 547.162,258.387 549.442,271.024 551.723,283.44 554.004,295.639 556.284,287.05 558.565,278.608 560.846,270.308 563.126,282.208 565.407,274.017 
  567.688,265.962 569.968,258.038 572.249,269.65 574.53,281.076 576.81,292.318 579.091,303.382 581.372,314.272 583.653,306.342 585.933,298.536 588.214,290.849 
  590.495,283.28 592.775,275.825 595.056,286.431 597.337,279.064 599.617,271.807 601.898,282.208 604.179,292.457 606.459,302.558 608.74,312.514 611.021,305.277 
  613.301,298.142 615.582,291.108 617.863,300.865 620.143,293.909 622.424,303.513 624.705,296.634 626.985,306.088 629.266,315.415 631.547,324.616 633.827,317.78 
  636.108,311.035 638.389,320.084 640.669,329.014 642.95,337.828 645.231,331.127 647.512,324.513 649.792,317.983 652.073,311.536 654.354,305.169 656.634,313.802 
  658.915,307.501 661.196,301.277 663.476,295.13 665.757,303.613 668.038,311.993 670.318,320.273 672.599,314.159 674.88,322.327 677.16,316.274 679.441,310.291 
  681.722,318.339 684.002,326.292 686.283,334.154 688.564,341.926 690.844,335.968 693.125,330.077 695.406,324.254 697.686,331.906 699.967,339.473 702.248,333.694 
  704.528,327.979 706.809,322.327 709.09,329.781 711.37,337.154 713.651,331.544 715.932,338.828 718.213,333.269 720.493,340.466 722.774,334.957 725.055,342.07 
  727.335,349.108 729.616,343.64 731.897,350.598 734.177,357.483 736.458,364.298 738.739,371.043 741.019,365.603 743.3,360.217 745.581,354.886 747.861,361.544 
  750.142,356.259 752.423,351.026 754.703,345.845 756.984,352.416 759.265,347.279 761.545,342.192 763.826,348.686 766.107,343.64 768.387,338.644 770.668,333.694 
  772.949,328.792 775.229,335.196 777.51,330.332 779.791,336.669 782.072,342.946 784.352,349.166 786.633,344.328 788.914,339.534 791.194,345.684 793.475,351.778 
  795.756,357.817 798.036,353.049 800.317,348.324 802.598,343.64 804.878,338.999 807.159,334.398 809.44,329.838 811.72,325.318 814.001,320.838 816.282,326.775 
  818.562,322.327 820.843,317.918 823.124,313.546 825.404,319.413 827.685,315.072 829.966,310.767 832.246,306.5 834.527,302.268 836.808,308.059 839.088,313.802 
  841.369,309.592 843.65,315.281 845.931,311.1 848.211,306.954 850.492,302.841 852.773,298.761 855.053,294.715 857.334,300.326 859.615,305.893 861.895,301.866 
  864.176,297.872 866.457,303.382 868.737,299.413 871.018,295.476 873.299,291.569 875.579,287.693 877.86,283.847 880.141,289.283 882.421,294.678 884.702,290.849 
  886.983,287.05 889.263,283.28 891.544,288.615 893.825,293.909 896.105,299.164 898.386,295.405 900.667,300.615 902.947,296.878 905.228,293.17 907.509,289.489 
  909.79,285.835 912.07,290.984 914.351,296.095 916.632,301.169 918.912,297.526 921.193,293.909 923.474,290.319 925.754,295.341 928.035,291.771 930.316,288.226 
  932.596,293.202 934.877,298.142 937.158,303.047 939.438,299.513 941.719,296.003 944,292.518 946.28,289.058 948.561,285.621 950.842,282.208 953.122,278.819 
  955.403,283.656 957.684,288.46 959.964,285.084 962.245,281.73 964.526,278.4 966.806,275.092 969.087,279.844 971.368,276.554 973.649,273.285 975.929,270.039 
  978.21,266.814 980.491,263.61 982.771,260.427 985.052,265.118 987.333,261.951 989.613,258.805 991.894,263.455 994.175,260.325 996.455,264.94 998.736,261.825 
  1001.02,258.73 1003.3,263.306 1005.58,267.852 1007.86,264.768 1010.14,261.703 1012.42,258.657 1014.7,255.631 1016.98,252.623 1019.26,249.635 1021.54,246.665 
  1023.82,251.15 1026.1,255.607 1028.38,252.647 1030.67,249.704 1032.95,246.78 1035.23,251.196 1037.51,248.285 1039.79,245.391 1042.07,242.516 1044.35,246.891 
  1046.63,244.028 1048.91,248.373 1051.19,252.691 1053.47,256.984 1055.75,254.125 1058.03,258.387 1060.31,255.541 1062.59,252.712 1064.88,256.941 1067.16,261.146 
  1069.44,258.325 1071.72,255.521 1074,252.733 1076.28,249.961 1078.56,254.125 1080.84,251.365 1083.12,248.621 1085.4,245.893 1087.68,243.181 1089.96,240.484 
  1092.24,237.803 1094.52,235.137 1096.81,239.248 1099.09,236.592 1101.37,233.952 1103.65,238.032 1105.93,235.403 1108.21,239.455 1110.49,236.837 1112.77,234.232 
  1115.05,231.642 1117.33,229.067 1119.61,233.082 1121.89,237.074 1124.17,234.505 1126.45,231.95 1128.73,229.408 1131.02,226.881 1133.3,230.836 1135.58,228.318 
  1137.86,225.814 1140.14,223.324 1142.42,227.246 1144.7,224.765 1146.98,228.662 1149.26,232.539 1151.54,236.396 1153.82,233.917 1156.1,237.749 1158.38,241.561 
  1160.66,245.353 1162.94,249.126 1165.23,246.646 1167.51,250.395 1169.79,247.925 1172.07,245.467 1174.35,249.19 1176.63,246.742 1178.91,250.443 1181.19,248.004 
  1183.47,245.578 1185.75,243.164 1188.03,246.836 1190.31,244.431 1192.59,242.038 1194.87,239.658 1197.15,237.289 1199.44,240.93 1201.72,238.57 1204,242.189 
  1206.28,239.838 1208.56,243.436 1210.84,241.094 1213.12,244.671 1215.4,248.231 1217.68,251.773 1219.96,249.433 1222.24,247.104 1224.52,250.623 1226.8,248.303 
  1229.08,251.802 1231.37,249.49 1233.65,252.969 1235.93,250.665 1238.21,248.373 1240.49,246.091 1242.77,243.821 1245.05,241.561 1247.33,245.009 1249.61,242.758 
  1251.89,240.517 1254.17,243.943 1256.45,241.71 1258.73,239.487 1261.01,237.275 1263.29,240.676 1265.58,238.472 1267.86,236.277 1270.14,239.658 1272.42,237.471 
  1274.7,235.294 1276.98,233.127 1279.26,230.971 1281.54,228.824 1283.82,232.175 1286.1,230.035 1288.38,227.905 1290.66,225.785 1292.94,223.674 1295.22,221.574 
  1297.5,219.482 1299.79,222.801 1302.07,226.105 1304.35,224.017 1306.63,227.304 1308.91,225.223 1311.19,223.151 1313.47,221.089 1315.75,219.036 1318.03,216.992 
  1320.31,214.957 1322.59,218.213 1324.87,221.454 1327.15,219.423 1329.43,217.4 1331.71,220.622 1334,218.606 1336.28,216.599 1338.56,219.801 1340.84,217.8 
  1343.12,215.807 1345.4,213.823 1347.68,217.004 1349.96,220.171 1352.24,218.19 1354.52,216.218 1356.8,219.366 1359.08,217.4 1361.36,220.533 1363.64,218.572 
  1365.93,221.689 1368.21,219.735 1370.49,217.789 1372.77,215.851 1375.05,218.947 1377.33,217.015 1379.61,215.091 1381.89,218.169 1384.17,216.25 1386.45,214.34 
  1388.73,212.438 1391.01,215.496 1393.29,218.541 1395.57,216.642 1397.85,219.672 1400.14,217.778 1402.42,220.794 1404.7,223.797 1406.98,226.788 1409.26,224.895 
  1411.54,223.01 1413.82,225.984 1416.1,224.105 1418.38,222.233 1420.66,220.368 1422.94,223.324 1425.22,221.464 1427.5,224.406 1429.78,222.552 1432.06,225.48 
  1434.35,223.631 1436.63,221.79 1438.91,219.956 1441.19,218.129 1443.47,216.31 1445.75,219.215 1448.03,217.4 1450.31,220.292 1452.59,223.172 1454.87,221.361 
  1457.15,224.228 1459.43,227.084 1461.71,229.928 1463.99,232.762 1466.28,230.949 1468.56,233.77 1470.84,231.962 1473.12,230.162 1475.4,228.368 1477.68,226.581 
  1479.96,224.802 1482.24,223.029 1484.52,221.262 1486.8,219.503 1489.08,222.297 1491.36,220.542 1493.64,223.324 1495.92,226.095 1498.2,224.343 1500.49,227.101 
  1502.77,229.849 1505.05,232.587 1507.33,230.836 1509.61,229.092 1511.89,227.354 1514.17,225.622 1516.45,223.897 1518.73,226.616 1521.01,229.324 1523.29,227.602 
  1525.57,225.886 1527.85,224.176 1530.13,222.473 1532.41,225.164 1534.7,223.465 1536.98,226.144 1539.26,224.45 1541.54,222.762 1543.82,221.079 1546.1,219.404 
  1548.38,217.734 1550.66,220.394 1552.94,218.729 1555.22,221.378 1557.5,219.716 1559.78,218.061 1562.06,216.411 1564.34,219.046 1566.62,217.4 1568.91,215.761 
  1571.19,218.382 1573.47,216.747 1575.75,219.357 1578.03,217.726 1580.31,220.325 1582.59,218.698 1584.87,217.077 1587.15,215.461 1589.43,218.046 1591.71,216.434 
  1593.99,219.008 1596.27,221.574 1598.55,224.13 1600.84,226.677 1603.12,229.216 1605.4,227.602 1607.68,225.993 1609.96,228.519 1612.24,226.914 1614.52,229.431 
  1616.8,227.83 1619.08,226.234 1621.36,224.644 1623.64,223.06 1625.92,225.561 1628.2,223.981 1630.48,222.405 1632.76,224.895 1635.05,223.324 1637.33,221.757 
  1639.61,224.236 1641.89,226.706 1644.17,225.142 1646.45,223.583 1648.73,226.041 1651.01,228.492 1653.29,230.934 1655.57,229.376 1657.85,227.823 1660.13,226.275 
  1662.41,228.705 1664.69,227.161 1666.97,225.622 1669.26,228.041 1671.54,226.506 1673.82,224.976 1676.1,223.451 1678.38,221.931 1680.66,220.415 1682.94,218.905 
  1685.22,221.307 1687.5,219.801 1689.78,218.299 1692.06,216.802 1694.34,215.31 1696.62,213.823 1698.9,212.341 1701.18,210.864 1703.47,213.247 1705.75,211.773 
  1708.03,214.148 1710.31,216.515 1712.59,215.042 1714.87,213.575 1717.15,212.112 1719.43,210.654 1721.71,213.007 1723.99,215.354 1726.27,217.692 1728.55,216.235 
  1730.83,214.781 1733.11,213.333 1735.4,211.889 1737.68,214.214 1739.96,216.533 1742.24,218.844 1744.52,217.4 1746.8,215.961 1749.08,218.262 1751.36,216.827 
  1753.64,215.395 1755.92,217.686 1758.2,216.258 1760.48,218.541 1762.76,217.116 1765.04,215.695 1767.32,214.279 1769.61,216.55 1771.89,215.137 1774.17,217.4 
  1776.45,219.657 1778.73,221.906 1781.01,224.149 1783.29,226.385 1785.57,224.97 1787.85,227.197 1790.13,225.785 1792.41,228.005 1794.69,230.218 1796.97,228.807 
  1799.25,227.401 1801.53,225.999 1803.82,224.601 1806.1,223.208 1808.38,221.818 1810.66,220.433 1812.94,219.052 1815.22,221.249 1817.5,219.871 1819.78,218.497 
  1822.06,217.127 1824.34,215.761 1826.62,214.399 1828.9,213.041 1831.18,211.688 1833.46,210.338 1835.74,212.518 1838.03,214.692 1840.31,213.344 1842.59,212 
  1844.87,210.659 1847.15,212.823 1849.43,211.486 1851.71,213.642 1853.99,215.792 1856.27,217.936 1858.55,220.073 1860.83,218.735 1863.11,217.4 1865.39,219.529 
  1867.67,218.198 1869.96,220.319 1872.24,218.99 1874.52,221.105 1876.8,223.213 1879.08,221.885 1881.36,220.562 1883.64,219.242 1885.92,221.341 1888.2,223.434 
  1890.48,222.115 1892.76,220.801 1895.04,222.886 1897.32,221.574 1899.6,220.265 1901.88,218.961 1904.17,217.66 1906.45,216.363 1908.73,218.436 1911.01,217.142 
  1913.29,219.208 1915.57,217.916 1917.85,219.976 1920.13,222.029 1922.41,224.078 1924.69,222.786 1926.97,221.498 1929.25,223.538 1931.53,222.253 1933.81,220.971 
  1936.09,219.692 1938.38,218.418 1940.66,220.448 1942.94,222.473 1945.22,224.492 1947.5,223.218 1949.78,221.947 1952.06,223.958 1954.34,222.69 1956.62,221.425 
  1958.9,223.429 1961.18,222.166 1963.46,224.164 1965.74,226.156 1968.02,224.895 1970.3,226.881 1972.59,225.622 1974.87,224.367 1977.15,223.115 1979.43,225.093 
  1981.71,223.843 1983.99,222.597 1986.27,224.567 1988.55,226.532 1990.83,225.287 1993.11,224.046 1995.39,226.004 1997.67,224.765 1999.95,226.716 2002.23,228.662 
  2004.52,227.425 2006.8,226.191 2009.08,228.13 2011.36,226.898 2013.64,228.831 2015.92,227.602 2018.2,229.529 2020.48,231.451 2022.76,230.222 2025.04,228.998 
  2027.32,227.776 2029.6,229.69 2031.88,228.471 2034.16,230.379 2036.44,232.282 2038.73,231.064 2041.01,229.849 2043.29,228.638 2045.57,230.533 2047.85,232.424 
  2050.13,231.214 2052.41,233.099 2054.69,231.891 2056.97,230.686 2059.25,232.564 2061.53,231.361 2063.81,230.162 2066.09,232.033 2068.37,233.9 2070.65,232.702 
  2072.94,234.563 2075.22,233.367 2077.5,232.175 2079.78,234.029 2082.06,232.839 2084.34,231.651 2086.62,230.466 2088.9,229.285 2091.18,228.106 2093.46,226.93 
  2095.74,225.757 2098.02,224.588 2100.3,223.421 2102.58,222.257 2104.86,221.096 2107.15,219.938 2109.43,221.778 2111.71,223.613 2113.99,225.444 2116.27,224.286 
  2118.55,226.112 2120.83,227.932 2123.11,229.749 2125.39,231.56 2127.67,230.402 2129.95,232.209 2132.23,234.011 2134.51,235.808 2136.79,234.65 2139.08,233.496 
  2141.36,232.344 2143.64,234.134 2145.92,232.985 2148.2,231.837 2150.48,233.622 2152.76,232.477 2155.04,231.335 2157.32,230.196 2159.6,229.059 2161.88,227.925 
  2164.16,226.794 2166.44,225.666 2168.72,224.54 2171,223.417 2173.29,222.297 2175.57,221.18 2177.85,220.065 2180.13,218.953 2182.41,220.723 2184.69,219.613 
  2186.97,218.505 2189.25,217.4 2191.53,219.164 2193.81,218.061 2196.09,219.819 2198.37,218.718 2200.65,217.62 2202.93,216.524 2205.21,215.431 2207.5,217.182 
  2209.78,216.09 2212.06,215.001 2214.34,213.915 2216.62,212.832 2218.9,211.75 2221.18,210.672 2223.46,209.596 2225.74,211.337 2228.02,210.263 2230.3,209.191 
  2232.58,210.927 2234.86,212.659 2237.14,211.588 2239.42,213.315 2241.71,212.246 2243.99,211.18 2246.27,210.115 2248.55,209.054 2250.83,207.995 2253.11,209.714 
  2255.39,208.656 2257.67,207.602 2259.95,206.549 2262.23,208.262 2264.51,207.211 2266.79,206.163 2269.07,207.87 2271.35,206.823 2273.64,205.779 2275.92,204.737 
  2278.2,203.697 2280.48,202.66 2282.76,201.625 2285.04,200.593 2287.32,199.563 2289.6,198.535 2291.88,197.51 2294.16,199.205 2296.44,200.897 2298.72,199.873 
  2301,201.56 2303.28,200.537 2305.56,199.516 2307.85,198.498 2310.13,200.179 2312.41,201.857 2314.69,200.839 2316.97,202.512 2319.25,201.496 2321.53,200.482 
  2323.81,202.15 2326.09,201.138 2328.37,202.801 2330.65,201.79 2332.93,203.449 2335.21,205.104 2337.49,206.756 2339.77,205.745 2342.06,207.392 2344.34,209.035 
  2346.62,208.026 2348.9,207.018 2351.18,206.013 2353.46,205.01 2355.74,206.647 2358.02,205.645 2360.3,207.278 2362.58,208.907 2364.86,207.906 2367.14,206.908 
  2369.42,208.532 2371.7,210.152 2373.98,211.769 2376.27,213.382 2378.55,212.383 2380.83,213.993 2383.11,215.598 2385.39,217.2 2387.67,218.799 2389.95,217.8 
  2392.23,216.802 2394.51,215.807 2396.79,217.4 2399.07,218.99 2401.35,217.996 2403.63,217.004 2405.91,216.014 2408.2,217.598 2410.48,216.61 2412.76,218.19 
  2415.04,219.767 2417.32,221.341 2419.6,220.352 2421.88,221.922 2424.16,220.935 2426.44,219.951 2428.72,221.516 2431,220.533 2433.28,219.551 2435.56,221.112 
  2437.84,220.132 2440.12,219.155 2442.41,220.711 2444.69,222.263 2446.97,221.287 2449.25,222.835 2451.53,221.86 2453.81,223.405 2456.09,222.431 2458.37,221.459 
  2460.65,223 2462.93,222.029 2465.21,221.061 2467.49,220.095 2469.77,221.63 2472.05,220.666 2474.33,219.703 2476.62,218.742 2478.9,220.272 2481.18,219.313 
  2483.46,218.356 2485.74,219.882 2488.02,221.405 2490.3,222.924 2492.58,221.967 2494.86,223.483 2497.14,222.527 2499.42,221.574 2501.7,223.085 2503.98,224.594 
  2506.26,223.641 2508.54,222.69 2510.83,224.194 2513.11,223.245 2515.39,224.745 2517.67,223.797 2519.95,225.294 2522.23,224.347 2524.51,225.841 2526.79,227.331 
  2529.07,228.818 2531.35,230.303 2533.63,229.355 2535.91,228.41 2538.19,227.467 2540.47,226.526 2542.76,228.005 2545.04,229.481 2547.32,230.954 2549.6,232.424 
  2551.88,233.891 2554.16,232.949 2556.44,232.009 2558.72,231.07 2561,232.533 2563.28,233.993 2565.56,233.055 2567.84,232.12 2570.12,233.575 2572.4,232.641 
  
  "/>
<polyline clip-path="url(#clip342)" style="stroke:#e26f46; stroke-linecap:butt; stroke-linejoin:round; stroke-width:8; stroke-opacity:1; fill:none" points="
  -2189.45,225.514 5055.86,225.514 
  "/>
<path clip-path="url(#clip340)" d="
M1978.23 258.993 L2560.25 258.993 L2560.25 103.473 L1978.23 103.473  Z
  " fill="#ffffff" fill-rule="evenodd" fill-opacity="1"/>
<polyline clip-path="url(#clip340)" style="stroke:#000000; stroke-linecap:butt; stroke-linejoin:round; stroke-width:4; stroke-opacity:1; fill:none" points="
  1978.23,258.993 2560.25,258.993 2560.25,103.473 1978.23,103.473 1978.23,258.993 
  "/>
<polyline clip-path="url(#clip340)" style="stroke:#009af9; stroke-linecap:butt; stroke-linejoin:round; stroke-width:4; stroke-opacity:1; fill:none" points="
  2005.06,155.313 2166.07,155.313 
  "/>
<path clip-path="url(#clip340)" d="M2192.9 138.033 L2199.87 138.033 L2208.69 161.552 L2217.56 138.033 L2224.52 138.033 L2224.52 172.593 L2219.96 172.593 L2219.96 142.246 L2211.05 165.95 L2206.35 165.95 L2197.44 142.246 L2197.44 172.593 L2192.9 172.593 L2192.9 138.033 Z" fill="#000000" fill-rule="evenodd" fill-opacity="1" /><path clip-path="url(#clip340)" d="M2259.69 140.695 L2259.69 145.626 Q2257.33 143.427 2254.64 142.339 Q2251.98 141.251 2248.97 141.251 Q2243.04 141.251 2239.9 144.885 Q2236.75 148.496 2236.75 155.348 Q2236.75 162.177 2239.9 165.811 Q2243.04 169.422 2248.97 169.422 Q2251.98 169.422 2254.64 168.334 Q2257.33 167.246 2259.69 165.047 L2259.69 169.931 Q2257.23 171.598 2254.48 172.431 Q2251.75 173.264 2248.69 173.264 Q2240.84 173.264 2236.33 168.473 Q2231.82 163.658 2231.82 155.348 Q2231.82 147.015 2236.33 142.223 Q2240.84 137.408 2248.69 137.408 Q2251.79 137.408 2254.52 138.242 Q2257.28 139.052 2259.69 140.695 Z" fill="#000000" fill-rule="evenodd" fill-opacity="1" /><path clip-path="url(#clip340)" d="M2286.01 139.306 L2286.01 146.667 L2294.78 146.667 L2294.78 149.978 L2286.01 149.978 L2286.01 164.052 Q2286.01 167.223 2286.86 168.126 Q2287.74 169.028 2290.4 169.028 L2294.78 169.028 L2294.78 172.593 L2290.4 172.593 Q2285.47 172.593 2283.6 170.764 Q2281.72 168.913 2281.72 164.052 L2281.72 149.978 L2278.6 149.978 L2278.6 146.667 L2281.72 146.667 L2281.72 139.306 L2286.01 139.306 Z" fill="#000000" fill-rule="evenodd" fill-opacity="1" /><path clip-path="url(#clip340)" d="M2315.4 150.649 Q2314.69 150.232 2313.83 150.047 Q2313 149.839 2311.98 149.839 Q2308.37 149.839 2306.42 152.2 Q2304.5 154.538 2304.5 158.936 L2304.5 172.593 L2300.22 172.593 L2300.22 146.667 L2304.5 146.667 L2304.5 150.695 Q2305.84 148.334 2308 147.2 Q2310.15 146.042 2313.23 146.042 Q2313.67 146.042 2314.2 146.112 Q2314.73 146.158 2315.38 146.274 L2315.4 150.649 Z" fill="#000000" fill-rule="evenodd" fill-opacity="1" /><path clip-path="url(#clip340)" d="M2331.65 159.561 Q2326.49 159.561 2324.5 160.741 Q2322.51 161.922 2322.51 164.769 Q2322.51 167.038 2323.99 168.38 Q2325.5 169.7 2328.07 169.7 Q2331.61 169.7 2333.74 167.2 Q2335.89 164.677 2335.89 160.51 L2335.89 159.561 L2331.65 159.561 M2340.15 157.802 L2340.15 172.593 L2335.89 172.593 L2335.89 168.658 Q2334.43 171.019 2332.26 172.153 Q2330.08 173.264 2326.93 173.264 Q2322.95 173.264 2320.59 171.042 Q2318.25 168.797 2318.25 165.047 Q2318.25 160.672 2321.17 158.45 Q2324.11 156.228 2329.92 156.228 L2335.89 156.228 L2335.89 155.811 Q2335.89 152.871 2333.95 151.274 Q2332.02 149.653 2328.53 149.653 Q2326.31 149.653 2324.2 150.186 Q2322.09 150.718 2320.15 151.783 L2320.15 147.848 Q2322.49 146.945 2324.69 146.505 Q2326.89 146.042 2328.97 146.042 Q2334.59 146.042 2337.37 148.959 Q2340.15 151.876 2340.15 157.802 Z" fill="#000000" fill-rule="evenodd" fill-opacity="1" /><path clip-path="url(#clip340)" d="M2348.92 146.667 L2353.18 146.667 L2353.18 173.056 Q2353.18 178.01 2351.28 180.232 Q2349.41 182.454 2345.22 182.454 L2343.6 182.454 L2343.6 178.843 L2344.73 178.843 Q2347.16 178.843 2348.04 177.709 Q2348.92 176.598 2348.92 173.056 L2348.92 146.667 M2348.92 136.575 L2353.18 136.575 L2353.18 141.968 L2348.92 141.968 L2348.92 136.575 Z" fill="#000000" fill-rule="evenodd" fill-opacity="1" /><path clip-path="url(#clip340)" d="M2384.27 158.565 L2384.27 160.649 L2364.69 160.649 Q2364.96 165.047 2367.33 167.362 Q2369.71 169.653 2373.95 169.653 Q2376.4 169.653 2378.69 169.052 Q2381.01 168.45 2383.27 167.246 L2383.27 171.274 Q2380.98 172.246 2378.58 172.755 Q2376.17 173.264 2373.69 173.264 Q2367.49 173.264 2363.85 169.653 Q2360.24 166.042 2360.24 159.885 Q2360.24 153.519 2363.67 149.792 Q2367.12 146.042 2372.95 146.042 Q2378.18 146.042 2381.21 149.422 Q2384.27 152.778 2384.27 158.565 M2380.01 157.315 Q2379.96 153.82 2378.04 151.737 Q2376.14 149.653 2373 149.653 Q2369.43 149.653 2367.28 151.667 Q2365.15 153.681 2364.83 157.339 L2380.01 157.315 Z" fill="#000000" fill-rule="evenodd" fill-opacity="1" /><path clip-path="url(#clip340)" d="M2409.92 147.663 L2409.92 151.644 Q2408.11 150.649 2406.28 150.163 Q2404.48 149.653 2402.63 149.653 Q2398.48 149.653 2396.19 152.292 Q2393.9 154.908 2393.9 159.653 Q2393.9 164.399 2396.19 167.038 Q2398.48 169.653 2402.63 169.653 Q2404.48 169.653 2406.28 169.167 Q2408.11 168.658 2409.92 167.663 L2409.92 171.598 Q2408.14 172.431 2406.21 172.848 Q2404.32 173.264 2402.16 173.264 Q2396.31 173.264 2392.86 169.584 Q2389.41 165.903 2389.41 159.653 Q2389.41 153.311 2392.88 149.677 Q2396.38 146.042 2402.44 146.042 Q2404.41 146.042 2406.28 146.459 Q2408.16 146.853 2409.92 147.663 Z" fill="#000000" fill-rule="evenodd" fill-opacity="1" /><path clip-path="url(#clip340)" d="M2421.54 139.306 L2421.54 146.667 L2430.31 146.667 L2430.31 149.978 L2421.54 149.978 L2421.54 164.052 Q2421.54 167.223 2422.39 168.126 Q2423.27 169.028 2425.94 169.028 L2430.31 169.028 L2430.31 172.593 L2425.94 172.593 Q2421.01 172.593 2419.13 170.764 Q2417.26 168.913 2417.26 164.052 L2417.26 149.978 L2414.13 149.978 L2414.13 146.667 L2417.26 146.667 L2417.26 139.306 L2421.54 139.306 Z" fill="#000000" fill-rule="evenodd" fill-opacity="1" /><path clip-path="url(#clip340)" d="M2445.96 149.653 Q2442.53 149.653 2440.54 152.339 Q2438.55 155.001 2438.55 159.653 Q2438.55 164.306 2440.52 166.991 Q2442.51 169.653 2445.96 169.653 Q2449.36 169.653 2451.35 166.968 Q2453.34 164.283 2453.34 159.653 Q2453.34 155.047 2451.35 152.362 Q2449.36 149.653 2445.96 149.653 M2445.96 146.042 Q2451.51 146.042 2454.69 149.653 Q2457.86 153.265 2457.86 159.653 Q2457.86 166.019 2454.69 169.653 Q2451.51 173.264 2445.96 173.264 Q2440.38 173.264 2437.21 169.653 Q2434.06 166.019 2434.06 159.653 Q2434.06 153.265 2437.21 149.653 Q2440.38 146.042 2445.96 146.042 Z" fill="#000000" fill-rule="evenodd" fill-opacity="1" /><path clip-path="url(#clip340)" d="M2479.94 150.649 Q2479.22 150.232 2478.37 150.047 Q2477.53 149.839 2476.51 149.839 Q2472.9 149.839 2470.96 152.2 Q2469.04 154.538 2469.04 158.936 L2469.04 172.593 L2464.76 172.593 L2464.76 146.667 L2469.04 146.667 L2469.04 150.695 Q2470.38 148.334 2472.53 147.2 Q2474.69 146.042 2477.76 146.042 Q2478.2 146.042 2478.74 146.112 Q2479.27 146.158 2479.92 146.274 L2479.94 150.649 Z" fill="#000000" fill-rule="evenodd" fill-opacity="1" /><path clip-path="url(#clip340)" d="M2495.19 175.001 Q2493.39 179.63 2491.68 181.042 Q2489.96 182.454 2487.09 182.454 L2483.69 182.454 L2483.69 178.889 L2486.19 178.889 Q2487.95 178.889 2488.92 178.056 Q2489.89 177.223 2491.07 174.121 L2491.84 172.177 L2481.35 146.667 L2485.87 146.667 L2493.97 166.945 L2502.07 146.667 L2506.58 146.667 L2495.19 175.001 Z" fill="#000000" fill-rule="evenodd" fill-opacity="1" /><polyline clip-path="url(#clip340)" style="stroke:#e26f46; stroke-linecap:butt; stroke-linejoin:round; stroke-width:4; stroke-opacity:1; fill:none" points="
  2005.06,207.153 2166.07,207.153 
  "/>
<path clip-path="url(#clip340)" d="M2208.74 194.48 L2202.4 211.679 L2215.1 211.679 L2208.74 194.48 M2206.1 189.873 L2211.4 189.873 L2224.57 224.433 L2219.71 224.433 L2216.56 215.567 L2200.98 215.567 L2197.84 224.433 L2192.9 224.433 L2206.1 189.873 Z" fill="#000000" fill-rule="evenodd" fill-opacity="1" /><path clip-path="url(#clip340)" d="M2250.98 208.785 L2250.98 224.433 L2246.72 224.433 L2246.72 208.924 Q2246.72 205.243 2245.29 203.415 Q2243.85 201.586 2240.98 201.586 Q2237.53 201.586 2235.54 203.785 Q2233.55 205.984 2233.55 209.78 L2233.55 224.433 L2229.27 224.433 L2229.27 198.507 L2233.55 198.507 L2233.55 202.535 Q2235.08 200.197 2237.14 199.04 Q2239.22 197.882 2241.93 197.882 Q2246.4 197.882 2248.69 200.66 Q2250.98 203.415 2250.98 208.785 Z" fill="#000000" fill-rule="evenodd" fill-opacity="1" /><path clip-path="url(#clip340)" d="M2271.26 211.401 Q2266.1 211.401 2264.11 212.581 Q2262.12 213.762 2262.12 216.609 Q2262.12 218.878 2263.6 220.22 Q2265.1 221.54 2267.67 221.54 Q2271.21 221.54 2273.34 219.04 Q2275.5 216.517 2275.5 212.35 L2275.5 211.401 L2271.26 211.401 M2279.76 209.642 L2279.76 224.433 L2275.5 224.433 L2275.5 220.498 Q2274.04 222.859 2271.86 223.993 Q2269.69 225.104 2266.54 225.104 Q2262.56 225.104 2260.2 222.882 Q2257.86 220.637 2257.86 216.887 Q2257.86 212.512 2260.77 210.29 Q2263.71 208.068 2269.52 208.068 L2275.5 208.068 L2275.5 207.651 Q2275.5 204.711 2273.55 203.114 Q2271.63 201.493 2268.14 201.493 Q2265.91 201.493 2263.81 202.026 Q2261.7 202.558 2259.76 203.623 L2259.76 199.688 Q2262.09 198.785 2264.29 198.345 Q2266.49 197.882 2268.58 197.882 Q2274.2 197.882 2276.98 200.799 Q2279.76 203.716 2279.76 209.642 Z" fill="#000000" fill-rule="evenodd" fill-opacity="1" /><path clip-path="url(#clip340)" d="M2288.53 188.415 L2292.79 188.415 L2292.79 224.433 L2288.53 224.433 L2288.53 188.415 Z" fill="#000000" fill-rule="evenodd" fill-opacity="1" /><path clip-path="url(#clip340)" d="M2312.49 226.841 Q2310.68 231.47 2308.97 232.882 Q2307.26 234.294 2304.39 234.294 L2300.98 234.294 L2300.98 230.729 L2303.48 230.729 Q2305.24 230.729 2306.21 229.896 Q2307.19 229.063 2308.37 225.961 L2309.13 224.017 L2298.64 198.507 L2303.16 198.507 L2311.26 218.785 L2319.36 198.507 L2323.88 198.507 L2312.49 226.841 Z" fill="#000000" fill-rule="evenodd" fill-opacity="1" /><path clip-path="url(#clip340)" d="M2333.97 191.146 L2333.97 198.507 L2342.74 198.507 L2342.74 201.818 L2333.97 201.818 L2333.97 215.892 Q2333.97 219.063 2334.83 219.966 Q2335.7 220.868 2338.37 220.868 L2342.74 220.868 L2342.74 224.433 L2338.37 224.433 Q2333.44 224.433 2331.56 222.604 Q2329.69 220.753 2329.69 215.892 L2329.69 201.818 L2326.56 201.818 L2326.56 198.507 L2329.69 198.507 L2329.69 191.146 L2333.97 191.146 Z" fill="#000000" fill-rule="evenodd" fill-opacity="1" /><path clip-path="url(#clip340)" d="M2348.34 198.507 L2352.6 198.507 L2352.6 224.433 L2348.34 224.433 L2348.34 198.507 M2348.34 188.415 L2352.6 188.415 L2352.6 193.808 L2348.34 193.808 L2348.34 188.415 Z" fill="#000000" fill-rule="evenodd" fill-opacity="1" /><path clip-path="url(#clip340)" d="M2380.17 199.503 L2380.17 203.484 Q2378.37 202.489 2376.54 202.003 Q2374.73 201.493 2372.88 201.493 Q2368.74 201.493 2366.45 204.132 Q2364.15 206.748 2364.15 211.493 Q2364.15 216.239 2366.45 218.878 Q2368.74 221.493 2372.88 221.493 Q2374.73 221.493 2376.54 221.007 Q2378.37 220.498 2380.17 219.503 L2380.17 223.438 Q2378.39 224.271 2376.47 224.688 Q2374.57 225.104 2372.42 225.104 Q2366.56 225.104 2363.11 221.424 Q2359.66 217.743 2359.66 211.493 Q2359.66 205.151 2363.14 201.517 Q2366.63 197.882 2372.7 197.882 Q2374.66 197.882 2376.54 198.299 Q2378.41 198.693 2380.17 199.503 Z" fill="#000000" fill-rule="evenodd" fill-opacity="1" /><path clip-path="url(#clip340)" d="M2399.36 211.401 Q2394.2 211.401 2392.21 212.581 Q2390.22 213.762 2390.22 216.609 Q2390.22 218.878 2391.7 220.22 Q2393.2 221.54 2395.77 221.54 Q2399.32 221.54 2401.45 219.04 Q2403.6 216.517 2403.6 212.35 L2403.6 211.401 L2399.36 211.401 M2407.86 209.642 L2407.86 224.433 L2403.6 224.433 L2403.6 220.498 Q2402.14 222.859 2399.96 223.993 Q2397.79 225.104 2394.64 225.104 Q2390.66 225.104 2388.3 222.882 Q2385.96 220.637 2385.96 216.887 Q2385.96 212.512 2388.88 210.29 Q2391.82 208.068 2397.63 208.068 L2403.6 208.068 L2403.6 207.651 Q2403.6 204.711 2401.65 203.114 Q2399.73 201.493 2396.24 201.493 Q2394.01 201.493 2391.91 202.026 Q2389.8 202.558 2387.86 203.623 L2387.86 199.688 Q2390.2 198.785 2392.39 198.345 Q2394.59 197.882 2396.68 197.882 Q2402.3 197.882 2405.08 200.799 Q2407.86 203.716 2407.86 209.642 Z" fill="#000000" fill-rule="evenodd" fill-opacity="1" /><path clip-path="url(#clip340)" d="M2416.63 188.415 L2420.89 188.415 L2420.89 224.433 L2416.63 224.433 L2416.63 188.415 Z" fill="#000000" fill-rule="evenodd" fill-opacity="1" /></svg>
