<?xml version="1.0" encoding="utf-8" standalone="no"?>
<!DOCTYPE svg PUBLIC "-//W3C//DTD SVG 1.1//EN"
  "http://www.w3.org/Graphics/SVG/1.1/DTD/svg11.dtd">
<svg xmlns:xlink="http://www.w3.org/1999/xlink" width="691.2pt" height="345.6pt" viewBox="0 0 691.2 345.6" xmlns="http://www.w3.org/2000/svg" version="1.1">
 <metadata>
  <rdf:RDF xmlns:dc="http://purl.org/dc/elements/1.1/" xmlns:cc="http://creativecommons.org/ns#" xmlns:rdf="http://www.w3.org/1999/02/22-rdf-syntax-ns#">
   <cc:Work>
    <dc:type rdf:resource="http://purl.org/dc/dcmitype/StillImage"/>
    <dc:date>2022-09-20T23:18:11.667111</dc:date>
    <dc:format>image/svg+xml</dc:format>
    <dc:creator>
     <cc:Agent>
      <dc:title>Matplotlib v3.5.2, https://matplotlib.org/</dc:title>
     </cc:Agent>
    </dc:creator>
   </cc:Work>
  </rdf:RDF>
 </metadata>
 <defs>
  <style type="text/css">*{stroke-linejoin: round; stroke-linecap: butt}</style>
 </defs>
 <g id="figure_1">
  <g id="patch_1">
   <path d="M 0 345.6 
L 691.2 345.6 
L 691.2 0 
L 0 0 
z
" style="fill: #ffffff"/>
  </g>
  <g id="axes_1">
   <g id="patch_2">
    <path d="M 48.890256 288.647244 
L 677.311461 288.647244 
L 677.311461 2.952756 
L 48.890256 2.952756 
z
" style="fill: #ffffff"/>
   </g>
   <g id="matplotlib.axis_1">
    <g id="xtick_1">
     <g id="line2d_1">
      <path d="M 66.082318 288.647244 
L 66.082318 2.952756 
" clip-path="url(#pbb19b28d5f)" style="fill: none; stroke: #000000; stroke-opacity: 0.1; stroke-width: 0.5; stroke-linecap: square"/>
     </g>
     <g id="line2d_2">
      <defs>
       <path id="m225889d27c" d="M 0 0 
L 0 -2.5 
" style="stroke: #000000; stroke-width: 0.5"/>
      </defs>
      <g>
       <use xlink:href="#m225889d27c" x="66.082318" y="288.647244" style="stroke: #000000; stroke-width: 0.5"/>
      </g>
     </g>
     <g id="text_1">
      <!-- $0$ -->
      <g transform="translate(58.402318 310.383494)scale(0.24 -0.24)">
       <defs>
        <path id="DejaVuSans-30" d="M 2034 4250 
Q 1547 4250 1301 3770 
Q 1056 3291 1056 2328 
Q 1056 1369 1301 889 
Q 1547 409 2034 409 
Q 2525 409 2770 889 
Q 3016 1369 3016 2328 
Q 3016 3291 2770 3770 
Q 2525 4250 2034 4250 
z
M 2034 4750 
Q 2819 4750 3233 4129 
Q 3647 3509 3647 2328 
Q 3647 1150 3233 529 
Q 2819 -91 2034 -91 
Q 1250 -91 836 529 
Q 422 1150 422 2328 
Q 422 3509 836 4129 
Q 1250 4750 2034 4750 
z
" transform="scale(0.015625)"/>
       </defs>
       <use xlink:href="#DejaVuSans-30" transform="translate(0 0.78125)"/>
      </g>
     </g>
    </g>
    <g id="xtick_2">
     <g id="line2d_3">
      <path d="M 214.443227 288.647244 
L 214.443227 2.952756 
" clip-path="url(#pbb19b28d5f)" style="fill: none; stroke: #000000; stroke-opacity: 0.1; stroke-width: 0.5; stroke-linecap: square"/>
     </g>
     <g id="line2d_4">
      <g>
       <use xlink:href="#m225889d27c" x="214.443227" y="288.647244" style="stroke: #000000; stroke-width: 0.5"/>
      </g>
     </g>
     <g id="text_2">
      <!-- $250$ -->
      <g transform="translate(191.523227 310.383494)scale(0.24 -0.24)">
       <defs>
        <path id="DejaVuSans-32" d="M 1228 531 
L 3431 531 
L 3431 0 
L 469 0 
L 469 531 
Q 828 903 1448 1529 
Q 2069 2156 2228 2338 
Q 2531 2678 2651 2914 
Q 2772 3150 2772 3378 
Q 2772 3750 2511 3984 
Q 2250 4219 1831 4219 
Q 1534 4219 1204 4116 
Q 875 4013 500 3803 
L 500 4441 
Q 881 4594 1212 4672 
Q 1544 4750 1819 4750 
Q 2544 4750 2975 4387 
Q 3406 4025 3406 3419 
Q 3406 3131 3298 2873 
Q 3191 2616 2906 2266 
Q 2828 2175 2409 1742 
Q 1991 1309 1228 531 
z
" transform="scale(0.015625)"/>
        <path id="DejaVuSans-35" d="M 691 4666 
L 3169 4666 
L 3169 4134 
L 1269 4134 
L 1269 2991 
Q 1406 3038 1543 3061 
Q 1681 3084 1819 3084 
Q 2600 3084 3056 2656 
Q 3513 2228 3513 1497 
Q 3513 744 3044 326 
Q 2575 -91 1722 -91 
Q 1428 -91 1123 -41 
Q 819 9 494 109 
L 494 744 
Q 775 591 1075 516 
Q 1375 441 1709 441 
Q 2250 441 2565 725 
Q 2881 1009 2881 1497 
Q 2881 1984 2565 2268 
Q 2250 2553 1709 2553 
Q 1456 2553 1204 2497 
Q 953 2441 691 2322 
L 691 4666 
z
" transform="scale(0.015625)"/>
       </defs>
       <use xlink:href="#DejaVuSans-32" transform="translate(0 0.78125)"/>
       <use xlink:href="#DejaVuSans-35" transform="translate(63.623047 0.78125)"/>
       <use xlink:href="#DejaVuSans-30" transform="translate(127.246094 0.78125)"/>
      </g>
     </g>
    </g>
    <g id="xtick_3">
     <g id="line2d_5">
      <path d="M 362.804137 288.647244 
L 362.804137 2.952756 
" clip-path="url(#pbb19b28d5f)" style="fill: none; stroke: #000000; stroke-opacity: 0.1; stroke-width: 0.5; stroke-linecap: square"/>
     </g>
     <g id="line2d_6">
      <g>
       <use xlink:href="#m225889d27c" x="362.804137" y="288.647244" style="stroke: #000000; stroke-width: 0.5"/>
      </g>
     </g>
     <g id="text_3">
      <!-- $500$ -->
      <g transform="translate(339.884137 310.383494)scale(0.24 -0.24)">
       <use xlink:href="#DejaVuSans-35" transform="translate(0 0.78125)"/>
       <use xlink:href="#DejaVuSans-30" transform="translate(63.623047 0.78125)"/>
       <use xlink:href="#DejaVuSans-30" transform="translate(127.246094 0.78125)"/>
      </g>
     </g>
    </g>
    <g id="xtick_4">
     <g id="line2d_7">
      <path d="M 511.165046 288.647244 
L 511.165046 2.952756 
" clip-path="url(#pbb19b28d5f)" style="fill: none; stroke: #000000; stroke-opacity: 0.1; stroke-width: 0.5; stroke-linecap: square"/>
     </g>
     <g id="line2d_8">
      <g>
       <use xlink:href="#m225889d27c" x="511.165046" y="288.647244" style="stroke: #000000; stroke-width: 0.5"/>
      </g>
     </g>
     <g id="text_4">
      <!-- $750$ -->
      <g transform="translate(488.245046 310.383494)scale(0.24 -0.24)">
       <defs>
        <path id="DejaVuSans-37" d="M 525 4666 
L 3525 4666 
L 3525 4397 
L 1831 0 
L 1172 0 
L 2766 4134 
L 525 4134 
L 525 4666 
z
" transform="scale(0.015625)"/>
       </defs>
       <use xlink:href="#DejaVuSans-37" transform="translate(0 0.78125)"/>
       <use xlink:href="#DejaVuSans-35" transform="translate(63.623047 0.78125)"/>
       <use xlink:href="#DejaVuSans-30" transform="translate(127.246094 0.78125)"/>
      </g>
     </g>
    </g>
    <g id="xtick_5">
     <g id="line2d_9">
      <path d="M 659.525956 288.647244 
L 659.525956 2.952756 
" clip-path="url(#pbb19b28d5f)" style="fill: none; stroke: #000000; stroke-opacity: 0.1; stroke-width: 0.5; stroke-linecap: square"/>
     </g>
     <g id="line2d_10">
      <g>
       <use xlink:href="#m225889d27c" x="659.525956" y="288.647244" style="stroke: #000000; stroke-width: 0.5"/>
      </g>
     </g>
     <g id="text_5">
      <!-- $1000$ -->
      <g transform="translate(628.925956 310.383494)scale(0.24 -0.24)">
       <defs>
        <path id="DejaVuSans-31" d="M 794 531 
L 1825 531 
L 1825 4091 
L 703 3866 
L 703 4441 
L 1819 4666 
L 2450 4666 
L 2450 531 
L 3481 531 
L 3481 0 
L 794 0 
L 794 531 
z
" transform="scale(0.015625)"/>
       </defs>
       <use xlink:href="#DejaVuSans-31" transform="translate(0 0.78125)"/>
       <use xlink:href="#DejaVuSans-30" transform="translate(63.623047 0.78125)"/>
       <use xlink:href="#DejaVuSans-30" transform="translate(127.246094 0.78125)"/>
       <use xlink:href="#DejaVuSans-30" transform="translate(190.869141 0.78125)"/>
      </g>
     </g>
    </g>
    <g id="text_6">
     <!-- MC steps -->
     <g transform="translate(308.345234 337.610994)scale(0.24 -0.24)">
      <defs>
       <path id="DejaVuSans-4d" d="M 628 4666 
L 1569 4666 
L 2759 1491 
L 3956 4666 
L 4897 4666 
L 4897 0 
L 4281 0 
L 4281 4097 
L 3078 897 
L 2444 897 
L 1241 4097 
L 1241 0 
L 628 0 
L 628 4666 
z
" transform="scale(0.015625)"/>
       <path id="DejaVuSans-43" d="M 4122 4306 
L 4122 3641 
Q 3803 3938 3442 4084 
Q 3081 4231 2675 4231 
Q 1875 4231 1450 3742 
Q 1025 3253 1025 2328 
Q 1025 1406 1450 917 
Q 1875 428 2675 428 
Q 3081 428 3442 575 
Q 3803 722 4122 1019 
L 4122 359 
Q 3791 134 3420 21 
Q 3050 -91 2638 -91 
Q 1578 -91 968 557 
Q 359 1206 359 2328 
Q 359 3453 968 4101 
Q 1578 4750 2638 4750 
Q 3056 4750 3426 4639 
Q 3797 4528 4122 4306 
z
" transform="scale(0.015625)"/>
       <path id="DejaVuSans-20" transform="scale(0.015625)"/>
       <path id="DejaVuSans-73" d="M 2834 3397 
L 2834 2853 
Q 2591 2978 2328 3040 
Q 2066 3103 1784 3103 
Q 1356 3103 1142 2972 
Q 928 2841 928 2578 
Q 928 2378 1081 2264 
Q 1234 2150 1697 2047 
L 1894 2003 
Q 2506 1872 2764 1633 
Q 3022 1394 3022 966 
Q 3022 478 2636 193 
Q 2250 -91 1575 -91 
Q 1294 -91 989 -36 
Q 684 19 347 128 
L 347 722 
Q 666 556 975 473 
Q 1284 391 1588 391 
Q 1994 391 2212 530 
Q 2431 669 2431 922 
Q 2431 1156 2273 1281 
Q 2116 1406 1581 1522 
L 1381 1569 
Q 847 1681 609 1914 
Q 372 2147 372 2553 
Q 372 3047 722 3315 
Q 1072 3584 1716 3584 
Q 2034 3584 2315 3537 
Q 2597 3491 2834 3397 
z
" transform="scale(0.015625)"/>
       <path id="DejaVuSans-74" d="M 1172 4494 
L 1172 3500 
L 2356 3500 
L 2356 3053 
L 1172 3053 
L 1172 1153 
Q 1172 725 1289 603 
Q 1406 481 1766 481 
L 2356 481 
L 2356 0 
L 1766 0 
Q 1100 0 847 248 
Q 594 497 594 1153 
L 594 3053 
L 172 3053 
L 172 3500 
L 594 3500 
L 594 4494 
L 1172 4494 
z
" transform="scale(0.015625)"/>
       <path id="DejaVuSans-65" d="M 3597 1894 
L 3597 1613 
L 953 1613 
Q 991 1019 1311 708 
Q 1631 397 2203 397 
Q 2534 397 2845 478 
Q 3156 559 3463 722 
L 3463 178 
Q 3153 47 2828 -22 
Q 2503 -91 2169 -91 
Q 1331 -91 842 396 
Q 353 884 353 1716 
Q 353 2575 817 3079 
Q 1281 3584 2069 3584 
Q 2775 3584 3186 3129 
Q 3597 2675 3597 1894 
z
M 3022 2063 
Q 3016 2534 2758 2815 
Q 2500 3097 2075 3097 
Q 1594 3097 1305 2825 
Q 1016 2553 972 2059 
L 3022 2063 
z
" transform="scale(0.015625)"/>
       <path id="DejaVuSans-70" d="M 1159 525 
L 1159 -1331 
L 581 -1331 
L 581 3500 
L 1159 3500 
L 1159 2969 
Q 1341 3281 1617 3432 
Q 1894 3584 2278 3584 
Q 2916 3584 3314 3078 
Q 3713 2572 3713 1747 
Q 3713 922 3314 415 
Q 2916 -91 2278 -91 
Q 1894 -91 1617 61 
Q 1341 213 1159 525 
z
M 3116 1747 
Q 3116 2381 2855 2742 
Q 2594 3103 2138 3103 
Q 1681 3103 1420 2742 
Q 1159 2381 1159 1747 
Q 1159 1113 1420 752 
Q 1681 391 2138 391 
Q 2594 391 2855 752 
Q 3116 1113 3116 1747 
z
" transform="scale(0.015625)"/>
      </defs>
      <use xlink:href="#DejaVuSans-4d"/>
      <use xlink:href="#DejaVuSans-43" x="86.279297"/>
      <use xlink:href="#DejaVuSans-20" x="156.103516"/>
      <use xlink:href="#DejaVuSans-73" x="187.890625"/>
      <use xlink:href="#DejaVuSans-74" x="239.990234"/>
      <use xlink:href="#DejaVuSans-65" x="279.199219"/>
      <use xlink:href="#DejaVuSans-70" x="340.722656"/>
      <use xlink:href="#DejaVuSans-73" x="404.199219"/>
     </g>
    </g>
   </g>
   <g id="matplotlib.axis_2">
    <g id="ytick_1">
     <g id="line2d_11">
      <path d="M 48.890256 280.561551 
L 677.311461 280.561551 
" clip-path="url(#pbb19b28d5f)" style="fill: none; stroke: #000000; stroke-opacity: 0.1; stroke-width: 0.5; stroke-linecap: square"/>
     </g>
     <g id="line2d_12">
      <defs>
       <path id="m16755662ae" d="M 0 0 
L 2.5 0 
" style="stroke: #000000; stroke-width: 0.5"/>
      </defs>
      <g>
       <use xlink:href="#m16755662ae" x="48.890256" y="280.561551" style="stroke: #000000; stroke-width: 0.5"/>
      </g>
     </g>
     <g id="text_7">
      <!-- $0$ -->
      <g transform="translate(30.030256 289.679676)scale(0.24 -0.24)">
       <use xlink:href="#DejaVuSans-30" transform="translate(0 0.78125)"/>
      </g>
     </g>
    </g>
    <g id="ytick_2">
     <g id="line2d_13">
      <path d="M 48.890256 194.152742 
L 677.311461 194.152742 
" clip-path="url(#pbb19b28d5f)" style="fill: none; stroke: #000000; stroke-opacity: 0.1; stroke-width: 0.5; stroke-linecap: square"/>
     </g>
     <g id="line2d_14">
      <g>
       <use xlink:href="#m16755662ae" x="48.890256" y="194.152742" style="stroke: #000000; stroke-width: 0.5"/>
      </g>
     </g>
     <g id="text_8">
      <!-- $1$ -->
      <g transform="translate(30.030256 203.270867)scale(0.24 -0.24)">
       <use xlink:href="#DejaVuSans-31" transform="translate(0 0.09375)"/>
      </g>
     </g>
    </g>
    <g id="ytick_3">
     <g id="line2d_15">
      <path d="M 48.890256 107.743932 
L 677.311461 107.743932 
" clip-path="url(#pbb19b28d5f)" style="fill: none; stroke: #000000; stroke-opacity: 0.1; stroke-width: 0.5; stroke-linecap: square"/>
     </g>
     <g id="line2d_16">
      <g>
       <use xlink:href="#m16755662ae" x="48.890256" y="107.743932" style="stroke: #000000; stroke-width: 0.5"/>
      </g>
     </g>
     <g id="text_9">
      <!-- $2$ -->
      <g transform="translate(30.030256 116.862057)scale(0.24 -0.24)">
       <use xlink:href="#DejaVuSans-32" transform="translate(0 0.78125)"/>
      </g>
     </g>
    </g>
    <g id="ytick_4">
     <g id="line2d_17">
      <path d="M 48.890256 21.335123 
L 677.311461 21.335123 
" clip-path="url(#pbb19b28d5f)" style="fill: none; stroke: #000000; stroke-opacity: 0.1; stroke-width: 0.5; stroke-linecap: square"/>
     </g>
     <g id="line2d_18">
      <g>
       <use xlink:href="#m16755662ae" x="48.890256" y="21.335123" style="stroke: #000000; stroke-width: 0.5"/>
      </g>
     </g>
     <g id="text_10">
      <!-- $3$ -->
      <g transform="translate(30.030256 30.453248)scale(0.24 -0.24)">
       <defs>
        <path id="DejaVuSans-33" d="M 2597 2516 
Q 3050 2419 3304 2112 
Q 3559 1806 3559 1356 
Q 3559 666 3084 287 
Q 2609 -91 1734 -91 
Q 1441 -91 1130 -33 
Q 819 25 488 141 
L 488 750 
Q 750 597 1062 519 
Q 1375 441 1716 441 
Q 2309 441 2620 675 
Q 2931 909 2931 1356 
Q 2931 1769 2642 2001 
Q 2353 2234 1838 2234 
L 1294 2234 
L 1294 2753 
L 1863 2753 
Q 2328 2753 2575 2939 
Q 2822 3125 2822 3475 
Q 2822 3834 2567 4026 
Q 2313 4219 1838 4219 
Q 1578 4219 1281 4162 
Q 984 4106 628 3988 
L 628 4550 
Q 988 4650 1302 4700 
Q 1616 4750 1894 4750 
Q 2613 4750 3031 4423 
Q 3450 4097 3450 3541 
Q 3450 3153 3228 2886 
Q 3006 2619 2597 2516 
z
" transform="scale(0.015625)"/>
       </defs>
       <use xlink:href="#DejaVuSans-33" transform="translate(0 0.78125)"/>
      </g>
     </g>
    </g>
    <g id="text_11">
     <!-- MC value -->
     <g transform="translate(21.039006 201.125625)rotate(-90)scale(0.24 -0.24)">
      <defs>
       <path id="DejaVuSans-76" d="M 191 3500 
L 800 3500 
L 1894 563 
L 2988 3500 
L 3597 3500 
L 2284 0 
L 1503 0 
L 191 3500 
z
" transform="scale(0.015625)"/>
       <path id="DejaVuSans-61" d="M 2194 1759 
Q 1497 1759 1228 1600 
Q 959 1441 959 1056 
Q 959 750 1161 570 
Q 1363 391 1709 391 
Q 2188 391 2477 730 
Q 2766 1069 2766 1631 
L 2766 1759 
L 2194 1759 
z
M 3341 1997 
L 3341 0 
L 2766 0 
L 2766 531 
Q 2569 213 2275 61 
Q 1981 -91 1556 -91 
Q 1019 -91 701 211 
Q 384 513 384 1019 
Q 384 1609 779 1909 
Q 1175 2209 1959 2209 
L 2766 2209 
L 2766 2266 
Q 2766 2663 2505 2880 
Q 2244 3097 1772 3097 
Q 1472 3097 1187 3025 
Q 903 2953 641 2809 
L 641 3341 
Q 956 3463 1253 3523 
Q 1550 3584 1831 3584 
Q 2591 3584 2966 3190 
Q 3341 2797 3341 1997 
z
" transform="scale(0.015625)"/>
       <path id="DejaVuSans-6c" d="M 603 4863 
L 1178 4863 
L 1178 0 
L 603 0 
L 603 4863 
z
" transform="scale(0.015625)"/>
       <path id="DejaVuSans-75" d="M 544 1381 
L 544 3500 
L 1119 3500 
L 1119 1403 
Q 1119 906 1312 657 
Q 1506 409 1894 409 
Q 2359 409 2629 706 
Q 2900 1003 2900 1516 
L 2900 3500 
L 3475 3500 
L 3475 0 
L 2900 0 
L 2900 538 
Q 2691 219 2414 64 
Q 2138 -91 1772 -91 
Q 1169 -91 856 284 
Q 544 659 544 1381 
z
M 1991 3584 
L 1991 3584 
z
" transform="scale(0.015625)"/>
      </defs>
      <use xlink:href="#DejaVuSans-4d"/>
      <use xlink:href="#DejaVuSans-43" x="86.279297"/>
      <use xlink:href="#DejaVuSans-20" x="156.103516"/>
      <use xlink:href="#DejaVuSans-76" x="187.890625"/>
      <use xlink:href="#DejaVuSans-61" x="247.070312"/>
      <use xlink:href="#DejaVuSans-6c" x="308.349609"/>
      <use xlink:href="#DejaVuSans-75" x="336.132812"/>
      <use xlink:href="#DejaVuSans-65" x="399.511719"/>
     </g>
    </g>
   </g>
   <g id="line2d_19">
    <path d="M 66.675762 280.561551 
L 67.269205 100.879483 
L 67.862649 40.98546 
L 68.456093 11.038449 
L 69.049536 64.943069 
L 69.64298 100.879483 
L 70.236424 75.210616 
L 70.829867 55.958966 
L 71.423311 40.98546 
L 72.610198 19.205816 
L 73.203642 11.038449 
L 73.797085 31.770995 
L 74.390529 23.872882 
L 75.577416 55.958966 
L 76.764304 40.98546 
L 77.357747 34.680826 
L 78.544634 58.098038 
L 79.731522 46.193636 
L 80.324965 55.958966 
L 81.511853 45.592693 
L 82.105296 40.98546 
L 82.69874 49.541749 
L 83.885627 40.98546 
L 85.665958 62.765105 
L 86.852845 54.675523 
L 88.039733 66.885578 
L 88.633176 63.051679 
L 89.22662 68.628855 
L 89.820064 64.943069 
L 90.413507 70.202057 
L 92.193838 60.042649 
L 92.787282 56.9572 
L 93.380725 61.818164 
L 93.974169 58.826233 
L 95.7545 72.130352 
L 96.347944 76.217238 
L 98.128275 67.605026 
L 98.721718 71.476963 
L 99.315162 68.793399 
L 100.502049 76.095749 
L 101.095493 73.470354 
L 101.688936 76.921874 
L 104.062711 67.189095 
L 104.656155 64.943069 
L 105.843042 71.379442 
L 106.436485 69.170883 
L 107.029929 72.234516 
L 109.403704 63.95851 
L 111.777478 56.542349 
L 112.370922 59.41439 
L 112.964365 57.664808 
L 113.557809 60.451018 
L 114.151253 58.731837 
L 114.744696 61.437078 
L 117.118471 54.914303 
L 118.305358 51.875283 
L 120.679133 61.818164 
L 121.86602 58.826233 
L 122.459464 61.160289 
L 124.239795 56.875711 
L 124.833238 59.135164 
L 126.020125 56.403724 
L 127.800456 62.869815 
L 129.580787 58.897691 
L 130.174231 60.950135 
L 130.767675 59.667999 
L 132.548005 65.584791 
L 133.141449 64.307027 
L 133.734893 66.203996 
L 136.702111 60.111283 
L 137.295555 61.948368 
L 139.669329 57.408015 
L 140.262773 59.193243 
L 143.229991 53.885711 
L 144.416878 51.875283 
L 145.010322 53.594728 
L 145.603766 52.606689 
L 146.197209 54.295243 
L 147.384096 52.352209 
L 148.570984 55.635797 
L 149.757871 53.728869 
L 150.351315 55.326283 
L 150.944758 54.388319 
L 151.538202 55.958966 
L 153.318533 53.20873 
L 155.098864 57.755787 
L 155.692307 56.851427 
L 156.285751 58.323204 
L 159.846413 53.115895 
L 161.0333 51.466914 
L 162.220187 54.295243 
L 164.593962 51.088067 
L 165.187406 52.462159 
L 165.780849 51.680822 
L 168.154624 57.003629 
L 171.715286 52.425892 
L 172.308729 53.700392 
L 174.682504 50.804153 
L 175.869391 53.288016 
L 179.430053 49.138573 
L 180.023496 50.343901 
L 182.397271 47.708259 
L 182.990715 48.890255 
L 183.584158 48.245342 
L 184.177602 49.41276 
L 186.551376 46.886349 
L 187.14482 48.031816 
L 188.331707 46.800414 
L 188.925151 47.929695 
L 191.298926 45.527187 
L 192.485813 47.734083 
L 193.079257 47.14279 
L 193.6727 48.228458 
L 194.266144 47.640352 
L 194.859587 48.713721 
L 195.453031 48.128784 
L 196.046475 49.190121 
L 196.639918 48.608336 
L 197.233362 49.657898 
L 197.826806 49.079247 
L 198.420249 50.117284 
L 199.013693 49.541749 
L 199.607137 50.568504 
L 200.20058 49.996065 
L 200.794024 51.011772 
L 202.574355 49.318542 
L 203.761242 51.312016 
L 204.354686 50.753584 
L 204.948129 51.73567 
L 206.135017 50.629413 
L 206.72846 51.599591 
L 207.915347 50.508359 
L 208.508791 51.466914 
L 209.102235 50.926377 
L 209.695678 51.875283 
L 211.476009 50.275145 
L 212.069453 51.211269 
L 213.25634 50.16277 
L 213.849784 51.088067 
L 218.003889 47.536369 
L 218.597333 48.443082 
L 220.971107 46.492957 
L 221.564551 47.386348 
L 222.751438 46.430371 
L 223.938326 48.190756 
L 225.718657 46.774474 
L 226.905544 48.49984 
L 231.059649 45.294383 
L 231.653093 46.137634 
L 233.433424 44.808483 
L 234.026867 45.641533 
L 235.213755 44.768241 
L 235.807198 45.592693 
L 236.994086 44.728837 
L 238.774417 47.160102 
L 239.36786 46.728723 
L 241.741635 49.888626 
L 242.335078 49.455322 
L 242.928522 50.230846 
L 243.521966 49.799296 
L 244.708853 51.3326 
L 245.302297 50.901689 
L 245.89574 51.659643 
L 246.489184 51.230491 
L 247.082628 51.982396 
L 249.456402 50.289386 
L 250.643289 51.770236 
L 251.236733 51.351733 
L 251.830177 52.084033 
L 255.984282 49.220888 
L 256.577726 49.941576 
L 257.171169 49.541749 
L 257.764613 50.256981 
L 260.138388 48.678271 
L 261.918718 50.7863 
L 263.105606 50.005644 
L 263.699049 50.698005 
L 264.885937 49.924867 
L 266.666268 51.971938 
L 267.853155 51.202676 
L 268.446598 51.875283 
L 269.040042 51.493184 
L 269.633486 52.161021 
L 274.381035 49.176096 
L 274.974478 49.833441 
L 276.754809 48.746376 
L 277.941697 50.04506 
L 280.315471 48.617386 
L 280.908915 49.258115 
L 283.282689 47.858545 
L 285.656464 50.374253 
L 290.404013 47.640352 
L 290.997457 48.25492 
L 291.5909 47.920558 
L 292.184344 48.531164 
L 293.371231 47.866236 
L 293.964675 48.472213 
L 295.745006 47.485587 
L 296.931893 48.683921 
L 298.712224 47.708259 
L 299.899111 48.890255 
L 300.492555 48.566982 
L 302.272886 50.315685 
L 302.866329 49.99208 
L 304.053217 51.142053 
L 305.240104 50.497166 
L 307.020435 52.197149 
L 307.613879 51.875283 
L 308.207322 52.435788 
L 308.800766 52.114912 
L 309.394209 52.672099 
L 310.581097 52.033872 
L 311.767984 53.137871 
L 312.361428 52.819942 
L 312.954871 53.367398 
L 313.548315 53.050443 
L 314.735202 54.136415 
L 315.328646 53.819894 
L 316.515533 54.894499 
L 317.108977 54.57843 
L 317.70242 55.111409 
L 318.889308 54.482705 
L 319.482751 55.012164 
L 320.076195 54.699512 
L 321.263082 55.750033 
L 322.449969 55.127105 
L 323.043413 55.647738 
L 325.417188 54.417072 
L 326.010631 54.933383 
L 330.164737 52.829672 
L 330.75818 53.340281 
L 334.318842 51.586172 
L 334.912286 52.091637 
L 337.28606 50.945954 
L 337.879504 51.447298 
L 338.472948 51.16353 
L 339.066391 51.662221 
L 339.659835 51.379217 
L 340.846722 52.369205 
L 342.03361 51.805026 
L 342.627053 52.29592 
L 343.220497 52.015195 
L 343.81394 52.503542 
L 345.000828 51.944792 
L 345.594271 52.430178 
L 346.781159 51.875283 
L 347.374602 52.357743 
L 347.968046 52.081616 
L 348.56149 52.561616 
L 350.34182 51.738876 
L 350.935264 52.21559 
L 355.682813 50.067751 
L 356.276257 50.539108 
L 356.8697 50.275145 
L 357.463144 50.744161 
L 360.430362 49.438246 
L 361.023806 49.903283 
L 363.39758 48.875691 
L 363.991024 49.337216 
L 367.551686 47.823754 
L 368.14513 48.280999 
L 368.738573 48.031816 
L 369.332017 48.486864 
L 372.299235 47.253439 
L 374.67301 49.048117 
L 375.266453 48.802722 
L 376.45334 49.688989 
L 377.046784 49.443776 
L 377.640228 49.884001 
L 379.420559 49.152827 
L 380.014002 49.590273 
L 382.387777 48.626724 
L 383.574664 49.49377 
L 384.761551 49.015944 
L 385.948439 49.875111 
L 386.541882 49.636819 
L 387.72877 50.48894 
L 389.509101 49.777243 
L 390.102544 50.199925 
L 393.069762 49.029304 
L 394.25665 49.866672 
L 396.630424 48.942655 
L 397.223868 49.357743 
L 397.817311 49.128476 
L 399.597642 50.363884 
L 401.971417 49.451047 
L 403.158304 50.264816 
L 403.751748 50.037984 
L 405.532079 51.247024 
L 407.31241 50.568504 
L 409.092741 51.762239 
L 410.279628 51.312016 
L 412.059959 52.491688 
L 412.653402 52.266869 
L 413.246846 52.657116 
L 413.84029 52.432782 
L 414.433733 52.821417 
L 416.807508 51.930561 
L 417.400951 52.316762 
L 418.587839 51.875283 
L 423.928831 55.288511 
L 424.522275 55.066505 
L 425.115719 55.439224 
L 426.302606 54.996912 
L 427.489493 55.737683 
L 428.082937 55.517125 
L 428.676381 55.885446 
L 429.269824 55.665368 
L 429.863268 56.032246 
L 430.456711 55.812645 
L 431.050155 56.17809 
L 431.643599 55.958966 
L 433.42393 57.047508 
L 439.95181 54.675523 
L 441.138697 55.390352 
L 441.732141 55.178357 
L 442.325584 55.533851 
L 444.699359 54.691616 
L 445.292802 55.04509 
L 446.47969 54.627469 
L 447.073133 54.979391 
L 447.666577 54.771332 
L 448.260021 55.121938 
L 448.853464 54.914303 
L 450.040352 55.611821 
L 451.227239 55.197601 
L 451.820682 55.544315 
L 453.00757 55.132208 
L 453.601013 55.477429 
L 456.568232 54.457064 
L 457.161675 54.800167 
L 464.876442 52.21559 
L 465.469886 52.554885 
L 470.810879 50.821429 
L 471.997766 51.493184 
L 473.778097 50.924206 
L 474.371541 51.257982 
L 477.338759 50.319594 
L 479.11909 51.312016 
L 479.712533 51.125338 
L 481.492864 52.108636 
L 482.086308 51.921887 
L 482.679752 52.247584 
L 486.240413 51.13699 
L 487.427301 51.783256 
L 488.614188 51.416442 
L 489.801075 52.058305 
L 492.17485 51.329275 
L 492.768293 51.648096 
L 493.955181 51.286235 
L 495.735512 52.236271 
L 496.328955 52.055528 
L 496.922399 52.370275 
L 498.109286 52.00991 
L 498.70273 52.323423 
L 499.889617 51.964666 
L 501.669948 52.898985 
L 502.263392 52.719799 
L 503.450279 53.338095 
L 505.824053 52.624785 
L 507.010941 53.238342 
L 510.571603 52.180605 
L 512.945377 53.393784 
L 514.725708 52.869195 
L 515.319152 53.169977 
L 516.506039 52.822224 
L 517.692926 53.42075 
L 518.28637 53.247229 
L 518.879813 53.545151 
L 519.473257 53.37192 
L 520.066701 53.6689 
L 521.253588 53.323473 
L 521.847032 53.619356 
L 523.627363 53.104095 
L 524.220806 53.398729 
L 524.81425 53.227706 
L 525.407693 53.521419 
L 527.781468 52.841089 
L 528.374912 53.133414 
L 528.968355 52.964265 
L 530.155243 53.546355 
L 531.935573 53.040563 
L 532.529017 53.33003 
L 534.309348 52.827624 
L 534.902792 53.115895 
L 536.089679 52.782768 
L 536.683123 53.070005 
L 537.87001 52.73825 
L 539.650341 53.594728 
L 540.837228 53.263735 
L 541.430672 53.547503 
L 542.024115 53.382477 
L 543.804446 54.229108 
L 547.365108 53.244903 
L 549.145439 54.082679 
L 550.92577 53.594728 
L 552.112657 54.148982 
L 553.299544 53.825105 
L 553.892988 54.10094 
L 555.079875 53.778358 
L 555.673319 54.053247 
L 557.45365 53.571885 
L 558.047094 53.845697 
L 559.827424 53.367398 
L 560.420868 53.64014 
L 561.607755 53.322912 
L 562.794643 53.865895 
L 563.98153 53.549641 
L 564.574974 53.819894 
L 566.355304 53.347928 
L 566.948748 53.617138 
L 567.542192 53.460428 
L 569.322523 54.263852 
L 569.915966 54.107119 
L 570.50941 54.373536 
L 573.476628 53.594728 
L 575.256959 54.388319 
L 577.03729 53.924239 
L 577.630734 54.187159 
L 578.224177 54.033057 
L 578.817621 54.295243 
L 580.004508 53.987858 
L 580.597952 54.249189 
L 582.378283 53.790389 
L 582.971726 54.050747 
L 584.158614 53.746386 
L 584.752057 54.0059 
L 585.938945 53.702684 
L 587.125832 54.219447 
L 588.312719 53.917124 
L 590.09305 54.687151 
L 591.279937 54.385479 
L 592.466825 54.895459 
L 593.060268 54.744898 
L 593.653712 54.99891 
L 594.247155 54.848571 
L 594.840599 55.101897 
L 595.434043 54.951779 
L 596.027486 55.204422 
L 598.994705 54.458281 
L 599.588148 54.709786 
L 600.181592 54.561439 
L 600.775035 54.812271 
L 601.368479 54.66414 
L 602.555366 55.163913 
L 603.742254 54.868181 
L 604.335697 55.117016 
L 604.929141 54.969527 
L 606.116028 55.465334 
L 608.489803 54.877728 
L 609.67669 55.370488 
L 612.050465 54.787126 
L 612.643908 55.032267 
L 614.424239 54.597738 
L 615.017683 54.842023 
L 615.611126 54.697699 
L 616.20457 54.941349 
L 617.391457 54.653418 
L 617.984901 54.89633 
L 619.171788 54.609423 
L 619.765232 54.851601 
L 620.952119 54.565709 
L 622.139006 55.048091 
L 625.699668 54.196443 
L 626.886555 54.675523 
L 630.447217 53.833389 
L 631.040661 54.071549 
L 632.227548 53.792987 
L 632.820992 54.030441 
L 634.601323 53.614471 
L 635.194766 53.851121 
L 635.78821 53.71294 
L 636.975097 54.184559 
L 637.568541 54.046462 
L 638.755428 54.515923 
L 648.250526 52.341514 
L 650.624301 53.268295 
L 652.998076 52.734136 
L 653.591519 52.964265 
L 654.778406 52.698606 
L 655.37185 52.928075 
L 655.965294 52.795549 
L 657.152181 53.252911 
L 657.745625 53.120458 
L 658.339068 53.348355 
L 659.525956 53.084053 
L 659.525956 53.084053 
" clip-path="url(#pbb19b28d5f)" style="fill: none; stroke: #009afa; stroke-width: 3"/>
   </g>
   <g id="line2d_20">
    <path d="M -1 60.635798 
L 692.2 60.635798 
" clip-path="url(#pbb19b28d5f)" style="fill: none; stroke: #e36f47; stroke-width: 2"/>
   </g>
   <g id="patch_3">
    <path d="M 48.890256 288.647244 
L 48.890256 2.952756 
" style="fill: none; stroke: #000000; stroke-linejoin: miter; stroke-linecap: square"/>
   </g>
   <g id="patch_4">
    <path d="M 48.890256 288.647244 
L 677.311461 288.647244 
" style="fill: none; stroke: #000000; stroke-linejoin: miter; stroke-linecap: square"/>
   </g>
   <g id="legend_1">
    <g id="patch_5">
     <path d="M 490.996461 75.522756 
L 669.311461 75.522756 
L 669.311461 10.952756 
L 490.996461 10.952756 
z
" style="fill: #ffffff; stroke: #000000; stroke-linejoin: miter"/>
    </g>
    <g id="line2d_21">
     <path d="M 503.796461 30.310256 
L 519.796461 30.310256 
L 535.796461 30.310256 
" style="fill: none; stroke: #009afa; stroke-width: 2; stroke-linejoin: miter"/>
    </g>
    <g id="text_12">
     <!-- MC trajectory -->
     <g transform="translate(548.596461 35.910256)scale(0.16 -0.16)">
      <defs>
       <path id="DejaVuSans-72" d="M 2631 2963 
Q 2534 3019 2420 3045 
Q 2306 3072 2169 3072 
Q 1681 3072 1420 2755 
Q 1159 2438 1159 1844 
L 1159 0 
L 581 0 
L 581 3500 
L 1159 3500 
L 1159 2956 
Q 1341 3275 1631 3429 
Q 1922 3584 2338 3584 
Q 2397 3584 2469 3576 
Q 2541 3569 2628 3553 
L 2631 2963 
z
" transform="scale(0.015625)"/>
       <path id="DejaVuSans-6a" d="M 603 3500 
L 1178 3500 
L 1178 -63 
Q 1178 -731 923 -1031 
Q 669 -1331 103 -1331 
L -116 -1331 
L -116 -844 
L 38 -844 
Q 366 -844 484 -692 
Q 603 -541 603 -63 
L 603 3500 
z
M 603 4863 
L 1178 4863 
L 1178 4134 
L 603 4134 
L 603 4863 
z
" transform="scale(0.015625)"/>
       <path id="DejaVuSans-63" d="M 3122 3366 
L 3122 2828 
Q 2878 2963 2633 3030 
Q 2388 3097 2138 3097 
Q 1578 3097 1268 2742 
Q 959 2388 959 1747 
Q 959 1106 1268 751 
Q 1578 397 2138 397 
Q 2388 397 2633 464 
Q 2878 531 3122 666 
L 3122 134 
Q 2881 22 2623 -34 
Q 2366 -91 2075 -91 
Q 1284 -91 818 406 
Q 353 903 353 1747 
Q 353 2603 823 3093 
Q 1294 3584 2113 3584 
Q 2378 3584 2631 3529 
Q 2884 3475 3122 3366 
z
" transform="scale(0.015625)"/>
       <path id="DejaVuSans-6f" d="M 1959 3097 
Q 1497 3097 1228 2736 
Q 959 2375 959 1747 
Q 959 1119 1226 758 
Q 1494 397 1959 397 
Q 2419 397 2687 759 
Q 2956 1122 2956 1747 
Q 2956 2369 2687 2733 
Q 2419 3097 1959 3097 
z
M 1959 3584 
Q 2709 3584 3137 3096 
Q 3566 2609 3566 1747 
Q 3566 888 3137 398 
Q 2709 -91 1959 -91 
Q 1206 -91 779 398 
Q 353 888 353 1747 
Q 353 2609 779 3096 
Q 1206 3584 1959 3584 
z
" transform="scale(0.015625)"/>
       <path id="DejaVuSans-79" d="M 2059 -325 
Q 1816 -950 1584 -1140 
Q 1353 -1331 966 -1331 
L 506 -1331 
L 506 -850 
L 844 -850 
Q 1081 -850 1212 -737 
Q 1344 -625 1503 -206 
L 1606 56 
L 191 3500 
L 800 3500 
L 1894 763 
L 2988 3500 
L 3597 3500 
L 2059 -325 
z
" transform="scale(0.015625)"/>
      </defs>
      <use xlink:href="#DejaVuSans-4d"/>
      <use xlink:href="#DejaVuSans-43" x="86.279297"/>
      <use xlink:href="#DejaVuSans-20" x="156.103516"/>
      <use xlink:href="#DejaVuSans-74" x="187.890625"/>
      <use xlink:href="#DejaVuSans-72" x="227.099609"/>
      <use xlink:href="#DejaVuSans-61" x="268.212891"/>
      <use xlink:href="#DejaVuSans-6a" x="329.492188"/>
      <use xlink:href="#DejaVuSans-65" x="357.275391"/>
      <use xlink:href="#DejaVuSans-63" x="418.798828"/>
      <use xlink:href="#DejaVuSans-74" x="473.779297"/>
      <use xlink:href="#DejaVuSans-6f" x="512.988281"/>
      <use xlink:href="#DejaVuSans-72" x="574.169922"/>
      <use xlink:href="#DejaVuSans-79" x="615.283203"/>
     </g>
    </g>
    <g id="line2d_22">
     <path d="M 503.796461 53.795256 
L 519.796461 53.795256 
L 535.796461 53.795256 
" style="fill: none; stroke: #e36f47; stroke-width: 2; stroke-linejoin: miter"/>
    </g>
    <g id="text_13">
     <!-- Analytical -->
     <g transform="translate(548.596461 59.395256)scale(0.16 -0.16)">
      <defs>
       <path id="DejaVuSans-41" d="M 2188 4044 
L 1331 1722 
L 3047 1722 
L 2188 4044 
z
M 1831 4666 
L 2547 4666 
L 4325 0 
L 3669 0 
L 3244 1197 
L 1141 1197 
L 716 0 
L 50 0 
L 1831 4666 
z
" transform="scale(0.015625)"/>
       <path id="DejaVuSans-6e" d="M 3513 2113 
L 3513 0 
L 2938 0 
L 2938 2094 
Q 2938 2591 2744 2837 
Q 2550 3084 2163 3084 
Q 1697 3084 1428 2787 
Q 1159 2491 1159 1978 
L 1159 0 
L 581 0 
L 581 3500 
L 1159 3500 
L 1159 2956 
Q 1366 3272 1645 3428 
Q 1925 3584 2291 3584 
Q 2894 3584 3203 3211 
Q 3513 2838 3513 2113 
z
" transform="scale(0.015625)"/>
       <path id="DejaVuSans-69" d="M 603 3500 
L 1178 3500 
L 1178 0 
L 603 0 
L 603 3500 
z
M 603 4863 
L 1178 4863 
L 1178 4134 
L 603 4134 
L 603 4863 
z
" transform="scale(0.015625)"/>
      </defs>
      <use xlink:href="#DejaVuSans-41"/>
      <use xlink:href="#DejaVuSans-6e" x="68.408203"/>
      <use xlink:href="#DejaVuSans-61" x="131.787109"/>
      <use xlink:href="#DejaVuSans-6c" x="193.066406"/>
      <use xlink:href="#DejaVuSans-79" x="220.849609"/>
      <use xlink:href="#DejaVuSans-74" x="280.029297"/>
      <use xlink:href="#DejaVuSans-69" x="319.238281"/>
      <use xlink:href="#DejaVuSans-63" x="347.021484"/>
      <use xlink:href="#DejaVuSans-61" x="402.001953"/>
      <use xlink:href="#DejaVuSans-6c" x="463.28125"/>
     </g>
    </g>
   </g>
  </g>
 </g>
 <defs>
  <clipPath id="pbb19b28d5f">
   <rect x="48.890256" y="2.952756" width="628.421205" height="285.694488"/>
  </clipPath>
 </defs>
</svg>
