<?xml version="1.0" encoding="utf-8" standalone="no"?>
<!DOCTYPE svg PUBLIC "-//W3C//DTD SVG 1.1//EN"
  "http://www.w3.org/Graphics/SVG/1.1/DTD/svg11.dtd">
<svg xmlns:xlink="http://www.w3.org/1999/xlink" width="691.2pt" height="345.6pt" viewBox="0 0 691.2 345.6" xmlns="http://www.w3.org/2000/svg" version="1.1">
 <metadata>
  <rdf:RDF xmlns:dc="http://purl.org/dc/elements/1.1/" xmlns:cc="http://creativecommons.org/ns#" xmlns:rdf="http://www.w3.org/1999/02/22-rdf-syntax-ns#">
   <cc:Work>
    <dc:type rdf:resource="http://purl.org/dc/dcmitype/StillImage"/>
    <dc:date>2022-09-28T16:17:23.126962</dc:date>
    <dc:format>image/svg+xml</dc:format>
    <dc:creator>
     <cc:Agent>
      <dc:title>Matplotlib v3.5.2, https://matplotlib.org/</dc:title>
     </cc:Agent>
    </dc:creator>
   </cc:Work>
  </rdf:RDF>
 </metadata>
 <defs>
  <style type="text/css">*{stroke-linejoin: round; stroke-linecap: butt}</style>
 </defs>
 <g id="figure_1">
  <g id="patch_1">
   <path d="M 0 345.6 
L 691.2 345.6 
L 691.2 0 
L 0 0 
z
" style="fill: #ffffff"/>
  </g>
  <g id="axes_1">
   <g id="patch_2">
    <path d="M 48.890256 288.647244 
L 677.311461 288.647244 
L 677.311461 2.952756 
L 48.890256 2.952756 
z
" style="fill: #ffffff"/>
   </g>
   <g id="matplotlib.axis_1">
    <g id="xtick_1">
     <g id="line2d_1">
      <path d="M 66.082318 288.647244 
L 66.082318 2.952756 
" clip-path="url(#pf4a147abab)" style="fill: none; stroke: #000000; stroke-opacity: 0.1; stroke-width: 0.5; stroke-linecap: square"/>
     </g>
     <g id="line2d_2">
      <defs>
       <path id="m49ee4cf99d" d="M 0 0 
L 0 -2.5 
" style="stroke: #000000; stroke-width: 0.5"/>
      </defs>
      <g>
       <use xlink:href="#m49ee4cf99d" x="66.082318" y="288.647244" style="stroke: #000000; stroke-width: 0.5"/>
      </g>
     </g>
     <g id="text_1">
      <!-- $0$ -->
      <g transform="translate(58.402318 310.383494)scale(0.24 -0.24)">
       <defs>
        <path id="DejaVuSans-30" d="M 2034 4250 
Q 1547 4250 1301 3770 
Q 1056 3291 1056 2328 
Q 1056 1369 1301 889 
Q 1547 409 2034 409 
Q 2525 409 2770 889 
Q 3016 1369 3016 2328 
Q 3016 3291 2770 3770 
Q 2525 4250 2034 4250 
z
M 2034 4750 
Q 2819 4750 3233 4129 
Q 3647 3509 3647 2328 
Q 3647 1150 3233 529 
Q 2819 -91 2034 -91 
Q 1250 -91 836 529 
Q 422 1150 422 2328 
Q 422 3509 836 4129 
Q 1250 4750 2034 4750 
z
" transform="scale(0.015625)"/>
       </defs>
       <use xlink:href="#DejaVuSans-30" transform="translate(0 0.78125)"/>
      </g>
     </g>
    </g>
    <g id="xtick_2">
     <g id="line2d_3">
      <path d="M 214.443227 288.647244 
L 214.443227 2.952756 
" clip-path="url(#pf4a147abab)" style="fill: none; stroke: #000000; stroke-opacity: 0.1; stroke-width: 0.5; stroke-linecap: square"/>
     </g>
     <g id="line2d_4">
      <g>
       <use xlink:href="#m49ee4cf99d" x="214.443227" y="288.647244" style="stroke: #000000; stroke-width: 0.5"/>
      </g>
     </g>
     <g id="text_2">
      <!-- $250$ -->
      <g transform="translate(191.523227 310.383494)scale(0.24 -0.24)">
       <defs>
        <path id="DejaVuSans-32" d="M 1228 531 
L 3431 531 
L 3431 0 
L 469 0 
L 469 531 
Q 828 903 1448 1529 
Q 2069 2156 2228 2338 
Q 2531 2678 2651 2914 
Q 2772 3150 2772 3378 
Q 2772 3750 2511 3984 
Q 2250 4219 1831 4219 
Q 1534 4219 1204 4116 
Q 875 4013 500 3803 
L 500 4441 
Q 881 4594 1212 4672 
Q 1544 4750 1819 4750 
Q 2544 4750 2975 4387 
Q 3406 4025 3406 3419 
Q 3406 3131 3298 2873 
Q 3191 2616 2906 2266 
Q 2828 2175 2409 1742 
Q 1991 1309 1228 531 
z
" transform="scale(0.015625)"/>
        <path id="DejaVuSans-35" d="M 691 4666 
L 3169 4666 
L 3169 4134 
L 1269 4134 
L 1269 2991 
Q 1406 3038 1543 3061 
Q 1681 3084 1819 3084 
Q 2600 3084 3056 2656 
Q 3513 2228 3513 1497 
Q 3513 744 3044 326 
Q 2575 -91 1722 -91 
Q 1428 -91 1123 -41 
Q 819 9 494 109 
L 494 744 
Q 775 591 1075 516 
Q 1375 441 1709 441 
Q 2250 441 2565 725 
Q 2881 1009 2881 1497 
Q 2881 1984 2565 2268 
Q 2250 2553 1709 2553 
Q 1456 2553 1204 2497 
Q 953 2441 691 2322 
L 691 4666 
z
" transform="scale(0.015625)"/>
       </defs>
       <use xlink:href="#DejaVuSans-32" transform="translate(0 0.78125)"/>
       <use xlink:href="#DejaVuSans-35" transform="translate(63.623047 0.78125)"/>
       <use xlink:href="#DejaVuSans-30" transform="translate(127.246094 0.78125)"/>
      </g>
     </g>
    </g>
    <g id="xtick_3">
     <g id="line2d_5">
      <path d="M 362.804137 288.647244 
L 362.804137 2.952756 
" clip-path="url(#pf4a147abab)" style="fill: none; stroke: #000000; stroke-opacity: 0.1; stroke-width: 0.5; stroke-linecap: square"/>
     </g>
     <g id="line2d_6">
      <g>
       <use xlink:href="#m49ee4cf99d" x="362.804137" y="288.647244" style="stroke: #000000; stroke-width: 0.5"/>
      </g>
     </g>
     <g id="text_3">
      <!-- $500$ -->
      <g transform="translate(339.884137 310.383494)scale(0.24 -0.24)">
       <use xlink:href="#DejaVuSans-35" transform="translate(0 0.78125)"/>
       <use xlink:href="#DejaVuSans-30" transform="translate(63.623047 0.78125)"/>
       <use xlink:href="#DejaVuSans-30" transform="translate(127.246094 0.78125)"/>
      </g>
     </g>
    </g>
    <g id="xtick_4">
     <g id="line2d_7">
      <path d="M 511.165046 288.647244 
L 511.165046 2.952756 
" clip-path="url(#pf4a147abab)" style="fill: none; stroke: #000000; stroke-opacity: 0.1; stroke-width: 0.5; stroke-linecap: square"/>
     </g>
     <g id="line2d_8">
      <g>
       <use xlink:href="#m49ee4cf99d" x="511.165046" y="288.647244" style="stroke: #000000; stroke-width: 0.5"/>
      </g>
     </g>
     <g id="text_4">
      <!-- $750$ -->
      <g transform="translate(488.245046 310.383494)scale(0.24 -0.24)">
       <defs>
        <path id="DejaVuSans-37" d="M 525 4666 
L 3525 4666 
L 3525 4397 
L 1831 0 
L 1172 0 
L 2766 4134 
L 525 4134 
L 525 4666 
z
" transform="scale(0.015625)"/>
       </defs>
       <use xlink:href="#DejaVuSans-37" transform="translate(0 0.78125)"/>
       <use xlink:href="#DejaVuSans-35" transform="translate(63.623047 0.78125)"/>
       <use xlink:href="#DejaVuSans-30" transform="translate(127.246094 0.78125)"/>
      </g>
     </g>
    </g>
    <g id="xtick_5">
     <g id="line2d_9">
      <path d="M 659.525956 288.647244 
L 659.525956 2.952756 
" clip-path="url(#pf4a147abab)" style="fill: none; stroke: #000000; stroke-opacity: 0.1; stroke-width: 0.5; stroke-linecap: square"/>
     </g>
     <g id="line2d_10">
      <g>
       <use xlink:href="#m49ee4cf99d" x="659.525956" y="288.647244" style="stroke: #000000; stroke-width: 0.5"/>
      </g>
     </g>
     <g id="text_5">
      <!-- $1000$ -->
      <g transform="translate(628.925956 310.383494)scale(0.24 -0.24)">
       <defs>
        <path id="DejaVuSans-31" d="M 794 531 
L 1825 531 
L 1825 4091 
L 703 3866 
L 703 4441 
L 1819 4666 
L 2450 4666 
L 2450 531 
L 3481 531 
L 3481 0 
L 794 0 
L 794 531 
z
" transform="scale(0.015625)"/>
       </defs>
       <use xlink:href="#DejaVuSans-31" transform="translate(0 0.78125)"/>
       <use xlink:href="#DejaVuSans-30" transform="translate(63.623047 0.78125)"/>
       <use xlink:href="#DejaVuSans-30" transform="translate(127.246094 0.78125)"/>
       <use xlink:href="#DejaVuSans-30" transform="translate(190.869141 0.78125)"/>
      </g>
     </g>
    </g>
    <g id="text_6">
     <!-- MC steps -->
     <g transform="translate(308.345234 337.610994)scale(0.24 -0.24)">
      <defs>
       <path id="DejaVuSans-4d" d="M 628 4666 
L 1569 4666 
L 2759 1491 
L 3956 4666 
L 4897 4666 
L 4897 0 
L 4281 0 
L 4281 4097 
L 3078 897 
L 2444 897 
L 1241 4097 
L 1241 0 
L 628 0 
L 628 4666 
z
" transform="scale(0.015625)"/>
       <path id="DejaVuSans-43" d="M 4122 4306 
L 4122 3641 
Q 3803 3938 3442 4084 
Q 3081 4231 2675 4231 
Q 1875 4231 1450 3742 
Q 1025 3253 1025 2328 
Q 1025 1406 1450 917 
Q 1875 428 2675 428 
Q 3081 428 3442 575 
Q 3803 722 4122 1019 
L 4122 359 
Q 3791 134 3420 21 
Q 3050 -91 2638 -91 
Q 1578 -91 968 557 
Q 359 1206 359 2328 
Q 359 3453 968 4101 
Q 1578 4750 2638 4750 
Q 3056 4750 3426 4639 
Q 3797 4528 4122 4306 
z
" transform="scale(0.015625)"/>
       <path id="DejaVuSans-20" transform="scale(0.015625)"/>
       <path id="DejaVuSans-73" d="M 2834 3397 
L 2834 2853 
Q 2591 2978 2328 3040 
Q 2066 3103 1784 3103 
Q 1356 3103 1142 2972 
Q 928 2841 928 2578 
Q 928 2378 1081 2264 
Q 1234 2150 1697 2047 
L 1894 2003 
Q 2506 1872 2764 1633 
Q 3022 1394 3022 966 
Q 3022 478 2636 193 
Q 2250 -91 1575 -91 
Q 1294 -91 989 -36 
Q 684 19 347 128 
L 347 722 
Q 666 556 975 473 
Q 1284 391 1588 391 
Q 1994 391 2212 530 
Q 2431 669 2431 922 
Q 2431 1156 2273 1281 
Q 2116 1406 1581 1522 
L 1381 1569 
Q 847 1681 609 1914 
Q 372 2147 372 2553 
Q 372 3047 722 3315 
Q 1072 3584 1716 3584 
Q 2034 3584 2315 3537 
Q 2597 3491 2834 3397 
z
" transform="scale(0.015625)"/>
       <path id="DejaVuSans-74" d="M 1172 4494 
L 1172 3500 
L 2356 3500 
L 2356 3053 
L 1172 3053 
L 1172 1153 
Q 1172 725 1289 603 
Q 1406 481 1766 481 
L 2356 481 
L 2356 0 
L 1766 0 
Q 1100 0 847 248 
Q 594 497 594 1153 
L 594 3053 
L 172 3053 
L 172 3500 
L 594 3500 
L 594 4494 
L 1172 4494 
z
" transform="scale(0.015625)"/>
       <path id="DejaVuSans-65" d="M 3597 1894 
L 3597 1613 
L 953 1613 
Q 991 1019 1311 708 
Q 1631 397 2203 397 
Q 2534 397 2845 478 
Q 3156 559 3463 722 
L 3463 178 
Q 3153 47 2828 -22 
Q 2503 -91 2169 -91 
Q 1331 -91 842 396 
Q 353 884 353 1716 
Q 353 2575 817 3079 
Q 1281 3584 2069 3584 
Q 2775 3584 3186 3129 
Q 3597 2675 3597 1894 
z
M 3022 2063 
Q 3016 2534 2758 2815 
Q 2500 3097 2075 3097 
Q 1594 3097 1305 2825 
Q 1016 2553 972 2059 
L 3022 2063 
z
" transform="scale(0.015625)"/>
       <path id="DejaVuSans-70" d="M 1159 525 
L 1159 -1331 
L 581 -1331 
L 581 3500 
L 1159 3500 
L 1159 2969 
Q 1341 3281 1617 3432 
Q 1894 3584 2278 3584 
Q 2916 3584 3314 3078 
Q 3713 2572 3713 1747 
Q 3713 922 3314 415 
Q 2916 -91 2278 -91 
Q 1894 -91 1617 61 
Q 1341 213 1159 525 
z
M 3116 1747 
Q 3116 2381 2855 2742 
Q 2594 3103 2138 3103 
Q 1681 3103 1420 2742 
Q 1159 2381 1159 1747 
Q 1159 1113 1420 752 
Q 1681 391 2138 391 
Q 2594 391 2855 752 
Q 3116 1113 3116 1747 
z
" transform="scale(0.015625)"/>
      </defs>
      <use xlink:href="#DejaVuSans-4d"/>
      <use xlink:href="#DejaVuSans-43" x="86.279297"/>
      <use xlink:href="#DejaVuSans-20" x="156.103516"/>
      <use xlink:href="#DejaVuSans-73" x="187.890625"/>
      <use xlink:href="#DejaVuSans-74" x="239.990234"/>
      <use xlink:href="#DejaVuSans-65" x="279.199219"/>
      <use xlink:href="#DejaVuSans-70" x="340.722656"/>
      <use xlink:href="#DejaVuSans-73" x="404.199219"/>
     </g>
    </g>
   </g>
   <g id="matplotlib.axis_2">
    <g id="ytick_1">
     <g id="line2d_11">
      <path d="M 48.890256 280.561551 
L 677.311461 280.561551 
" clip-path="url(#pf4a147abab)" style="fill: none; stroke: #000000; stroke-opacity: 0.1; stroke-width: 0.5; stroke-linecap: square"/>
     </g>
     <g id="line2d_12">
      <defs>
       <path id="m89610fac63" d="M 0 0 
L 2.5 0 
" style="stroke: #000000; stroke-width: 0.5"/>
      </defs>
      <g>
       <use xlink:href="#m89610fac63" x="48.890256" y="280.561551" style="stroke: #000000; stroke-width: 0.5"/>
      </g>
     </g>
     <g id="text_7">
      <!-- $0$ -->
      <g transform="translate(30.030256 289.679676)scale(0.24 -0.24)">
       <use xlink:href="#DejaVuSans-30" transform="translate(0 0.78125)"/>
      </g>
     </g>
    </g>
    <g id="ytick_2">
     <g id="line2d_13">
      <path d="M 48.890256 202.793622 
L 677.311461 202.793622 
" clip-path="url(#pf4a147abab)" style="fill: none; stroke: #000000; stroke-opacity: 0.1; stroke-width: 0.5; stroke-linecap: square"/>
     </g>
     <g id="line2d_14">
      <g>
       <use xlink:href="#m89610fac63" x="48.890256" y="202.793622" style="stroke: #000000; stroke-width: 0.5"/>
      </g>
     </g>
     <g id="text_8">
      <!-- $1$ -->
      <g transform="translate(30.030256 211.911747)scale(0.24 -0.24)">
       <use xlink:href="#DejaVuSans-31" transform="translate(0 0.09375)"/>
      </g>
     </g>
    </g>
    <g id="ytick_3">
     <g id="line2d_15">
      <path d="M 48.890256 125.025694 
L 677.311461 125.025694 
" clip-path="url(#pf4a147abab)" style="fill: none; stroke: #000000; stroke-opacity: 0.1; stroke-width: 0.5; stroke-linecap: square"/>
     </g>
     <g id="line2d_16">
      <g>
       <use xlink:href="#m89610fac63" x="48.890256" y="125.025694" style="stroke: #000000; stroke-width: 0.5"/>
      </g>
     </g>
     <g id="text_9">
      <!-- $2$ -->
      <g transform="translate(30.030256 134.143819)scale(0.24 -0.24)">
       <use xlink:href="#DejaVuSans-32" transform="translate(0 0.78125)"/>
      </g>
     </g>
    </g>
    <g id="ytick_4">
     <g id="line2d_17">
      <path d="M 48.890256 47.257765 
L 677.311461 47.257765 
" clip-path="url(#pf4a147abab)" style="fill: none; stroke: #000000; stroke-opacity: 0.1; stroke-width: 0.5; stroke-linecap: square"/>
     </g>
     <g id="line2d_18">
      <g>
       <use xlink:href="#m89610fac63" x="48.890256" y="47.257765" style="stroke: #000000; stroke-width: 0.5"/>
      </g>
     </g>
     <g id="text_10">
      <!-- $3$ -->
      <g transform="translate(30.030256 56.37589)scale(0.24 -0.24)">
       <defs>
        <path id="DejaVuSans-33" d="M 2597 2516 
Q 3050 2419 3304 2112 
Q 3559 1806 3559 1356 
Q 3559 666 3084 287 
Q 2609 -91 1734 -91 
Q 1441 -91 1130 -33 
Q 819 25 488 141 
L 488 750 
Q 750 597 1062 519 
Q 1375 441 1716 441 
Q 2309 441 2620 675 
Q 2931 909 2931 1356 
Q 2931 1769 2642 2001 
Q 2353 2234 1838 2234 
L 1294 2234 
L 1294 2753 
L 1863 2753 
Q 2328 2753 2575 2939 
Q 2822 3125 2822 3475 
Q 2822 3834 2567 4026 
Q 2313 4219 1838 4219 
Q 1578 4219 1281 4162 
Q 984 4106 628 3988 
L 628 4550 
Q 988 4650 1302 4700 
Q 1616 4750 1894 4750 
Q 2613 4750 3031 4423 
Q 3450 4097 3450 3541 
Q 3450 3153 3228 2886 
Q 3006 2619 2597 2516 
z
" transform="scale(0.015625)"/>
       </defs>
       <use xlink:href="#DejaVuSans-33" transform="translate(0 0.78125)"/>
      </g>
     </g>
    </g>
    <g id="text_11">
     <!-- MC value -->
     <g transform="translate(21.039006 201.125625)rotate(-90)scale(0.24 -0.24)">
      <defs>
       <path id="DejaVuSans-76" d="M 191 3500 
L 800 3500 
L 1894 563 
L 2988 3500 
L 3597 3500 
L 2284 0 
L 1503 0 
L 191 3500 
z
" transform="scale(0.015625)"/>
       <path id="DejaVuSans-61" d="M 2194 1759 
Q 1497 1759 1228 1600 
Q 959 1441 959 1056 
Q 959 750 1161 570 
Q 1363 391 1709 391 
Q 2188 391 2477 730 
Q 2766 1069 2766 1631 
L 2766 1759 
L 2194 1759 
z
M 3341 1997 
L 3341 0 
L 2766 0 
L 2766 531 
Q 2569 213 2275 61 
Q 1981 -91 1556 -91 
Q 1019 -91 701 211 
Q 384 513 384 1019 
Q 384 1609 779 1909 
Q 1175 2209 1959 2209 
L 2766 2209 
L 2766 2266 
Q 2766 2663 2505 2880 
Q 2244 3097 1772 3097 
Q 1472 3097 1187 3025 
Q 903 2953 641 2809 
L 641 3341 
Q 956 3463 1253 3523 
Q 1550 3584 1831 3584 
Q 2591 3584 2966 3190 
Q 3341 2797 3341 1997 
z
" transform="scale(0.015625)"/>
       <path id="DejaVuSans-6c" d="M 603 4863 
L 1178 4863 
L 1178 0 
L 603 0 
L 603 4863 
z
" transform="scale(0.015625)"/>
       <path id="DejaVuSans-75" d="M 544 1381 
L 544 3500 
L 1119 3500 
L 1119 1403 
Q 1119 906 1312 657 
Q 1506 409 1894 409 
Q 2359 409 2629 706 
Q 2900 1003 2900 1516 
L 2900 3500 
L 3475 3500 
L 3475 0 
L 2900 0 
L 2900 538 
Q 2691 219 2414 64 
Q 2138 -91 1772 -91 
Q 1169 -91 856 284 
Q 544 659 544 1381 
z
M 1991 3584 
L 1991 3584 
z
" transform="scale(0.015625)"/>
      </defs>
      <use xlink:href="#DejaVuSans-4d"/>
      <use xlink:href="#DejaVuSans-43" x="86.279297"/>
      <use xlink:href="#DejaVuSans-20" x="156.103516"/>
      <use xlink:href="#DejaVuSans-76" x="187.890625"/>
      <use xlink:href="#DejaVuSans-61" x="247.070312"/>
      <use xlink:href="#DejaVuSans-6c" x="308.349609"/>
      <use xlink:href="#DejaVuSans-75" x="336.132812"/>
      <use xlink:href="#DejaVuSans-65" x="399.511719"/>
     </g>
    </g>
   </g>
   <g id="line2d_19">
    <path d="M 66.675762 280.561551 
L 67.269205 118.84769 
L 67.862649 64.943069 
L 68.456093 37.990759 
L 69.049536 21.819373 
L 69.64298 11.038449 
L 70.236424 49.541749 
L 70.829867 37.990759 
L 71.423311 64.943069 
L 72.016754 86.504918 
L 72.610198 74.743909 
L 73.203642 91.89538 
L 73.797085 81.529106 
L 74.390529 95.74571 
L 74.983973 86.504918 
L 75.577416 98.633457 
L 76.764304 82.911276 
L 77.357747 76.291411 
L 77.951191 86.504918 
L 78.544634 80.344389 
L 79.731522 97.754577 
L 80.918409 86.504918 
L 82.105296 76.921874 
L 83.292184 68.660629 
L 83.885627 75.723993 
L 84.479071 71.898504 
L 85.665958 84.54475 
L 86.852845 77.264125 
L 87.446289 82.911276 
L 89.22662 73.236088 
L 91.006951 64.943069 
L 92.193838 60.042649 
L 93.380725 69.630428 
L 95.161056 62.742881 
L 95.7545 67.099254 
L 97.534831 60.874796 
L 98.128275 58.953667 
L 98.721718 62.982901 
L 100.502049 57.507949 
L 101.095493 61.288519 
L 101.688936 59.552607 
L 103.469267 70.076843 
L 104.062711 68.312108 
L 104.656155 71.577484 
L 105.843042 68.161256 
L 107.029929 74.317786 
L 109.403704 67.896747 
L 111.184035 63.524527 
L 111.777478 66.343189 
L 114.151253 60.950135 
L 114.744696 59.684082 
L 115.931584 64.943069 
L 116.525027 63.674725 
L 117.118471 66.196665 
L 119.492245 61.349428 
L 120.085689 63.758352 
L 123.052907 58.204992 
L 124.833238 55.142229 
L 126.020125 59.605978 
L 126.613569 58.601349 
L 127.207013 60.756303 
L 127.800456 59.759933 
L 128.3939 61.862805 
L 128.987344 60.874796 
L 131.361118 68.863405 
L 131.954562 67.856833 
L 134.92178 77.025139 
L 135.515224 78.764767 
L 136.108667 77.733996 
L 136.702111 79.438429 
L 138.482442 76.430939 
L 139.075885 78.090538 
L 140.856216 75.210616 
L 141.44966 76.827553 
L 142.043104 75.892445 
L 142.636547 77.479028 
L 143.229991 76.553295 
L 143.823435 78.11061 
L 144.416878 77.194119 
L 145.010322 78.723198 
L 145.603766 77.815815 
L 146.790653 80.79737 
L 149.164427 77.264125 
L 150.351315 80.127469 
L 151.538202 78.419224 
L 152.131646 79.813309 
L 152.725089 78.973039 
L 153.318533 80.344389 
L 155.098864 77.880178 
L 156.285751 80.547038 
L 156.879195 79.740416 
L 159.252969 84.856878 
L 162.813631 80.155416 
L 164.000518 78.664245 
L 167.56118 85.748361 
L 168.748067 84.261488 
L 169.341511 85.38965 
L 170.528398 83.932197 
L 171.121842 85.043097 
L 171.715286 84.324506 
L 172.308729 85.420802 
L 175.275947 81.934743 
L 175.869391 83.008402 
L 176.462835 82.331657 
L 177.056278 83.39171 
L 177.649722 82.720125 
L 178.243166 83.766905 
L 178.836609 83.100415 
L 180.023496 85.157302 
L 181.803827 83.18771 
L 182.990715 85.191505 
L 184.771046 83.27064 
L 185.957933 85.224016 
L 187.738264 83.349525 
L 189.518595 86.193929 
L 190.112038 85.576417 
L 194.266144 91.89538 
L 195.453031 93.626262 
L 196.046475 93.003009 
L 196.639918 93.855548 
L 197.233362 93.236897 
L 197.826806 94.080702 
L 199.607137 92.254744 
L 200.794024 93.913835 
L 201.980911 92.719249 
L 202.574355 93.535955 
L 204.948129 91.204295 
L 205.541573 92.01007 
L 206.135017 91.438561 
L 207.321904 93.02783 
L 209.695678 90.781648 
L 210.882566 92.337221 
L 211.476009 91.78537 
L 212.069453 92.552753 
L 212.662897 92.004498 
L 213.25634 92.764809 
L 215.630115 90.611936 
L 217.410446 92.846638 
L 218.003889 92.316509 
L 218.597333 93.04898 
L 220.377664 91.480729 
L 220.971107 92.205176 
L 221.564551 91.689637 
L 222.157995 92.407781 
L 223.344882 91.386845 
L 223.938326 92.098029 
L 225.125213 91.090833 
L 226.3121 92.49432 
L 228.685875 90.518254 
L 229.279318 91.209321 
L 230.466206 90.241267 
L 231.059649 90.925872 
L 234.026867 88.562055 
L 235.213755 89.90942 
L 236.994086 88.526341 
L 237.587529 89.190823 
L 239.36786 87.834073 
L 241.148191 89.794013 
L 241.741635 89.345837 
L 242.335078 89.989661 
L 244.115409 88.661102 
L 245.302297 89.931966 
L 245.89574 89.493689 
L 246.489184 90.122201 
L 248.269515 88.822641 
L 248.862958 89.44517 
L 249.456402 89.016978 
L 250.049846 89.634863 
L 250.643289 89.208815 
L 251.236733 89.822125 
L 253.610508 88.142526 
L 254.203951 88.749526 
L 255.390838 87.92435 
L 256.577726 89.124581 
L 257.764613 88.307301 
L 259.544944 90.076512 
L 260.731831 89.265886 
L 261.918718 90.425254 
L 265.47938 88.04505 
L 266.072824 88.616315 
L 267.259711 87.840607 
L 269.633486 90.088082 
L 270.226929 89.701587 
L 271.413817 90.804824 
L 272.600704 90.0366 
L 273.194148 90.582516 
L 277.941697 87.59207 
L 278.53514 88.13109 
L 279.128584 87.766196 
L 279.722028 88.301738 
L 280.315471 87.938392 
L 281.502358 88.999677 
L 283.876133 87.562447 
L 284.469577 88.086901 
L 286.843351 86.678803 
L 287.436795 87.198596 
L 289.217126 86.160846 
L 289.810569 86.676497 
L 290.997457 85.992895 
L 291.5909 86.504918 
L 292.184344 86.165361 
L 293.371231 87.180485 
L 296.931893 85.174624 
L 297.525337 85.675616 
L 298.712224 85.01979 
L 299.899111 86.012388 
L 300.492555 85.686113 
L 301.085999 86.178223 
L 301.679442 85.853174 
L 302.272886 86.342391 
L 304.64666 85.056734 
L 305.833548 86.024579 
L 308.207322 84.760945 
L 308.800766 85.239675 
L 311.767984 83.692503 
L 312.361428 84.166886 
L 312.954871 83.861518 
L 314.735202 85.269871 
L 317.70242 83.758833 
L 318.295864 84.221898 
L 321.263082 82.74413 
L 323.043413 84.11469 
L 323.636857 83.822107 
L 324.2303 84.274382 
L 327.790962 82.544578 
L 328.384406 82.99258 
L 330.75818 81.863802 
L 331.945068 82.750846 
L 334.912286 81.364344 
L 335.505729 81.803105 
L 336.099173 81.529106 
L 336.692617 81.965581 
L 339.066391 80.880088 
L 339.659835 81.313236 
L 342.03361 80.245026 
L 343.81394 81.529106 
L 345.594271 80.73678 
L 346.187715 81.160137 
L 346.781159 80.897925 
L 347.374602 81.319157 
L 349.748377 80.279949 
L 350.935264 81.114456 
L 351.528708 80.8567 
L 352.122151 81.271025 
L 352.715595 81.014012 
L 353.309039 81.4263 
L 354.495926 80.914809 
L 355.682813 81.733033 
L 359.836919 79.971024 
L 360.430362 80.375441 
L 361.023806 80.127469 
L 362.804137 81.330074 
L 363.991024 80.835268 
L 366.958242 82.804955 
L 369.332017 81.821228 
L 370.518904 82.596044 
L 373.486122 81.385019 
L 375.266453 82.531909 
L 376.45334 82.052375 
L 378.233671 83.184557 
L 378.827115 82.945371 
L 380.014002 83.692503 
L 380.607446 83.453713 
L 381.20089 83.824914 
L 382.98122 83.113166 
L 383.574664 83.482229 
L 385.354995 82.777684 
L 387.135326 83.874452 
L 389.509101 82.944245 
L 390.102544 83.306182 
L 392.476319 82.388565 
L 393.069762 82.748225 
L 393.663206 82.520663 
L 394.850093 83.235612 
L 396.036981 82.782009 
L 397.223868 83.490896 
L 399.597642 82.591557 
L 400.191086 82.943191 
L 401.377973 82.497848 
L 401.971417 82.847784 
L 403.158304 82.40513 
L 404.938635 83.446232 
L 405.532079 83.225406 
L 406.125522 83.569797 
L 407.905853 82.911276 
L 408.499297 83.253824 
L 409.092741 83.035624 
L 409.686184 83.376774 
L 411.466515 82.726037 
L 412.059959 83.065377 
L 412.653402 82.849741 
L 413.246846 83.18771 
L 413.84029 82.972601 
L 414.433733 83.309209 
L 415.620621 82.88077 
L 417.994395 84.214198 
L 419.181282 83.787038 
L 420.961613 84.774201 
L 428.082937 82.263242 
L 428.676381 82.58779 
L 429.863268 82.178478 
L 431.050155 82.823626 
L 433.42393 82.011414 
L 434.017373 82.331657 
L 435.797704 81.728778 
L 437.578035 82.681651 
L 438.171479 82.481415 
L 440.545253 83.737073 
L 442.919028 82.939573 
L 444.105915 83.56005 
L 444.699359 83.36189 
L 445.886246 83.978138 
L 446.47969 83.780253 
L 448.260021 84.696936 
L 457.161675 81.793376 
L 457.755119 82.09454 
L 458.942006 81.717015 
L 459.53545 82.016931 
L 460.128893 81.828854 
L 460.722337 82.1277 
L 461.315781 81.940022 
L 461.909224 82.237805 
L 462.502668 82.050524 
L 463.096112 82.347252 
L 464.282999 81.974037 
L 464.876442 82.269555 
L 466.06333 81.898232 
L 466.656773 82.192548 
L 470.810879 80.908954 
L 471.997766 81.492734 
L 473.184653 81.130171 
L 473.778097 81.420464 
L 476.745315 80.522439 
L 477.338759 80.811096 
L 477.932202 80.632887 
L 479.712533 81.493412 
L 480.305977 81.315246 
L 480.899421 81.600291 
L 482.086308 81.24518 
L 484.460083 82.376053 
L 486.833857 81.669468 
L 488.614188 82.507496 
L 489.207632 82.331657 
L 491.581406 83.437542 
L 492.768293 83.08621 
L 493.955181 83.633992 
L 495.142068 83.284061 
L 495.735512 83.556543 
L 497.515843 83.034854 
L 498.109286 83.306182 
L 501.076504 82.445525 
L 502.263392 82.984616 
L 502.856835 82.813623 
L 503.450279 83.081938 
L 504.637166 82.741077 
L 507.604384 84.070515 
L 508.791272 83.730203 
L 509.384715 83.993698 
L 510.571603 83.654954 
L 511.75849 84.179339 
L 512.351933 84.010395 
L 512.945377 84.271419 
L 514.132264 83.934631 
L 514.725708 84.19472 
L 515.912595 83.859467 
L 516.506039 84.118626 
L 518.879813 83.452913 
L 520.066701 83.96823 
L 520.660144 83.802649 
L 521.847032 84.315042 
L 523.627363 83.820174 
L 524.220806 84.07502 
L 524.81425 83.910801 
L 526.001137 84.418287 
L 527.188024 84.090657 
L 527.781468 84.34319 
L 528.968355 84.017012 
L 530.748686 84.770056 
L 531.34213 84.607255 
L 532.529017 85.105866 
L 533.122461 84.943259 
L 534.309348 85.439123 
L 535.496235 85.11471 
L 536.089679 85.361486 
L 540.243784 84.23809 
L 540.837228 84.483494 
L 541.430672 84.324506 
L 542.024115 84.569191 
L 543.211003 84.252187 
L 543.804446 84.49605 
L 544.991334 84.180406 
L 546.178221 84.665897 
L 550.332326 83.571872 
L 550.92577 83.812985 
L 552.112657 83.503635 
L 553.299544 83.983678 
L 557.45365 82.911276 
L 558.047094 83.149696 
L 560.420868 82.544578 
L 561.607755 83.01887 
L 562.794643 82.71807 
L 563.388086 82.95416 
L 563.98153 82.804195 
L 564.574974 83.039621 
L 566.355304 82.591557 
L 566.948748 82.826119 
L 567.542192 82.677371 
L 568.135635 82.911276 
L 572.289741 81.879105 
L 575.256959 83.036928 
L 577.03729 82.598241 
L 578.224177 83.057021 
L 581.784839 82.187585 
L 582.378283 82.415602 
L 582.971726 82.271765 
L 583.56517 82.499161 
L 584.752057 82.212284 
L 587.719275 83.340551 
L 589.499606 82.911276 
L 590.09305 83.135116 
L 591.873381 82.708475 
L 592.466825 82.931533 
L 593.653712 82.648524 
L 594.247155 82.870898 
L 594.840599 82.729779 
L 596.027486 83.172851 
L 596.62093 83.031868 
L 597.214374 83.252572 
L 598.401261 82.971371 
L 599.588148 83.410948 
L 600.775035 83.130644 
L 601.368479 83.349525 
L 601.961923 83.209751 
L 602.555366 83.428061 
L 603.742254 83.149266 
L 604.929141 83.584095 
L 606.709472 83.167683 
L 607.896359 83.60009 
L 609.67669 83.185899 
L 611.457021 83.830216 
L 612.050465 83.692503 
L 612.643908 83.906258 
L 613.237352 83.768761 
L 614.424239 84.19472 
L 616.20457 83.783519 
L 617.391457 84.207153 
L 617.984901 84.070515 
L 619.171788 84.49217 
L 621.545563 83.947904 
L 623.325894 84.576062 
L 623.919337 84.440485 
L 625.106225 84.856878 
L 626.886555 84.451408 
L 627.479999 84.658713 
L 628.666886 84.389673 
L 629.26033 84.596387 
L 630.447217 84.328327 
L 631.040661 84.534455 
L 632.227548 84.267367 
L 632.820992 84.472911 
L 634.007879 84.20679 
L 634.601323 84.411753 
L 638.755428 83.488493 
L 639.348872 83.692503 
L 639.942316 83.561625 
L 641.129203 83.96823 
L 643.502977 83.446814 
L 644.689865 83.851152 
L 645.283308 83.721318 
L 648.84397 84.924008 
L 649.437414 84.794008 
L 651.217745 85.38965 
L 651.811188 85.259704 
L 652.404632 85.457378 
L 653.591519 85.198139 
L 654.184963 85.395277 
L 655.965294 85.00817 
L 656.558737 85.204706 
L 657.745625 84.947793 
L 658.932512 85.339412 
L 659.525956 85.211207 
L 659.525956 85.211207 
" clip-path="url(#pf4a147abab)" style="fill: none; stroke: #009afa; stroke-width: 3"/>
   </g>
   <g id="line2d_20">
    <path d="M -1 82.628373 
L 692.2 82.628373 
" clip-path="url(#pf4a147abab)" style="fill: none; stroke: #e36f47; stroke-width: 2"/>
   </g>
   <g id="patch_3">
    <path d="M 48.890256 288.647244 
L 48.890256 2.952756 
" style="fill: none; stroke: #000000; stroke-linejoin: miter; stroke-linecap: square"/>
   </g>
   <g id="patch_4">
    <path d="M 48.890256 288.647244 
L 677.311461 288.647244 
" style="fill: none; stroke: #000000; stroke-linejoin: miter; stroke-linecap: square"/>
   </g>
   <g id="legend_1">
    <g id="patch_5">
     <path d="M 490.996461 75.522756 
L 669.311461 75.522756 
L 669.311461 10.952756 
L 490.996461 10.952756 
z
" style="fill: #ffffff; stroke: #000000; stroke-linejoin: miter"/>
    </g>
    <g id="line2d_21">
     <path d="M 503.796461 30.310256 
L 519.796461 30.310256 
L 535.796461 30.310256 
" style="fill: none; stroke: #009afa; stroke-width: 2; stroke-linejoin: miter"/>
    </g>
    <g id="text_12">
     <!-- MC trajectory -->
     <g transform="translate(548.596461 35.910256)scale(0.16 -0.16)">
      <defs>
       <path id="DejaVuSans-72" d="M 2631 2963 
Q 2534 3019 2420 3045 
Q 2306 3072 2169 3072 
Q 1681 3072 1420 2755 
Q 1159 2438 1159 1844 
L 1159 0 
L 581 0 
L 581 3500 
L 1159 3500 
L 1159 2956 
Q 1341 3275 1631 3429 
Q 1922 3584 2338 3584 
Q 2397 3584 2469 3576 
Q 2541 3569 2628 3553 
L 2631 2963 
z
" transform="scale(0.015625)"/>
       <path id="DejaVuSans-6a" d="M 603 3500 
L 1178 3500 
L 1178 -63 
Q 1178 -731 923 -1031 
Q 669 -1331 103 -1331 
L -116 -1331 
L -116 -844 
L 38 -844 
Q 366 -844 484 -692 
Q 603 -541 603 -63 
L 603 3500 
z
M 603 4863 
L 1178 4863 
L 1178 4134 
L 603 4134 
L 603 4863 
z
" transform="scale(0.015625)"/>
       <path id="DejaVuSans-63" d="M 3122 3366 
L 3122 2828 
Q 2878 2963 2633 3030 
Q 2388 3097 2138 3097 
Q 1578 3097 1268 2742 
Q 959 2388 959 1747 
Q 959 1106 1268 751 
Q 1578 397 2138 397 
Q 2388 397 2633 464 
Q 2878 531 3122 666 
L 3122 134 
Q 2881 22 2623 -34 
Q 2366 -91 2075 -91 
Q 1284 -91 818 406 
Q 353 903 353 1747 
Q 353 2603 823 3093 
Q 1294 3584 2113 3584 
Q 2378 3584 2631 3529 
Q 2884 3475 3122 3366 
z
" transform="scale(0.015625)"/>
       <path id="DejaVuSans-6f" d="M 1959 3097 
Q 1497 3097 1228 2736 
Q 959 2375 959 1747 
Q 959 1119 1226 758 
Q 1494 397 1959 397 
Q 2419 397 2687 759 
Q 2956 1122 2956 1747 
Q 2956 2369 2687 2733 
Q 2419 3097 1959 3097 
z
M 1959 3584 
Q 2709 3584 3137 3096 
Q 3566 2609 3566 1747 
Q 3566 888 3137 398 
Q 2709 -91 1959 -91 
Q 1206 -91 779 398 
Q 353 888 353 1747 
Q 353 2609 779 3096 
Q 1206 3584 1959 3584 
z
" transform="scale(0.015625)"/>
       <path id="DejaVuSans-79" d="M 2059 -325 
Q 1816 -950 1584 -1140 
Q 1353 -1331 966 -1331 
L 506 -1331 
L 506 -850 
L 844 -850 
Q 1081 -850 1212 -737 
Q 1344 -625 1503 -206 
L 1606 56 
L 191 3500 
L 800 3500 
L 1894 763 
L 2988 3500 
L 3597 3500 
L 2059 -325 
z
" transform="scale(0.015625)"/>
      </defs>
      <use xlink:href="#DejaVuSans-4d"/>
      <use xlink:href="#DejaVuSans-43" x="86.279297"/>
      <use xlink:href="#DejaVuSans-20" x="156.103516"/>
      <use xlink:href="#DejaVuSans-74" x="187.890625"/>
      <use xlink:href="#DejaVuSans-72" x="227.099609"/>
      <use xlink:href="#DejaVuSans-61" x="268.212891"/>
      <use xlink:href="#DejaVuSans-6a" x="329.492188"/>
      <use xlink:href="#DejaVuSans-65" x="357.275391"/>
      <use xlink:href="#DejaVuSans-63" x="418.798828"/>
      <use xlink:href="#DejaVuSans-74" x="473.779297"/>
      <use xlink:href="#DejaVuSans-6f" x="512.988281"/>
      <use xlink:href="#DejaVuSans-72" x="574.169922"/>
      <use xlink:href="#DejaVuSans-79" x="615.283203"/>
     </g>
    </g>
    <g id="line2d_22">
     <path d="M 503.796461 53.795256 
L 519.796461 53.795256 
L 535.796461 53.795256 
" style="fill: none; stroke: #e36f47; stroke-width: 2; stroke-linejoin: miter"/>
    </g>
    <g id="text_13">
     <!-- Analytical -->
     <g transform="translate(548.596461 59.395256)scale(0.16 -0.16)">
      <defs>
       <path id="DejaVuSans-41" d="M 2188 4044 
L 1331 1722 
L 3047 1722 
L 2188 4044 
z
M 1831 4666 
L 2547 4666 
L 4325 0 
L 3669 0 
L 3244 1197 
L 1141 1197 
L 716 0 
L 50 0 
L 1831 4666 
z
" transform="scale(0.015625)"/>
       <path id="DejaVuSans-6e" d="M 3513 2113 
L 3513 0 
L 2938 0 
L 2938 2094 
Q 2938 2591 2744 2837 
Q 2550 3084 2163 3084 
Q 1697 3084 1428 2787 
Q 1159 2491 1159 1978 
L 1159 0 
L 581 0 
L 581 3500 
L 1159 3500 
L 1159 2956 
Q 1366 3272 1645 3428 
Q 1925 3584 2291 3584 
Q 2894 3584 3203 3211 
Q 3513 2838 3513 2113 
z
" transform="scale(0.015625)"/>
       <path id="DejaVuSans-69" d="M 603 3500 
L 1178 3500 
L 1178 0 
L 603 0 
L 603 3500 
z
M 603 4863 
L 1178 4863 
L 1178 4134 
L 603 4134 
L 603 4863 
z
" transform="scale(0.015625)"/>
      </defs>
      <use xlink:href="#DejaVuSans-41"/>
      <use xlink:href="#DejaVuSans-6e" x="68.408203"/>
      <use xlink:href="#DejaVuSans-61" x="131.787109"/>
      <use xlink:href="#DejaVuSans-6c" x="193.066406"/>
      <use xlink:href="#DejaVuSans-79" x="220.849609"/>
      <use xlink:href="#DejaVuSans-74" x="280.029297"/>
      <use xlink:href="#DejaVuSans-69" x="319.238281"/>
      <use xlink:href="#DejaVuSans-63" x="347.021484"/>
      <use xlink:href="#DejaVuSans-61" x="402.001953"/>
      <use xlink:href="#DejaVuSans-6c" x="463.28125"/>
     </g>
    </g>
   </g>
  </g>
 </g>
 <defs>
  <clipPath id="pf4a147abab">
   <rect x="48.890256" y="2.952756" width="628.421205" height="285.694488"/>
  </clipPath>
 </defs>
</svg>
