<?xml version="1.0" encoding="utf-8" standalone="no"?>
<!DOCTYPE svg PUBLIC "-//W3C//DTD SVG 1.1//EN"
  "http://www.w3.org/Graphics/SVG/1.1/DTD/svg11.dtd">
<svg xmlns:xlink="http://www.w3.org/1999/xlink" width="691.2pt" height="345.6pt" viewBox="0 0 691.2 345.6" xmlns="http://www.w3.org/2000/svg" version="1.1">
 <metadata>
  <rdf:RDF xmlns:dc="http://purl.org/dc/elements/1.1/" xmlns:cc="http://creativecommons.org/ns#" xmlns:rdf="http://www.w3.org/1999/02/22-rdf-syntax-ns#">
   <cc:Work>
    <dc:type rdf:resource="http://purl.org/dc/dcmitype/StillImage"/>
    <dc:date>2022-09-04T22:51:58.841118</dc:date>
    <dc:format>image/svg+xml</dc:format>
    <dc:creator>
     <cc:Agent>
      <dc:title>Matplotlib v3.5.2, https://matplotlib.org/</dc:title>
     </cc:Agent>
    </dc:creator>
   </cc:Work>
  </rdf:RDF>
 </metadata>
 <defs>
  <style type="text/css">*{stroke-linejoin: round; stroke-linecap: butt}</style>
 </defs>
 <g id="figure_1">
  <g id="patch_1">
   <path d="M 0 345.6 
L 691.2 345.6 
L 691.2 0 
L 0 0 
z
" style="fill: #ffffff"/>
  </g>
  <g id="axes_1">
   <g id="patch_2">
    <path d="M 71.788693 288.647244 
L 677.311461 288.647244 
L 677.311461 2.952756 
L 71.788693 2.952756 
z
" style="fill: #ffffff"/>
   </g>
   <g id="matplotlib.axis_1">
    <g id="xtick_1">
     <g id="line2d_1">
      <path d="M 88.354311 288.647244 
L 88.354311 2.952756 
" clip-path="url(#pe8c6fc85e1)" style="fill: none; stroke: #000000; stroke-opacity: 0.1; stroke-width: 0.5; stroke-linecap: square"/>
     </g>
     <g id="line2d_2">
      <defs>
       <path id="me15bfcf86c" d="M 0 0 
L 0 -2.5 
" style="stroke: #000000; stroke-width: 0.5"/>
      </defs>
      <g>
       <use xlink:href="#me15bfcf86c" x="88.354311" y="288.647244" style="stroke: #000000; stroke-width: 0.5"/>
      </g>
     </g>
     <g id="text_1">
      <!-- $0$ -->
      <g transform="translate(80.674311 310.383494)scale(0.24 -0.24)">
       <defs>
        <path id="DejaVuSans-30" d="M 2034 4250 
Q 1547 4250 1301 3770 
Q 1056 3291 1056 2328 
Q 1056 1369 1301 889 
Q 1547 409 2034 409 
Q 2525 409 2770 889 
Q 3016 1369 3016 2328 
Q 3016 3291 2770 3770 
Q 2525 4250 2034 4250 
z
M 2034 4750 
Q 2819 4750 3233 4129 
Q 3647 3509 3647 2328 
Q 3647 1150 3233 529 
Q 2819 -91 2034 -91 
Q 1250 -91 836 529 
Q 422 1150 422 2328 
Q 422 3509 836 4129 
Q 1250 4750 2034 4750 
z
" transform="scale(0.015625)"/>
       </defs>
       <use xlink:href="#DejaVuSans-30" transform="translate(0 0.78125)"/>
      </g>
     </g>
    </g>
    <g id="xtick_2">
     <g id="line2d_3">
      <path d="M 231.309239 288.647244 
L 231.309239 2.952756 
" clip-path="url(#pe8c6fc85e1)" style="fill: none; stroke: #000000; stroke-opacity: 0.1; stroke-width: 0.5; stroke-linecap: square"/>
     </g>
     <g id="line2d_4">
      <g>
       <use xlink:href="#me15bfcf86c" x="231.309239" y="288.647244" style="stroke: #000000; stroke-width: 0.5"/>
      </g>
     </g>
     <g id="text_2">
      <!-- $250$ -->
      <g transform="translate(208.389239 310.383494)scale(0.24 -0.24)">
       <defs>
        <path id="DejaVuSans-32" d="M 1228 531 
L 3431 531 
L 3431 0 
L 469 0 
L 469 531 
Q 828 903 1448 1529 
Q 2069 2156 2228 2338 
Q 2531 2678 2651 2914 
Q 2772 3150 2772 3378 
Q 2772 3750 2511 3984 
Q 2250 4219 1831 4219 
Q 1534 4219 1204 4116 
Q 875 4013 500 3803 
L 500 4441 
Q 881 4594 1212 4672 
Q 1544 4750 1819 4750 
Q 2544 4750 2975 4387 
Q 3406 4025 3406 3419 
Q 3406 3131 3298 2873 
Q 3191 2616 2906 2266 
Q 2828 2175 2409 1742 
Q 1991 1309 1228 531 
z
" transform="scale(0.015625)"/>
        <path id="DejaVuSans-35" d="M 691 4666 
L 3169 4666 
L 3169 4134 
L 1269 4134 
L 1269 2991 
Q 1406 3038 1543 3061 
Q 1681 3084 1819 3084 
Q 2600 3084 3056 2656 
Q 3513 2228 3513 1497 
Q 3513 744 3044 326 
Q 2575 -91 1722 -91 
Q 1428 -91 1123 -41 
Q 819 9 494 109 
L 494 744 
Q 775 591 1075 516 
Q 1375 441 1709 441 
Q 2250 441 2565 725 
Q 2881 1009 2881 1497 
Q 2881 1984 2565 2268 
Q 2250 2553 1709 2553 
Q 1456 2553 1204 2497 
Q 953 2441 691 2322 
L 691 4666 
z
" transform="scale(0.015625)"/>
       </defs>
       <use xlink:href="#DejaVuSans-32" transform="translate(0 0.78125)"/>
       <use xlink:href="#DejaVuSans-35" transform="translate(63.623047 0.78125)"/>
       <use xlink:href="#DejaVuSans-30" transform="translate(127.246094 0.78125)"/>
      </g>
     </g>
    </g>
    <g id="xtick_3">
     <g id="line2d_5">
      <path d="M 374.264168 288.647244 
L 374.264168 2.952756 
" clip-path="url(#pe8c6fc85e1)" style="fill: none; stroke: #000000; stroke-opacity: 0.1; stroke-width: 0.5; stroke-linecap: square"/>
     </g>
     <g id="line2d_6">
      <g>
       <use xlink:href="#me15bfcf86c" x="374.264168" y="288.647244" style="stroke: #000000; stroke-width: 0.5"/>
      </g>
     </g>
     <g id="text_3">
      <!-- $500$ -->
      <g transform="translate(351.344168 310.383494)scale(0.24 -0.24)">
       <use xlink:href="#DejaVuSans-35" transform="translate(0 0.78125)"/>
       <use xlink:href="#DejaVuSans-30" transform="translate(63.623047 0.78125)"/>
       <use xlink:href="#DejaVuSans-30" transform="translate(127.246094 0.78125)"/>
      </g>
     </g>
    </g>
    <g id="xtick_4">
     <g id="line2d_7">
      <path d="M 517.219096 288.647244 
L 517.219096 2.952756 
" clip-path="url(#pe8c6fc85e1)" style="fill: none; stroke: #000000; stroke-opacity: 0.1; stroke-width: 0.5; stroke-linecap: square"/>
     </g>
     <g id="line2d_8">
      <g>
       <use xlink:href="#me15bfcf86c" x="517.219096" y="288.647244" style="stroke: #000000; stroke-width: 0.5"/>
      </g>
     </g>
     <g id="text_4">
      <!-- $750$ -->
      <g transform="translate(494.299096 310.383494)scale(0.24 -0.24)">
       <defs>
        <path id="DejaVuSans-37" d="M 525 4666 
L 3525 4666 
L 3525 4397 
L 1831 0 
L 1172 0 
L 2766 4134 
L 525 4134 
L 525 4666 
z
" transform="scale(0.015625)"/>
       </defs>
       <use xlink:href="#DejaVuSans-37" transform="translate(0 0.78125)"/>
       <use xlink:href="#DejaVuSans-35" transform="translate(63.623047 0.78125)"/>
       <use xlink:href="#DejaVuSans-30" transform="translate(127.246094 0.78125)"/>
      </g>
     </g>
    </g>
    <g id="xtick_5">
     <g id="line2d_9">
      <path d="M 660.174025 288.647244 
L 660.174025 2.952756 
" clip-path="url(#pe8c6fc85e1)" style="fill: none; stroke: #000000; stroke-opacity: 0.1; stroke-width: 0.5; stroke-linecap: square"/>
     </g>
     <g id="line2d_10">
      <g>
       <use xlink:href="#me15bfcf86c" x="660.174025" y="288.647244" style="stroke: #000000; stroke-width: 0.5"/>
      </g>
     </g>
     <g id="text_5">
      <!-- $1000$ -->
      <g transform="translate(629.574025 310.383494)scale(0.24 -0.24)">
       <defs>
        <path id="DejaVuSans-31" d="M 794 531 
L 1825 531 
L 1825 4091 
L 703 3866 
L 703 4441 
L 1819 4666 
L 2450 4666 
L 2450 531 
L 3481 531 
L 3481 0 
L 794 0 
L 794 531 
z
" transform="scale(0.015625)"/>
       </defs>
       <use xlink:href="#DejaVuSans-31" transform="translate(0 0.78125)"/>
       <use xlink:href="#DejaVuSans-30" transform="translate(63.623047 0.78125)"/>
       <use xlink:href="#DejaVuSans-30" transform="translate(127.246094 0.78125)"/>
       <use xlink:href="#DejaVuSans-30" transform="translate(190.869141 0.78125)"/>
      </g>
     </g>
    </g>
    <g id="text_6">
     <!-- MC steps -->
     <g transform="translate(319.794452 337.610994)scale(0.24 -0.24)">
      <defs>
       <path id="DejaVuSans-4d" d="M 628 4666 
L 1569 4666 
L 2759 1491 
L 3956 4666 
L 4897 4666 
L 4897 0 
L 4281 0 
L 4281 4097 
L 3078 897 
L 2444 897 
L 1241 4097 
L 1241 0 
L 628 0 
L 628 4666 
z
" transform="scale(0.015625)"/>
       <path id="DejaVuSans-43" d="M 4122 4306 
L 4122 3641 
Q 3803 3938 3442 4084 
Q 3081 4231 2675 4231 
Q 1875 4231 1450 3742 
Q 1025 3253 1025 2328 
Q 1025 1406 1450 917 
Q 1875 428 2675 428 
Q 3081 428 3442 575 
Q 3803 722 4122 1019 
L 4122 359 
Q 3791 134 3420 21 
Q 3050 -91 2638 -91 
Q 1578 -91 968 557 
Q 359 1206 359 2328 
Q 359 3453 968 4101 
Q 1578 4750 2638 4750 
Q 3056 4750 3426 4639 
Q 3797 4528 4122 4306 
z
" transform="scale(0.015625)"/>
       <path id="DejaVuSans-20" transform="scale(0.015625)"/>
       <path id="DejaVuSans-73" d="M 2834 3397 
L 2834 2853 
Q 2591 2978 2328 3040 
Q 2066 3103 1784 3103 
Q 1356 3103 1142 2972 
Q 928 2841 928 2578 
Q 928 2378 1081 2264 
Q 1234 2150 1697 2047 
L 1894 2003 
Q 2506 1872 2764 1633 
Q 3022 1394 3022 966 
Q 3022 478 2636 193 
Q 2250 -91 1575 -91 
Q 1294 -91 989 -36 
Q 684 19 347 128 
L 347 722 
Q 666 556 975 473 
Q 1284 391 1588 391 
Q 1994 391 2212 530 
Q 2431 669 2431 922 
Q 2431 1156 2273 1281 
Q 2116 1406 1581 1522 
L 1381 1569 
Q 847 1681 609 1914 
Q 372 2147 372 2553 
Q 372 3047 722 3315 
Q 1072 3584 1716 3584 
Q 2034 3584 2315 3537 
Q 2597 3491 2834 3397 
z
" transform="scale(0.015625)"/>
       <path id="DejaVuSans-74" d="M 1172 4494 
L 1172 3500 
L 2356 3500 
L 2356 3053 
L 1172 3053 
L 1172 1153 
Q 1172 725 1289 603 
Q 1406 481 1766 481 
L 2356 481 
L 2356 0 
L 1766 0 
Q 1100 0 847 248 
Q 594 497 594 1153 
L 594 3053 
L 172 3053 
L 172 3500 
L 594 3500 
L 594 4494 
L 1172 4494 
z
" transform="scale(0.015625)"/>
       <path id="DejaVuSans-65" d="M 3597 1894 
L 3597 1613 
L 953 1613 
Q 991 1019 1311 708 
Q 1631 397 2203 397 
Q 2534 397 2845 478 
Q 3156 559 3463 722 
L 3463 178 
Q 3153 47 2828 -22 
Q 2503 -91 2169 -91 
Q 1331 -91 842 396 
Q 353 884 353 1716 
Q 353 2575 817 3079 
Q 1281 3584 2069 3584 
Q 2775 3584 3186 3129 
Q 3597 2675 3597 1894 
z
M 3022 2063 
Q 3016 2534 2758 2815 
Q 2500 3097 2075 3097 
Q 1594 3097 1305 2825 
Q 1016 2553 972 2059 
L 3022 2063 
z
" transform="scale(0.015625)"/>
       <path id="DejaVuSans-70" d="M 1159 525 
L 1159 -1331 
L 581 -1331 
L 581 3500 
L 1159 3500 
L 1159 2969 
Q 1341 3281 1617 3432 
Q 1894 3584 2278 3584 
Q 2916 3584 3314 3078 
Q 3713 2572 3713 1747 
Q 3713 922 3314 415 
Q 2916 -91 2278 -91 
Q 1894 -91 1617 61 
Q 1341 213 1159 525 
z
M 3116 1747 
Q 3116 2381 2855 2742 
Q 2594 3103 2138 3103 
Q 1681 3103 1420 2742 
Q 1159 2381 1159 1747 
Q 1159 1113 1420 752 
Q 1681 391 2138 391 
Q 2594 391 2855 752 
Q 3116 1113 3116 1747 
z
" transform="scale(0.015625)"/>
      </defs>
      <use xlink:href="#DejaVuSans-4d"/>
      <use xlink:href="#DejaVuSans-43" x="86.279297"/>
      <use xlink:href="#DejaVuSans-20" x="156.103516"/>
      <use xlink:href="#DejaVuSans-73" x="187.890625"/>
      <use xlink:href="#DejaVuSans-74" x="239.990234"/>
      <use xlink:href="#DejaVuSans-65" x="279.199219"/>
      <use xlink:href="#DejaVuSans-70" x="340.722656"/>
      <use xlink:href="#DejaVuSans-73" x="404.199219"/>
     </g>
    </g>
   </g>
   <g id="matplotlib.axis_2">
    <g id="ytick_1">
     <g id="line2d_11">
      <path d="M 71.788693 226.051617 
L 677.311461 226.051617 
" clip-path="url(#pe8c6fc85e1)" style="fill: none; stroke: #000000; stroke-opacity: 0.1; stroke-width: 0.5; stroke-linecap: square"/>
     </g>
     <g id="line2d_12">
      <defs>
       <path id="m350f077d4d" d="M 0 0 
L 2.5 0 
" style="stroke: #000000; stroke-width: 0.5"/>
      </defs>
      <g>
       <use xlink:href="#m350f077d4d" x="71.788693" y="226.051617" style="stroke: #000000; stroke-width: 0.5"/>
      </g>
     </g>
     <g id="text_7">
      <!-- $2.5$ -->
      <g transform="translate(29.888693 235.169742)scale(0.24 -0.24)">
       <defs>
        <path id="DejaVuSans-2e" d="M 684 794 
L 1344 794 
L 1344 0 
L 684 0 
L 684 794 
z
" transform="scale(0.015625)"/>
       </defs>
       <use xlink:href="#DejaVuSans-32" transform="translate(0 0.78125)"/>
       <use xlink:href="#DejaVuSans-2e" transform="translate(63.623047 0.78125)"/>
       <use xlink:href="#DejaVuSans-35" transform="translate(95.410156 0.78125)"/>
      </g>
     </g>
    </g>
    <g id="ytick_2">
     <g id="line2d_13">
      <path d="M 71.788693 161.24501 
L 677.311461 161.24501 
" clip-path="url(#pe8c6fc85e1)" style="fill: none; stroke: #000000; stroke-opacity: 0.1; stroke-width: 0.5; stroke-linecap: square"/>
     </g>
     <g id="line2d_14">
      <g>
       <use xlink:href="#m350f077d4d" x="71.788693" y="161.24501" style="stroke: #000000; stroke-width: 0.5"/>
      </g>
     </g>
     <g id="text_8">
      <!-- $3.0$ -->
      <g transform="translate(29.888693 170.363135)scale(0.24 -0.24)">
       <defs>
        <path id="DejaVuSans-33" d="M 2597 2516 
Q 3050 2419 3304 2112 
Q 3559 1806 3559 1356 
Q 3559 666 3084 287 
Q 2609 -91 1734 -91 
Q 1441 -91 1130 -33 
Q 819 25 488 141 
L 488 750 
Q 750 597 1062 519 
Q 1375 441 1716 441 
Q 2309 441 2620 675 
Q 2931 909 2931 1356 
Q 2931 1769 2642 2001 
Q 2353 2234 1838 2234 
L 1294 2234 
L 1294 2753 
L 1863 2753 
Q 2328 2753 2575 2939 
Q 2822 3125 2822 3475 
Q 2822 3834 2567 4026 
Q 2313 4219 1838 4219 
Q 1578 4219 1281 4162 
Q 984 4106 628 3988 
L 628 4550 
Q 988 4650 1302 4700 
Q 1616 4750 1894 4750 
Q 2613 4750 3031 4423 
Q 3450 4097 3450 3541 
Q 3450 3153 3228 2886 
Q 3006 2619 2597 2516 
z
" transform="scale(0.015625)"/>
       </defs>
       <use xlink:href="#DejaVuSans-33" transform="translate(0 0.78125)"/>
       <use xlink:href="#DejaVuSans-2e" transform="translate(63.623047 0.78125)"/>
       <use xlink:href="#DejaVuSans-30" transform="translate(95.410156 0.78125)"/>
      </g>
     </g>
    </g>
    <g id="ytick_3">
     <g id="line2d_15">
      <path d="M 71.788693 96.438403 
L 677.311461 96.438403 
" clip-path="url(#pe8c6fc85e1)" style="fill: none; stroke: #000000; stroke-opacity: 0.1; stroke-width: 0.5; stroke-linecap: square"/>
     </g>
     <g id="line2d_16">
      <g>
       <use xlink:href="#m350f077d4d" x="71.788693" y="96.438403" style="stroke: #000000; stroke-width: 0.5"/>
      </g>
     </g>
     <g id="text_9">
      <!-- $3.5$ -->
      <g transform="translate(29.888693 105.556528)scale(0.24 -0.24)">
       <use xlink:href="#DejaVuSans-33" transform="translate(0 0.78125)"/>
       <use xlink:href="#DejaVuSans-2e" transform="translate(63.623047 0.78125)"/>
       <use xlink:href="#DejaVuSans-35" transform="translate(95.410156 0.78125)"/>
      </g>
     </g>
    </g>
    <g id="ytick_4">
     <g id="line2d_17">
      <path d="M 71.788693 31.631796 
L 677.311461 31.631796 
" clip-path="url(#pe8c6fc85e1)" style="fill: none; stroke: #000000; stroke-opacity: 0.1; stroke-width: 0.5; stroke-linecap: square"/>
     </g>
     <g id="line2d_18">
      <g>
       <use xlink:href="#m350f077d4d" x="71.788693" y="31.631796" style="stroke: #000000; stroke-width: 0.5"/>
      </g>
     </g>
     <g id="text_10">
      <!-- $4.0$ -->
      <g transform="translate(29.888693 40.749921)scale(0.24 -0.24)">
       <defs>
        <path id="DejaVuSans-34" d="M 2419 4116 
L 825 1625 
L 2419 1625 
L 2419 4116 
z
M 2253 4666 
L 3047 4666 
L 3047 1625 
L 3713 1625 
L 3713 1100 
L 3047 1100 
L 3047 0 
L 2419 0 
L 2419 1100 
L 313 1100 
L 313 1709 
L 2253 4666 
z
" transform="scale(0.015625)"/>
       </defs>
       <use xlink:href="#DejaVuSans-34" transform="translate(0 0.78125)"/>
       <use xlink:href="#DejaVuSans-2e" transform="translate(63.623047 0.78125)"/>
       <use xlink:href="#DejaVuSans-30" transform="translate(95.410156 0.78125)"/>
      </g>
     </g>
    </g>
    <g id="text_11">
     <!-- MC value -->
     <g transform="translate(20.897443 201.125625)rotate(-90)scale(0.24 -0.24)">
      <defs>
       <path id="DejaVuSans-76" d="M 191 3500 
L 800 3500 
L 1894 563 
L 2988 3500 
L 3597 3500 
L 2284 0 
L 1503 0 
L 191 3500 
z
" transform="scale(0.015625)"/>
       <path id="DejaVuSans-61" d="M 2194 1759 
Q 1497 1759 1228 1600 
Q 959 1441 959 1056 
Q 959 750 1161 570 
Q 1363 391 1709 391 
Q 2188 391 2477 730 
Q 2766 1069 2766 1631 
L 2766 1759 
L 2194 1759 
z
M 3341 1997 
L 3341 0 
L 2766 0 
L 2766 531 
Q 2569 213 2275 61 
Q 1981 -91 1556 -91 
Q 1019 -91 701 211 
Q 384 513 384 1019 
Q 384 1609 779 1909 
Q 1175 2209 1959 2209 
L 2766 2209 
L 2766 2266 
Q 2766 2663 2505 2880 
Q 2244 3097 1772 3097 
Q 1472 3097 1187 3025 
Q 903 2953 641 2809 
L 641 3341 
Q 956 3463 1253 3523 
Q 1550 3584 1831 3584 
Q 2591 3584 2966 3190 
Q 3341 2797 3341 1997 
z
" transform="scale(0.015625)"/>
       <path id="DejaVuSans-6c" d="M 603 4863 
L 1178 4863 
L 1178 0 
L 603 0 
L 603 4863 
z
" transform="scale(0.015625)"/>
       <path id="DejaVuSans-75" d="M 544 1381 
L 544 3500 
L 1119 3500 
L 1119 1403 
Q 1119 906 1312 657 
Q 1506 409 1894 409 
Q 2359 409 2629 706 
Q 2900 1003 2900 1516 
L 2900 3500 
L 3475 3500 
L 3475 0 
L 2900 0 
L 2900 538 
Q 2691 219 2414 64 
Q 2138 -91 1772 -91 
Q 1169 -91 856 284 
Q 544 659 544 1381 
z
M 1991 3584 
L 1991 3584 
z
" transform="scale(0.015625)"/>
      </defs>
      <use xlink:href="#DejaVuSans-4d"/>
      <use xlink:href="#DejaVuSans-43" x="86.279297"/>
      <use xlink:href="#DejaVuSans-20" x="156.103516"/>
      <use xlink:href="#DejaVuSans-76" x="187.890625"/>
      <use xlink:href="#DejaVuSans-61" x="247.070312"/>
      <use xlink:href="#DejaVuSans-6c" x="308.349609"/>
      <use xlink:href="#DejaVuSans-75" x="336.132812"/>
      <use xlink:href="#DejaVuSans-65" x="399.511719"/>
     </g>
    </g>
   </g>
   <g id="line2d_19">
    <path d="M 88.92613 11.038449 
L 89.49795 280.561551 
L 90.06977 190.720517 
L 90.641589 145.8 
L 91.213409 118.84769 
L 91.785229 100.879483 
L 92.357049 165.05165 
L 92.928868 213.180776 
L 93.500688 250.61454 
L 94.644327 207.05525 
L 95.787967 176.898819 
L 96.931606 154.784103 
L 98.075246 201.29005 
L 99.218885 181.263566 
L 100.362525 165.05165 
L 101.506164 151.659198 
L 102.649803 140.409538 
L 103.793443 170.755843 
L 104.365263 184.3033 
L 104.937082 178.32865 
L 105.508902 190.720517 
L 106.080722 184.924321 
L 106.652541 196.335582 
L 107.796181 185.43575 
L 109.51164 215.001878 
L 111.227099 199.70462 
L 111.798919 208.250475 
L 112.370739 203.55495 
L 112.942558 211.613781 
L 114.658017 198.532781 
L 116.373477 187.053536 
L 117.517116 180.150984 
L 118.088936 187.265093 
L 118.660755 183.940062 
L 120.376215 203.55495 
L 120.948034 200.177468 
L 122.091674 212.038728 
L 123.235313 205.448555 
L 124.378953 216.389384 
L 124.950772 213.180776 
L 125.522592 218.363912 
L 126.666231 212.175092 
L 128.95351 231.212251 
L 129.52533 228.154281 
L 130.09715 232.564286 
L 131.240789 226.656931 
L 132.956248 239.096458 
L 134.099888 233.395008 
L 134.671707 237.304757 
L 135.243527 234.545412 
L 135.815347 238.347089 
L 136.958986 232.998651 
L 138.674445 243.808401 
L 140.961724 233.687968 
L 141.533544 237.090083 
L 142.105364 234.685278 
L 142.677183 238.005272 
L 144.392642 231.057308 
L 144.964462 234.279806 
L 147.823561 223.547049 
L 148.9672 229.708136 
L 150.11084 225.658697 
L 150.682659 228.635082 
L 151.826299 224.714422 
L 152.398118 227.619513 
L 154.113578 221.969572 
L 154.685397 224.798151 
L 157.544496 215.965105 
L 160.403594 229.223817 
L 162.690873 222.510421 
L 163.834513 227.473667 
L 164.406332 225.846335 
L 166.121792 232.998651 
L 166.693611 231.378503 
L 167.265431 233.687968 
L 167.837251 232.086173 
L 168.40907 234.357591 
L 170.696349 228.154281 
L 171.268169 230.374491 
L 171.839989 228.872189 
L 172.411808 231.057308 
L 175.842727 222.429117 
L 176.986366 219.701496 
L 178.701825 225.974594 
L 182.132744 218.111076 
L 184.420022 213.180776 
L 185.563662 217.144351 
L 187.279121 213.57026 
L 187.850941 215.504251 
L 189.5664 212.038728 
L 190.13822 213.937863 
L 190.710039 212.804347 
L 191.281859 214.678126 
L 191.853679 213.553045 
L 193.569138 219.039973 
L 194.712777 216.803398 
L 195.284597 218.585651 
L 196.428236 216.389384 
L 199.859155 226.656931 
L 200.430974 228.307072 
L 201.002794 227.204186 
L 202.146434 230.449215 
L 202.718253 229.352162 
L 203.290073 230.947846 
L 205.005532 227.713884 
L 206.720991 232.385924 
L 207.292811 231.321754 
L 207.864631 232.846935 
L 208.43645 231.790704 
L 209.58009 234.793477 
L 210.15191 233.742984 
L 210.723729 235.221216 
L 211.295549 234.178506 
L 211.867369 235.641034 
L 212.439188 234.605999 
L 213.582828 237.487083 
L 214.726467 235.437774 
L 215.298287 236.855102 
L 215.870107 235.842471 
L 216.441926 237.245338 
L 217.585566 235.243507 
L 218.157386 236.630473 
L 219.301025 234.660237 
L 219.872845 236.031647 
L 221.016484 234.092051 
L 221.588304 235.448242 
L 223.875583 231.660735 
L 224.447402 232.998651 
L 227.306501 228.431568 
L 227.878321 229.749819 
L 229.02196 227.971677 
L 230.1656 230.569363 
L 231.309239 228.813115 
L 232.452878 231.36289 
L 233.024698 230.492042 
L 234.168338 232.998651 
L 237.027436 228.730185 
L 239.314715 233.599192 
L 241.030174 231.09851 
L 241.601994 232.288757 
L 244.461092 228.236553 
L 245.032912 229.411181 
L 246.176552 227.82877 
L 248.46383 232.432426 
L 249.03565 231.644547 
L 249.60747 232.773767 
L 250.751109 231.212251 
L 251.322929 232.331101 
L 251.894749 231.557351 
L 253.038388 233.769346 
L 254.182028 232.233271 
L 254.753847 233.325543 
L 255.325667 232.564286 
L 256.469306 234.724289 
L 257.041126 233.966032 
L 257.612946 235.034 
L 258.184766 234.279806 
L 259.328405 236.392213 
L 259.900225 235.641034 
L 260.472044 236.685697 
L 262.759323 233.726389 
L 263.902963 235.787355 
L 266.190242 232.896694 
L 266.762061 233.913322 
L 267.333881 233.201262 
L 268.47752 235.21322 
L 270.764799 232.402251 
L 271.336619 233.395008 
L 271.908439 232.702309 
L 272.480258 233.687968 
L 273.623898 232.313588 
L 274.195718 233.291345 
L 274.767537 232.609588 
L 275.339357 233.58046 
L 278.198456 230.228924 
L 278.770275 231.189451 
L 281.629374 227.93278 
L 283.344833 230.76696 
L 286.775751 226.96762 
L 287.347571 227.896117 
L 290.778489 224.220564 
L 291.350309 225.138491 
L 292.493948 223.939051 
L 294.209408 226.656931 
L 294.781227 226.05965 
L 295.353047 226.954746 
L 297.640326 224.595005 
L 298.783965 226.363971 
L 299.927605 225.200049 
L 300.499424 226.075749 
L 301.071244 225.497691 
L 301.643064 226.367898 
L 303.358523 224.649844 
L 303.930343 225.513066 
L 304.502162 224.945673 
L 305.073982 225.803559 
L 308.5049 222.456571 
L 309.07672 223.305348 
L 311.363999 221.128252 
L 311.935819 221.969572 
L 312.507638 221.431483 
L 313.079458 222.26775 
L 313.651278 221.731635 
L 314.223098 222.562909 
L 314.794917 222.028756 
L 315.366737 222.855093 
L 315.938557 222.322891 
L 316.510376 223.144349 
L 317.654016 222.086464 
L 318.225836 222.90238 
L 319.941295 221.333017 
L 321.084934 222.948505 
L 321.656754 222.429117 
L 322.228574 223.230231 
L 322.800393 222.71269 
L 323.944033 224.301874 
L 324.515852 223.785498 
L 325.659492 225.358024 
L 326.803131 224.330112 
L 328.51859 226.656931 
L 329.09041 226.144773 
L 330.23405 227.676403 
L 331.377689 226.656931 
L 332.521328 228.171815 
L 334.236788 226.656931 
L 335.380427 228.154281 
L 337.095886 226.656931 
L 338.239526 228.137149 
L 339.383165 227.148089 
L 339.954985 227.882036 
L 340.526804 227.390327 
L 341.098624 228.120404 
L 342.814083 226.656931 
L 343.385903 227.382105 
L 343.957723 226.898115 
L 345.673182 229.052692 
L 346.245002 228.56929 
L 347.960461 230.693841 
L 353.106838 226.424081 
L 354.822297 228.507733 
L 358.253216 225.743293 
L 359.396855 227.111822 
L 360.540494 226.203951 
L 361.112314 226.882946 
L 363.971413 224.643895 
L 366.258692 227.32242 
L 368.54597 225.556836 
L 369.11779 226.217789 
L 370.26143 225.344851 
L 370.833249 226.002219 
L 371.976889 225.135429 
L 372.548708 225.789251 
L 373.692348 224.928526 
L 374.264168 225.578838 
L 377.695086 223.034881 
L 379.982365 225.599977 
L 380.554184 225.180092 
L 381.126004 225.814671 
L 383.413283 224.149739 
L 385.128742 226.033756 
L 385.700562 225.620303 
L 386.272382 226.243076 
L 387.416021 225.420113 
L 388.55966 226.656931 
L 391.418759 224.622794 
L 391.990579 225.235717 
L 393.706038 224.032361 
L 394.277858 224.641805 
L 394.849677 224.243291 
L 395.421497 224.850072 
L 395.993317 224.452652 
L 397.136956 225.658697 
L 397.708776 225.261987 
L 398.280596 225.86129 
L 399.996055 224.678779 
L 401.711514 226.460198 
L 402.855153 225.676847 
L 403.426973 226.265609 
L 409.71699 222.052977 
L 410.28881 222.635627 
L 411.432449 221.88661 
L 412.004269 222.466465 
L 413.147908 221.722001 
L 413.719728 222.299088 
L 414.291548 221.928455 
L 415.435187 223.075854 
L 416.007007 222.705807 
L 416.578826 223.276153 
L 417.150646 222.907044 
L 417.722466 223.475061 
L 418.294286 223.106886 
L 418.866105 223.672592 
L 419.437925 223.305348 
L 420.009745 223.868761 
L 420.581564 223.502443 
L 424.012483 226.840592 
L 426.299762 225.380002 
L 428.58704 227.562891 
L 429.15886 227.199595 
L 429.73068 227.740441 
L 430.3025 227.378063 
L 430.874319 227.916805 
L 436.020697 224.706434 
L 438.307976 226.83309 
L 440.595254 225.431826 
L 441.167074 225.958005 
L 441.738894 225.610239 
L 444.597992 228.214367 
L 445.741632 227.519405 
L 446.313451 228.034684 
L 446.885271 227.688598 
L 447.457091 228.201968 
L 448.60073 227.51256 
L 449.74437 228.533357 
L 451.459829 227.505822 
L 452.031649 228.013022 
L 453.747108 226.994362 
L 455.462567 228.504129 
L 456.034387 228.165925 
L 456.606206 228.665798 
L 457.178026 228.328392 
L 457.749846 228.826466 
L 458.893485 228.154281 
L 459.465305 228.650322 
L 461.180764 227.64904 
L 462.896223 229.125845 
L 464.039863 228.461956 
L 465.183502 229.438049 
L 468.042601 227.793474 
L 469.75806 229.243059 
L 470.901699 228.590729 
L 471.473519 229.07057 
L 475.476257 226.816176 
L 476.619896 227.768366 
L 478.907175 226.499084 
L 479.478995 226.972162 
L 480.050815 226.656931 
L 481.194454 227.598496 
L 485.769012 225.105719 
L 486.340831 225.572642 
L 486.912651 225.264846 
L 487.484471 225.730204 
L 488.056291 225.423062 
L 488.62811 225.886865 
L 489.19993 225.580376 
L 489.77175 226.042633 
L 491.487209 225.127722 
L 492.059029 225.588 
L 493.202668 224.981928 
L 493.774488 225.440465 
L 497.205406 223.641288 
L 497.777226 224.097214 
L 499.492685 223.208234 
L 500.064505 223.662229 
L 501.779964 222.779973 
L 502.351783 223.232051 
L 503.495423 222.647496 
L 504.639062 223.547049 
L 507.498161 222.097468 
L 508.6418 222.98995 
L 509.78544 222.414776 
L 510.357259 222.858773 
L 510.929079 222.572142 
L 511.500899 223.014727 
L 516.075457 220.747601 
L 516.647276 221.187303 
L 517.790916 220.627652 
L 518.362735 221.06576 
L 519.506375 220.508658 
L 520.078195 220.945183 
L 521.793654 220.114417 
L 523.509113 221.41522 
L 525.796392 220.315211 
L 526.940031 221.175105 
L 529.22731 220.084902 
L 529.79913 220.512362 
L 531.514589 219.701496 
L 532.658228 220.551903 
L 534.373687 219.746082 
L 535.517327 220.590938 
L 536.660966 220.056365 
L 537.232786 220.476783 
L 538.376425 219.944538 
L 538.948245 220.363498 
L 540.663704 219.569597 
L 542.379163 220.818395 
L 542.950983 220.554521 
L 544.094623 221.381447 
L 546.953721 220.070082 
L 547.525541 220.481059 
L 548.097361 220.220558 
L 550.384639 221.853549 
L 551.528279 221.333017 
L 552.100099 221.738383 
L 554.387377 220.704273 
L 555.531017 221.51059 
L 557.246476 220.74057 
L 557.818296 221.14172 
L 559.533755 220.376781 
L 560.105575 220.776427 
L 561.821034 220.016506 
L 562.392853 220.414659 
L 563.536493 219.910745 
L 565.251952 221.098421 
L 573.257428 217.630449 
L 573.829248 218.022033 
L 574.401067 217.778523 
L 575.544707 218.558584 
L 577.831986 217.588864 
L 578.403805 217.97684 
L 579.547445 217.495028 
L 580.119265 217.88176 
L 581.262904 217.401845 
L 581.834724 217.787341 
L 584.122003 216.833482 
L 584.693822 217.217412 
L 592.127479 214.175043 
L 593.842938 215.315008 
L 594.414757 215.084187 
L 594.986577 215.462292 
L 595.558397 215.231825 
L 596.130217 215.608912 
L 597.273856 215.149203 
L 597.845676 215.525112 
L 598.417495 215.295867 
L 598.989315 215.670771 
L 599.561135 215.441875 
L 600.704774 216.188846 
L 602.420233 215.504251 
L 603.563873 216.246937 
L 604.135693 216.019433 
L 604.707512 216.389384 
L 606.994791 215.483757 
L 607.566611 215.85226 
L 609.28207 215.177791 
L 609.85389 215.545013 
L 611.569349 214.8745 
L 613.856628 216.333521 
L 615.000267 215.887712 
L 616.143907 216.611866 
L 617.287546 216.167383 
L 618.431185 216.887808 
L 619.003005 216.665988 
L 619.574825 217.024889 
L 620.146645 216.803398 
L 620.718464 217.16138 
L 621.862104 216.71953 
L 623.005743 217.432611 
L 626.436661 216.116601 
L 627.008481 216.471132 
L 628.152121 216.035893 
L 628.72394 216.389384 
L 629.29576 216.172311 
L 630.439399 216.876767 
L 631.011219 216.659867 
L 631.583039 217.010841 
L 632.154859 216.794256 
L 632.726678 217.144351 
L 633.298498 216.92808 
L 633.870318 217.277301 
L 636.157597 216.416178 
L 637.301236 217.111321 
L 637.873056 216.896885 
L 638.444875 217.243234 
L 639.016695 217.029106 
L 640.160335 217.719377 
L 640.732154 217.505422 
L 641.303974 217.84935 
L 641.875794 217.635703 
L 642.447613 217.978787 
L 643.591253 217.552546 
L 644.734892 218.236065 
L 645.306712 218.023336 
L 645.878532 218.363912 
L 649.88127 216.886032 
L 650.453089 217.224993 
L 651.024909 217.015454 
L 651.596729 217.353595 
L 652.168549 217.144351 
L 653.312188 217.818319 
L 653.884008 217.609239 
L 654.455827 217.945073 
L 656.171287 217.319977 
L 657.314926 217.988851 
L 659.030385 217.366756 
L 660.174025 218.032191 
L 660.174025 218.032191 
" clip-path="url(#pe8c6fc85e1)" style="fill: none; stroke: #009afa; stroke-width: 3"/>
   </g>
   <g id="line2d_20">
    <path d="M -1 220.196024 
L 692.2 220.196024 
" clip-path="url(#pe8c6fc85e1)" style="fill: none; stroke: #e36f47; stroke-width: 2"/>
   </g>
   <g id="patch_3">
    <path d="M 71.788693 288.647244 
L 71.788693 2.952756 
" style="fill: none; stroke: #000000; stroke-linejoin: miter; stroke-linecap: square"/>
   </g>
   <g id="patch_4">
    <path d="M 71.788693 288.647244 
L 677.311461 288.647244 
" style="fill: none; stroke: #000000; stroke-linejoin: miter; stroke-linecap: square"/>
   </g>
   <g id="legend_1">
    <g id="patch_5">
     <path d="M 490.996461 75.522756 
L 669.311461 75.522756 
L 669.311461 10.952756 
L 490.996461 10.952756 
z
" style="fill: #ffffff; stroke: #000000; stroke-linejoin: miter"/>
    </g>
    <g id="line2d_21">
     <path d="M 503.796461 30.310256 
L 519.796461 30.310256 
L 535.796461 30.310256 
" style="fill: none; stroke: #009afa; stroke-width: 2; stroke-linejoin: miter"/>
    </g>
    <g id="text_12">
     <!-- MC trajectory -->
     <g transform="translate(548.596461 35.910256)scale(0.16 -0.16)">
      <defs>
       <path id="DejaVuSans-72" d="M 2631 2963 
Q 2534 3019 2420 3045 
Q 2306 3072 2169 3072 
Q 1681 3072 1420 2755 
Q 1159 2438 1159 1844 
L 1159 0 
L 581 0 
L 581 3500 
L 1159 3500 
L 1159 2956 
Q 1341 3275 1631 3429 
Q 1922 3584 2338 3584 
Q 2397 3584 2469 3576 
Q 2541 3569 2628 3553 
L 2631 2963 
z
" transform="scale(0.015625)"/>
       <path id="DejaVuSans-6a" d="M 603 3500 
L 1178 3500 
L 1178 -63 
Q 1178 -731 923 -1031 
Q 669 -1331 103 -1331 
L -116 -1331 
L -116 -844 
L 38 -844 
Q 366 -844 484 -692 
Q 603 -541 603 -63 
L 603 3500 
z
M 603 4863 
L 1178 4863 
L 1178 4134 
L 603 4134 
L 603 4863 
z
" transform="scale(0.015625)"/>
       <path id="DejaVuSans-63" d="M 3122 3366 
L 3122 2828 
Q 2878 2963 2633 3030 
Q 2388 3097 2138 3097 
Q 1578 3097 1268 2742 
Q 959 2388 959 1747 
Q 959 1106 1268 751 
Q 1578 397 2138 397 
Q 2388 397 2633 464 
Q 2878 531 3122 666 
L 3122 134 
Q 2881 22 2623 -34 
Q 2366 -91 2075 -91 
Q 1284 -91 818 406 
Q 353 903 353 1747 
Q 353 2603 823 3093 
Q 1294 3584 2113 3584 
Q 2378 3584 2631 3529 
Q 2884 3475 3122 3366 
z
" transform="scale(0.015625)"/>
       <path id="DejaVuSans-6f" d="M 1959 3097 
Q 1497 3097 1228 2736 
Q 959 2375 959 1747 
Q 959 1119 1226 758 
Q 1494 397 1959 397 
Q 2419 397 2687 759 
Q 2956 1122 2956 1747 
Q 2956 2369 2687 2733 
Q 2419 3097 1959 3097 
z
M 1959 3584 
Q 2709 3584 3137 3096 
Q 3566 2609 3566 1747 
Q 3566 888 3137 398 
Q 2709 -91 1959 -91 
Q 1206 -91 779 398 
Q 353 888 353 1747 
Q 353 2609 779 3096 
Q 1206 3584 1959 3584 
z
" transform="scale(0.015625)"/>
       <path id="DejaVuSans-79" d="M 2059 -325 
Q 1816 -950 1584 -1140 
Q 1353 -1331 966 -1331 
L 506 -1331 
L 506 -850 
L 844 -850 
Q 1081 -850 1212 -737 
Q 1344 -625 1503 -206 
L 1606 56 
L 191 3500 
L 800 3500 
L 1894 763 
L 2988 3500 
L 3597 3500 
L 2059 -325 
z
" transform="scale(0.015625)"/>
      </defs>
      <use xlink:href="#DejaVuSans-4d"/>
      <use xlink:href="#DejaVuSans-43" x="86.279297"/>
      <use xlink:href="#DejaVuSans-20" x="156.103516"/>
      <use xlink:href="#DejaVuSans-74" x="187.890625"/>
      <use xlink:href="#DejaVuSans-72" x="227.099609"/>
      <use xlink:href="#DejaVuSans-61" x="268.212891"/>
      <use xlink:href="#DejaVuSans-6a" x="329.492188"/>
      <use xlink:href="#DejaVuSans-65" x="357.275391"/>
      <use xlink:href="#DejaVuSans-63" x="418.798828"/>
      <use xlink:href="#DejaVuSans-74" x="473.779297"/>
      <use xlink:href="#DejaVuSans-6f" x="512.988281"/>
      <use xlink:href="#DejaVuSans-72" x="574.169922"/>
      <use xlink:href="#DejaVuSans-79" x="615.283203"/>
     </g>
    </g>
    <g id="line2d_22">
     <path d="M 503.796461 53.795256 
L 519.796461 53.795256 
L 535.796461 53.795256 
" style="fill: none; stroke: #e36f47; stroke-width: 2; stroke-linejoin: miter"/>
    </g>
    <g id="text_13">
     <!-- Analytical -->
     <g transform="translate(548.596461 59.395256)scale(0.16 -0.16)">
      <defs>
       <path id="DejaVuSans-41" d="M 2188 4044 
L 1331 1722 
L 3047 1722 
L 2188 4044 
z
M 1831 4666 
L 2547 4666 
L 4325 0 
L 3669 0 
L 3244 1197 
L 1141 1197 
L 716 0 
L 50 0 
L 1831 4666 
z
" transform="scale(0.015625)"/>
       <path id="DejaVuSans-6e" d="M 3513 2113 
L 3513 0 
L 2938 0 
L 2938 2094 
Q 2938 2591 2744 2837 
Q 2550 3084 2163 3084 
Q 1697 3084 1428 2787 
Q 1159 2491 1159 1978 
L 1159 0 
L 581 0 
L 581 3500 
L 1159 3500 
L 1159 2956 
Q 1366 3272 1645 3428 
Q 1925 3584 2291 3584 
Q 2894 3584 3203 3211 
Q 3513 2838 3513 2113 
z
" transform="scale(0.015625)"/>
       <path id="DejaVuSans-69" d="M 603 3500 
L 1178 3500 
L 1178 0 
L 603 0 
L 603 3500 
z
M 603 4863 
L 1178 4863 
L 1178 4134 
L 603 4134 
L 603 4863 
z
" transform="scale(0.015625)"/>
      </defs>
      <use xlink:href="#DejaVuSans-41"/>
      <use xlink:href="#DejaVuSans-6e" x="68.408203"/>
      <use xlink:href="#DejaVuSans-61" x="131.787109"/>
      <use xlink:href="#DejaVuSans-6c" x="193.066406"/>
      <use xlink:href="#DejaVuSans-79" x="220.849609"/>
      <use xlink:href="#DejaVuSans-74" x="280.029297"/>
      <use xlink:href="#DejaVuSans-69" x="319.238281"/>
      <use xlink:href="#DejaVuSans-63" x="347.021484"/>
      <use xlink:href="#DejaVuSans-61" x="402.001953"/>
      <use xlink:href="#DejaVuSans-6c" x="463.28125"/>
     </g>
    </g>
   </g>
  </g>
 </g>
 <defs>
  <clipPath id="pe8c6fc85e1">
   <rect x="71.788693" y="2.952756" width="605.522768" height="285.694488"/>
  </clipPath>
 </defs>
</svg>
