<?xml version="1.0" encoding="utf-8" standalone="no"?>
<!DOCTYPE svg PUBLIC "-//W3C//DTD SVG 1.1//EN"
  "http://www.w3.org/Graphics/SVG/1.1/DTD/svg11.dtd">
<svg xmlns:xlink="http://www.w3.org/1999/xlink" width="691.2pt" height="345.6pt" viewBox="0 0 691.2 345.6" xmlns="http://www.w3.org/2000/svg" version="1.1">
 <metadata>
  <rdf:RDF xmlns:dc="http://purl.org/dc/elements/1.1/" xmlns:cc="http://creativecommons.org/ns#" xmlns:rdf="http://www.w3.org/1999/02/22-rdf-syntax-ns#">
   <cc:Work>
    <dc:type rdf:resource="http://purl.org/dc/dcmitype/StillImage"/>
    <dc:date>2022-09-19T21:50:32.062834</dc:date>
    <dc:format>image/svg+xml</dc:format>
    <dc:creator>
     <cc:Agent>
      <dc:title>Matplotlib v3.5.2, https://matplotlib.org/</dc:title>
     </cc:Agent>
    </dc:creator>
   </cc:Work>
  </rdf:RDF>
 </metadata>
 <defs>
  <style type="text/css">*{stroke-linejoin: round; stroke-linecap: butt}</style>
 </defs>
 <g id="figure_1">
  <g id="patch_1">
   <path d="M 0 345.6 
L 691.2 345.6 
L 691.2 0 
L 0 0 
z
" style="fill: #ffffff"/>
  </g>
  <g id="axes_1">
   <g id="patch_2">
    <path d="M 71.788693 288.647244 
L 677.311461 288.647244 
L 677.311461 2.952756 
L 71.788693 2.952756 
z
" style="fill: #ffffff"/>
   </g>
   <g id="matplotlib.axis_1">
    <g id="xtick_1">
     <g id="line2d_1">
      <path d="M 88.354311 288.647244 
L 88.354311 2.952756 
" clip-path="url(#p60156ba295)" style="fill: none; stroke: #000000; stroke-opacity: 0.1; stroke-width: 0.5; stroke-linecap: square"/>
     </g>
     <g id="line2d_2">
      <defs>
       <path id="m8206eb8836" d="M 0 0 
L 0 -2.5 
" style="stroke: #000000; stroke-width: 0.5"/>
      </defs>
      <g>
       <use xlink:href="#m8206eb8836" x="88.354311" y="288.647244" style="stroke: #000000; stroke-width: 0.5"/>
      </g>
     </g>
     <g id="text_1">
      <!-- $0$ -->
      <g transform="translate(80.674311 310.383494)scale(0.24 -0.24)">
       <defs>
        <path id="DejaVuSans-30" d="M 2034 4250 
Q 1547 4250 1301 3770 
Q 1056 3291 1056 2328 
Q 1056 1369 1301 889 
Q 1547 409 2034 409 
Q 2525 409 2770 889 
Q 3016 1369 3016 2328 
Q 3016 3291 2770 3770 
Q 2525 4250 2034 4250 
z
M 2034 4750 
Q 2819 4750 3233 4129 
Q 3647 3509 3647 2328 
Q 3647 1150 3233 529 
Q 2819 -91 2034 -91 
Q 1250 -91 836 529 
Q 422 1150 422 2328 
Q 422 3509 836 4129 
Q 1250 4750 2034 4750 
z
" transform="scale(0.015625)"/>
       </defs>
       <use xlink:href="#DejaVuSans-30" transform="translate(0 0.78125)"/>
      </g>
     </g>
    </g>
    <g id="xtick_2">
     <g id="line2d_3">
      <path d="M 231.309239 288.647244 
L 231.309239 2.952756 
" clip-path="url(#p60156ba295)" style="fill: none; stroke: #000000; stroke-opacity: 0.1; stroke-width: 0.5; stroke-linecap: square"/>
     </g>
     <g id="line2d_4">
      <g>
       <use xlink:href="#m8206eb8836" x="231.309239" y="288.647244" style="stroke: #000000; stroke-width: 0.5"/>
      </g>
     </g>
     <g id="text_2">
      <!-- $250$ -->
      <g transform="translate(208.389239 310.383494)scale(0.24 -0.24)">
       <defs>
        <path id="DejaVuSans-32" d="M 1228 531 
L 3431 531 
L 3431 0 
L 469 0 
L 469 531 
Q 828 903 1448 1529 
Q 2069 2156 2228 2338 
Q 2531 2678 2651 2914 
Q 2772 3150 2772 3378 
Q 2772 3750 2511 3984 
Q 2250 4219 1831 4219 
Q 1534 4219 1204 4116 
Q 875 4013 500 3803 
L 500 4441 
Q 881 4594 1212 4672 
Q 1544 4750 1819 4750 
Q 2544 4750 2975 4387 
Q 3406 4025 3406 3419 
Q 3406 3131 3298 2873 
Q 3191 2616 2906 2266 
Q 2828 2175 2409 1742 
Q 1991 1309 1228 531 
z
" transform="scale(0.015625)"/>
        <path id="DejaVuSans-35" d="M 691 4666 
L 3169 4666 
L 3169 4134 
L 1269 4134 
L 1269 2991 
Q 1406 3038 1543 3061 
Q 1681 3084 1819 3084 
Q 2600 3084 3056 2656 
Q 3513 2228 3513 1497 
Q 3513 744 3044 326 
Q 2575 -91 1722 -91 
Q 1428 -91 1123 -41 
Q 819 9 494 109 
L 494 744 
Q 775 591 1075 516 
Q 1375 441 1709 441 
Q 2250 441 2565 725 
Q 2881 1009 2881 1497 
Q 2881 1984 2565 2268 
Q 2250 2553 1709 2553 
Q 1456 2553 1204 2497 
Q 953 2441 691 2322 
L 691 4666 
z
" transform="scale(0.015625)"/>
       </defs>
       <use xlink:href="#DejaVuSans-32" transform="translate(0 0.78125)"/>
       <use xlink:href="#DejaVuSans-35" transform="translate(63.623047 0.78125)"/>
       <use xlink:href="#DejaVuSans-30" transform="translate(127.246094 0.78125)"/>
      </g>
     </g>
    </g>
    <g id="xtick_3">
     <g id="line2d_5">
      <path d="M 374.264168 288.647244 
L 374.264168 2.952756 
" clip-path="url(#p60156ba295)" style="fill: none; stroke: #000000; stroke-opacity: 0.1; stroke-width: 0.5; stroke-linecap: square"/>
     </g>
     <g id="line2d_6">
      <g>
       <use xlink:href="#m8206eb8836" x="374.264168" y="288.647244" style="stroke: #000000; stroke-width: 0.5"/>
      </g>
     </g>
     <g id="text_3">
      <!-- $500$ -->
      <g transform="translate(351.344168 310.383494)scale(0.24 -0.24)">
       <use xlink:href="#DejaVuSans-35" transform="translate(0 0.78125)"/>
       <use xlink:href="#DejaVuSans-30" transform="translate(63.623047 0.78125)"/>
       <use xlink:href="#DejaVuSans-30" transform="translate(127.246094 0.78125)"/>
      </g>
     </g>
    </g>
    <g id="xtick_4">
     <g id="line2d_7">
      <path d="M 517.219096 288.647244 
L 517.219096 2.952756 
" clip-path="url(#p60156ba295)" style="fill: none; stroke: #000000; stroke-opacity: 0.1; stroke-width: 0.5; stroke-linecap: square"/>
     </g>
     <g id="line2d_8">
      <g>
       <use xlink:href="#m8206eb8836" x="517.219096" y="288.647244" style="stroke: #000000; stroke-width: 0.5"/>
      </g>
     </g>
     <g id="text_4">
      <!-- $750$ -->
      <g transform="translate(494.299096 310.383494)scale(0.24 -0.24)">
       <defs>
        <path id="DejaVuSans-37" d="M 525 4666 
L 3525 4666 
L 3525 4397 
L 1831 0 
L 1172 0 
L 2766 4134 
L 525 4134 
L 525 4666 
z
" transform="scale(0.015625)"/>
       </defs>
       <use xlink:href="#DejaVuSans-37" transform="translate(0 0.78125)"/>
       <use xlink:href="#DejaVuSans-35" transform="translate(63.623047 0.78125)"/>
       <use xlink:href="#DejaVuSans-30" transform="translate(127.246094 0.78125)"/>
      </g>
     </g>
    </g>
    <g id="xtick_5">
     <g id="line2d_9">
      <path d="M 660.174025 288.647244 
L 660.174025 2.952756 
" clip-path="url(#p60156ba295)" style="fill: none; stroke: #000000; stroke-opacity: 0.1; stroke-width: 0.5; stroke-linecap: square"/>
     </g>
     <g id="line2d_10">
      <g>
       <use xlink:href="#m8206eb8836" x="660.174025" y="288.647244" style="stroke: #000000; stroke-width: 0.5"/>
      </g>
     </g>
     <g id="text_5">
      <!-- $1000$ -->
      <g transform="translate(629.574025 310.383494)scale(0.24 -0.24)">
       <defs>
        <path id="DejaVuSans-31" d="M 794 531 
L 1825 531 
L 1825 4091 
L 703 3866 
L 703 4441 
L 1819 4666 
L 2450 4666 
L 2450 531 
L 3481 531 
L 3481 0 
L 794 0 
L 794 531 
z
" transform="scale(0.015625)"/>
       </defs>
       <use xlink:href="#DejaVuSans-31" transform="translate(0 0.78125)"/>
       <use xlink:href="#DejaVuSans-30" transform="translate(63.623047 0.78125)"/>
       <use xlink:href="#DejaVuSans-30" transform="translate(127.246094 0.78125)"/>
       <use xlink:href="#DejaVuSans-30" transform="translate(190.869141 0.78125)"/>
      </g>
     </g>
    </g>
    <g id="text_6">
     <!-- MC steps -->
     <g transform="translate(319.794452 337.610994)scale(0.24 -0.24)">
      <defs>
       <path id="DejaVuSans-4d" d="M 628 4666 
L 1569 4666 
L 2759 1491 
L 3956 4666 
L 4897 4666 
L 4897 0 
L 4281 0 
L 4281 4097 
L 3078 897 
L 2444 897 
L 1241 4097 
L 1241 0 
L 628 0 
L 628 4666 
z
" transform="scale(0.015625)"/>
       <path id="DejaVuSans-43" d="M 4122 4306 
L 4122 3641 
Q 3803 3938 3442 4084 
Q 3081 4231 2675 4231 
Q 1875 4231 1450 3742 
Q 1025 3253 1025 2328 
Q 1025 1406 1450 917 
Q 1875 428 2675 428 
Q 3081 428 3442 575 
Q 3803 722 4122 1019 
L 4122 359 
Q 3791 134 3420 21 
Q 3050 -91 2638 -91 
Q 1578 -91 968 557 
Q 359 1206 359 2328 
Q 359 3453 968 4101 
Q 1578 4750 2638 4750 
Q 3056 4750 3426 4639 
Q 3797 4528 4122 4306 
z
" transform="scale(0.015625)"/>
       <path id="DejaVuSans-20" transform="scale(0.015625)"/>
       <path id="DejaVuSans-73" d="M 2834 3397 
L 2834 2853 
Q 2591 2978 2328 3040 
Q 2066 3103 1784 3103 
Q 1356 3103 1142 2972 
Q 928 2841 928 2578 
Q 928 2378 1081 2264 
Q 1234 2150 1697 2047 
L 1894 2003 
Q 2506 1872 2764 1633 
Q 3022 1394 3022 966 
Q 3022 478 2636 193 
Q 2250 -91 1575 -91 
Q 1294 -91 989 -36 
Q 684 19 347 128 
L 347 722 
Q 666 556 975 473 
Q 1284 391 1588 391 
Q 1994 391 2212 530 
Q 2431 669 2431 922 
Q 2431 1156 2273 1281 
Q 2116 1406 1581 1522 
L 1381 1569 
Q 847 1681 609 1914 
Q 372 2147 372 2553 
Q 372 3047 722 3315 
Q 1072 3584 1716 3584 
Q 2034 3584 2315 3537 
Q 2597 3491 2834 3397 
z
" transform="scale(0.015625)"/>
       <path id="DejaVuSans-74" d="M 1172 4494 
L 1172 3500 
L 2356 3500 
L 2356 3053 
L 1172 3053 
L 1172 1153 
Q 1172 725 1289 603 
Q 1406 481 1766 481 
L 2356 481 
L 2356 0 
L 1766 0 
Q 1100 0 847 248 
Q 594 497 594 1153 
L 594 3053 
L 172 3053 
L 172 3500 
L 594 3500 
L 594 4494 
L 1172 4494 
z
" transform="scale(0.015625)"/>
       <path id="DejaVuSans-65" d="M 3597 1894 
L 3597 1613 
L 953 1613 
Q 991 1019 1311 708 
Q 1631 397 2203 397 
Q 2534 397 2845 478 
Q 3156 559 3463 722 
L 3463 178 
Q 3153 47 2828 -22 
Q 2503 -91 2169 -91 
Q 1331 -91 842 396 
Q 353 884 353 1716 
Q 353 2575 817 3079 
Q 1281 3584 2069 3584 
Q 2775 3584 3186 3129 
Q 3597 2675 3597 1894 
z
M 3022 2063 
Q 3016 2534 2758 2815 
Q 2500 3097 2075 3097 
Q 1594 3097 1305 2825 
Q 1016 2553 972 2059 
L 3022 2063 
z
" transform="scale(0.015625)"/>
       <path id="DejaVuSans-70" d="M 1159 525 
L 1159 -1331 
L 581 -1331 
L 581 3500 
L 1159 3500 
L 1159 2969 
Q 1341 3281 1617 3432 
Q 1894 3584 2278 3584 
Q 2916 3584 3314 3078 
Q 3713 2572 3713 1747 
Q 3713 922 3314 415 
Q 2916 -91 2278 -91 
Q 1894 -91 1617 61 
Q 1341 213 1159 525 
z
M 3116 1747 
Q 3116 2381 2855 2742 
Q 2594 3103 2138 3103 
Q 1681 3103 1420 2742 
Q 1159 2381 1159 1747 
Q 1159 1113 1420 752 
Q 1681 391 2138 391 
Q 2594 391 2855 752 
Q 3116 1113 3116 1747 
z
" transform="scale(0.015625)"/>
      </defs>
      <use xlink:href="#DejaVuSans-4d"/>
      <use xlink:href="#DejaVuSans-43" x="86.279297"/>
      <use xlink:href="#DejaVuSans-20" x="156.103516"/>
      <use xlink:href="#DejaVuSans-73" x="187.890625"/>
      <use xlink:href="#DejaVuSans-74" x="239.990234"/>
      <use xlink:href="#DejaVuSans-65" x="279.199219"/>
      <use xlink:href="#DejaVuSans-70" x="340.722656"/>
      <use xlink:href="#DejaVuSans-73" x="404.199219"/>
     </g>
    </g>
   </g>
   <g id="matplotlib.axis_2">
    <g id="ytick_1">
     <g id="line2d_11">
      <path d="M 71.788693 254.72004 
L 677.311461 254.72004 
" clip-path="url(#p60156ba295)" style="fill: none; stroke: #000000; stroke-opacity: 0.1; stroke-width: 0.5; stroke-linecap: square"/>
     </g>
     <g id="line2d_12">
      <defs>
       <path id="md32a8a4a3f" d="M 0 0 
L 2.5 0 
" style="stroke: #000000; stroke-width: 0.5"/>
      </defs>
      <g>
       <use xlink:href="#md32a8a4a3f" x="71.788693" y="254.72004" style="stroke: #000000; stroke-width: 0.5"/>
      </g>
     </g>
     <g id="text_7">
      <!-- $2.5$ -->
      <g transform="translate(29.888693 263.838165)scale(0.24 -0.24)">
       <defs>
        <path id="DejaVuSans-2e" d="M 684 794 
L 1344 794 
L 1344 0 
L 684 0 
L 684 794 
z
" transform="scale(0.015625)"/>
       </defs>
       <use xlink:href="#DejaVuSans-32" transform="translate(0 0.78125)"/>
       <use xlink:href="#DejaVuSans-2e" transform="translate(63.623047 0.78125)"/>
       <use xlink:href="#DejaVuSans-35" transform="translate(95.410156 0.78125)"/>
      </g>
     </g>
    </g>
    <g id="ytick_2">
     <g id="line2d_13">
      <path d="M 71.788693 181.272552 
L 677.311461 181.272552 
" clip-path="url(#p60156ba295)" style="fill: none; stroke: #000000; stroke-opacity: 0.1; stroke-width: 0.5; stroke-linecap: square"/>
     </g>
     <g id="line2d_14">
      <g>
       <use xlink:href="#md32a8a4a3f" x="71.788693" y="181.272552" style="stroke: #000000; stroke-width: 0.5"/>
      </g>
     </g>
     <g id="text_8">
      <!-- $3.0$ -->
      <g transform="translate(29.888693 190.390677)scale(0.24 -0.24)">
       <defs>
        <path id="DejaVuSans-33" d="M 2597 2516 
Q 3050 2419 3304 2112 
Q 3559 1806 3559 1356 
Q 3559 666 3084 287 
Q 2609 -91 1734 -91 
Q 1441 -91 1130 -33 
Q 819 25 488 141 
L 488 750 
Q 750 597 1062 519 
Q 1375 441 1716 441 
Q 2309 441 2620 675 
Q 2931 909 2931 1356 
Q 2931 1769 2642 2001 
Q 2353 2234 1838 2234 
L 1294 2234 
L 1294 2753 
L 1863 2753 
Q 2328 2753 2575 2939 
Q 2822 3125 2822 3475 
Q 2822 3834 2567 4026 
Q 2313 4219 1838 4219 
Q 1578 4219 1281 4162 
Q 984 4106 628 3988 
L 628 4550 
Q 988 4650 1302 4700 
Q 1616 4750 1894 4750 
Q 2613 4750 3031 4423 
Q 3450 4097 3450 3541 
Q 3450 3153 3228 2886 
Q 3006 2619 2597 2516 
z
" transform="scale(0.015625)"/>
       </defs>
       <use xlink:href="#DejaVuSans-33" transform="translate(0 0.78125)"/>
       <use xlink:href="#DejaVuSans-2e" transform="translate(63.623047 0.78125)"/>
       <use xlink:href="#DejaVuSans-30" transform="translate(95.410156 0.78125)"/>
      </g>
     </g>
    </g>
    <g id="ytick_3">
     <g id="line2d_15">
      <path d="M 71.788693 107.825064 
L 677.311461 107.825064 
" clip-path="url(#p60156ba295)" style="fill: none; stroke: #000000; stroke-opacity: 0.1; stroke-width: 0.5; stroke-linecap: square"/>
     </g>
     <g id="line2d_16">
      <g>
       <use xlink:href="#md32a8a4a3f" x="71.788693" y="107.825064" style="stroke: #000000; stroke-width: 0.5"/>
      </g>
     </g>
     <g id="text_9">
      <!-- $3.5$ -->
      <g transform="translate(29.888693 116.943189)scale(0.24 -0.24)">
       <use xlink:href="#DejaVuSans-33" transform="translate(0 0.78125)"/>
       <use xlink:href="#DejaVuSans-2e" transform="translate(63.623047 0.78125)"/>
       <use xlink:href="#DejaVuSans-35" transform="translate(95.410156 0.78125)"/>
      </g>
     </g>
    </g>
    <g id="ytick_4">
     <g id="line2d_17">
      <path d="M 71.788693 34.377576 
L 677.311461 34.377576 
" clip-path="url(#p60156ba295)" style="fill: none; stroke: #000000; stroke-opacity: 0.1; stroke-width: 0.5; stroke-linecap: square"/>
     </g>
     <g id="line2d_18">
      <g>
       <use xlink:href="#md32a8a4a3f" x="71.788693" y="34.377576" style="stroke: #000000; stroke-width: 0.5"/>
      </g>
     </g>
     <g id="text_10">
      <!-- $4.0$ -->
      <g transform="translate(29.888693 43.495701)scale(0.24 -0.24)">
       <defs>
        <path id="DejaVuSans-34" d="M 2419 4116 
L 825 1625 
L 2419 1625 
L 2419 4116 
z
M 2253 4666 
L 3047 4666 
L 3047 1625 
L 3713 1625 
L 3713 1100 
L 3047 1100 
L 3047 0 
L 2419 0 
L 2419 1100 
L 313 1100 
L 313 1709 
L 2253 4666 
z
" transform="scale(0.015625)"/>
       </defs>
       <use xlink:href="#DejaVuSans-34" transform="translate(0 0.78125)"/>
       <use xlink:href="#DejaVuSans-2e" transform="translate(63.623047 0.78125)"/>
       <use xlink:href="#DejaVuSans-30" transform="translate(95.410156 0.78125)"/>
      </g>
     </g>
    </g>
    <g id="text_11">
     <!-- MC value -->
     <g transform="translate(20.897443 201.125625)rotate(-90)scale(0.24 -0.24)">
      <defs>
       <path id="DejaVuSans-76" d="M 191 3500 
L 800 3500 
L 1894 563 
L 2988 3500 
L 3597 3500 
L 2284 0 
L 1503 0 
L 191 3500 
z
" transform="scale(0.015625)"/>
       <path id="DejaVuSans-61" d="M 2194 1759 
Q 1497 1759 1228 1600 
Q 959 1441 959 1056 
Q 959 750 1161 570 
Q 1363 391 1709 391 
Q 2188 391 2477 730 
Q 2766 1069 2766 1631 
L 2766 1759 
L 2194 1759 
z
M 3341 1997 
L 3341 0 
L 2766 0 
L 2766 531 
Q 2569 213 2275 61 
Q 1981 -91 1556 -91 
Q 1019 -91 701 211 
Q 384 513 384 1019 
Q 384 1609 779 1909 
Q 1175 2209 1959 2209 
L 2766 2209 
L 2766 2266 
Q 2766 2663 2505 2880 
Q 2244 3097 1772 3097 
Q 1472 3097 1187 3025 
Q 903 2953 641 2809 
L 641 3341 
Q 956 3463 1253 3523 
Q 1550 3584 1831 3584 
Q 2591 3584 2966 3190 
Q 3341 2797 3341 1997 
z
" transform="scale(0.015625)"/>
       <path id="DejaVuSans-6c" d="M 603 4863 
L 1178 4863 
L 1178 0 
L 603 0 
L 603 4863 
z
" transform="scale(0.015625)"/>
       <path id="DejaVuSans-75" d="M 544 1381 
L 544 3500 
L 1119 3500 
L 1119 1403 
Q 1119 906 1312 657 
Q 1506 409 1894 409 
Q 2359 409 2629 706 
Q 2900 1003 2900 1516 
L 2900 3500 
L 3475 3500 
L 3475 0 
L 2900 0 
L 2900 538 
Q 2691 219 2414 64 
Q 2138 -91 1772 -91 
Q 1169 -91 856 284 
Q 544 659 544 1381 
z
M 1991 3584 
L 1991 3584 
z
" transform="scale(0.015625)"/>
      </defs>
      <use xlink:href="#DejaVuSans-4d"/>
      <use xlink:href="#DejaVuSans-43" x="86.279297"/>
      <use xlink:href="#DejaVuSans-20" x="156.103516"/>
      <use xlink:href="#DejaVuSans-76" x="187.890625"/>
      <use xlink:href="#DejaVuSans-61" x="247.070312"/>
      <use xlink:href="#DejaVuSans-6c" x="308.349609"/>
      <use xlink:href="#DejaVuSans-75" x="336.132812"/>
      <use xlink:href="#DejaVuSans-65" x="399.511719"/>
     </g>
    </g>
   </g>
   <g id="line2d_19">
    <path d="M 88.92613 11.038449 
L 92.928868 11.038449 
L 93.500688 78.918341 
L 94.644327 177.65273 
L 95.787967 152.019764 
L 96.359787 185.586744 
L 96.931606 173.950191 
L 97.503426 201.950646 
L 98.647065 180.73818 
L 99.218885 203.960248 
L 99.790705 194.314158 
L 100.362525 214.678126 
L 101.506164 196.970328 
L 102.077984 214.678126 
L 102.649803 206.532539 
L 103.793443 237.304757 
L 104.937082 263.832531 
L 106.080722 247.523235 
L 107.796181 280.561551 
L 109.51164 258.708327 
L 110.08346 252.190698 
L 110.655279 261.671898 
L 111.227099 255.406062 
L 111.798919 264.34634 
L 113.514378 247.075347 
L 114.086198 241.830083 
L 114.658017 250.093722 
L 115.229837 245.00744 
L 116.373477 260.393156 
L 117.517116 250.61454 
L 118.660755 264.627481 
L 120.376215 251.042354 
L 120.948034 257.549637 
L 121.519854 253.299444 
L 122.091674 259.547885 
L 123.807133 247.523235 
L 124.378953 253.466636 
L 124.950772 249.678696 
L 125.522592 255.406062 
L 126.666231 248.111506 
L 127.809871 258.947621 
L 129.52533 248.618072 
L 130.668969 258.708327 
L 131.812609 252.190698 
L 132.956248 261.671898 
L 134.671707 252.389177 
L 135.243527 256.896108 
L 136.387166 251.042354 
L 136.958986 255.406062 
L 139.246265 244.423247 
L 139.818085 248.618072 
L 140.961724 243.453298 
L 142.105364 251.506578 
L 142.677183 248.975335 
L 143.249003 252.860566 
L 143.820823 250.367554 
L 144.964462 257.874421 
L 146.108102 252.98658 
L 146.679921 256.603942 
L 148.9672 247.33732 
L 149.53902 250.838443 
L 150.11084 248.618072 
L 151.254479 255.406062 
L 151.826299 253.204551 
L 152.398118 256.496988 
L 155.257217 246.007307 
L 156.400856 252.325797 
L 158.116316 246.392502 
L 158.688135 249.445876 
L 159.831775 245.631357 
L 160.403594 248.618072 
L 161.547234 244.905891 
L 162.119054 247.828771 
L 163.262693 244.213652 
L 163.834513 247.075347 
L 164.406332 245.300634 
L 164.978152 248.111506 
L 165.549972 246.355409 
L 166.121792 249.117189 
L 166.693611 247.379388 
L 167.265431 250.093722 
L 167.837251 248.3739 
L 168.40907 251.042354 
L 168.98089 249.340199 
L 170.12453 254.551629 
L 170.696349 252.860566 
L 172.411808 260.393156 
L 173.555448 257.046113 
L 175.842727 266.586279 
L 179.273645 256.942965 
L 180.989104 252.389177 
L 181.560924 254.656468 
L 183.276383 250.253732 
L 183.848203 252.479503 
L 187.279121 244.105825 
L 187.850941 242.766357 
L 189.5664 249.193326 
L 190.710039 246.532377 
L 191.281859 248.618072 
L 193.569138 243.453298 
L 195.284597 249.525557 
L 198.715515 242.11145 
L 200.430974 247.92542 
L 201.002794 246.722948 
L 202.146434 250.49415 
L 203.290073 248.111506 
L 203.861893 249.962229 
L 204.433712 248.785264 
L 205.577352 252.425969 
L 207.292811 248.944418 
L 207.864631 250.729169 
L 209.00827 248.457219 
L 209.58009 250.219013 
L 210.15191 249.0961 
L 210.723729 250.838443 
L 211.867369 248.618072 
L 212.439188 250.33853 
L 214.726467 246.007307 
L 215.870107 249.379058 
L 216.441926 248.315037 
L 218.157386 253.253043 
L 218.729205 252.190698 
L 219.301025 253.8054 
L 220.444664 251.703522 
L 221.016484 253.299444 
L 222.731943 250.206751 
L 223.303763 251.781966 
L 223.875583 250.76617 
L 224.447402 252.325797 
L 226.162862 249.322221 
L 226.734681 250.862036 
L 228.45014 247.92542 
L 229.02196 249.445876 
L 231.309239 245.631357 
L 231.881059 247.130664 
L 232.452878 246.19379 
L 233.024698 247.679022 
L 235.311977 243.995901 
L 236.455616 246.914523 
L 237.599256 245.107043 
L 238.171076 246.545404 
L 239.314715 244.76126 
L 240.458354 247.597322 
L 242.173814 244.959119 
L 242.745633 246.355409 
L 243.317453 245.487081 
L 243.889273 246.871163 
L 245.604732 244.298443 
L 246.176552 245.666773 
L 246.748371 244.819739 
L 247.320191 246.17635 
L 247.892011 245.333561 
L 248.46383 246.678647 
L 249.60747 245.00744 
L 250.751109 247.662017 
L 253.038388 244.375579 
L 253.610208 245.682091 
L 254.753847 244.06942 
L 255.325667 245.363557 
L 257.041126 242.98059 
L 257.612946 244.260917 
L 258.184766 243.475656 
L 259.328405 246.007307 
L 259.900225 245.224078 
L 260.472044 246.475684 
L 261.615684 244.921642 
L 262.759323 247.394009 
L 265.046602 244.33439 
L 266.190242 246.762834 
L 266.762061 246.007307 
L 267.905701 248.401894 
L 268.47752 247.64836 
L 269.04934 248.832882 
L 270.764799 246.596571 
L 271.336619 247.769574 
L 273.052078 245.570833 
L 274.195718 247.887058 
L 275.911177 245.72076 
L 277.626636 249.13076 
L 279.342095 246.992207 
L 279.913915 248.111506 
L 280.485734 247.405931 
L 281.057554 248.51736 
L 281.629374 247.81476 
L 283.916653 252.190698 
L 286.775751 248.715882 
L 287.347571 249.788415 
L 287.919391 249.104318 
L 289.06303 251.228837 
L 289.63485 250.546478 
L 290.20667 251.598634 
L 291.922129 249.571442 
L 292.493948 250.61454 
L 295.353047 247.305478 
L 295.924867 248.337577 
L 296.496686 247.685656 
L 297.640326 249.730857 
L 300.499424 246.513979 
L 301.071244 247.523235 
L 302.786703 245.631357 
L 303.930343 247.627782 
L 304.502162 247.001884 
L 305.073982 247.991213 
L 308.5049 244.298443 
L 309.07672 245.276834 
L 310.792179 243.470368 
L 313.079458 247.322654 
L 313.651278 246.722948 
L 314.223098 247.672909 
L 315.366737 246.480796 
L 315.938557 247.424205 
L 317.082196 246.242276 
L 318.225836 248.111506 
L 318.797655 247.523235 
L 319.369475 248.450053 
L 320.513114 247.280537 
L 322.800393 250.935922 
L 325.087672 248.618072 
L 325.659492 249.517685 
L 326.231312 248.944418 
L 326.803131 249.838934 
L 328.51859 248.133216 
L 329.09041 249.02116 
L 329.66223 248.457219 
L 330.805869 250.219013 
L 334.236788 246.88161 
L 334.808607 247.751856 
L 335.380427 247.203908 
L 335.952247 248.06939 
L 338.239526 245.89977 
L 338.811345 246.758349 
L 339.383165 246.221402 
L 340.526804 247.92542 
L 341.670444 246.855953 
L 342.242264 247.700776 
L 343.957723 246.112439 
L 344.529542 246.951378 
L 345.673182 245.902877 
L 346.245002 246.736701 
L 347.960461 245.179223 
L 348.53228 246.007307 
L 350.24774 244.46821 
L 351.391379 246.109468 
L 351.963199 245.599552 
L 352.535018 246.41418 
L 353.106838 245.905809 
L 353.678658 246.716265 
L 354.250478 246.209431 
L 354.822297 247.015757 
L 356.537756 245.506307 
L 357.109576 246.307267 
L 358.253216 245.310366 
L 358.825035 246.10666 
L 365.686872 240.290539 
L 366.258692 239.818827 
L 366.830511 240.603506 
L 369.11779 238.733322 
L 369.68961 239.512233 
L 370.833249 238.587238 
L 371.976889 240.133086 
L 373.692348 238.755763 
L 374.264168 239.522167 
L 375.979627 238.159441 
L 376.551446 238.920945 
L 378.266906 237.572528 
L 379.410545 239.082881 
L 380.554184 238.190339 
L 381.126004 238.939884 
L 382.841463 237.612303 
L 385.128742 240.574501 
L 385.700562 240.133086 
L 386.844201 241.596014 
L 387.987841 240.716024 
L 388.55966 241.442198 
L 391.990579 238.838766 
L 393.134218 240.276359 
L 393.706038 239.847075 
L 394.277858 240.5613 
L 394.849677 240.133086 
L 399.424235 245.74815 
L 401.711514 244.034941 
L 402.283334 244.723324 
L 402.855153 244.298443 
L 403.426973 244.983849 
L 403.998793 244.560035 
L 405.142432 245.922481 
L 407.429711 244.238724 
L 408.57335 245.58772 
L 409.14517 245.169629 
L 410.28881 246.508129 
L 410.860629 246.090629 
L 412.576088 248.079343 
L 414.863367 246.418811 
L 416.007007 247.729592 
L 416.578826 247.317238 
L 418.866105 249.909904 
L 420.581564 248.676489 
L 421.153384 249.317865 
L 421.725204 248.909152 
L 422.868843 250.184531 
L 426.299762 247.756652 
L 426.871581 248.388748 
L 427.443401 247.988495 
L 428.015221 248.618072 
L 429.15886 247.820825 
L 432.017959 250.933443 
L 434.305238 249.34736 
L 434.877057 249.962229 
L 437.736156 248.007042 
L 438.307976 248.618072 
L 438.879795 248.230504 
L 440.023435 249.445876 
L 440.595254 249.058851 
L 442.882533 251.464648 
L 443.454353 251.077489 
L 444.026173 251.673759 
L 444.597992 251.287506 
L 445.169812 251.881529 
L 445.741632 251.49618 
L 446.313451 252.087971 
L 446.885271 251.703522 
L 447.457091 252.293098 
L 449.17255 251.146087 
L 449.74437 251.732814 
L 450.316189 251.35257 
L 450.888009 251.937121 
L 452.031649 251.179578 
L 452.603468 251.761647 
L 453.175288 251.384337 
L 454.318927 252.542379 
L 456.606206 251.042354 
L 457.178026 251.617416 
L 460.608944 249.400099 
L 461.180764 249.971506 
L 461.752584 249.605605 
L 462.324403 250.174951 
L 466.327141 247.642491 
L 467.470781 248.771647 
L 468.61442 248.05666 
L 469.18624 248.618072 
L 469.75806 248.261881 
L 470.901699 249.379058 
L 472.045339 248.668653 
L 472.617158 249.224143 
L 474.332617 248.16554 
L 474.904437 248.718486 
L 476.048077 248.017365 
L 477.191716 249.117189 
L 480.050815 247.379388 
L 480.622634 247.92542 
L 482.909913 246.552163 
L 484.053553 247.637149 
L 484.625372 247.295737 
L 485.197192 247.835595 
L 485.769012 247.49488 
L 486.912651 248.569378 
L 487.484471 248.229076 
L 489.19993 249.828484 
L 493.774488 247.134097 
L 494.346307 247.662017 
L 494.918127 247.329214 
L 495.489947 247.855377 
L 496.061767 247.523235 
L 497.205406 248.570604 
L 500.636324 246.593915 
L 501.779964 247.632265 
L 502.923603 246.979592 
L 504.639062 248.524831 
L 507.498161 246.904869 
L 509.21362 248.433616 
L 509.78544 248.111506 
L 510.929079 249.123268 
L 512.072719 248.480664 
L 512.644538 248.984002 
L 513.216358 248.663752 
L 513.788178 249.165491 
L 514.931817 248.52708 
L 515.503637 249.026987 
L 516.075457 248.708821 
L 517.219096 249.704151 
L 517.790916 249.386353 
L 518.934555 250.375918 
L 519.506375 250.058494 
L 520.078195 250.551076 
L 521.221834 249.918282 
L 521.793654 250.409098 
L 523.509113 249.465456 
L 524.080933 249.954291 
L 524.652752 249.641164 
L 525.224572 250.128489 
L 525.796392 249.815953 
L 526.940031 250.786335 
L 529.22731 249.542507 
L 532.658228 252.418298 
L 533.801868 251.798581 
L 534.945507 252.746491 
L 536.660966 251.821588 
L 537.232786 252.293098 
L 538.376425 251.679999 
L 539.520065 252.618598 
L 540.663704 252.007776 
L 541.807344 252.940814 
L 542.379163 252.636152 
L 542.950983 253.100707 
L 543.522803 252.796608 
L 544.094623 253.259796 
L 544.666442 252.956261 
L 545.810082 253.878764 
L 546.381901 253.575592 
L 546.953721 254.034922 
L 548.66918 253.129345 
L 549.241 253.586948 
L 553.243738 251.498584 
L 554.959197 252.860566 
L 555.531017 252.564578 
L 556.102837 253.016158 
L 556.674656 252.720703 
L 558.390115 254.068283 
L 558.961935 253.772985 
L 562.392853 256.43777 
L 564.680132 255.259382 
L 565.251952 255.699068 
L 566.967411 254.822148 
L 568.111051 255.697322 
L 568.68287 255.406062 
L 569.82651 256.27673 
L 570.398329 255.985819 
L 570.970149 256.419434 
L 571.541969 256.129043 
L 572.113789 256.561464 
L 573.829248 255.693891 
L 574.401067 256.12479 
L 575.544707 255.54947 
L 576.688346 256.407568 
L 577.260166 256.120587 
L 577.831986 256.547966 
L 578.403805 256.261491 
L 578.975625 256.68771 
L 583.550183 254.418433 
L 584.693822 255.265297 
L 586.409281 254.424102 
L 586.981101 254.845585 
L 587.552921 254.56631 
L 588.124741 254.986666 
L 591.555659 253.323383 
L 592.699298 254.159288 
L 593.842938 253.609241 
L 594.986577 254.440727 
L 595.558397 254.166316 
L 596.702036 254.993743 
L 599.561135 253.629339 
L 600.132955 254.040879 
L 600.704774 253.769671 
L 601.276594 254.180137 
L 601.848414 253.909378 
L 602.992053 254.727263 
L 603.563873 254.456798 
L 605.279332 255.67638 
L 606.422971 255.13634 
L 606.994791 255.540774 
L 607.566611 255.271498 
L 608.138431 255.674893 
L 609.28207 255.13782 
L 609.85389 255.540035 
L 610.425709 255.272235 
L 610.997529 255.673422 
L 612.141169 255.139285 
L 612.712988 255.539304 
L 617.859366 253.162946 
L 618.431185 253.560783 
L 619.003005 253.299444 
L 620.146645 254.092257 
L 620.718464 253.83119 
L 621.290284 254.226175 
L 622.433923 253.70543 
L 623.005743 254.099283 
L 624.149383 253.580476 
L 624.721202 253.973202 
L 628.72394 252.173686 
L 629.86758 252.954644 
L 630.439399 252.699458 
L 631.583039 253.476844 
L 632.154859 253.221914 
L 633.298498 253.995755 
L 635.585777 252.98026 
L 636.157597 253.365413 
L 636.729416 253.112726 
L 637.301236 253.49694 
L 639.016695 252.741617 
L 639.588515 253.124621 
L 640.732154 252.623408 
L 642.447613 253.766857 
L 644.734892 252.769001 
L 645.878532 253.526311 
L 648.165811 252.535553 
L 649.30945 253.288707 
L 649.88127 253.042016 
L 651.024909 253.791845 
L 651.596729 253.545394 
L 653.884008 255.035433 
L 655.027647 254.543007 
L 658.458565 256.754128 
L 660.174025 256.016981 
L 660.174025 256.016981 
" clip-path="url(#p60156ba295)" style="fill: none; stroke: #009afa; stroke-width: 3"/>
   </g>
   <g id="line2d_20">
    <path d="M -1 248.0837 
L 692.2 248.0837 
" clip-path="url(#p60156ba295)" style="fill: none; stroke: #e36f47; stroke-width: 2"/>
   </g>
   <g id="patch_3">
    <path d="M 71.788693 288.647244 
L 71.788693 2.952756 
" style="fill: none; stroke: #000000; stroke-linejoin: miter; stroke-linecap: square"/>
   </g>
   <g id="patch_4">
    <path d="M 71.788693 288.647244 
L 677.311461 288.647244 
" style="fill: none; stroke: #000000; stroke-linejoin: miter; stroke-linecap: square"/>
   </g>
   <g id="legend_1">
    <g id="patch_5">
     <path d="M 490.996461 75.522756 
L 669.311461 75.522756 
L 669.311461 10.952756 
L 490.996461 10.952756 
z
" style="fill: #ffffff; stroke: #000000; stroke-linejoin: miter"/>
    </g>
    <g id="line2d_21">
     <path d="M 503.796461 30.310256 
L 519.796461 30.310256 
L 535.796461 30.310256 
" style="fill: none; stroke: #009afa; stroke-width: 2; stroke-linejoin: miter"/>
    </g>
    <g id="text_12">
     <!-- MC trajectory -->
     <g transform="translate(548.596461 35.910256)scale(0.16 -0.16)">
      <defs>
       <path id="DejaVuSans-72" d="M 2631 2963 
Q 2534 3019 2420 3045 
Q 2306 3072 2169 3072 
Q 1681 3072 1420 2755 
Q 1159 2438 1159 1844 
L 1159 0 
L 581 0 
L 581 3500 
L 1159 3500 
L 1159 2956 
Q 1341 3275 1631 3429 
Q 1922 3584 2338 3584 
Q 2397 3584 2469 3576 
Q 2541 3569 2628 3553 
L 2631 2963 
z
" transform="scale(0.015625)"/>
       <path id="DejaVuSans-6a" d="M 603 3500 
L 1178 3500 
L 1178 -63 
Q 1178 -731 923 -1031 
Q 669 -1331 103 -1331 
L -116 -1331 
L -116 -844 
L 38 -844 
Q 366 -844 484 -692 
Q 603 -541 603 -63 
L 603 3500 
z
M 603 4863 
L 1178 4863 
L 1178 4134 
L 603 4134 
L 603 4863 
z
" transform="scale(0.015625)"/>
       <path id="DejaVuSans-63" d="M 3122 3366 
L 3122 2828 
Q 2878 2963 2633 3030 
Q 2388 3097 2138 3097 
Q 1578 3097 1268 2742 
Q 959 2388 959 1747 
Q 959 1106 1268 751 
Q 1578 397 2138 397 
Q 2388 397 2633 464 
Q 2878 531 3122 666 
L 3122 134 
Q 2881 22 2623 -34 
Q 2366 -91 2075 -91 
Q 1284 -91 818 406 
Q 353 903 353 1747 
Q 353 2603 823 3093 
Q 1294 3584 2113 3584 
Q 2378 3584 2631 3529 
Q 2884 3475 3122 3366 
z
" transform="scale(0.015625)"/>
       <path id="DejaVuSans-6f" d="M 1959 3097 
Q 1497 3097 1228 2736 
Q 959 2375 959 1747 
Q 959 1119 1226 758 
Q 1494 397 1959 397 
Q 2419 397 2687 759 
Q 2956 1122 2956 1747 
Q 2956 2369 2687 2733 
Q 2419 3097 1959 3097 
z
M 1959 3584 
Q 2709 3584 3137 3096 
Q 3566 2609 3566 1747 
Q 3566 888 3137 398 
Q 2709 -91 1959 -91 
Q 1206 -91 779 398 
Q 353 888 353 1747 
Q 353 2609 779 3096 
Q 1206 3584 1959 3584 
z
" transform="scale(0.015625)"/>
       <path id="DejaVuSans-79" d="M 2059 -325 
Q 1816 -950 1584 -1140 
Q 1353 -1331 966 -1331 
L 506 -1331 
L 506 -850 
L 844 -850 
Q 1081 -850 1212 -737 
Q 1344 -625 1503 -206 
L 1606 56 
L 191 3500 
L 800 3500 
L 1894 763 
L 2988 3500 
L 3597 3500 
L 2059 -325 
z
" transform="scale(0.015625)"/>
      </defs>
      <use xlink:href="#DejaVuSans-4d"/>
      <use xlink:href="#DejaVuSans-43" x="86.279297"/>
      <use xlink:href="#DejaVuSans-20" x="156.103516"/>
      <use xlink:href="#DejaVuSans-74" x="187.890625"/>
      <use xlink:href="#DejaVuSans-72" x="227.099609"/>
      <use xlink:href="#DejaVuSans-61" x="268.212891"/>
      <use xlink:href="#DejaVuSans-6a" x="329.492188"/>
      <use xlink:href="#DejaVuSans-65" x="357.275391"/>
      <use xlink:href="#DejaVuSans-63" x="418.798828"/>
      <use xlink:href="#DejaVuSans-74" x="473.779297"/>
      <use xlink:href="#DejaVuSans-6f" x="512.988281"/>
      <use xlink:href="#DejaVuSans-72" x="574.169922"/>
      <use xlink:href="#DejaVuSans-79" x="615.283203"/>
     </g>
    </g>
    <g id="line2d_22">
     <path d="M 503.796461 53.795256 
L 519.796461 53.795256 
L 535.796461 53.795256 
" style="fill: none; stroke: #e36f47; stroke-width: 2; stroke-linejoin: miter"/>
    </g>
    <g id="text_13">
     <!-- Analytical -->
     <g transform="translate(548.596461 59.395256)scale(0.16 -0.16)">
      <defs>
       <path id="DejaVuSans-41" d="M 2188 4044 
L 1331 1722 
L 3047 1722 
L 2188 4044 
z
M 1831 4666 
L 2547 4666 
L 4325 0 
L 3669 0 
L 3244 1197 
L 1141 1197 
L 716 0 
L 50 0 
L 1831 4666 
z
" transform="scale(0.015625)"/>
       <path id="DejaVuSans-6e" d="M 3513 2113 
L 3513 0 
L 2938 0 
L 2938 2094 
Q 2938 2591 2744 2837 
Q 2550 3084 2163 3084 
Q 1697 3084 1428 2787 
Q 1159 2491 1159 1978 
L 1159 0 
L 581 0 
L 581 3500 
L 1159 3500 
L 1159 2956 
Q 1366 3272 1645 3428 
Q 1925 3584 2291 3584 
Q 2894 3584 3203 3211 
Q 3513 2838 3513 2113 
z
" transform="scale(0.015625)"/>
       <path id="DejaVuSans-69" d="M 603 3500 
L 1178 3500 
L 1178 0 
L 603 0 
L 603 3500 
z
M 603 4863 
L 1178 4863 
L 1178 4134 
L 603 4134 
L 603 4863 
z
" transform="scale(0.015625)"/>
      </defs>
      <use xlink:href="#DejaVuSans-41"/>
      <use xlink:href="#DejaVuSans-6e" x="68.408203"/>
      <use xlink:href="#DejaVuSans-61" x="131.787109"/>
      <use xlink:href="#DejaVuSans-6c" x="193.066406"/>
      <use xlink:href="#DejaVuSans-79" x="220.849609"/>
      <use xlink:href="#DejaVuSans-74" x="280.029297"/>
      <use xlink:href="#DejaVuSans-69" x="319.238281"/>
      <use xlink:href="#DejaVuSans-63" x="347.021484"/>
      <use xlink:href="#DejaVuSans-61" x="402.001953"/>
      <use xlink:href="#DejaVuSans-6c" x="463.28125"/>
     </g>
    </g>
   </g>
  </g>
 </g>
 <defs>
  <clipPath id="p60156ba295">
   <rect x="71.788693" y="2.952756" width="605.522768" height="285.694488"/>
  </clipPath>
 </defs>
</svg>
