<?xml version="1.0" encoding="utf-8" standalone="no"?>
<!DOCTYPE svg PUBLIC "-//W3C//DTD SVG 1.1//EN"
  "http://www.w3.org/Graphics/SVG/1.1/DTD/svg11.dtd">
<svg xmlns:xlink="http://www.w3.org/1999/xlink" width="691.2pt" height="345.6pt" viewBox="0 0 691.2 345.6" xmlns="http://www.w3.org/2000/svg" version="1.1">
 <metadata>
  <rdf:RDF xmlns:dc="http://purl.org/dc/elements/1.1/" xmlns:cc="http://creativecommons.org/ns#" xmlns:rdf="http://www.w3.org/1999/02/22-rdf-syntax-ns#">
   <cc:Work>
    <dc:type rdf:resource="http://purl.org/dc/dcmitype/StillImage"/>
    <dc:date>2022-09-06T13:56:06.632825</dc:date>
    <dc:format>image/svg+xml</dc:format>
    <dc:creator>
     <cc:Agent>
      <dc:title>Matplotlib v3.5.2, https://matplotlib.org/</dc:title>
     </cc:Agent>
    </dc:creator>
   </cc:Work>
  </rdf:RDF>
 </metadata>
 <defs>
  <style type="text/css">*{stroke-linejoin: round; stroke-linecap: butt}</style>
 </defs>
 <g id="figure_1">
  <g id="patch_1">
   <path d="M 0 345.6 
L 691.2 345.6 
L 691.2 0 
L 0 0 
z
" style="fill: #ffffff"/>
  </g>
  <g id="axes_1">
   <g id="patch_2">
    <path d="M 48.890256 288.647244 
L 677.311461 288.647244 
L 677.311461 2.952756 
L 48.890256 2.952756 
z
" style="fill: #ffffff"/>
   </g>
   <g id="matplotlib.axis_1">
    <g id="xtick_1">
     <g id="line2d_1">
      <path d="M 66.082318 288.647244 
L 66.082318 2.952756 
" clip-path="url(#p43c8af22f7)" style="fill: none; stroke: #000000; stroke-opacity: 0.1; stroke-width: 0.5; stroke-linecap: square"/>
     </g>
     <g id="line2d_2">
      <defs>
       <path id="mfe2bfd192e" d="M 0 0 
L 0 -2.5 
" style="stroke: #000000; stroke-width: 0.5"/>
      </defs>
      <g>
       <use xlink:href="#mfe2bfd192e" x="66.082318" y="288.647244" style="stroke: #000000; stroke-width: 0.5"/>
      </g>
     </g>
     <g id="text_1">
      <!-- $0$ -->
      <g transform="translate(58.402318 310.383494)scale(0.24 -0.24)">
       <defs>
        <path id="DejaVuSans-30" d="M 2034 4250 
Q 1547 4250 1301 3770 
Q 1056 3291 1056 2328 
Q 1056 1369 1301 889 
Q 1547 409 2034 409 
Q 2525 409 2770 889 
Q 3016 1369 3016 2328 
Q 3016 3291 2770 3770 
Q 2525 4250 2034 4250 
z
M 2034 4750 
Q 2819 4750 3233 4129 
Q 3647 3509 3647 2328 
Q 3647 1150 3233 529 
Q 2819 -91 2034 -91 
Q 1250 -91 836 529 
Q 422 1150 422 2328 
Q 422 3509 836 4129 
Q 1250 4750 2034 4750 
z
" transform="scale(0.015625)"/>
       </defs>
       <use xlink:href="#DejaVuSans-30" transform="translate(0 0.78125)"/>
      </g>
     </g>
    </g>
    <g id="xtick_2">
     <g id="line2d_3">
      <path d="M 214.443227 288.647244 
L 214.443227 2.952756 
" clip-path="url(#p43c8af22f7)" style="fill: none; stroke: #000000; stroke-opacity: 0.1; stroke-width: 0.5; stroke-linecap: square"/>
     </g>
     <g id="line2d_4">
      <g>
       <use xlink:href="#mfe2bfd192e" x="214.443227" y="288.647244" style="stroke: #000000; stroke-width: 0.5"/>
      </g>
     </g>
     <g id="text_2">
      <!-- $250$ -->
      <g transform="translate(191.523227 310.383494)scale(0.24 -0.24)">
       <defs>
        <path id="DejaVuSans-32" d="M 1228 531 
L 3431 531 
L 3431 0 
L 469 0 
L 469 531 
Q 828 903 1448 1529 
Q 2069 2156 2228 2338 
Q 2531 2678 2651 2914 
Q 2772 3150 2772 3378 
Q 2772 3750 2511 3984 
Q 2250 4219 1831 4219 
Q 1534 4219 1204 4116 
Q 875 4013 500 3803 
L 500 4441 
Q 881 4594 1212 4672 
Q 1544 4750 1819 4750 
Q 2544 4750 2975 4387 
Q 3406 4025 3406 3419 
Q 3406 3131 3298 2873 
Q 3191 2616 2906 2266 
Q 2828 2175 2409 1742 
Q 1991 1309 1228 531 
z
" transform="scale(0.015625)"/>
        <path id="DejaVuSans-35" d="M 691 4666 
L 3169 4666 
L 3169 4134 
L 1269 4134 
L 1269 2991 
Q 1406 3038 1543 3061 
Q 1681 3084 1819 3084 
Q 2600 3084 3056 2656 
Q 3513 2228 3513 1497 
Q 3513 744 3044 326 
Q 2575 -91 1722 -91 
Q 1428 -91 1123 -41 
Q 819 9 494 109 
L 494 744 
Q 775 591 1075 516 
Q 1375 441 1709 441 
Q 2250 441 2565 725 
Q 2881 1009 2881 1497 
Q 2881 1984 2565 2268 
Q 2250 2553 1709 2553 
Q 1456 2553 1204 2497 
Q 953 2441 691 2322 
L 691 4666 
z
" transform="scale(0.015625)"/>
       </defs>
       <use xlink:href="#DejaVuSans-32" transform="translate(0 0.78125)"/>
       <use xlink:href="#DejaVuSans-35" transform="translate(63.623047 0.78125)"/>
       <use xlink:href="#DejaVuSans-30" transform="translate(127.246094 0.78125)"/>
      </g>
     </g>
    </g>
    <g id="xtick_3">
     <g id="line2d_5">
      <path d="M 362.804137 288.647244 
L 362.804137 2.952756 
" clip-path="url(#p43c8af22f7)" style="fill: none; stroke: #000000; stroke-opacity: 0.1; stroke-width: 0.5; stroke-linecap: square"/>
     </g>
     <g id="line2d_6">
      <g>
       <use xlink:href="#mfe2bfd192e" x="362.804137" y="288.647244" style="stroke: #000000; stroke-width: 0.5"/>
      </g>
     </g>
     <g id="text_3">
      <!-- $500$ -->
      <g transform="translate(339.884137 310.383494)scale(0.24 -0.24)">
       <use xlink:href="#DejaVuSans-35" transform="translate(0 0.78125)"/>
       <use xlink:href="#DejaVuSans-30" transform="translate(63.623047 0.78125)"/>
       <use xlink:href="#DejaVuSans-30" transform="translate(127.246094 0.78125)"/>
      </g>
     </g>
    </g>
    <g id="xtick_4">
     <g id="line2d_7">
      <path d="M 511.165046 288.647244 
L 511.165046 2.952756 
" clip-path="url(#p43c8af22f7)" style="fill: none; stroke: #000000; stroke-opacity: 0.1; stroke-width: 0.5; stroke-linecap: square"/>
     </g>
     <g id="line2d_8">
      <g>
       <use xlink:href="#mfe2bfd192e" x="511.165046" y="288.647244" style="stroke: #000000; stroke-width: 0.5"/>
      </g>
     </g>
     <g id="text_4">
      <!-- $750$ -->
      <g transform="translate(488.245046 310.383494)scale(0.24 -0.24)">
       <defs>
        <path id="DejaVuSans-37" d="M 525 4666 
L 3525 4666 
L 3525 4397 
L 1831 0 
L 1172 0 
L 2766 4134 
L 525 4134 
L 525 4666 
z
" transform="scale(0.015625)"/>
       </defs>
       <use xlink:href="#DejaVuSans-37" transform="translate(0 0.78125)"/>
       <use xlink:href="#DejaVuSans-35" transform="translate(63.623047 0.78125)"/>
       <use xlink:href="#DejaVuSans-30" transform="translate(127.246094 0.78125)"/>
      </g>
     </g>
    </g>
    <g id="xtick_5">
     <g id="line2d_9">
      <path d="M 659.525956 288.647244 
L 659.525956 2.952756 
" clip-path="url(#p43c8af22f7)" style="fill: none; stroke: #000000; stroke-opacity: 0.1; stroke-width: 0.5; stroke-linecap: square"/>
     </g>
     <g id="line2d_10">
      <g>
       <use xlink:href="#mfe2bfd192e" x="659.525956" y="288.647244" style="stroke: #000000; stroke-width: 0.5"/>
      </g>
     </g>
     <g id="text_5">
      <!-- $1000$ -->
      <g transform="translate(628.925956 310.383494)scale(0.24 -0.24)">
       <defs>
        <path id="DejaVuSans-31" d="M 794 531 
L 1825 531 
L 1825 4091 
L 703 3866 
L 703 4441 
L 1819 4666 
L 2450 4666 
L 2450 531 
L 3481 531 
L 3481 0 
L 794 0 
L 794 531 
z
" transform="scale(0.015625)"/>
       </defs>
       <use xlink:href="#DejaVuSans-31" transform="translate(0 0.78125)"/>
       <use xlink:href="#DejaVuSans-30" transform="translate(63.623047 0.78125)"/>
       <use xlink:href="#DejaVuSans-30" transform="translate(127.246094 0.78125)"/>
       <use xlink:href="#DejaVuSans-30" transform="translate(190.869141 0.78125)"/>
      </g>
     </g>
    </g>
    <g id="text_6">
     <!-- MC steps -->
     <g transform="translate(308.345234 337.610994)scale(0.24 -0.24)">
      <defs>
       <path id="DejaVuSans-4d" d="M 628 4666 
L 1569 4666 
L 2759 1491 
L 3956 4666 
L 4897 4666 
L 4897 0 
L 4281 0 
L 4281 4097 
L 3078 897 
L 2444 897 
L 1241 4097 
L 1241 0 
L 628 0 
L 628 4666 
z
" transform="scale(0.015625)"/>
       <path id="DejaVuSans-43" d="M 4122 4306 
L 4122 3641 
Q 3803 3938 3442 4084 
Q 3081 4231 2675 4231 
Q 1875 4231 1450 3742 
Q 1025 3253 1025 2328 
Q 1025 1406 1450 917 
Q 1875 428 2675 428 
Q 3081 428 3442 575 
Q 3803 722 4122 1019 
L 4122 359 
Q 3791 134 3420 21 
Q 3050 -91 2638 -91 
Q 1578 -91 968 557 
Q 359 1206 359 2328 
Q 359 3453 968 4101 
Q 1578 4750 2638 4750 
Q 3056 4750 3426 4639 
Q 3797 4528 4122 4306 
z
" transform="scale(0.015625)"/>
       <path id="DejaVuSans-20" transform="scale(0.015625)"/>
       <path id="DejaVuSans-73" d="M 2834 3397 
L 2834 2853 
Q 2591 2978 2328 3040 
Q 2066 3103 1784 3103 
Q 1356 3103 1142 2972 
Q 928 2841 928 2578 
Q 928 2378 1081 2264 
Q 1234 2150 1697 2047 
L 1894 2003 
Q 2506 1872 2764 1633 
Q 3022 1394 3022 966 
Q 3022 478 2636 193 
Q 2250 -91 1575 -91 
Q 1294 -91 989 -36 
Q 684 19 347 128 
L 347 722 
Q 666 556 975 473 
Q 1284 391 1588 391 
Q 1994 391 2212 530 
Q 2431 669 2431 922 
Q 2431 1156 2273 1281 
Q 2116 1406 1581 1522 
L 1381 1569 
Q 847 1681 609 1914 
Q 372 2147 372 2553 
Q 372 3047 722 3315 
Q 1072 3584 1716 3584 
Q 2034 3584 2315 3537 
Q 2597 3491 2834 3397 
z
" transform="scale(0.015625)"/>
       <path id="DejaVuSans-74" d="M 1172 4494 
L 1172 3500 
L 2356 3500 
L 2356 3053 
L 1172 3053 
L 1172 1153 
Q 1172 725 1289 603 
Q 1406 481 1766 481 
L 2356 481 
L 2356 0 
L 1766 0 
Q 1100 0 847 248 
Q 594 497 594 1153 
L 594 3053 
L 172 3053 
L 172 3500 
L 594 3500 
L 594 4494 
L 1172 4494 
z
" transform="scale(0.015625)"/>
       <path id="DejaVuSans-65" d="M 3597 1894 
L 3597 1613 
L 953 1613 
Q 991 1019 1311 708 
Q 1631 397 2203 397 
Q 2534 397 2845 478 
Q 3156 559 3463 722 
L 3463 178 
Q 3153 47 2828 -22 
Q 2503 -91 2169 -91 
Q 1331 -91 842 396 
Q 353 884 353 1716 
Q 353 2575 817 3079 
Q 1281 3584 2069 3584 
Q 2775 3584 3186 3129 
Q 3597 2675 3597 1894 
z
M 3022 2063 
Q 3016 2534 2758 2815 
Q 2500 3097 2075 3097 
Q 1594 3097 1305 2825 
Q 1016 2553 972 2059 
L 3022 2063 
z
" transform="scale(0.015625)"/>
       <path id="DejaVuSans-70" d="M 1159 525 
L 1159 -1331 
L 581 -1331 
L 581 3500 
L 1159 3500 
L 1159 2969 
Q 1341 3281 1617 3432 
Q 1894 3584 2278 3584 
Q 2916 3584 3314 3078 
Q 3713 2572 3713 1747 
Q 3713 922 3314 415 
Q 2916 -91 2278 -91 
Q 1894 -91 1617 61 
Q 1341 213 1159 525 
z
M 3116 1747 
Q 3116 2381 2855 2742 
Q 2594 3103 2138 3103 
Q 1681 3103 1420 2742 
Q 1159 2381 1159 1747 
Q 1159 1113 1420 752 
Q 1681 391 2138 391 
Q 2594 391 2855 752 
Q 3116 1113 3116 1747 
z
" transform="scale(0.015625)"/>
      </defs>
      <use xlink:href="#DejaVuSans-4d"/>
      <use xlink:href="#DejaVuSans-43" x="86.279297"/>
      <use xlink:href="#DejaVuSans-20" x="156.103516"/>
      <use xlink:href="#DejaVuSans-73" x="187.890625"/>
      <use xlink:href="#DejaVuSans-74" x="239.990234"/>
      <use xlink:href="#DejaVuSans-65" x="279.199219"/>
      <use xlink:href="#DejaVuSans-70" x="340.722656"/>
      <use xlink:href="#DejaVuSans-73" x="404.199219"/>
     </g>
    </g>
   </g>
   <g id="matplotlib.axis_2">
    <g id="ytick_1">
     <g id="line2d_11">
      <path d="M 48.890256 280.561551 
L 677.311461 280.561551 
" clip-path="url(#p43c8af22f7)" style="fill: none; stroke: #000000; stroke-opacity: 0.1; stroke-width: 0.5; stroke-linecap: square"/>
     </g>
     <g id="line2d_12">
      <defs>
       <path id="ma77772de84" d="M 0 0 
L 2.5 0 
" style="stroke: #000000; stroke-width: 0.5"/>
      </defs>
      <g>
       <use xlink:href="#ma77772de84" x="48.890256" y="280.561551" style="stroke: #000000; stroke-width: 0.5"/>
      </g>
     </g>
     <g id="text_7">
      <!-- $0$ -->
      <g transform="translate(30.030256 289.679676)scale(0.24 -0.24)">
       <use xlink:href="#DejaVuSans-30" transform="translate(0 0.78125)"/>
      </g>
     </g>
    </g>
    <g id="ytick_2">
     <g id="line2d_13">
      <path d="M 48.890256 201.353476 
L 677.311461 201.353476 
" clip-path="url(#p43c8af22f7)" style="fill: none; stroke: #000000; stroke-opacity: 0.1; stroke-width: 0.5; stroke-linecap: square"/>
     </g>
     <g id="line2d_14">
      <g>
       <use xlink:href="#ma77772de84" x="48.890256" y="201.353476" style="stroke: #000000; stroke-width: 0.5"/>
      </g>
     </g>
     <g id="text_8">
      <!-- $1$ -->
      <g transform="translate(30.030256 210.471601)scale(0.24 -0.24)">
       <use xlink:href="#DejaVuSans-31" transform="translate(0 0.09375)"/>
      </g>
     </g>
    </g>
    <g id="ytick_3">
     <g id="line2d_15">
      <path d="M 48.890256 122.1454 
L 677.311461 122.1454 
" clip-path="url(#p43c8af22f7)" style="fill: none; stroke: #000000; stroke-opacity: 0.1; stroke-width: 0.5; stroke-linecap: square"/>
     </g>
     <g id="line2d_16">
      <g>
       <use xlink:href="#ma77772de84" x="48.890256" y="122.1454" style="stroke: #000000; stroke-width: 0.5"/>
      </g>
     </g>
     <g id="text_9">
      <!-- $2$ -->
      <g transform="translate(30.030256 131.263525)scale(0.24 -0.24)">
       <use xlink:href="#DejaVuSans-32" transform="translate(0 0.78125)"/>
      </g>
     </g>
    </g>
    <g id="ytick_4">
     <g id="line2d_17">
      <path d="M 48.890256 42.937325 
L 677.311461 42.937325 
" clip-path="url(#p43c8af22f7)" style="fill: none; stroke: #000000; stroke-opacity: 0.1; stroke-width: 0.5; stroke-linecap: square"/>
     </g>
     <g id="line2d_18">
      <g>
       <use xlink:href="#ma77772de84" x="48.890256" y="42.937325" style="stroke: #000000; stroke-width: 0.5"/>
      </g>
     </g>
     <g id="text_10">
      <!-- $3$ -->
      <g transform="translate(30.030256 52.05545)scale(0.24 -0.24)">
       <defs>
        <path id="DejaVuSans-33" d="M 2597 2516 
Q 3050 2419 3304 2112 
Q 3559 1806 3559 1356 
Q 3559 666 3084 287 
Q 2609 -91 1734 -91 
Q 1441 -91 1130 -33 
Q 819 25 488 141 
L 488 750 
Q 750 597 1062 519 
Q 1375 441 1716 441 
Q 2309 441 2620 675 
Q 2931 909 2931 1356 
Q 2931 1769 2642 2001 
Q 2353 2234 1838 2234 
L 1294 2234 
L 1294 2753 
L 1863 2753 
Q 2328 2753 2575 2939 
Q 2822 3125 2822 3475 
Q 2822 3834 2567 4026 
Q 2313 4219 1838 4219 
Q 1578 4219 1281 4162 
Q 984 4106 628 3988 
L 628 4550 
Q 988 4650 1302 4700 
Q 1616 4750 1894 4750 
Q 2613 4750 3031 4423 
Q 3450 4097 3450 3541 
Q 3450 3153 3228 2886 
Q 3006 2619 2597 2516 
z
" transform="scale(0.015625)"/>
       </defs>
       <use xlink:href="#DejaVuSans-33" transform="translate(0 0.78125)"/>
      </g>
     </g>
    </g>
    <g id="text_11">
     <!-- MC value -->
     <g transform="translate(21.039006 201.125625)rotate(-90)scale(0.24 -0.24)">
      <defs>
       <path id="DejaVuSans-76" d="M 191 3500 
L 800 3500 
L 1894 563 
L 2988 3500 
L 3597 3500 
L 2284 0 
L 1503 0 
L 191 3500 
z
" transform="scale(0.015625)"/>
       <path id="DejaVuSans-61" d="M 2194 1759 
Q 1497 1759 1228 1600 
Q 959 1441 959 1056 
Q 959 750 1161 570 
Q 1363 391 1709 391 
Q 2188 391 2477 730 
Q 2766 1069 2766 1631 
L 2766 1759 
L 2194 1759 
z
M 3341 1997 
L 3341 0 
L 2766 0 
L 2766 531 
Q 2569 213 2275 61 
Q 1981 -91 1556 -91 
Q 1019 -91 701 211 
Q 384 513 384 1019 
Q 384 1609 779 1909 
Q 1175 2209 1959 2209 
L 2766 2209 
L 2766 2266 
Q 2766 2663 2505 2880 
Q 2244 3097 1772 3097 
Q 1472 3097 1187 3025 
Q 903 2953 641 2809 
L 641 3341 
Q 956 3463 1253 3523 
Q 1550 3584 1831 3584 
Q 2591 3584 2966 3190 
Q 3341 2797 3341 1997 
z
" transform="scale(0.015625)"/>
       <path id="DejaVuSans-6c" d="M 603 4863 
L 1178 4863 
L 1178 0 
L 603 0 
L 603 4863 
z
" transform="scale(0.015625)"/>
       <path id="DejaVuSans-75" d="M 544 1381 
L 544 3500 
L 1119 3500 
L 1119 1403 
Q 1119 906 1312 657 
Q 1506 409 1894 409 
Q 2359 409 2629 706 
Q 2900 1003 2900 1516 
L 2900 3500 
L 3475 3500 
L 3475 0 
L 2900 0 
L 2900 538 
Q 2691 219 2414 64 
Q 2138 -91 1772 -91 
Q 1169 -91 856 284 
Q 544 659 544 1381 
z
M 1991 3584 
L 1991 3584 
z
" transform="scale(0.015625)"/>
      </defs>
      <use xlink:href="#DejaVuSans-4d"/>
      <use xlink:href="#DejaVuSans-43" x="86.279297"/>
      <use xlink:href="#DejaVuSans-20" x="156.103516"/>
      <use xlink:href="#DejaVuSans-76" x="187.890625"/>
      <use xlink:href="#DejaVuSans-61" x="247.070312"/>
      <use xlink:href="#DejaVuSans-6c" x="308.349609"/>
      <use xlink:href="#DejaVuSans-75" x="336.132812"/>
      <use xlink:href="#DejaVuSans-65" x="399.511719"/>
     </g>
    </g>
   </g>
   <g id="line2d_19">
    <path d="M 66.675762 280.561551 
L 67.269205 115.852989 
L 67.862649 170.755843 
L 68.456093 115.852989 
L 69.049536 82.911276 
L 69.64298 60.950135 
L 70.236424 45.263605 
L 70.829867 33.498707 
L 71.423311 24.348232 
L 72.610198 11.038449 
L 73.797085 52.503542 
L 74.983973 38.988993 
L 76.17086 67.409294 
L 77.357747 55.170887 
L 77.951191 66.44042 
L 79.138078 55.958966 
L 80.324965 47.224421 
L 81.511853 39.833652 
L 82.69874 57.028502 
L 83.292184 64.736538 
L 83.885627 60.950135 
L 84.479071 68.034374 
L 85.665958 60.950135 
L 86.259402 67.409294 
L 86.852845 64.08744 
L 87.446289 70.10061 
L 89.22662 60.950135 
L 90.413507 55.593759 
L 91.006951 60.950135 
L 91.600394 58.396513 
L 92.193838 63.445719 
L 92.787282 60.950135 
L 94.567613 74.675848 
L 95.7545 82.911276 
L 96.347944 80.327612 
L 96.941387 84.178265 
L 98.128275 79.251086 
L 98.721718 82.911276 
L 99.315162 80.558297 
L 99.908605 84.067126 
L 101.095493 79.561272 
L 101.688936 82.911276 
L 102.875824 78.660733 
L 103.469267 81.865508 
L 104.062711 79.822991 
L 104.656155 82.911276 
L 105.843042 78.977937 
L 108.216816 90.334761 
L 109.403704 95.546454 
L 109.997147 93.595075 
L 110.590591 96.087961 
L 112.964365 88.749048 
L 113.557809 91.146704 
L 114.744696 87.732015 
L 115.33814 90.055262 
L 116.525027 86.786772 
L 117.118471 89.039967 
L 117.711915 87.454961 
L 118.305358 89.649354 
L 120.679133 83.6274 
L 123.052907 78.107276 
L 124.239795 82.238996 
L 126.020125 78.345098 
L 126.613569 80.327612 
L 128.3939 76.636664 
L 130.767675 84.120146 
L 131.361118 82.911276 
L 132.548005 86.440745 
L 135.515224 80.658851 
L 136.108667 79.561272 
L 136.702111 81.25035 
L 137.295555 80.166133 
L 138.482442 83.451304 
L 139.669329 81.317322 
L 140.262773 82.911276 
L 141.44966 80.836208 
L 142.043104 82.396562 
L 142.636547 81.379104 
L 143.229991 82.911276 
L 143.823435 81.905422 
L 144.416878 83.410393 
L 146.197209 80.471149 
L 146.790653 81.942402 
L 148.570984 79.119424 
L 149.164427 80.558297 
L 149.757871 79.640468 
L 150.351315 81.055405 
L 150.944758 80.146937 
L 151.538202 81.538705 
L 154.50542 77.163058 
L 155.098864 78.519048 
L 156.285751 76.843066 
L 156.879195 78.174559 
L 157.472638 77.349688 
L 158.066082 78.660733 
L 159.846413 76.239537 
L 160.439856 77.524581 
L 162.813631 74.423228 
L 164.000518 76.921874 
L 166.967736 73.222537 
L 167.56118 74.435046 
L 168.154624 73.71824 
L 169.341511 76.095749 
L 169.934955 75.381742 
L 171.715286 78.839829 
L 174.08906 76.033336 
L 174.682504 77.150977 
L 175.275947 76.466159 
L 175.869391 77.569377 
L 177.649722 75.551957 
L 178.243166 76.636664 
L 179.430053 75.322609 
L 180.023496 76.391562 
L 180.61694 75.742613 
L 181.210384 76.798381 
L 181.803827 76.154002 
L 182.397271 77.196897 
L 183.584158 75.92364 
L 184.177602 76.951971 
L 185.364489 75.700155 
L 186.551376 77.718494 
L 187.14482 77.098033 
L 187.738264 78.090538 
L 191.892369 73.898921 
L 195.453031 70.520357 
L 196.046475 71.479449 
L 200.794024 67.238567 
L 201.387467 66.729382 
L 202.574355 68.588793 
L 203.761242 67.576341 
L 204.354686 68.490441 
L 206.72846 66.509917 
L 207.915347 68.301144 
L 210.882566 65.900392 
L 211.476009 66.77656 
L 212.662897 65.840267 
L 214.443227 68.416923 
L 215.036671 67.949702 
L 216.223558 69.630428 
L 217.410446 68.701126 
L 218.003889 69.528705 
L 220.971107 67.260807 
L 221.564551 68.074932 
L 223.344882 66.751191 
L 223.938326 67.554989 
L 224.531769 67.118995 
L 225.125213 67.915422 
L 226.905544 66.622754 
L 228.092431 68.190071 
L 229.872762 66.917836 
L 230.466206 67.689113 
L 232.83998 66.030114 
L 233.433424 66.790864 
L 235.807198 65.173431 
L 236.400642 65.923912 
L 238.180973 64.736538 
L 238.774417 65.478205 
L 239.36786 65.086651 
L 241.148191 67.277921 
L 241.741635 66.885578 
L 242.928522 68.319645 
L 243.521966 67.927755 
L 244.115409 68.636534 
L 245.89574 67.473246 
L 247.082628 68.870546 
L 250.643289 66.599303 
L 251.830177 67.966474 
L 252.42362 67.594429 
L 253.017064 68.270515 
L 254.203951 67.531549 
L 254.797395 68.201455 
L 256.577726 67.107464 
L 257.171169 67.770365 
L 258.9515 66.693818 
L 261.325275 69.294033 
L 262.512162 68.580138 
L 263.105606 69.218637 
L 264.292493 68.511605 
L 264.885937 69.14459 
L 265.47938 68.793399 
L 266.666268 70.046465 
L 267.259711 69.695722 
L 268.446598 70.932472 
L 269.040042 70.582214 
L 269.633486 71.194399 
L 271.413817 70.153503 
L 272.00726 70.759866 
L 274.381035 69.396727 
L 274.974478 69.996628 
L 275.567922 69.659936 
L 276.161366 70.255703 
L 280.315471 67.946066 
L 280.908915 68.533402 
L 284.469577 66.619451 
L 285.06302 67.19924 
L 285.656464 66.885578 
L 286.249908 67.461524 
L 289.217126 65.914754 
L 291.5909 68.174194 
L 292.184344 67.86703 
L 293.371231 68.977706 
L 294.558119 68.365585 
L 295.745006 69.462205 
L 296.931893 68.853887 
L 298.11878 69.936791 
L 299.305668 69.33225 
L 299.899111 69.868365 
L 300.492555 69.567798 
L 301.679442 70.630739 
L 305.240104 68.851786 
L 305.833548 69.37582 
L 307.613879 68.504336 
L 308.207322 69.024084 
L 309.987653 68.163648 
L 310.581097 68.679177 
L 311.17454 68.394589 
L 311.767984 68.90707 
L 313.548315 68.059857 
L 314.735202 69.074185 
L 315.922089 68.513948 
L 317.70242 70.014285 
L 321.856526 68.083684 
L 322.449969 68.575531 
L 323.636857 68.034374 
L 326.010631 69.975261 
L 327.790962 69.166888 
L 328.384406 69.645157 
L 333.131955 67.538477 
L 334.318842 68.481057 
L 337.879504 66.943896 
L 338.472948 67.409294 
L 339.659835 66.904891 
L 340.846722 67.827814 
L 344.407384 66.335063 
L 345.000828 66.790864 
L 345.594271 66.54533 
L 346.187715 66.998754 
L 347.968046 66.267043 
L 349.748377 67.611987 
L 350.34182 67.36884 
L 351.528708 68.255296 
L 352.715595 67.770365 
L 353.309039 68.210016 
L 356.8697 66.77656 
L 358.056588 67.645605 
L 358.650031 67.409294 
L 359.836919 68.270515 
L 362.804137 67.099254 
L 363.39758 67.525327 
L 366.364799 66.375318 
L 367.551686 67.218571 
L 368.738573 66.763378 
L 369.332017 67.18177 
L 372.299235 66.057377 
L 372.892679 66.472278 
L 373.486122 66.249638 
L 374.67301 67.073914 
L 375.266453 66.851401 
L 375.859897 67.260807 
L 378.233671 66.377793 
L 381.20089 68.394589 
L 382.387777 67.954626 
L 382.98122 68.352767 
L 384.761551 67.697971 
L 385.948439 68.487818 
L 386.541882 68.270515 
L 387.135326 68.66292 
L 388.322213 68.230071 
L 388.915657 68.620386 
L 389.509101 68.404834 
L 390.102544 68.793399 
L 390.695988 68.578319 
L 391.882875 69.350571 
L 394.25665 68.495554 
L 394.850093 68.878345 
L 398.410755 67.61691 
L 399.004199 67.99649 
L 400.191086 67.581385 
L 400.78453 67.95901 
L 402.564861 67.340943 
L 403.158304 67.716331 
L 403.751748 67.51146 
L 404.345191 67.885232 
L 404.938635 67.680782 
L 405.532079 68.052951 
L 406.718966 67.645605 
L 407.905853 68.384896 
L 410.279628 67.576341 
L 410.873071 67.942925 
L 412.653402 67.342933 
L 413.246846 67.707409 
L 416.214064 66.719587 
L 416.807508 67.081418 
L 418.587839 66.495877 
L 419.181282 66.855652 
L 421.555057 66.082956 
L 422.148501 66.44042 
L 426.302606 65.110812 
L 426.89605 65.465172 
L 428.082937 65.09035 
L 429.269824 65.794504 
L 429.863268 65.607473 
L 431.643599 66.654327 
L 432.237042 66.467115 
L 436.391148 68.868815 
L 440.545253 67.56284 
L 441.138697 67.899863 
L 441.732141 67.715415 
L 442.325584 68.051135 
L 445.886246 66.955134 
L 446.47969 67.288374 
L 448.853464 66.568101 
L 449.446908 66.89936 
L 450.633795 66.542092 
L 451.820682 67.200613 
L 453.601013 66.66743 
L 455.381344 67.645605 
L 457.755119 66.939537 
L 458.348562 67.262717 
L 458.942006 67.087312 
L 459.53545 67.409294 
L 462.502668 66.539048 
L 464.282999 67.495929 
L 464.876442 67.322787 
L 465.469886 67.639635 
L 466.06333 67.466794 
L 468.437104 68.72399 
L 469.030548 68.550824 
L 469.623992 68.862605 
L 471.404322 68.345541 
L 472.59121 68.96515 
L 475.558428 68.111376 
L 476.151872 68.41883 
L 476.745315 68.249358 
L 477.932202 68.861209 
L 479.11909 68.522942 
L 480.899421 69.432979 
L 481.492864 69.263995 
L 482.679752 69.865983 
L 483.273195 69.697104 
L 483.866639 69.996628 
L 485.64697 69.492304 
L 486.240413 69.790425 
L 488.020744 69.289809 
L 490.394519 70.471748 
L 492.768293 69.807897 
L 493.361737 70.10061 
L 494.548624 69.771092 
L 495.735512 70.353386 
L 496.328955 70.18896 
L 498.109286 71.05588 
L 498.70273 70.891392 
L 499.889617 71.465045 
L 500.483061 71.300673 
L 501.076504 71.586158 
L 502.263392 71.258426 
L 503.450279 71.826412 
L 504.637166 71.499803 
L 505.23061 71.782319 
L 507.010941 71.295221 
L 507.604384 71.576493 
L 508.197828 71.41484 
L 508.791272 71.695197 
L 509.384715 71.533817 
L 509.978159 71.813266 
L 511.165046 71.491483 
L 511.75849 71.769871 
L 515.319152 70.813791 
L 515.912595 71.090503 
L 516.506039 70.932472 
L 517.692926 71.483402 
L 518.28637 71.325477 
L 518.879813 71.599705 
L 519.473257 71.442041 
L 520.066701 71.7154 
L 520.660144 71.557997 
L 521.253588 71.830492 
L 521.847032 71.673348 
L 523.033919 72.215915 
L 524.81425 71.746039 
L 526.001137 72.284917 
L 526.594581 72.128808 
L 528.374912 72.931502 
L 529.561799 72.619627 
L 530.155243 72.885538 
L 532.529017 72.26599 
L 533.122461 72.53066 
L 534.309348 72.222964 
L 534.902792 72.486684 
L 535.496235 72.33328 
L 536.089679 72.596195 
L 536.683123 72.44304 
L 538.463454 73.227406 
L 541.430672 72.46534 
L 546.771664 74.77752 
L 548.551995 74.321309 
L 549.145439 74.574676 
L 549.738883 74.423228 
L 550.332326 74.675848 
L 552.112657 74.223352 
L 552.706101 74.474984 
L 554.486432 74.025419 
L 555.673319 74.526113 
L 556.860206 74.227729 
L 559.827424 75.467716 
L 563.388086 74.577573 
L 565.168417 75.312356 
L 565.761861 75.164888 
L 566.948748 75.65161 
L 568.135635 75.357266 
L 568.729079 75.599538 
L 569.915966 75.306358 
L 570.50941 75.547835 
L 575.256959 74.387896 
L 575.850403 74.627912 
L 576.443846 74.484326 
L 577.03729 74.723673 
L 580.004508 74.010167 
L 581.784839 74.723233 
L 584.158614 74.157007 
L 585.938945 74.863872 
L 586.532388 74.7228 
L 587.719275 75.191148 
L 591.279937 74.350153 
L 591.873381 74.582897 
L 593.060268 74.304883 
L 594.840599 74.99935 
L 601.961923 73.353437 
L 603.14881 73.811356 
L 604.335697 73.540866 
L 604.929141 73.768863 
L 606.116028 73.499358 
L 606.709472 73.726649 
L 607.302915 73.592239 
L 607.896359 73.818931 
L 608.489803 73.684713 
L 609.67669 74.13641 
L 610.863577 73.868453 
L 611.457021 74.093364 
L 612.050465 73.959724 
L 613.237352 74.407884 
L 619.171788 73.085315 
L 619.765232 73.30769 
L 620.358675 73.176894 
L 622.139006 73.840879 
L 623.325894 73.579545 
L 625.106225 74.238723 
L 626.886555 73.847948 
L 627.479999 74.066461 
L 628.073443 73.93666 
L 628.666886 74.154618 
L 632.227548 73.380969 
L 632.820992 73.597912 
L 638.161985 72.454675 
L 638.755428 72.670329 
L 639.942316 72.418983 
L 640.535759 72.634006 
L 643.502977 72.009702 
L 644.096421 72.223821 
L 645.283308 71.975708 
L 645.876752 72.189204 
L 647.657083 71.818659 
L 648.250526 72.031445 
L 648.84397 71.908342 
L 649.437414 72.120603 
L 653.591519 71.265216 
L 654.184963 71.476413 
L 654.778406 71.355111 
L 655.965294 71.776049 
L 658.932512 71.172288 
L 659.525956 71.381677 
L 659.525956 71.381677 
" clip-path="url(#p43c8af22f7)" style="fill: none; stroke: #009afa; stroke-width: 3"/>
   </g>
   <g id="line2d_20">
    <path d="M -1 78.962944 
L 692.2 78.962944 
" clip-path="url(#p43c8af22f7)" style="fill: none; stroke: #e36f47; stroke-width: 2"/>
   </g>
   <g id="patch_3">
    <path d="M 48.890256 288.647244 
L 48.890256 2.952756 
" style="fill: none; stroke: #000000; stroke-linejoin: miter; stroke-linecap: square"/>
   </g>
   <g id="patch_4">
    <path d="M 48.890256 288.647244 
L 677.311461 288.647244 
" style="fill: none; stroke: #000000; stroke-linejoin: miter; stroke-linecap: square"/>
   </g>
   <g id="legend_1">
    <g id="patch_5">
     <path d="M 490.996461 75.522756 
L 669.311461 75.522756 
L 669.311461 10.952756 
L 490.996461 10.952756 
z
" style="fill: #ffffff; stroke: #000000; stroke-linejoin: miter"/>
    </g>
    <g id="line2d_21">
     <path d="M 503.796461 30.310256 
L 519.796461 30.310256 
L 535.796461 30.310256 
" style="fill: none; stroke: #009afa; stroke-width: 2; stroke-linejoin: miter"/>
    </g>
    <g id="text_12">
     <!-- MC trajectory -->
     <g transform="translate(548.596461 35.910256)scale(0.16 -0.16)">
      <defs>
       <path id="DejaVuSans-72" d="M 2631 2963 
Q 2534 3019 2420 3045 
Q 2306 3072 2169 3072 
Q 1681 3072 1420 2755 
Q 1159 2438 1159 1844 
L 1159 0 
L 581 0 
L 581 3500 
L 1159 3500 
L 1159 2956 
Q 1341 3275 1631 3429 
Q 1922 3584 2338 3584 
Q 2397 3584 2469 3576 
Q 2541 3569 2628 3553 
L 2631 2963 
z
" transform="scale(0.015625)"/>
       <path id="DejaVuSans-6a" d="M 603 3500 
L 1178 3500 
L 1178 -63 
Q 1178 -731 923 -1031 
Q 669 -1331 103 -1331 
L -116 -1331 
L -116 -844 
L 38 -844 
Q 366 -844 484 -692 
Q 603 -541 603 -63 
L 603 3500 
z
M 603 4863 
L 1178 4863 
L 1178 4134 
L 603 4134 
L 603 4863 
z
" transform="scale(0.015625)"/>
       <path id="DejaVuSans-63" d="M 3122 3366 
L 3122 2828 
Q 2878 2963 2633 3030 
Q 2388 3097 2138 3097 
Q 1578 3097 1268 2742 
Q 959 2388 959 1747 
Q 959 1106 1268 751 
Q 1578 397 2138 397 
Q 2388 397 2633 464 
Q 2878 531 3122 666 
L 3122 134 
Q 2881 22 2623 -34 
Q 2366 -91 2075 -91 
Q 1284 -91 818 406 
Q 353 903 353 1747 
Q 353 2603 823 3093 
Q 1294 3584 2113 3584 
Q 2378 3584 2631 3529 
Q 2884 3475 3122 3366 
z
" transform="scale(0.015625)"/>
       <path id="DejaVuSans-6f" d="M 1959 3097 
Q 1497 3097 1228 2736 
Q 959 2375 959 1747 
Q 959 1119 1226 758 
Q 1494 397 1959 397 
Q 2419 397 2687 759 
Q 2956 1122 2956 1747 
Q 2956 2369 2687 2733 
Q 2419 3097 1959 3097 
z
M 1959 3584 
Q 2709 3584 3137 3096 
Q 3566 2609 3566 1747 
Q 3566 888 3137 398 
Q 2709 -91 1959 -91 
Q 1206 -91 779 398 
Q 353 888 353 1747 
Q 353 2609 779 3096 
Q 1206 3584 1959 3584 
z
" transform="scale(0.015625)"/>
       <path id="DejaVuSans-79" d="M 2059 -325 
Q 1816 -950 1584 -1140 
Q 1353 -1331 966 -1331 
L 506 -1331 
L 506 -850 
L 844 -850 
Q 1081 -850 1212 -737 
Q 1344 -625 1503 -206 
L 1606 56 
L 191 3500 
L 800 3500 
L 1894 763 
L 2988 3500 
L 3597 3500 
L 2059 -325 
z
" transform="scale(0.015625)"/>
      </defs>
      <use xlink:href="#DejaVuSans-4d"/>
      <use xlink:href="#DejaVuSans-43" x="86.279297"/>
      <use xlink:href="#DejaVuSans-20" x="156.103516"/>
      <use xlink:href="#DejaVuSans-74" x="187.890625"/>
      <use xlink:href="#DejaVuSans-72" x="227.099609"/>
      <use xlink:href="#DejaVuSans-61" x="268.212891"/>
      <use xlink:href="#DejaVuSans-6a" x="329.492188"/>
      <use xlink:href="#DejaVuSans-65" x="357.275391"/>
      <use xlink:href="#DejaVuSans-63" x="418.798828"/>
      <use xlink:href="#DejaVuSans-74" x="473.779297"/>
      <use xlink:href="#DejaVuSans-6f" x="512.988281"/>
      <use xlink:href="#DejaVuSans-72" x="574.169922"/>
      <use xlink:href="#DejaVuSans-79" x="615.283203"/>
     </g>
    </g>
    <g id="line2d_22">
     <path d="M 503.796461 53.795256 
L 519.796461 53.795256 
L 535.796461 53.795256 
" style="fill: none; stroke: #e36f47; stroke-width: 2; stroke-linejoin: miter"/>
    </g>
    <g id="text_13">
     <!-- Analytical -->
     <g transform="translate(548.596461 59.395256)scale(0.16 -0.16)">
      <defs>
       <path id="DejaVuSans-41" d="M 2188 4044 
L 1331 1722 
L 3047 1722 
L 2188 4044 
z
M 1831 4666 
L 2547 4666 
L 4325 0 
L 3669 0 
L 3244 1197 
L 1141 1197 
L 716 0 
L 50 0 
L 1831 4666 
z
" transform="scale(0.015625)"/>
       <path id="DejaVuSans-6e" d="M 3513 2113 
L 3513 0 
L 2938 0 
L 2938 2094 
Q 2938 2591 2744 2837 
Q 2550 3084 2163 3084 
Q 1697 3084 1428 2787 
Q 1159 2491 1159 1978 
L 1159 0 
L 581 0 
L 581 3500 
L 1159 3500 
L 1159 2956 
Q 1366 3272 1645 3428 
Q 1925 3584 2291 3584 
Q 2894 3584 3203 3211 
Q 3513 2838 3513 2113 
z
" transform="scale(0.015625)"/>
       <path id="DejaVuSans-69" d="M 603 3500 
L 1178 3500 
L 1178 0 
L 603 0 
L 603 3500 
z
M 603 4863 
L 1178 4863 
L 1178 4134 
L 603 4134 
L 603 4863 
z
" transform="scale(0.015625)"/>
      </defs>
      <use xlink:href="#DejaVuSans-41"/>
      <use xlink:href="#DejaVuSans-6e" x="68.408203"/>
      <use xlink:href="#DejaVuSans-61" x="131.787109"/>
      <use xlink:href="#DejaVuSans-6c" x="193.066406"/>
      <use xlink:href="#DejaVuSans-79" x="220.849609"/>
      <use xlink:href="#DejaVuSans-74" x="280.029297"/>
      <use xlink:href="#DejaVuSans-69" x="319.238281"/>
      <use xlink:href="#DejaVuSans-63" x="347.021484"/>
      <use xlink:href="#DejaVuSans-61" x="402.001953"/>
      <use xlink:href="#DejaVuSans-6c" x="463.28125"/>
     </g>
    </g>
   </g>
  </g>
 </g>
 <defs>
  <clipPath id="p43c8af22f7">
   <rect x="48.890256" y="2.952756" width="628.421205" height="285.694488"/>
  </clipPath>
 </defs>
</svg>
