<?xml version="1.0" encoding="utf-8" standalone="no"?>
<!DOCTYPE svg PUBLIC "-//W3C//DTD SVG 1.1//EN"
  "http://www.w3.org/Graphics/SVG/1.1/DTD/svg11.dtd">
<svg xmlns:xlink="http://www.w3.org/1999/xlink" width="691.2pt" height="345.6pt" viewBox="0 0 691.2 345.6" xmlns="http://www.w3.org/2000/svg" version="1.1">
 <metadata>
  <rdf:RDF xmlns:dc="http://purl.org/dc/elements/1.1/" xmlns:cc="http://creativecommons.org/ns#" xmlns:rdf="http://www.w3.org/1999/02/22-rdf-syntax-ns#">
   <cc:Work>
    <dc:type rdf:resource="http://purl.org/dc/dcmitype/StillImage"/>
    <dc:date>2022-09-30T16:04:32.327429</dc:date>
    <dc:format>image/svg+xml</dc:format>
    <dc:creator>
     <cc:Agent>
      <dc:title>Matplotlib v3.5.2, https://matplotlib.org/</dc:title>
     </cc:Agent>
    </dc:creator>
   </cc:Work>
  </rdf:RDF>
 </metadata>
 <defs>
  <style type="text/css">*{stroke-linejoin: round; stroke-linecap: butt}</style>
 </defs>
 <g id="figure_1">
  <g id="patch_1">
   <path d="M 0 345.6 
L 691.2 345.6 
L 691.2 0 
L 0 0 
z
" style="fill: #ffffff"/>
  </g>
  <g id="axes_1">
   <g id="patch_2">
    <path d="M 71.788693 288.647244 
L 677.311461 288.647244 
L 677.311461 2.952756 
L 71.788693 2.952756 
z
" style="fill: #ffffff"/>
   </g>
   <g id="matplotlib.axis_1">
    <g id="xtick_1">
     <g id="line2d_1">
      <path d="M 88.354311 288.647244 
L 88.354311 2.952756 
" clip-path="url(#pf82fb494c8)" style="fill: none; stroke: #000000; stroke-opacity: 0.1; stroke-width: 0.5; stroke-linecap: square"/>
     </g>
     <g id="line2d_2">
      <defs>
       <path id="m3041b940f4" d="M 0 0 
L 0 -2.5 
" style="stroke: #000000; stroke-width: 0.5"/>
      </defs>
      <g>
       <use xlink:href="#m3041b940f4" x="88.354311" y="288.647244" style="stroke: #000000; stroke-width: 0.5"/>
      </g>
     </g>
     <g id="text_1">
      <!-- $0$ -->
      <g transform="translate(80.674311 310.383494)scale(0.24 -0.24)">
       <defs>
        <path id="DejaVuSans-30" d="M 2034 4250 
Q 1547 4250 1301 3770 
Q 1056 3291 1056 2328 
Q 1056 1369 1301 889 
Q 1547 409 2034 409 
Q 2525 409 2770 889 
Q 3016 1369 3016 2328 
Q 3016 3291 2770 3770 
Q 2525 4250 2034 4250 
z
M 2034 4750 
Q 2819 4750 3233 4129 
Q 3647 3509 3647 2328 
Q 3647 1150 3233 529 
Q 2819 -91 2034 -91 
Q 1250 -91 836 529 
Q 422 1150 422 2328 
Q 422 3509 836 4129 
Q 1250 4750 2034 4750 
z
" transform="scale(0.015625)"/>
       </defs>
       <use xlink:href="#DejaVuSans-30" transform="translate(0 0.78125)"/>
      </g>
     </g>
    </g>
    <g id="xtick_2">
     <g id="line2d_3">
      <path d="M 231.309239 288.647244 
L 231.309239 2.952756 
" clip-path="url(#pf82fb494c8)" style="fill: none; stroke: #000000; stroke-opacity: 0.1; stroke-width: 0.5; stroke-linecap: square"/>
     </g>
     <g id="line2d_4">
      <g>
       <use xlink:href="#m3041b940f4" x="231.309239" y="288.647244" style="stroke: #000000; stroke-width: 0.5"/>
      </g>
     </g>
     <g id="text_2">
      <!-- $250$ -->
      <g transform="translate(208.389239 310.383494)scale(0.24 -0.24)">
       <defs>
        <path id="DejaVuSans-32" d="M 1228 531 
L 3431 531 
L 3431 0 
L 469 0 
L 469 531 
Q 828 903 1448 1529 
Q 2069 2156 2228 2338 
Q 2531 2678 2651 2914 
Q 2772 3150 2772 3378 
Q 2772 3750 2511 3984 
Q 2250 4219 1831 4219 
Q 1534 4219 1204 4116 
Q 875 4013 500 3803 
L 500 4441 
Q 881 4594 1212 4672 
Q 1544 4750 1819 4750 
Q 2544 4750 2975 4387 
Q 3406 4025 3406 3419 
Q 3406 3131 3298 2873 
Q 3191 2616 2906 2266 
Q 2828 2175 2409 1742 
Q 1991 1309 1228 531 
z
" transform="scale(0.015625)"/>
        <path id="DejaVuSans-35" d="M 691 4666 
L 3169 4666 
L 3169 4134 
L 1269 4134 
L 1269 2991 
Q 1406 3038 1543 3061 
Q 1681 3084 1819 3084 
Q 2600 3084 3056 2656 
Q 3513 2228 3513 1497 
Q 3513 744 3044 326 
Q 2575 -91 1722 -91 
Q 1428 -91 1123 -41 
Q 819 9 494 109 
L 494 744 
Q 775 591 1075 516 
Q 1375 441 1709 441 
Q 2250 441 2565 725 
Q 2881 1009 2881 1497 
Q 2881 1984 2565 2268 
Q 2250 2553 1709 2553 
Q 1456 2553 1204 2497 
Q 953 2441 691 2322 
L 691 4666 
z
" transform="scale(0.015625)"/>
       </defs>
       <use xlink:href="#DejaVuSans-32" transform="translate(0 0.78125)"/>
       <use xlink:href="#DejaVuSans-35" transform="translate(63.623047 0.78125)"/>
       <use xlink:href="#DejaVuSans-30" transform="translate(127.246094 0.78125)"/>
      </g>
     </g>
    </g>
    <g id="xtick_3">
     <g id="line2d_5">
      <path d="M 374.264168 288.647244 
L 374.264168 2.952756 
" clip-path="url(#pf82fb494c8)" style="fill: none; stroke: #000000; stroke-opacity: 0.1; stroke-width: 0.5; stroke-linecap: square"/>
     </g>
     <g id="line2d_6">
      <g>
       <use xlink:href="#m3041b940f4" x="374.264168" y="288.647244" style="stroke: #000000; stroke-width: 0.5"/>
      </g>
     </g>
     <g id="text_3">
      <!-- $500$ -->
      <g transform="translate(351.344168 310.383494)scale(0.24 -0.24)">
       <use xlink:href="#DejaVuSans-35" transform="translate(0 0.78125)"/>
       <use xlink:href="#DejaVuSans-30" transform="translate(63.623047 0.78125)"/>
       <use xlink:href="#DejaVuSans-30" transform="translate(127.246094 0.78125)"/>
      </g>
     </g>
    </g>
    <g id="xtick_4">
     <g id="line2d_7">
      <path d="M 517.219096 288.647244 
L 517.219096 2.952756 
" clip-path="url(#pf82fb494c8)" style="fill: none; stroke: #000000; stroke-opacity: 0.1; stroke-width: 0.5; stroke-linecap: square"/>
     </g>
     <g id="line2d_8">
      <g>
       <use xlink:href="#m3041b940f4" x="517.219096" y="288.647244" style="stroke: #000000; stroke-width: 0.5"/>
      </g>
     </g>
     <g id="text_4">
      <!-- $750$ -->
      <g transform="translate(494.299096 310.383494)scale(0.24 -0.24)">
       <defs>
        <path id="DejaVuSans-37" d="M 525 4666 
L 3525 4666 
L 3525 4397 
L 1831 0 
L 1172 0 
L 2766 4134 
L 525 4134 
L 525 4666 
z
" transform="scale(0.015625)"/>
       </defs>
       <use xlink:href="#DejaVuSans-37" transform="translate(0 0.78125)"/>
       <use xlink:href="#DejaVuSans-35" transform="translate(63.623047 0.78125)"/>
       <use xlink:href="#DejaVuSans-30" transform="translate(127.246094 0.78125)"/>
      </g>
     </g>
    </g>
    <g id="xtick_5">
     <g id="line2d_9">
      <path d="M 660.174025 288.647244 
L 660.174025 2.952756 
" clip-path="url(#pf82fb494c8)" style="fill: none; stroke: #000000; stroke-opacity: 0.1; stroke-width: 0.5; stroke-linecap: square"/>
     </g>
     <g id="line2d_10">
      <g>
       <use xlink:href="#m3041b940f4" x="660.174025" y="288.647244" style="stroke: #000000; stroke-width: 0.5"/>
      </g>
     </g>
     <g id="text_5">
      <!-- $1000$ -->
      <g transform="translate(629.574025 310.383494)scale(0.24 -0.24)">
       <defs>
        <path id="DejaVuSans-31" d="M 794 531 
L 1825 531 
L 1825 4091 
L 703 3866 
L 703 4441 
L 1819 4666 
L 2450 4666 
L 2450 531 
L 3481 531 
L 3481 0 
L 794 0 
L 794 531 
z
" transform="scale(0.015625)"/>
       </defs>
       <use xlink:href="#DejaVuSans-31" transform="translate(0 0.78125)"/>
       <use xlink:href="#DejaVuSans-30" transform="translate(63.623047 0.78125)"/>
       <use xlink:href="#DejaVuSans-30" transform="translate(127.246094 0.78125)"/>
       <use xlink:href="#DejaVuSans-30" transform="translate(190.869141 0.78125)"/>
      </g>
     </g>
    </g>
    <g id="text_6">
     <!-- MC steps -->
     <g transform="translate(319.794452 337.610994)scale(0.24 -0.24)">
      <defs>
       <path id="DejaVuSans-4d" d="M 628 4666 
L 1569 4666 
L 2759 1491 
L 3956 4666 
L 4897 4666 
L 4897 0 
L 4281 0 
L 4281 4097 
L 3078 897 
L 2444 897 
L 1241 4097 
L 1241 0 
L 628 0 
L 628 4666 
z
" transform="scale(0.015625)"/>
       <path id="DejaVuSans-43" d="M 4122 4306 
L 4122 3641 
Q 3803 3938 3442 4084 
Q 3081 4231 2675 4231 
Q 1875 4231 1450 3742 
Q 1025 3253 1025 2328 
Q 1025 1406 1450 917 
Q 1875 428 2675 428 
Q 3081 428 3442 575 
Q 3803 722 4122 1019 
L 4122 359 
Q 3791 134 3420 21 
Q 3050 -91 2638 -91 
Q 1578 -91 968 557 
Q 359 1206 359 2328 
Q 359 3453 968 4101 
Q 1578 4750 2638 4750 
Q 3056 4750 3426 4639 
Q 3797 4528 4122 4306 
z
" transform="scale(0.015625)"/>
       <path id="DejaVuSans-20" transform="scale(0.015625)"/>
       <path id="DejaVuSans-73" d="M 2834 3397 
L 2834 2853 
Q 2591 2978 2328 3040 
Q 2066 3103 1784 3103 
Q 1356 3103 1142 2972 
Q 928 2841 928 2578 
Q 928 2378 1081 2264 
Q 1234 2150 1697 2047 
L 1894 2003 
Q 2506 1872 2764 1633 
Q 3022 1394 3022 966 
Q 3022 478 2636 193 
Q 2250 -91 1575 -91 
Q 1294 -91 989 -36 
Q 684 19 347 128 
L 347 722 
Q 666 556 975 473 
Q 1284 391 1588 391 
Q 1994 391 2212 530 
Q 2431 669 2431 922 
Q 2431 1156 2273 1281 
Q 2116 1406 1581 1522 
L 1381 1569 
Q 847 1681 609 1914 
Q 372 2147 372 2553 
Q 372 3047 722 3315 
Q 1072 3584 1716 3584 
Q 2034 3584 2315 3537 
Q 2597 3491 2834 3397 
z
" transform="scale(0.015625)"/>
       <path id="DejaVuSans-74" d="M 1172 4494 
L 1172 3500 
L 2356 3500 
L 2356 3053 
L 1172 3053 
L 1172 1153 
Q 1172 725 1289 603 
Q 1406 481 1766 481 
L 2356 481 
L 2356 0 
L 1766 0 
Q 1100 0 847 248 
Q 594 497 594 1153 
L 594 3053 
L 172 3053 
L 172 3500 
L 594 3500 
L 594 4494 
L 1172 4494 
z
" transform="scale(0.015625)"/>
       <path id="DejaVuSans-65" d="M 3597 1894 
L 3597 1613 
L 953 1613 
Q 991 1019 1311 708 
Q 1631 397 2203 397 
Q 2534 397 2845 478 
Q 3156 559 3463 722 
L 3463 178 
Q 3153 47 2828 -22 
Q 2503 -91 2169 -91 
Q 1331 -91 842 396 
Q 353 884 353 1716 
Q 353 2575 817 3079 
Q 1281 3584 2069 3584 
Q 2775 3584 3186 3129 
Q 3597 2675 3597 1894 
z
M 3022 2063 
Q 3016 2534 2758 2815 
Q 2500 3097 2075 3097 
Q 1594 3097 1305 2825 
Q 1016 2553 972 2059 
L 3022 2063 
z
" transform="scale(0.015625)"/>
       <path id="DejaVuSans-70" d="M 1159 525 
L 1159 -1331 
L 581 -1331 
L 581 3500 
L 1159 3500 
L 1159 2969 
Q 1341 3281 1617 3432 
Q 1894 3584 2278 3584 
Q 2916 3584 3314 3078 
Q 3713 2572 3713 1747 
Q 3713 922 3314 415 
Q 2916 -91 2278 -91 
Q 1894 -91 1617 61 
Q 1341 213 1159 525 
z
M 3116 1747 
Q 3116 2381 2855 2742 
Q 2594 3103 2138 3103 
Q 1681 3103 1420 2742 
Q 1159 2381 1159 1747 
Q 1159 1113 1420 752 
Q 1681 391 2138 391 
Q 2594 391 2855 752 
Q 3116 1113 3116 1747 
z
" transform="scale(0.015625)"/>
      </defs>
      <use xlink:href="#DejaVuSans-4d"/>
      <use xlink:href="#DejaVuSans-43" x="86.279297"/>
      <use xlink:href="#DejaVuSans-20" x="156.103516"/>
      <use xlink:href="#DejaVuSans-73" x="187.890625"/>
      <use xlink:href="#DejaVuSans-74" x="239.990234"/>
      <use xlink:href="#DejaVuSans-65" x="279.199219"/>
      <use xlink:href="#DejaVuSans-70" x="340.722656"/>
      <use xlink:href="#DejaVuSans-73" x="404.199219"/>
     </g>
    </g>
   </g>
   <g id="matplotlib.axis_2">
    <g id="ytick_1">
     <g id="line2d_11">
      <path d="M 71.788693 286.382317 
L 677.311461 286.382317 
" clip-path="url(#pf82fb494c8)" style="fill: none; stroke: #000000; stroke-opacity: 0.1; stroke-width: 0.5; stroke-linecap: square"/>
     </g>
     <g id="line2d_12">
      <defs>
       <path id="m234e6b1bb2" d="M 0 0 
L 2.5 0 
" style="stroke: #000000; stroke-width: 0.5"/>
      </defs>
      <g>
       <use xlink:href="#m234e6b1bb2" x="71.788693" y="286.382317" style="stroke: #000000; stroke-width: 0.5"/>
      </g>
     </g>
     <g id="text_7">
      <!-- $2.5$ -->
      <g transform="translate(29.888693 295.500442)scale(0.24 -0.24)">
       <defs>
        <path id="DejaVuSans-2e" d="M 684 794 
L 1344 794 
L 1344 0 
L 684 0 
L 684 794 
z
" transform="scale(0.015625)"/>
       </defs>
       <use xlink:href="#DejaVuSans-32" transform="translate(0 0.78125)"/>
       <use xlink:href="#DejaVuSans-2e" transform="translate(63.623047 0.78125)"/>
       <use xlink:href="#DejaVuSans-35" transform="translate(95.410156 0.78125)"/>
      </g>
     </g>
    </g>
    <g id="ytick_2">
     <g id="line2d_13">
      <path d="M 71.788693 203.391577 
L 677.311461 203.391577 
" clip-path="url(#pf82fb494c8)" style="fill: none; stroke: #000000; stroke-opacity: 0.1; stroke-width: 0.5; stroke-linecap: square"/>
     </g>
     <g id="line2d_14">
      <g>
       <use xlink:href="#m234e6b1bb2" x="71.788693" y="203.391577" style="stroke: #000000; stroke-width: 0.5"/>
      </g>
     </g>
     <g id="text_8">
      <!-- $3.0$ -->
      <g transform="translate(29.888693 212.509702)scale(0.24 -0.24)">
       <defs>
        <path id="DejaVuSans-33" d="M 2597 2516 
Q 3050 2419 3304 2112 
Q 3559 1806 3559 1356 
Q 3559 666 3084 287 
Q 2609 -91 1734 -91 
Q 1441 -91 1130 -33 
Q 819 25 488 141 
L 488 750 
Q 750 597 1062 519 
Q 1375 441 1716 441 
Q 2309 441 2620 675 
Q 2931 909 2931 1356 
Q 2931 1769 2642 2001 
Q 2353 2234 1838 2234 
L 1294 2234 
L 1294 2753 
L 1863 2753 
Q 2328 2753 2575 2939 
Q 2822 3125 2822 3475 
Q 2822 3834 2567 4026 
Q 2313 4219 1838 4219 
Q 1578 4219 1281 4162 
Q 984 4106 628 3988 
L 628 4550 
Q 988 4650 1302 4700 
Q 1616 4750 1894 4750 
Q 2613 4750 3031 4423 
Q 3450 4097 3450 3541 
Q 3450 3153 3228 2886 
Q 3006 2619 2597 2516 
z
" transform="scale(0.015625)"/>
       </defs>
       <use xlink:href="#DejaVuSans-33" transform="translate(0 0.78125)"/>
       <use xlink:href="#DejaVuSans-2e" transform="translate(63.623047 0.78125)"/>
       <use xlink:href="#DejaVuSans-30" transform="translate(95.410156 0.78125)"/>
      </g>
     </g>
    </g>
    <g id="ytick_3">
     <g id="line2d_15">
      <path d="M 71.788693 120.400838 
L 677.311461 120.400838 
" clip-path="url(#pf82fb494c8)" style="fill: none; stroke: #000000; stroke-opacity: 0.1; stroke-width: 0.5; stroke-linecap: square"/>
     </g>
     <g id="line2d_16">
      <g>
       <use xlink:href="#m234e6b1bb2" x="71.788693" y="120.400838" style="stroke: #000000; stroke-width: 0.5"/>
      </g>
     </g>
     <g id="text_9">
      <!-- $3.5$ -->
      <g transform="translate(29.888693 129.518963)scale(0.24 -0.24)">
       <use xlink:href="#DejaVuSans-33" transform="translate(0 0.78125)"/>
       <use xlink:href="#DejaVuSans-2e" transform="translate(63.623047 0.78125)"/>
       <use xlink:href="#DejaVuSans-35" transform="translate(95.410156 0.78125)"/>
      </g>
     </g>
    </g>
    <g id="ytick_4">
     <g id="line2d_17">
      <path d="M 71.788693 37.410098 
L 677.311461 37.410098 
" clip-path="url(#pf82fb494c8)" style="fill: none; stroke: #000000; stroke-opacity: 0.1; stroke-width: 0.5; stroke-linecap: square"/>
     </g>
     <g id="line2d_18">
      <g>
       <use xlink:href="#m234e6b1bb2" x="71.788693" y="37.410098" style="stroke: #000000; stroke-width: 0.5"/>
      </g>
     </g>
     <g id="text_10">
      <!-- $4.0$ -->
      <g transform="translate(29.888693 46.528223)scale(0.24 -0.24)">
       <defs>
        <path id="DejaVuSans-34" d="M 2419 4116 
L 825 1625 
L 2419 1625 
L 2419 4116 
z
M 2253 4666 
L 3047 4666 
L 3047 1625 
L 3713 1625 
L 3713 1100 
L 3047 1100 
L 3047 0 
L 2419 0 
L 2419 1100 
L 313 1100 
L 313 1709 
L 2253 4666 
z
" transform="scale(0.015625)"/>
       </defs>
       <use xlink:href="#DejaVuSans-34" transform="translate(0 0.78125)"/>
       <use xlink:href="#DejaVuSans-2e" transform="translate(63.623047 0.78125)"/>
       <use xlink:href="#DejaVuSans-30" transform="translate(95.410156 0.78125)"/>
      </g>
     </g>
    </g>
    <g id="text_11">
     <!-- MC value -->
     <g transform="translate(20.897443 201.125625)rotate(-90)scale(0.24 -0.24)">
      <defs>
       <path id="DejaVuSans-76" d="M 191 3500 
L 800 3500 
L 1894 563 
L 2988 3500 
L 3597 3500 
L 2284 0 
L 1503 0 
L 191 3500 
z
" transform="scale(0.015625)"/>
       <path id="DejaVuSans-61" d="M 2194 1759 
Q 1497 1759 1228 1600 
Q 959 1441 959 1056 
Q 959 750 1161 570 
Q 1363 391 1709 391 
Q 2188 391 2477 730 
Q 2766 1069 2766 1631 
L 2766 1759 
L 2194 1759 
z
M 3341 1997 
L 3341 0 
L 2766 0 
L 2766 531 
Q 2569 213 2275 61 
Q 1981 -91 1556 -91 
Q 1019 -91 701 211 
Q 384 513 384 1019 
Q 384 1609 779 1909 
Q 1175 2209 1959 2209 
L 2766 2209 
L 2766 2266 
Q 2766 2663 2505 2880 
Q 2244 3097 1772 3097 
Q 1472 3097 1187 3025 
Q 903 2953 641 2809 
L 641 3341 
Q 956 3463 1253 3523 
Q 1550 3584 1831 3584 
Q 2591 3584 2966 3190 
Q 3341 2797 3341 1997 
z
" transform="scale(0.015625)"/>
       <path id="DejaVuSans-6c" d="M 603 4863 
L 1178 4863 
L 1178 0 
L 603 0 
L 603 4863 
z
" transform="scale(0.015625)"/>
       <path id="DejaVuSans-75" d="M 544 1381 
L 544 3500 
L 1119 3500 
L 1119 1403 
Q 1119 906 1312 657 
Q 1506 409 1894 409 
Q 2359 409 2629 706 
Q 2900 1003 2900 1516 
L 2900 3500 
L 3475 3500 
L 3475 0 
L 2900 0 
L 2900 538 
Q 2691 219 2414 64 
Q 2138 -91 1772 -91 
Q 1169 -91 856 284 
Q 544 659 544 1381 
z
M 1991 3584 
L 1991 3584 
z
" transform="scale(0.015625)"/>
      </defs>
      <use xlink:href="#DejaVuSans-4d"/>
      <use xlink:href="#DejaVuSans-43" x="86.279297"/>
      <use xlink:href="#DejaVuSans-20" x="156.103516"/>
      <use xlink:href="#DejaVuSans-76" x="187.890625"/>
      <use xlink:href="#DejaVuSans-61" x="247.070312"/>
      <use xlink:href="#DejaVuSans-6c" x="308.349609"/>
      <use xlink:href="#DejaVuSans-75" x="336.132812"/>
      <use xlink:href="#DejaVuSans-65" x="399.511719"/>
     </g>
    </g>
   </g>
   <g id="line2d_19">
    <path d="M 88.92613 11.038449 
L 90.641589 11.038449 
L 91.213409 149.097962 
L 91.785229 126.088043 
L 92.357049 109.652387 
L 92.928868 97.325645 
L 93.500688 164.437908 
L 94.072508 218.127719 
L 95.216147 183.61284 
L 95.787967 223.4377 
L 96.931606 195.1178 
L 97.503426 183.61284 
L 98.647065 241.137637 
L 99.790705 218.127719 
L 100.934344 199.301421 
L 102.077984 183.61284 
L 103.221623 170.337887 
L 103.793443 190.004484 
L 104.937082 177.661999 
L 105.508902 172.107881 
L 107.224361 220.219529 
L 108.368001 247.7119 
L 110.08346 229.027154 
L 111.798919 213.076761 
L 112.370739 208.266325 
L 113.514378 230.678583 
L 114.658017 221.129012 
L 115.229837 231.346183 
L 116.373477 222.35403 
L 116.945296 231.93367 
L 118.660755 219.430167 
L 120.376215 208.266325 
L 120.948034 204.806187 
L 121.519854 213.367046 
L 122.091674 209.937747 
L 123.807133 233.715083 
L 124.378953 230.180533 
L 124.950772 237.542338 
L 127.238051 224.218579 
L 127.809871 221.129012 
L 128.381691 227.989112 
L 130.668969 216.262049 
L 131.240789 222.729702 
L 133.528068 212.011158 
L 134.671707 207.048869 
L 135.243527 213.076761 
L 136.387166 208.266325 
L 136.958986 214.067145 
L 139.246265 204.942259 
L 139.818085 202.787773 
L 140.961724 213.625778 
L 142.677183 207.228283 
L 143.249003 212.375239 
L 144.392642 208.266325 
L 145.536282 218.127719 
L 147.251741 212.095992 
L 147.823561 216.800223 
L 150.11084 209.179417 
L 151.254479 218.127719 
L 151.826299 216.262049 
L 152.398118 220.593067 
L 154.113578 215.126425 
L 154.685397 219.317887 
L 157.544496 210.711298 
L 158.116316 209.074636 
L 159.259955 217.014335 
L 162.119054 209.030774 
L 163.262693 216.546884 
L 164.406332 213.456532 
L 164.978152 217.097424 
L 165.549972 215.571061 
L 166.121792 219.142862 
L 166.693611 217.623852 
L 167.837251 224.583739 
L 169.55271 220.072219 
L 170.12453 223.4377 
L 173.555448 214.88471 
L 174.699087 221.327773 
L 176.986366 215.900952 
L 178.701825 225.118074 
L 179.845465 222.442078 
L 180.989104 228.354349 
L 181.560924 227.021123 
L 182.132744 229.913287 
L 185.563662 222.188292 
L 186.135482 220.953498 
L 187.850941 229.235955 
L 188.42276 227.989112 
L 188.99458 230.678583 
L 190.13822 228.210717 
L 190.710039 230.853875 
L 191.281859 229.632678 
L 191.853679 232.238774 
L 192.425498 231.023387 
L 194.140958 238.650079 
L 197.571876 231.499975 
L 199.287335 228.090776 
L 199.859155 230.517675 
L 201.002794 228.289459 
L 202.146434 233.043696 
L 203.290073 230.834689 
L 204.433712 235.47017 
L 206.720991 231.133325 
L 207.292811 233.393915 
L 211.295549 226.154434 
L 212.439188 230.533988 
L 214.154648 227.540867 
L 215.298287 231.809292 
L 215.870107 230.819288 
L 217.013746 235.001659 
L 217.585566 234.010671 
L 218.729205 238.110016 
L 219.301025 237.118438 
L 219.872845 239.136775 
L 221.016484 237.17041 
L 221.588304 239.162537 
L 222.160124 238.187648 
L 223.303763 242.112634 
L 224.447402 240.170834 
L 225.019222 242.100395 
L 225.591042 241.137637 
L 226.162862 243.047174 
L 226.734681 242.08846 
L 227.306501 243.978368 
L 227.878321 243.023696 
L 228.45014 244.894359 
L 230.737419 241.137637 
L 231.309239 242.978431 
L 232.452878 241.137637 
L 233.024698 242.956603 
L 233.596518 242.04354 
L 234.168338 243.844687 
L 234.740157 242.935287 
L 235.311977 244.718948 
L 235.883797 243.813209 
L 237.027436 247.332616 
L 238.742895 244.637245 
L 239.314715 246.367164 
L 239.886535 245.479131 
L 242.173814 252.257672 
L 242.745633 251.364268 
L 245.032912 257.933199 
L 246.176552 256.144106 
L 247.320191 259.346926 
L 248.46383 257.573294 
L 250.751109 263.823473 
L 253.610208 259.45003 
L 254.753847 262.487047 
L 255.325667 261.625921 
L 256.469306 264.617146 
L 257.041126 263.757558 
L 257.612946 265.235863 
L 258.184766 264.37998 
L 258.756585 265.846275 
L 261.043864 262.471337 
L 261.615684 263.919735 
L 264.474782 259.81452 
L 265.046602 261.243392 
L 266.762061 258.837575 
L 267.333881 260.251308 
L 268.47752 258.669004 
L 269.04934 260.069849 
L 269.62116 259.284261 
L 270.19298 260.674361 
L 272.480258 257.573294 
L 273.623898 260.31257 
L 275.911177 257.272641 
L 277.054816 259.963935 
L 278.770275 257.721363 
L 282.201194 265.572949 
L 285.632112 261.146262 
L 286.203932 262.418487 
L 287.347571 260.973774 
L 287.919391 262.235557 
L 288.49121 261.517851 
L 289.06303 262.770894 
L 290.20667 261.344648 
L 290.778489 262.587562 
L 291.350309 261.878973 
L 291.922129 263.113403 
L 292.493948 262.40731 
L 293.065768 263.633368 
L 293.637588 262.929761 
L 294.209408 264.147556 
L 295.924867 262.055745 
L 298.212146 266.843541 
L 299.927605 264.769446 
L 301.071244 267.116578 
L 302.786703 265.067953 
L 303.358523 266.22824 
L 303.930343 265.551344 
L 305.073982 267.851 
L 305.645802 267.175177 
L 307.361261 270.575915 
L 307.933081 269.900036 
L 308.5049 271.020649 
L 309.07672 270.34712 
L 310.22036 272.568712 
L 311.363999 271.227531 
L 312.507638 273.421962 
L 315.366737 270.117384 
L 315.938557 271.200848 
L 316.510376 270.548812 
L 317.082196 271.62578 
L 318.225836 270.329325 
L 318.797655 271.398821 
L 321.656754 268.20813 
L 322.800393 270.320949 
L 327.946771 264.751635 
L 328.51859 265.791122 
L 331.377689 262.794032 
L 332.521328 264.848092 
L 333.664968 263.664831 
L 335.952247 267.707982 
L 338.811345 264.777965 
L 339.383165 265.772402 
L 340.526804 264.617146 
L 341.670444 266.588789 
L 342.242264 266.013225 
L 343.385903 267.965345 
L 347.388641 263.995173 
L 347.960461 264.958478 
L 348.53228 264.400412 
L 349.1041 265.358605 
L 350.819559 263.696381 
L 352.535018 266.538197 
L 353.106838 265.986362 
L 353.678658 266.924615 
L 354.822297 265.826391 
L 355.965937 267.687544 
L 356.537756 267.140318 
L 357.681396 268.984036 
L 358.253216 268.437541 
L 358.825035 269.35276 
L 359.968675 268.265121 
L 360.540494 269.174933 
L 361.684134 268.094864 
L 363.971413 271.690227 
L 364.543232 271.150575 
L 365.115052 272.039388 
L 365.686872 271.501242 
L 366.830511 273.266477 
L 367.402331 272.729124 
L 367.974151 273.605621 
L 370.26143 271.475259 
L 370.833249 272.345422 
L 371.405069 271.817529 
L 371.976889 272.683494 
L 373.120528 271.632711 
L 374.264168 273.351524 
L 375.407807 272.306452 
L 375.979627 273.159393 
L 376.551446 272.639312 
L 378.266906 275.175979 
L 378.838725 274.656023 
L 379.982365 276.329278 
L 381.126004 275.292986 
L 382.269644 276.950741 
L 386.844201 272.875456 
L 388.55966 275.323803 
L 390.846939 273.325426 
L 391.418759 274.132993 
L 393.134218 272.65216 
L 393.706038 273.454939 
L 394.277858 272.964441 
L 395.993317 275.35313 
L 398.280596 273.402468 
L 398.852415 274.190559 
L 399.424235 273.706824 
L 401.711514 276.828205 
L 402.283334 276.344071 
L 402.855153 277.116783 
L 406.857891 273.77289 
L 408.001531 275.302633 
L 410.28881 273.42509 
L 410.860629 274.183797 
L 411.432449 273.718053 
L 412.004269 274.473562 
L 413.719728 273.084625 
L 414.863367 274.58463 
L 416.007007 273.664748 
L 416.578826 274.40982 
L 418.294286 273.040471 
L 419.437925 274.519903 
L 420.581564 273.61291 
L 421.725204 275.080228 
L 422.297024 274.628101 
L 423.440663 276.084442 
L 424.584302 275.182925 
L 425.727942 276.627512 
L 427.443401 275.283891 
L 429.15886 277.428449 
L 429.73068 276.982235 
L 431.446139 279.104003 
L 432.017959 278.657971 
L 433.161598 280.059888 
L 434.305238 279.170561 
L 435.448877 280.561551 
L 438.879795 277.923478 
L 439.451615 278.613075 
L 440.023435 278.177995 
L 440.595254 278.864939 
L 443.454353 276.708526 
L 444.597992 278.071697 
L 446.313451 276.791984 
L 446.885271 277.469088 
L 448.028911 276.621932 
L 448.60073 277.296081 
L 451.459829 275.199564 
L 452.031649 275.86959 
L 452.603468 275.453843 
L 453.175288 276.12137 
L 454.890747 274.880732 
L 455.462567 275.544993 
L 456.606206 274.723544 
L 458.321665 276.701654 
L 459.465305 275.882969 
L 462.324403 279.135668 
L 464.039863 277.91148 
L 464.611682 278.554983 
L 470.329879 274.550244 
L 471.473519 275.824231 
L 472.617158 275.036179 
L 473.188978 275.669611 
L 474.332617 274.885518 
L 476.048077 276.772467 
L 476.619896 276.381107 
L 477.191716 277.00604 
L 478.335355 276.226077 
L 480.050815 278.087872 
L 480.622634 277.698587 
L 481.194454 278.315235 
L 482.909913 277.153163 
L 484.053553 278.379125 
L 484.625372 277.993352 
L 485.197192 278.603355 
L 486.340831 277.834491 
L 487.484471 279.047962 
L 490.343569 277.141778 
L 490.915389 277.744326 
L 494.918127 275.11853 
L 495.489947 275.71715 
L 496.633586 274.975753 
L 497.205406 275.572061 
L 498.920865 274.466768 
L 499.492685 275.060466 
L 501.208144 273.963422 
L 501.779964 274.554532 
L 503.495423 273.465623 
L 504.639062 274.641091 
L 505.210882 274.279496 
L 505.782702 274.864505 
L 506.354521 274.503594 
L 506.926341 275.086698 
L 509.78544 273.295326 
L 510.357259 273.875327 
L 512.072719 272.81121 
L 512.644538 273.388737 
L 513.216358 273.035641 
L 514.359997 274.18544 
L 515.503637 273.480897 
L 516.647276 274.623367 
L 517.219096 274.27192 
L 518.934555 275.973371 
L 520.078195 275.271557 
L 520.650014 275.835134 
L 522.365473 274.788507 
L 522.937293 275.349754 
L 524.652752 274.310522 
L 525.224572 274.869456 
L 531.514589 271.124757 
L 532.086409 271.679153 
L 534.945507 270.010519 
L 536.660966 271.660999 
L 537.232786 271.328996 
L 537.804606 271.876079 
L 538.376425 271.544646 
L 539.520065 272.634104 
L 540.091885 272.30297 
L 540.663704 272.845364 
L 541.235524 272.514799 
L 542.379163 273.594954 
L 544.094623 272.606661 
L 545.238262 273.679825 
L 549.81282 271.076193 
L 550.384639 271.608693 
L 552.100099 270.644808 
L 552.671918 271.175216 
L 553.815558 270.536059 
L 554.387377 271.064648 
L 556.674656 269.794679 
L 558.961935 271.892085 
L 560.105575 271.259713 
L 560.677394 271.780386 
L 561.249214 271.4651 
L 561.821034 271.984268 
L 563.536493 271.042225 
L 564.108313 271.559405 
L 565.823772 270.623402 
L 566.395591 271.138608 
L 567.539231 270.517844 
L 568.111051 271.031334 
L 569.25469 270.413039 
L 569.82651 270.924824 
L 571.541969 270.002151 
L 572.685608 271.020649 
L 573.257428 270.714066 
L 574.401067 271.727294 
L 575.544707 271.115349 
L 576.688346 272.122891 
L 577.260166 271.817529 
L 578.403805 272.819906 
L 578.975625 272.514799 
L 580.119265 273.512058 
L 581.262904 272.903071 
L 581.834724 273.399517 
L 584.122003 272.189085 
L 585.265642 273.176765 
L 585.837462 272.875456 
L 586.981101 273.858164 
L 594.414757 269.997536 
L 595.558397 270.970114 
L 596.130217 270.677398 
L 597.845676 272.127427 
L 598.417495 271.834726 
L 599.561135 272.795579 
L 600.132955 272.503113 
L 601.848414 273.93574 
L 603.563873 273.060388 
L 604.135693 273.535195 
L 604.707512 273.244501 
L 606.994791 275.132446 
L 608.138431 274.551381 
L 608.71025 275.020375 
L 609.28207 274.730603 
L 609.85389 275.198372 
L 611.569349 274.332274 
L 613.284808 275.727711 
L 615.000267 274.865531 
L 615.572087 275.328081 
L 616.143907 275.041743 
L 617.287546 275.96346 
L 620.718464 274.256103 
L 621.290284 274.714343 
L 621.862104 274.431732 
L 622.433923 274.888803 
L 625.293022 273.483849 
L 625.864842 273.939011 
L 626.436661 273.659627 
L 627.580301 274.566682 
L 628.72394 274.00895 
L 629.86758 274.911436 
L 630.439399 274.633089 
L 631.011219 275.082723 
L 633.298498 273.974458 
L 633.870318 274.422426 
L 634.442137 274.146631 
L 635.013957 274.593482 
L 639.016695 272.677713 
L 640.160335 273.566124 
L 644.163073 271.675493 
L 644.734892 272.117076 
L 645.306712 271.849028 
L 645.878532 272.289527 
L 647.593991 271.488144 
L 648.165811 271.927212 
L 649.30945 271.395329 
L 649.88127 271.83315 
L 652.168549 270.77516 
L 653.884008 272.081209 
L 655.027647 271.554382 
L 655.599467 271.987629 
L 656.743106 271.462581 
L 657.886746 272.32578 
L 659.030385 271.802158 
L 660.174025 272.661226 
L 660.174025 272.661226 
" clip-path="url(#pf82fb494c8)" style="fill: none; stroke: #009afa; stroke-width: 3"/>
   </g>
   <g id="line2d_20">
    <path d="M -1 278.883698 
L 692.2 278.883698 
" clip-path="url(#pf82fb494c8)" style="fill: none; stroke: #e36f47; stroke-width: 2"/>
   </g>
   <g id="patch_3">
    <path d="M 71.788693 288.647244 
L 71.788693 2.952756 
" style="fill: none; stroke: #000000; stroke-linejoin: miter; stroke-linecap: square"/>
   </g>
   <g id="patch_4">
    <path d="M 71.788693 288.647244 
L 677.311461 288.647244 
" style="fill: none; stroke: #000000; stroke-linejoin: miter; stroke-linecap: square"/>
   </g>
   <g id="legend_1">
    <g id="patch_5">
     <path d="M 490.996461 75.522756 
L 669.311461 75.522756 
L 669.311461 10.952756 
L 490.996461 10.952756 
z
" style="fill: #ffffff; stroke: #000000; stroke-linejoin: miter"/>
    </g>
    <g id="line2d_21">
     <path d="M 503.796461 30.310256 
L 519.796461 30.310256 
L 535.796461 30.310256 
" style="fill: none; stroke: #009afa; stroke-width: 2; stroke-linejoin: miter"/>
    </g>
    <g id="text_12">
     <!-- MC trajectory -->
     <g transform="translate(548.596461 35.910256)scale(0.16 -0.16)">
      <defs>
       <path id="DejaVuSans-72" d="M 2631 2963 
Q 2534 3019 2420 3045 
Q 2306 3072 2169 3072 
Q 1681 3072 1420 2755 
Q 1159 2438 1159 1844 
L 1159 0 
L 581 0 
L 581 3500 
L 1159 3500 
L 1159 2956 
Q 1341 3275 1631 3429 
Q 1922 3584 2338 3584 
Q 2397 3584 2469 3576 
Q 2541 3569 2628 3553 
L 2631 2963 
z
" transform="scale(0.015625)"/>
       <path id="DejaVuSans-6a" d="M 603 3500 
L 1178 3500 
L 1178 -63 
Q 1178 -731 923 -1031 
Q 669 -1331 103 -1331 
L -116 -1331 
L -116 -844 
L 38 -844 
Q 366 -844 484 -692 
Q 603 -541 603 -63 
L 603 3500 
z
M 603 4863 
L 1178 4863 
L 1178 4134 
L 603 4134 
L 603 4863 
z
" transform="scale(0.015625)"/>
       <path id="DejaVuSans-63" d="M 3122 3366 
L 3122 2828 
Q 2878 2963 2633 3030 
Q 2388 3097 2138 3097 
Q 1578 3097 1268 2742 
Q 959 2388 959 1747 
Q 959 1106 1268 751 
Q 1578 397 2138 397 
Q 2388 397 2633 464 
Q 2878 531 3122 666 
L 3122 134 
Q 2881 22 2623 -34 
Q 2366 -91 2075 -91 
Q 1284 -91 818 406 
Q 353 903 353 1747 
Q 353 2603 823 3093 
Q 1294 3584 2113 3584 
Q 2378 3584 2631 3529 
Q 2884 3475 3122 3366 
z
" transform="scale(0.015625)"/>
       <path id="DejaVuSans-6f" d="M 1959 3097 
Q 1497 3097 1228 2736 
Q 959 2375 959 1747 
Q 959 1119 1226 758 
Q 1494 397 1959 397 
Q 2419 397 2687 759 
Q 2956 1122 2956 1747 
Q 2956 2369 2687 2733 
Q 2419 3097 1959 3097 
z
M 1959 3584 
Q 2709 3584 3137 3096 
Q 3566 2609 3566 1747 
Q 3566 888 3137 398 
Q 2709 -91 1959 -91 
Q 1206 -91 779 398 
Q 353 888 353 1747 
Q 353 2609 779 3096 
Q 1206 3584 1959 3584 
z
" transform="scale(0.015625)"/>
       <path id="DejaVuSans-79" d="M 2059 -325 
Q 1816 -950 1584 -1140 
Q 1353 -1331 966 -1331 
L 506 -1331 
L 506 -850 
L 844 -850 
Q 1081 -850 1212 -737 
Q 1344 -625 1503 -206 
L 1606 56 
L 191 3500 
L 800 3500 
L 1894 763 
L 2988 3500 
L 3597 3500 
L 2059 -325 
z
" transform="scale(0.015625)"/>
      </defs>
      <use xlink:href="#DejaVuSans-4d"/>
      <use xlink:href="#DejaVuSans-43" x="86.279297"/>
      <use xlink:href="#DejaVuSans-20" x="156.103516"/>
      <use xlink:href="#DejaVuSans-74" x="187.890625"/>
      <use xlink:href="#DejaVuSans-72" x="227.099609"/>
      <use xlink:href="#DejaVuSans-61" x="268.212891"/>
      <use xlink:href="#DejaVuSans-6a" x="329.492188"/>
      <use xlink:href="#DejaVuSans-65" x="357.275391"/>
      <use xlink:href="#DejaVuSans-63" x="418.798828"/>
      <use xlink:href="#DejaVuSans-74" x="473.779297"/>
      <use xlink:href="#DejaVuSans-6f" x="512.988281"/>
      <use xlink:href="#DejaVuSans-72" x="574.169922"/>
      <use xlink:href="#DejaVuSans-79" x="615.283203"/>
     </g>
    </g>
    <g id="line2d_22">
     <path d="M 503.796461 53.795256 
L 519.796461 53.795256 
L 535.796461 53.795256 
" style="fill: none; stroke: #e36f47; stroke-width: 2; stroke-linejoin: miter"/>
    </g>
    <g id="text_13">
     <!-- Analytical -->
     <g transform="translate(548.596461 59.395256)scale(0.16 -0.16)">
      <defs>
       <path id="DejaVuSans-41" d="M 2188 4044 
L 1331 1722 
L 3047 1722 
L 2188 4044 
z
M 1831 4666 
L 2547 4666 
L 4325 0 
L 3669 0 
L 3244 1197 
L 1141 1197 
L 716 0 
L 50 0 
L 1831 4666 
z
" transform="scale(0.015625)"/>
       <path id="DejaVuSans-6e" d="M 3513 2113 
L 3513 0 
L 2938 0 
L 2938 2094 
Q 2938 2591 2744 2837 
Q 2550 3084 2163 3084 
Q 1697 3084 1428 2787 
Q 1159 2491 1159 1978 
L 1159 0 
L 581 0 
L 581 3500 
L 1159 3500 
L 1159 2956 
Q 1366 3272 1645 3428 
Q 1925 3584 2291 3584 
Q 2894 3584 3203 3211 
Q 3513 2838 3513 2113 
z
" transform="scale(0.015625)"/>
       <path id="DejaVuSans-69" d="M 603 3500 
L 1178 3500 
L 1178 0 
L 603 0 
L 603 3500 
z
M 603 4863 
L 1178 4863 
L 1178 4134 
L 603 4134 
L 603 4863 
z
" transform="scale(0.015625)"/>
      </defs>
      <use xlink:href="#DejaVuSans-41"/>
      <use xlink:href="#DejaVuSans-6e" x="68.408203"/>
      <use xlink:href="#DejaVuSans-61" x="131.787109"/>
      <use xlink:href="#DejaVuSans-6c" x="193.066406"/>
      <use xlink:href="#DejaVuSans-79" x="220.849609"/>
      <use xlink:href="#DejaVuSans-74" x="280.029297"/>
      <use xlink:href="#DejaVuSans-69" x="319.238281"/>
      <use xlink:href="#DejaVuSans-63" x="347.021484"/>
      <use xlink:href="#DejaVuSans-61" x="402.001953"/>
      <use xlink:href="#DejaVuSans-6c" x="463.28125"/>
     </g>
    </g>
   </g>
  </g>
 </g>
 <defs>
  <clipPath id="pf82fb494c8">
   <rect x="71.788693" y="2.952756" width="605.522768" height="285.694488"/>
  </clipPath>
 </defs>
</svg>
