<?xml version="1.0" encoding="utf-8"?>
<svg xmlns="http://www.w3.org/2000/svg" xmlns:xlink="http://www.w3.org/1999/xlink" width="600" height="400" viewBox="0 0 2400 1600">
<defs>
  <clipPath id="clip710">
    <rect x="0" y="0" width="2400" height="1600"/>
  </clipPath>
</defs>
<path clip-path="url(#clip710)" d="
M0 1600 L2400 1600 L2400 0 L0 0  Z
  " fill="#ffffff" fill-rule="evenodd" fill-opacity="1"/>
<defs>
  <clipPath id="clip711">
    <rect x="480" y="0" width="1681" height="1600"/>
  </clipPath>
</defs>
<path clip-path="url(#clip710)" d="
M175.445 1410.9 L2352.76 1410.9 L2352.76 47.2441 L175.445 47.2441  Z
  " fill="#ffffff" fill-rule="evenodd" fill-opacity="1"/>
<defs>
  <clipPath id="clip712">
    <rect x="175" y="47" width="2178" height="1365"/>
  </clipPath>
</defs>
<polyline clip-path="url(#clip712)" style="stroke:#000000; stroke-linecap:butt; stroke-linejoin:round; stroke-width:2; stroke-opacity:0.1; fill:none" points="
  677.684,1410.9 677.684,47.2441 
  "/>
<polyline clip-path="url(#clip712)" style="stroke:#000000; stroke-linecap:butt; stroke-linejoin:round; stroke-width:2; stroke-opacity:0.1; fill:none" points="
  1307.59,1410.9 1307.59,47.2441 
  "/>
<polyline clip-path="url(#clip712)" style="stroke:#000000; stroke-linecap:butt; stroke-linejoin:round; stroke-width:2; stroke-opacity:0.1; fill:none" points="
  1937.5,1410.9 1937.5,47.2441 
  "/>
<polyline clip-path="url(#clip710)" style="stroke:#000000; stroke-linecap:butt; stroke-linejoin:round; stroke-width:4; stroke-opacity:1; fill:none" points="
  175.445,1410.9 2352.76,1410.9 
  "/>
<polyline clip-path="url(#clip710)" style="stroke:#000000; stroke-linecap:butt; stroke-linejoin:round; stroke-width:4; stroke-opacity:1; fill:none" points="
  677.684,1410.9 677.684,1392 
  "/>
<polyline clip-path="url(#clip710)" style="stroke:#000000; stroke-linecap:butt; stroke-linejoin:round; stroke-width:4; stroke-opacity:1; fill:none" points="
  1307.59,1410.9 1307.59,1392 
  "/>
<polyline clip-path="url(#clip710)" style="stroke:#000000; stroke-linecap:butt; stroke-linejoin:round; stroke-width:4; stroke-opacity:1; fill:none" points="
  1937.5,1410.9 1937.5,1392 
  "/>
<path clip-path="url(#clip710)" d="M627.564 1485.02 L635.203 1485.02 L635.203 1458.66 L626.893 1460.32 L626.893 1456.06 L635.157 1454.4 L639.833 1454.4 L639.833 1485.02 L647.472 1485.02 L647.472 1488.96 L627.564 1488.96 L627.564 1485.02 Z" fill="#000000" fill-rule="evenodd" fill-opacity="1" /><path clip-path="url(#clip710)" d="M666.916 1457.48 Q663.305 1457.48 661.476 1461.04 Q659.671 1464.58 659.671 1471.71 Q659.671 1478.82 661.476 1482.38 Q663.305 1485.92 666.916 1485.92 Q670.55 1485.92 672.356 1482.38 Q674.184 1478.82 674.184 1471.71 Q674.184 1464.58 672.356 1461.04 Q670.55 1457.48 666.916 1457.48 M666.916 1453.77 Q672.726 1453.77 675.782 1458.38 Q678.86 1462.96 678.86 1471.71 Q678.86 1480.44 675.782 1485.04 Q672.726 1489.63 666.916 1489.63 Q661.106 1489.63 658.027 1485.04 Q654.972 1480.44 654.972 1471.71 Q654.972 1462.96 658.027 1458.38 Q661.106 1453.77 666.916 1453.77 Z" fill="#000000" fill-rule="evenodd" fill-opacity="1" /><path clip-path="url(#clip710)" d="M678.86 1447.87 L702.972 1447.87 L702.972 1451.07 L678.86 1451.07 L678.86 1447.87 Z" fill="#000000" fill-rule="evenodd" fill-opacity="1" /><path clip-path="url(#clip710)" d="M722.682 1446.41 Q725.41 1446.99 726.933 1448.83 Q728.475 1450.68 728.475 1453.38 Q728.475 1457.54 725.617 1459.82 Q722.758 1462.09 717.492 1462.09 Q715.724 1462.09 713.843 1461.73 Q711.981 1461.4 709.987 1460.7 L709.987 1457.03 Q711.567 1457.95 713.448 1458.42 Q715.329 1458.89 717.379 1458.89 Q720.952 1458.89 722.814 1457.48 Q724.695 1456.07 724.695 1453.38 Q724.695 1450.9 722.946 1449.51 Q721.215 1448.1 718.112 1448.1 L714.84 1448.1 L714.84 1444.98 L718.263 1444.98 Q721.065 1444.98 722.551 1443.87 Q724.037 1442.74 724.037 1440.63 Q724.037 1438.47 722.494 1437.32 Q720.971 1436.16 718.112 1436.16 Q716.551 1436.16 714.764 1436.49 Q712.978 1436.83 710.834 1437.55 L710.834 1434.16 Q712.996 1433.56 714.877 1433.26 Q716.777 1432.96 718.451 1432.96 Q722.777 1432.96 725.297 1434.93 Q727.817 1436.89 727.817 1440.24 Q727.817 1442.57 726.482 1444.19 Q725.146 1445.79 722.682 1446.41 Z" fill="#000000" fill-rule="evenodd" fill-opacity="1" /><path clip-path="url(#clip710)" d="M1257.86 1485.02 L1265.5 1485.02 L1265.5 1458.66 L1257.19 1460.32 L1257.19 1456.06 L1265.45 1454.4 L1270.13 1454.4 L1270.13 1485.02 L1277.77 1485.02 L1277.77 1488.96 L1257.86 1488.96 L1257.86 1485.02 Z" fill="#000000" fill-rule="evenodd" fill-opacity="1" /><path clip-path="url(#clip710)" d="M1297.21 1457.48 Q1293.6 1457.48 1291.77 1461.04 Q1289.96 1464.58 1289.96 1471.71 Q1289.96 1478.82 1291.77 1482.38 Q1293.6 1485.92 1297.21 1485.92 Q1300.84 1485.92 1302.65 1482.38 Q1304.48 1478.82 1304.48 1471.71 Q1304.48 1464.58 1302.65 1461.04 Q1300.84 1457.48 1297.21 1457.48 M1297.21 1453.77 Q1303.02 1453.77 1306.08 1458.38 Q1309.15 1462.96 1309.15 1471.71 Q1309.15 1480.44 1306.08 1485.04 Q1303.02 1489.63 1297.21 1489.63 Q1291.4 1489.63 1288.32 1485.04 Q1285.27 1480.44 1285.27 1471.71 Q1285.27 1462.96 1288.32 1458.38 Q1291.4 1453.77 1297.21 1453.77 Z" fill="#000000" fill-rule="evenodd" fill-opacity="1" /><path clip-path="url(#clip710)" d="M1309.15 1447.87 L1333.27 1447.87 L1333.27 1451.07 L1309.15 1451.07 L1309.15 1447.87 Z" fill="#000000" fill-rule="evenodd" fill-opacity="1" /><path clip-path="url(#clip710)" d="M1344.74 1458.35 L1358 1458.35 L1358 1461.55 L1340.17 1461.55 L1340.17 1458.35 Q1342.33 1456.11 1346.06 1452.35 Q1349.8 1448.57 1350.76 1447.48 Q1352.58 1445.43 1353.3 1444.02 Q1354.03 1442.59 1354.03 1441.22 Q1354.03 1438.98 1352.45 1437.57 Q1350.89 1436.16 1348.37 1436.16 Q1346.58 1436.16 1344.59 1436.78 Q1342.61 1437.4 1340.36 1438.66 L1340.36 1434.82 Q1342.65 1433.9 1344.64 1433.43 Q1346.64 1432.96 1348.29 1432.96 Q1352.66 1432.96 1355.25 1435.14 Q1357.85 1437.32 1357.85 1440.97 Q1357.85 1442.7 1357.19 1444.26 Q1356.55 1445.8 1354.84 1447.91 Q1354.37 1448.46 1351.85 1451.07 Q1349.33 1453.67 1344.74 1458.35 Z" fill="#000000" fill-rule="evenodd" fill-opacity="1" /><path clip-path="url(#clip710)" d="M1887.62 1485.02 L1895.26 1485.02 L1895.26 1458.66 L1886.95 1460.32 L1886.95 1456.06 L1895.21 1454.4 L1899.88 1454.4 L1899.88 1485.02 L1907.52 1485.02 L1907.52 1488.96 L1887.62 1488.96 L1887.62 1485.02 Z" fill="#000000" fill-rule="evenodd" fill-opacity="1" /><path clip-path="url(#clip710)" d="M1926.97 1457.48 Q1923.36 1457.48 1921.53 1461.04 Q1919.72 1464.58 1919.72 1471.71 Q1919.72 1478.82 1921.53 1482.38 Q1923.36 1485.92 1926.97 1485.92 Q1930.6 1485.92 1932.41 1482.38 Q1934.24 1478.82 1934.24 1471.71 Q1934.24 1464.58 1932.41 1461.04 Q1930.6 1457.48 1926.97 1457.48 M1926.97 1453.77 Q1932.78 1453.77 1935.83 1458.38 Q1938.91 1462.96 1938.91 1471.71 Q1938.91 1480.44 1935.83 1485.04 Q1932.78 1489.63 1926.97 1489.63 Q1921.16 1489.63 1918.08 1485.04 Q1915.02 1480.44 1915.02 1471.71 Q1915.02 1462.96 1918.08 1458.38 Q1921.16 1453.77 1926.97 1453.77 Z" fill="#000000" fill-rule="evenodd" fill-opacity="1" /><path clip-path="url(#clip710)" d="M1938.91 1447.87 L1963.02 1447.87 L1963.02 1451.07 L1938.91 1451.07 L1938.91 1447.87 Z" fill="#000000" fill-rule="evenodd" fill-opacity="1" /><path clip-path="url(#clip710)" d="M1971.88 1458.35 L1978.09 1458.35 L1978.09 1436.93 L1971.34 1438.28 L1971.34 1434.82 L1978.05 1433.47 L1981.85 1433.47 L1981.85 1458.35 L1988.06 1458.35 L1988.06 1461.55 L1971.88 1461.55 L1971.88 1458.35 Z" fill="#000000" fill-rule="evenodd" fill-opacity="1" /><path clip-path="url(#clip710)" d="M1112.79 1526.67 L1119.22 1526.67 L1119.22 1546.75 L1140.54 1526.67 L1148.82 1526.67 L1125.23 1548.82 L1150.5 1574.19 L1142.04 1574.19 L1119.22 1551.3 L1119.22 1574.19 L1112.79 1574.19 L1112.79 1526.67 Z" fill="#000000" fill-rule="evenodd" fill-opacity="1" /><path clip-path="url(#clip710)" d="M1155.53 1526.67 L1165.11 1526.67 L1177.24 1559 L1189.43 1526.67 L1199.01 1526.67 L1199.01 1574.19 L1192.74 1574.19 L1192.74 1532.46 L1180.49 1565.05 L1174.03 1565.05 L1161.77 1532.46 L1161.77 1574.19 L1155.53 1574.19 L1155.53 1526.67 Z" fill="#000000" fill-rule="evenodd" fill-opacity="1" /><path clip-path="url(#clip710)" d="M1247.36 1530.33 L1247.36 1537.11 Q1244.11 1534.08 1240.42 1532.59 Q1236.76 1531.09 1232.62 1531.09 Q1224.47 1531.09 1220.15 1536.09 Q1215.82 1541.05 1215.82 1550.47 Q1215.82 1559.86 1220.15 1564.86 Q1224.47 1569.82 1232.62 1569.82 Q1236.76 1569.82 1240.42 1568.33 Q1244.11 1566.83 1247.36 1563.81 L1247.36 1570.53 Q1243.98 1572.82 1240.2 1573.96 Q1236.44 1575.11 1232.24 1575.11 Q1221.45 1575.11 1215.24 1568.52 Q1209.04 1561.9 1209.04 1550.47 Q1209.04 1539.01 1215.24 1532.43 Q1221.45 1525.81 1232.24 1525.81 Q1236.51 1525.81 1240.26 1526.95 Q1244.05 1528.07 1247.36 1530.33 Z" fill="#000000" fill-rule="evenodd" fill-opacity="1" /><path clip-path="url(#clip710)" d="M1283.55 1528.42 L1283.55 1538.54 L1295.61 1538.54 L1295.61 1543.09 L1283.55 1543.09 L1283.55 1562.44 Q1283.55 1566.8 1284.73 1568.04 Q1285.93 1569.28 1289.6 1569.28 L1295.61 1569.28 L1295.61 1574.19 L1289.6 1574.19 Q1282.82 1574.19 1280.24 1571.67 Q1277.66 1569.12 1277.66 1562.44 L1277.66 1543.09 L1273.36 1543.09 L1273.36 1538.54 L1277.66 1538.54 L1277.66 1528.42 L1283.55 1528.42 Z" fill="#000000" fill-rule="evenodd" fill-opacity="1" /><path clip-path="url(#clip710)" d="M1303.31 1538.54 L1309.17 1538.54 L1309.17 1574.19 L1303.31 1574.19 L1303.31 1538.54 M1303.31 1524.66 L1309.17 1524.66 L1309.17 1532.08 L1303.31 1532.08 L1303.31 1524.66 Z" fill="#000000" fill-rule="evenodd" fill-opacity="1" /><path clip-path="url(#clip710)" d="M1349.18 1545.38 Q1351.37 1541.43 1354.43 1539.56 Q1357.49 1537.68 1361.62 1537.68 Q1367.19 1537.68 1370.22 1541.59 Q1373.24 1545.48 1373.24 1552.67 L1373.24 1574.19 L1367.35 1574.19 L1367.35 1552.86 Q1367.35 1547.74 1365.54 1545.25 Q1363.72 1542.77 1360 1542.77 Q1355.45 1542.77 1352.81 1545.79 Q1350.16 1548.82 1350.16 1554.04 L1350.16 1574.19 L1344.28 1574.19 L1344.28 1552.86 Q1344.28 1547.7 1342.46 1545.25 Q1340.65 1542.77 1336.86 1542.77 Q1332.37 1542.77 1329.73 1545.83 Q1327.09 1548.85 1327.09 1554.04 L1327.09 1574.19 L1321.2 1574.19 L1321.2 1538.54 L1327.09 1538.54 L1327.09 1544.08 Q1329.09 1540.8 1331.9 1539.24 Q1334.7 1537.68 1338.55 1537.68 Q1342.43 1537.68 1345.14 1539.65 Q1347.87 1541.62 1349.18 1545.38 Z" fill="#000000" fill-rule="evenodd" fill-opacity="1" /><path clip-path="url(#clip710)" d="M1415.41 1554.9 L1415.41 1557.76 L1388.49 1557.76 Q1388.87 1563.81 1392.11 1566.99 Q1395.39 1570.14 1401.22 1570.14 Q1404.59 1570.14 1407.74 1569.32 Q1410.93 1568.49 1414.04 1566.83 L1414.04 1572.37 Q1410.89 1573.71 1407.58 1574.41 Q1404.27 1575.11 1400.87 1575.11 Q1392.34 1575.11 1387.34 1570.14 Q1382.38 1565.18 1382.38 1556.71 Q1382.38 1547.96 1387.09 1542.83 Q1391.83 1537.68 1399.85 1537.68 Q1407.04 1537.68 1411.21 1542.33 Q1415.41 1546.94 1415.41 1554.9 M1409.56 1553.18 Q1409.49 1548.37 1406.85 1545.51 Q1404.24 1542.64 1399.91 1542.64 Q1395.01 1542.64 1392.05 1545.41 Q1389.12 1548.18 1388.68 1553.21 L1409.56 1553.18 Z" fill="#000000" fill-rule="evenodd" fill-opacity="1" /><polyline clip-path="url(#clip712)" style="stroke:#000000; stroke-linecap:butt; stroke-linejoin:round; stroke-width:2; stroke-opacity:0.1; fill:none" points="
  175.445,1372.3 2352.76,1372.3 
  "/>
<polyline clip-path="url(#clip712)" style="stroke:#000000; stroke-linecap:butt; stroke-linejoin:round; stroke-width:2; stroke-opacity:0.1; fill:none" points="
  175.445,986.363 2352.76,986.363 
  "/>
<polyline clip-path="url(#clip712)" style="stroke:#000000; stroke-linecap:butt; stroke-linejoin:round; stroke-width:2; stroke-opacity:0.1; fill:none" points="
  175.445,600.424 2352.76,600.424 
  "/>
<polyline clip-path="url(#clip712)" style="stroke:#000000; stroke-linecap:butt; stroke-linejoin:round; stroke-width:2; stroke-opacity:0.1; fill:none" points="
  175.445,214.485 2352.76,214.485 
  "/>
<polyline clip-path="url(#clip710)" style="stroke:#000000; stroke-linecap:butt; stroke-linejoin:round; stroke-width:4; stroke-opacity:1; fill:none" points="
  175.445,1410.9 175.445,47.2441 
  "/>
<polyline clip-path="url(#clip710)" style="stroke:#000000; stroke-linecap:butt; stroke-linejoin:round; stroke-width:4; stroke-opacity:1; fill:none" points="
  175.445,1372.3 194.343,1372.3 
  "/>
<polyline clip-path="url(#clip710)" style="stroke:#000000; stroke-linecap:butt; stroke-linejoin:round; stroke-width:4; stroke-opacity:1; fill:none" points="
  175.445,986.363 194.343,986.363 
  "/>
<polyline clip-path="url(#clip710)" style="stroke:#000000; stroke-linecap:butt; stroke-linejoin:round; stroke-width:4; stroke-opacity:1; fill:none" points="
  175.445,600.424 194.343,600.424 
  "/>
<polyline clip-path="url(#clip710)" style="stroke:#000000; stroke-linecap:butt; stroke-linejoin:round; stroke-width:4; stroke-opacity:1; fill:none" points="
  175.445,214.485 194.343,214.485 
  "/>
<path clip-path="url(#clip710)" d="M123.126 1385.65 L139.445 1385.65 L139.445 1389.58 L117.501 1389.58 L117.501 1385.65 Q120.163 1382.89 124.746 1378.26 Q129.353 1373.61 130.533 1372.27 Q132.779 1369.74 133.658 1368.01 Q134.561 1366.25 134.561 1364.56 Q134.561 1361.81 132.617 1360.07 Q130.695 1358.33 127.593 1358.33 Q125.394 1358.33 122.941 1359.1 Q120.51 1359.86 117.732 1361.41 L117.732 1356.69 Q120.556 1355.56 123.01 1354.98 Q125.464 1354.4 127.501 1354.4 Q132.871 1354.4 136.066 1357.08 Q139.26 1359.77 139.26 1364.26 Q139.26 1366.39 138.45 1368.31 Q137.663 1370.21 135.556 1372.8 Q134.978 1373.47 131.876 1376.69 Q128.774 1379.88 123.126 1385.65 Z" fill="#000000" fill-rule="evenodd" fill-opacity="1" /><path clip-path="url(#clip710)" d="M132.316 985.009 Q135.672 985.727 137.547 987.995 Q139.445 990.264 139.445 993.597 Q139.445 998.713 135.927 1001.51 Q132.408 1004.31 125.927 1004.31 Q123.751 1004.31 121.436 1003.87 Q119.144 1003.46 116.691 1002.6 L116.691 998.088 Q118.635 999.222 120.95 999.801 Q123.265 1000.38 125.788 1000.38 Q130.186 1000.38 132.478 998.643 Q134.792 996.907 134.792 993.597 Q134.792 990.542 132.64 988.829 Q130.51 987.092 126.691 987.092 L122.663 987.092 L122.663 983.25 L126.876 983.25 Q130.325 983.25 132.154 981.884 Q133.982 980.495 133.982 977.903 Q133.982 975.241 132.084 973.829 Q130.209 972.393 126.691 972.393 Q124.769 972.393 122.57 972.81 Q120.371 973.227 117.732 974.106 L117.732 969.94 Q120.394 969.199 122.709 968.829 Q125.047 968.458 127.107 968.458 Q132.431 968.458 135.533 970.889 Q138.635 973.296 138.635 977.417 Q138.635 980.287 136.992 982.278 Q135.348 984.245 132.316 985.009 Z" fill="#000000" fill-rule="evenodd" fill-opacity="1" /><path clip-path="url(#clip710)" d="M129.862 587.218 L118.056 605.667 L129.862 605.667 L129.862 587.218 M128.635 583.144 L134.515 583.144 L134.515 605.667 L139.445 605.667 L139.445 609.556 L134.515 609.556 L134.515 617.704 L129.862 617.704 L129.862 609.556 L114.26 609.556 L114.26 605.042 L128.635 583.144 Z" fill="#000000" fill-rule="evenodd" fill-opacity="1" /><path clip-path="url(#clip710)" d="M118.543 197.205 L136.899 197.205 L136.899 201.14 L122.825 201.14 L122.825 209.612 Q123.843 209.265 124.862 209.103 Q125.88 208.917 126.899 208.917 Q132.686 208.917 136.066 212.089 Q139.445 215.26 139.445 220.677 Q139.445 226.255 135.973 229.357 Q132.501 232.436 126.181 232.436 Q124.005 232.436 121.737 232.065 Q119.492 231.695 117.084 230.954 L117.084 226.255 Q119.168 227.39 121.39 227.945 Q123.612 228.501 126.089 228.501 Q130.093 228.501 132.431 226.394 Q134.769 224.288 134.769 220.677 Q134.769 217.066 132.431 214.959 Q130.093 212.853 126.089 212.853 Q124.214 212.853 122.339 213.269 Q120.487 213.686 118.543 214.566 L118.543 197.205 Z" fill="#000000" fill-rule="evenodd" fill-opacity="1" /><path clip-path="url(#clip710)" d="M18.0438 937.818 L24.314 937.818 Q22.5634 941.478 21.704 944.725 Q20.8447 947.971 20.8447 950.995 Q20.8447 956.247 22.8817 959.111 Q24.9187 961.944 28.6745 961.944 Q31.8255 961.944 33.4488 960.066 Q35.0402 958.156 36.0269 952.873 L36.8226 948.99 Q38.1912 941.796 41.6605 938.391 Q45.098 934.953 50.8908 934.953 Q57.7976 934.953 61.3624 939.6 Q64.9272 944.215 64.9272 953.159 Q64.9272 956.533 64.1633 960.352 Q63.3994 964.14 61.9035 968.214 L55.2831 968.214 Q57.4793 964.299 58.5933 960.543 Q59.7073 956.788 59.7073 953.159 Q59.7073 947.653 57.543 944.661 Q55.3786 941.669 51.3682 941.669 Q47.8671 941.669 45.8937 943.833 Q43.9204 945.966 42.9337 950.868 L42.1698 954.782 Q40.7375 961.976 37.682 965.19 Q34.6264 968.405 29.1837 968.405 Q22.8817 968.405 19.2532 963.981 Q15.6248 959.525 15.6248 951.727 Q15.6248 948.385 16.2295 944.916 Q16.8343 941.446 18.0438 937.818 Z" fill="#000000" fill-rule="evenodd" fill-opacity="1" /><path clip-path="url(#clip710)" d="M49.9359 925.787 L28.3562 925.787 L28.3562 919.93 L49.7131 919.93 Q54.7739 919.93 57.3202 917.957 Q59.8346 915.983 59.8346 912.037 Q59.8346 907.294 56.8109 904.557 Q53.7872 901.788 48.5673 901.788 L28.3562 901.788 L28.3562 895.931 L64.0042 895.931 L64.0042 901.788 L58.5296 901.788 Q61.7762 903.92 63.3676 906.753 Q64.9272 909.554 64.9272 913.278 Q64.9272 919.421 61.1078 922.604 Q57.2883 925.787 49.9359 925.787 M27.4968 911.05 L27.4968 911.05 Z" fill="#000000" fill-rule="evenodd" fill-opacity="1" /><path clip-path="url(#clip710)" d="M33.8307 863.212 Q33.2578 864.198 33.0032 865.376 Q32.7167 866.522 32.7167 867.922 Q32.7167 872.888 35.9632 875.561 Q39.1779 878.203 45.2253 878.203 L64.0042 878.203 L64.0042 884.091 L28.3562 884.091 L28.3562 878.203 L33.8944 878.203 Q30.6479 876.357 29.0883 873.397 Q27.4968 870.437 27.4968 866.204 Q27.4968 865.599 27.5923 864.867 Q27.656 864.135 27.8151 863.244 L33.8307 863.212 Z" fill="#000000" fill-rule="evenodd" fill-opacity="1" /><path clip-path="url(#clip710)" d="M14.479 839.022 L19.3487 839.022 L19.3487 844.624 Q19.3487 847.775 20.6219 849.016 Q21.895 850.226 25.2052 850.226 L28.3562 850.226 L28.3562 840.582 L32.9077 840.582 L32.9077 850.226 L64.0042 850.226 L64.0042 856.114 L32.9077 856.114 L32.9077 861.716 L28.3562 861.716 L28.3562 856.114 L25.8736 856.114 Q19.9216 856.114 17.2162 853.345 Q14.479 850.576 14.479 844.56 L14.479 839.022 Z" fill="#000000" fill-rule="evenodd" fill-opacity="1" /><path clip-path="url(#clip710)" d="M46.0847 817.92 Q46.0847 825.017 47.7079 827.755 Q49.3312 830.492 53.2461 830.492 Q56.3653 830.492 58.2114 828.455 Q60.0256 826.386 60.0256 822.853 Q60.0256 817.983 56.5881 815.055 Q53.1188 812.095 47.3897 812.095 L46.0847 812.095 L46.0847 817.92 M43.6657 806.239 L64.0042 806.239 L64.0042 812.095 L58.5933 812.095 Q61.8398 814.1 63.3994 817.092 Q64.9272 820.084 64.9272 824.413 Q64.9272 829.887 61.8716 833.134 Q58.7843 836.348 53.6281 836.348 Q47.6125 836.348 44.5569 832.338 Q41.5014 828.296 41.5014 820.307 L41.5014 812.095 L40.9285 812.095 Q36.8862 812.095 34.6901 814.769 Q32.4621 817.41 32.4621 822.217 Q32.4621 825.272 33.1941 828.169 Q33.9262 831.065 35.3903 833.738 L29.9795 833.738 Q28.7381 830.524 28.1334 827.5 Q27.4968 824.476 27.4968 821.612 Q27.4968 813.877 31.5072 810.058 Q35.5176 806.239 43.6657 806.239 Z" fill="#000000" fill-rule="evenodd" fill-opacity="1" /><path clip-path="url(#clip710)" d="M29.7248 768.522 L35.1993 768.522 Q33.8307 771.004 33.1623 773.519 Q32.4621 776.002 32.4621 778.548 Q32.4621 784.245 36.0905 787.396 Q39.6872 790.547 46.212 790.547 Q52.7369 790.547 56.3653 787.396 Q59.9619 784.245 59.9619 778.548 Q59.9619 776.002 59.2935 773.519 Q58.5933 771.004 57.2247 768.522 L62.6355 768.522 Q63.7814 770.973 64.3543 773.614 Q64.9272 776.224 64.9272 779.184 Q64.9272 787.237 59.8664 791.979 Q54.8057 796.722 46.212 796.722 Q37.491 796.722 32.4939 791.948 Q27.4968 787.142 27.4968 778.802 Q27.4968 776.097 28.0697 773.519 Q28.6108 770.941 29.7248 768.522 Z" fill="#000000" fill-rule="evenodd" fill-opacity="1" /><path clip-path="url(#clip710)" d="M44.7161 727.845 L47.5806 727.845 L47.5806 754.772 Q53.6281 754.39 56.8109 751.143 Q59.9619 747.865 59.9619 742.04 Q59.9619 738.667 59.1344 735.516 Q58.3069 732.333 56.6518 729.214 L62.1899 729.214 Q63.5267 732.365 64.227 735.675 Q64.9272 738.985 64.9272 742.391 Q64.9272 750.921 59.9619 755.918 Q54.9967 760.883 46.5303 760.883 Q37.7774 760.883 32.6531 756.172 Q27.4968 751.43 27.4968 743.409 Q27.4968 736.216 32.1438 732.046 Q36.7589 727.845 44.7161 727.845 M42.9973 733.701 Q38.1912 733.765 35.3266 736.407 Q32.4621 739.017 32.4621 743.345 Q32.4621 748.247 35.2312 751.207 Q38.0002 754.135 43.0292 754.581 L42.9973 733.701 Z" fill="#000000" fill-rule="evenodd" fill-opacity="1" /><path clip-path="url(#clip710)" d="M16.4842 697.258 L16.4842 690.828 L35.9632 690.828 L35.9632 667.466 L16.4842 667.466 L16.4842 661.037 L64.0042 661.037 L64.0042 667.466 L41.3741 667.466 L41.3741 690.828 L64.0042 690.828 L64.0042 697.258 L16.4842 697.258 Z" fill="#000000" fill-rule="evenodd" fill-opacity="1" /><path clip-path="url(#clip710)" d="M44.7161 618.005 L47.5806 618.005 L47.5806 644.932 Q53.6281 644.55 56.8109 641.303 Q59.9619 638.025 59.9619 632.2 Q59.9619 628.826 59.1344 625.675 Q58.3069 622.493 56.6518 619.373 L62.1899 619.373 Q63.5267 622.524 64.227 625.835 Q64.9272 629.145 64.9272 632.55 Q64.9272 641.08 59.9619 646.077 Q54.9967 651.043 46.5303 651.043 Q37.7774 651.043 32.6531 646.332 Q27.4968 641.59 27.4968 633.569 Q27.4968 626.376 32.1438 622.206 Q36.7589 618.005 44.7161 618.005 M42.9973 623.861 Q38.1912 623.925 35.3266 626.567 Q32.4621 629.177 32.4621 633.505 Q32.4621 638.407 35.2312 641.367 Q38.0002 644.295 43.0292 644.741 L42.9973 623.861 Z" fill="#000000" fill-rule="evenodd" fill-opacity="1" /><path clip-path="url(#clip710)" d="M28.3562 608.392 L28.3562 602.536 L64.0042 602.536 L64.0042 608.392 L28.3562 608.392 M14.479 608.392 L14.479 602.536 L21.895 602.536 L21.895 608.392 L14.479 608.392 Z" fill="#000000" fill-rule="evenodd" fill-opacity="1" /><path clip-path="url(#clip710)" d="M45.7664 566.824 Q39.4007 566.824 35.8996 569.466 Q32.3984 572.076 32.3984 576.819 Q32.3984 581.529 35.8996 584.171 Q39.4007 586.781 45.7664 586.781 Q52.1003 586.781 55.6014 584.171 Q59.1026 581.529 59.1026 576.819 Q59.1026 572.076 55.6014 569.466 Q52.1003 566.824 45.7664 566.824 M59.58 560.968 Q68.683 560.968 73.1071 565.01 Q77.5631 569.052 77.5631 577.391 Q77.5631 580.479 77.0857 583.216 Q76.6401 585.953 75.6852 588.531 L69.9879 588.531 Q71.3884 585.953 72.0568 583.439 Q72.7252 580.924 72.7252 578.315 Q72.7252 572.554 69.7015 569.689 Q66.7096 566.824 60.6303 566.824 L57.7339 566.824 Q60.885 568.639 62.4446 571.471 Q64.0042 574.304 64.0042 578.251 Q64.0042 584.808 59.0071 588.818 Q54.01 592.828 45.7664 592.828 Q37.491 592.828 32.4939 588.818 Q27.4968 584.808 27.4968 578.251 Q27.4968 574.304 29.0564 571.471 Q30.616 568.639 33.7671 566.824 L28.3562 566.824 L28.3562 560.968 L59.58 560.968 Z" fill="#000000" fill-rule="evenodd" fill-opacity="1" /><path clip-path="url(#clip710)" d="M42.4881 519.273 L64.0042 519.273 L64.0042 525.129 L42.679 525.129 Q37.6183 525.129 35.1038 527.102 Q32.5894 529.076 32.5894 533.023 Q32.5894 537.765 35.6131 540.502 Q38.6368 543.239 43.8567 543.239 L64.0042 543.239 L64.0042 549.128 L14.479 549.128 L14.479 543.239 L33.8944 543.239 Q30.6797 541.139 29.0883 538.306 Q27.4968 535.441 27.4968 531.718 Q27.4968 525.575 31.3163 522.424 Q35.1038 519.273 42.4881 519.273 Z" fill="#000000" fill-rule="evenodd" fill-opacity="1" /><path clip-path="url(#clip710)" d="M18.2347 501.799 L28.3562 501.799 L28.3562 489.736 L32.9077 489.736 L32.9077 501.799 L52.2594 501.799 Q56.6199 501.799 57.8613 500.621 Q59.1026 499.412 59.1026 495.751 L59.1026 489.736 L64.0042 489.736 L64.0042 495.751 Q64.0042 502.531 61.4897 505.109 Q58.9434 507.687 52.2594 507.687 L32.9077 507.687 L32.9077 511.984 L28.3562 511.984 L28.3562 507.687 L18.2347 507.687 L18.2347 501.799 Z" fill="#000000" fill-rule="evenodd" fill-opacity="1" /><polyline clip-path="url(#clip712)" style="stroke:#009af9; stroke-linecap:butt; stroke-linejoin:round; stroke-width:12; stroke-opacity:1; fill:none" points="
  237.067,1372.3 329.793,1372.3 472.673,1372.3 603.847,1372.3 645.058,1372.3 728.356,1372.3 841.289,1372.3 867.206,1340.14 910.718,1340.14 1059.21,1340.14 
  1067.42,1307.98 1174.06,1307.98 1243.44,1307.98 1245.58,1307.98 1276,1307.98 1279.17,1307.98 1288.74,1307.98 1316.9,1307.98 1320.56,1307.98 1323.31,1307.98 
  1323.8,1307.98 1333.39,1307.98 1353.27,1307.98 1354.6,1307.98 1369.42,1307.98 1374.81,1307.98 1378.04,1307.98 1378.61,1307.98 1382.85,1307.98 1383.81,1307.98 
  1387.9,1307.98 1388.96,1275.82 1390.94,1275.82 1393.24,1275.82 1395.59,1275.82 1396.48,1243.66 1398.31,1243.66 1400.57,1243.66 1405.96,1243.66 1411.71,1243.66 
  1430.48,1243.66 1430.58,1211.49 1432.24,1211.49 1433.08,1211.49 1437.5,1211.49 1438.51,1211.49 1439.4,1211.49 1440.73,1179.33 1441.38,1179.33 1443.05,1179.33 
  1450.31,1179.33 1451.85,1179.33 1457.2,1179.33 1457.91,1179.33 1461.97,1179.33 1469.55,1179.33 1475.46,1179.33 1475.78,1179.33 1477.56,1179.33 1486.78,1147.17 
  1492.76,1147.17 1502.52,1147.17 1511.73,1147.17 1512.73,1147.17 1519.88,1147.17 1526.5,1147.17 1527.91,1147.17 1529.8,1147.17 1541.19,1147.17 1541.7,1147.17 
  1541.88,1147.17 1543.51,1147.17 1545.27,1147.17 1546.94,1115.01 1548.06,1115.01 1548.68,1115.01 1549.91,1115.01 1558.09,1115.01 1562.56,1115.01 1564.51,1115.01 
  1569.1,1115.01 1573.06,1082.85 1576.43,1082.85 1577.05,1082.85 1578.77,1082.85 1581.27,1082.85 1596.25,1082.85 1596.85,1082.85 1600.84,1082.85 1604.3,1082.85 
  1606.21,1082.85 1609.46,1082.85 1614.43,1082.85 1617.85,1082.85 1623.36,1082.85 1624.85,1082.85 1627.96,1082.85 1630,1082.85 1635.8,1082.85 1636.03,1082.85 
  1640.25,1082.85 1642.37,1082.85 1643.1,1082.85 1644,1082.85 1644.54,1082.85 1646.83,1050.69 1647.52,1050.69 1648.01,1050.69 1650.01,1050.69 1652.8,1018.52 
  1653.32,1018.52 1654.26,1018.52 1663.2,1018.52 1668.65,1018.52 1669.05,1018.52 1669.44,1018.52 1673,1018.52 1678.07,1018.52 1681.26,1018.52 1681.37,1018.52 
  1687.87,1018.52 1695.3,1018.52 1696.28,1018.52 1698.11,1018.52 1698.33,1018.52 1698.77,1018.52 1700.07,1018.52 1710.19,1018.52 1712.12,1018.52 1712.41,986.363 
  1717.35,986.363 1717.84,986.363 1720.83,986.363 1722.87,986.363 1722.98,986.363 1727.13,986.363 1727.72,986.363 1729.8,986.363 1731.34,986.363 1731.43,986.363 
  1731.59,986.363 1733.34,986.363 1733.43,986.363 1734.45,986.363 1734.55,986.363 1735.31,986.363 1736.89,986.363 1737.06,986.363 1738.1,954.202 1739.92,954.202 
  1744.5,954.202 1745.82,954.202 1749.85,954.202 1752.74,954.202 1755.83,954.202 1756.33,954.202 1759.16,954.202 1760.12,954.202 1760.29,954.202 1763.8,954.202 
  1764.35,954.202 1768.3,954.202 1769.18,922.04 1769.84,922.04 1773.74,922.04 1775.69,922.04 1777.27,922.04 1777.54,922.04 1779.91,922.04 1781.93,922.04 
  1786.82,922.04 1787.55,889.878 1789.46,889.878 1790.98,889.878 1793.53,889.878 1794.42,889.878 1797.91,889.878 1797.97,889.878 1799.31,889.878 1803.1,889.878 
  1803.22,889.878 1805.79,889.878 1808.21,889.878 1808.76,889.878 1810.34,889.878 1813.15,889.878 1814.34,889.878 1815.07,889.878 1815.37,889.878 1815.84,889.878 
  1815.88,889.878 1816.13,889.878 1817,889.878 1817.96,889.878 1820,889.878 1821.92,889.878 1822.48,889.878 1824.02,857.717 1825.24,857.717 1827.43,857.717 
  1827.55,857.717 1828.57,857.717 1829.95,857.717 1830.26,857.717 1832.85,857.717 1833.22,857.717 1836.5,857.717 1842.49,857.717 1843.99,857.717 1845.18,857.717 
  1845.32,825.555 1852.38,825.555 1854.37,825.555 1854.52,825.555 1855.33,825.555 1856.58,825.555 1857.5,825.555 1859.71,825.555 1860.1,825.555 1862.11,825.555 
  1862.49,825.555 1862.73,825.555 1862.84,825.555 1864.4,793.394 1865.41,793.394 1868.42,793.394 1870.1,793.394 1871.02,793.394 1874.06,793.394 1874.76,793.394 
  1878.85,793.394 1882.33,793.394 1882.35,793.394 1884.96,793.394 1885.13,793.394 1887.8,793.394 1888.57,793.394 1890.91,793.394 1891.45,793.394 1892.06,793.394 
  1894.59,793.394 1895.39,793.394 1898.06,793.394 1900.1,793.394 1901.06,793.394 1901.58,793.394 1904.39,793.394 1905.81,793.394 1905.86,793.394 1908.24,793.394 
  1913.61,793.394 1913.73,793.394 1914.35,793.394 1915.33,793.394 1915.49,793.394 1915.98,793.394 1916.75,793.394 1917.41,793.394 1918.26,793.394 1918.51,793.394 
  1918.8,793.394 1920.06,793.394 1920.26,793.394 1925.99,793.394 1926.11,793.394 1926.3,793.394 1926.92,793.394 1927.07,793.394 1927.25,793.394 1927.56,793.394 
  1929.29,761.232 1930.73,761.232 1931.84,761.232 1933.9,761.232 1935.77,761.232 1937.5,761.232 1939.41,761.232 1939.58,761.232 1940.22,761.232 1941.25,761.232 
  1941.5,761.232 1942.48,761.232 1944.59,761.232 1945.23,761.232 1948.63,761.232 1948.78,761.232 1948.81,761.232 1949.6,761.232 1949.78,761.232 1950.9,761.232 
  1951.14,761.232 1951.66,761.232 1951.96,761.232 1955.29,761.232 1955.5,761.232 1956.6,761.232 1957.83,761.232 1958.5,761.232 1958.67,761.232 1959.05,761.232 
  1961.98,761.232 1962.66,761.232 1963.04,729.07 1964.19,729.07 1964.32,729.07 1965.28,729.07 1966.12,729.07 1967.92,729.07 1971.23,729.07 1973.59,729.07 
  1974.15,729.07 1976.36,729.07 1977.62,729.07 1978.13,729.07 1978.41,729.07 1978.58,696.909 1979.99,696.909 1980.15,696.909 1980.65,696.909 1981.79,696.909 
  1982.13,696.909 1982.52,696.909 1983.67,696.909 1983.78,696.909 1984.07,696.909 1985.39,696.909 1985.75,696.909 1988.52,696.909 1989.13,696.909 1991.97,696.909 
  1992.66,696.909 1992.94,696.909 1994.63,696.909 1994.66,696.909 1996.19,696.909 1996.94,696.909 1998.38,696.909 1999.89,696.909 2000.38,696.909 2000.82,696.909 
  2000.93,696.909 2001.31,696.909 2001.66,696.909 2002.03,696.909 2002.46,696.909 2005.31,696.909 2005.52,696.909 2006.26,696.909 2007.04,696.909 2007.12,696.909 
  2009.56,696.909 2013.19,696.909 2014.4,696.909 2015.76,696.909 2017.36,696.909 2019,696.909 2020.72,696.909 2020.74,696.909 2020.76,696.909 2021.91,696.909 
  2022.46,696.909 2022.97,696.909 2023.54,696.909 2023.94,696.909 2023.98,696.909 2024.22,696.909 2025.05,696.909 2026.49,696.909 2027.09,696.909 2027.61,696.909 
  2028.48,696.909 2029.59,696.909 2029.87,696.909 2030.44,696.909 2031.08,696.909 2031.61,696.909 2031.89,696.909 2032.91,696.909 2033.42,696.909 2033.78,696.909 
  2035.47,696.909 2037.19,696.909 2037.49,696.909 2038.66,696.909 2038.87,696.909 2039.1,696.909 2039.68,696.909 2040.17,696.909 2040.27,696.909 2040.78,696.909 
  2041.97,696.909 2044.37,696.909 2044.43,696.909 2044.74,696.909 2046.14,696.909 2046.81,696.909 2047.31,696.909 2048.64,696.909 2048.68,696.909 2049.7,696.909 
  2050.14,696.909 2050.32,696.909 2050.64,696.909 2052.93,696.909 2054.72,696.909 2055.07,696.909 2055.51,696.909 2056.29,696.909 2058.04,696.909 2058.06,696.909 
  2058.67,696.909 2059.43,696.909 2061.34,696.909 2061.38,696.909 2061.98,696.909 2062.47,696.909 2062.86,696.909 2063.3,696.909 2063.43,696.909 2064.44,696.909 
  2065.34,696.909 2065.59,696.909 2065.8,696.909 2066.28,696.909 2069.44,696.909 2070.45,696.909 2071.07,696.909 2071.62,696.909 2072.42,696.909 2072.72,696.909 
  2072.88,696.909 2073.16,696.909 2073.69,696.909 2074.03,696.909 2074.65,696.909 2074.98,696.909 2075.09,696.909 2075.16,696.909 2076.15,696.909 2076.57,664.747 
  2076.67,664.747 2078.92,664.747 2079.47,664.747 2080.17,664.747 2081.57,664.747 2082.79,664.747 2082.99,664.747 2083.46,664.747 2083.73,664.747 2084.77,664.747 
  2084.89,664.747 2085.48,664.747 2086.68,664.747 2086.7,664.747 2087.43,664.747 2087.47,632.586 2087.66,632.586 2087.83,632.586 2088.67,632.586 2088.73,632.586 
  2089.9,632.586 2090.33,632.586 2090.67,600.424 2091.06,600.424 2091.88,600.424 2092.06,600.424 2092.67,600.424 2093.62,600.424 2093.98,600.424 2094.96,600.424 
  2095.58,600.424 2097.34,600.424 2098.81,600.424 2099.14,568.262 2099.73,568.262 2100.87,568.262 2101.42,568.262 2101.59,536.101 2102.99,536.101 2103.08,536.101 
  2103.55,536.101 2103.58,536.101 2104.05,536.101 2104.1,536.101 2104.17,536.101 2104.37,536.101 2104.83,536.101 2106.85,536.101 2106.89,536.101 2107.52,536.101 
  2107.6,503.939 2107.89,503.939 2108.16,503.939 2108.31,503.939 2108.31,503.939 2109.06,503.939 2109.08,503.939 2109.72,503.939 2111.45,503.939 2112.27,503.939 
  2112.7,503.939 2113.24,503.939 2113.91,503.939 2114,503.939 2114.49,503.939 2114.58,503.939 2115.01,503.939 2115.31,471.777 2117.27,471.777 2119.97,471.777 
  2120.07,471.777 2121.59,471.777 2122.67,471.777 2123.53,471.777 2124.33,471.777 2124.64,471.777 2124.99,471.777 2127.64,471.777 2127.92,471.777 2128.22,471.777 
  2129.18,471.777 2129.31,471.777 2130.97,471.777 2131.2,471.777 2131.42,471.777 2131.68,471.777 2132.23,471.777 2132.25,471.777 2132.53,439.616 2133.12,439.616 
  2134,439.616 2135.08,439.616 2136,439.616 2136.83,439.616 2137.12,439.616 2137.42,439.616 2137.76,439.616 2138.59,439.616 2139.07,439.616 2139.18,439.616 
  2139.58,439.616 2139.89,439.616 2139.97,439.616 2140.26,407.454 2140.48,407.454 2141.64,407.454 2142.01,407.454 2142.1,407.454 2142.17,407.454 2142.19,407.454 
  2142.9,407.454 2143.65,407.454 2143.88,407.454 2144.1,375.293 2144.35,375.293 2144.98,375.293 2145.14,375.293 2145.26,375.293 2145.3,375.293 2145.95,375.293 
  2146.52,375.293 2147.48,375.293 2148.27,375.293 2148.93,375.293 2149.42,375.293 2149.7,375.293 2150.74,375.293 2151.01,375.293 2151.08,375.293 2151.69,375.293 
  2151.76,375.293 2152.81,375.293 2152.83,375.293 2153.04,343.131 2153.21,343.131 2153.41,343.131 2153.51,343.131 2154.59,343.131 2155.06,343.131 2155.33,343.131 
  2155.67,343.131 2156.02,343.131 2156.65,343.131 2156.95,343.131 2157.09,343.131 2157.16,343.131 2158.68,343.131 2160.34,343.131 2161.01,343.131 2161.38,343.131 
  2161.88,343.131 2162.21,343.131 2162.24,343.131 2162.28,343.131 2162.38,343.131 2162.48,343.131 2162.64,343.131 2163.04,343.131 2164.82,343.131 2164.96,343.131 
  2165.31,343.131 2165.42,343.131 2166.45,343.131 2166.9,343.131 2167.13,343.131 2168.46,343.131 2168.74,343.131 2168.98,310.969 2169.95,310.969 2170.55,310.969 
  2171.86,310.969 2172.01,278.808 2172.53,278.808 2173.81,278.808 2174.01,278.808 2174.56,278.808 2174.6,278.808 2174.62,278.808 2175.38,278.808 2175.47,278.808 
  2175.47,246.646 2175.61,246.646 2175.67,246.646 2175.83,246.646 2176.98,246.646 2177.42,246.646 2177.46,246.646 2177.9,246.646 2178.95,246.646 2179.01,246.646 
  2179.07,246.646 2179.11,246.646 2179.48,246.646 2179.89,246.646 2180.04,246.646 2180.1,246.646 2180.26,214.485 2180.43,214.485 2180.52,214.485 2180.81,214.485 
  2182.2,214.485 2183.4,214.485 2183.55,214.485 2183.69,214.485 2184.04,214.485 2184.34,214.485 2184.47,182.323 2184.61,182.323 2184.94,182.323 2185.18,182.323 
  2185.39,182.323 2185.97,150.161 2186.21,150.161 2186.68,150.161 2187.45,150.161 2187.65,150.161 2188.09,150.161 2189.7,150.161 2191.33,150.161 2191.37,150.161 
  2191.38,150.161 2191.83,150.161 2191.91,150.161 2191.96,150.161 2192.04,150.161 2192.24,150.161 2192.4,150.161 2192.7,150.161 2193,150.161 2193.11,150.161 
  2193.19,150.161 2193.96,150.161 2194.11,150.161 2194.21,150.161 2194.99,150.161 2195.13,150.161 2195.29,150.161 2195.3,150.161 2195.89,150.161 2196.97,150.161 
  2197.51,150.161 2198.22,150.161 2198.73,150.161 2198.76,150.161 2199.83,150.161 2200.42,150.161 2201.11,150.161 2202.08,150.161 2202.49,150.161 2203.03,150.161 
  2203.2,150.161 2203.69,150.161 2203.78,150.161 2203.99,150.161 2204.02,150.161 2204.07,150.161 2204.12,150.161 2204.19,150.161 2204.58,150.161 2204.62,150.161 
  2205.83,150.161 2206.82,150.161 2207.79,150.161 2207.87,150.161 2208.12,150.161 2208.54,150.161 2209.89,150.161 2210.46,150.161 2210.5,150.161 2210.88,150.161 
  2211.36,150.161 2211.6,150.161 2212.03,150.161 2212.19,150.161 2212.28,150.161 2212.63,150.161 2212.78,150.161 2212.79,150.161 2213.11,150.161 2213.17,150.161 
  2213.48,150.161 2213.65,150.161 2214.18,150.161 2214.21,150.161 2214.65,150.161 2214.72,150.161 2214.91,150.161 2215.09,150.161 2215.16,150.161 2215.43,150.161 
  2215.72,150.161 2216.1,150.161 2216.75,150.161 2217.55,150.161 2217.69,150.161 2218.45,150.161 2218.46,150.161 2219.17,150.161 2219.54,150.161 2219.68,150.161 
  2219.79,150.161 2219.82,150.161 2220.28,150.161 2220.33,150.161 2220.44,150.161 2221.06,150.161 2222.41,150.161 2222.53,150.161 2222.8,150.161 2223.12,150.161 
  2223.54,150.161 2224.25,150.161 2224.4,150.161 2224.97,150.161 2224.98,150.161 2225.18,150.161 2225.82,150.161 2225.86,150.161 2227.11,150.161 2227.55,150.161 
  2227.71,150.161 2228.36,150.161 2228.76,150.161 2228.91,150.161 2229.28,150.161 2229.89,150.161 2230.51,150.161 2230.73,150.161 2231.26,150.161 2231.29,150.161 
  2231.33,150.161 2231.87,150.161 2231.93,150.161 2232.17,150.161 2232.68,150.161 2232.95,150.161 2233.55,150.161 2234.94,150.161 2234.95,150.161 2234.96,150.161 
  2234.97,150.161 2235.22,150.161 2235.3,150.161 2235.72,150.161 2236.95,150.161 2237.02,150.161 2237.03,150.161 2238.68,150.161 2239.55,150.161 2239.61,150.161 
  2239.92,150.161 2240.06,150.161 2240.55,150.161 2240.67,150.161 2241.14,150.161 2241.84,150.161 2242.94,150.161 2244.26,150.161 2245.55,150.161 2245.64,150.161 
  2245.85,150.161 2246.03,150.161 2246.09,150.161 2246.19,150.161 2246.27,150.161 2246.29,150.161 2246.4,150.161 2246.45,150.161 2246.65,150.161 2247.41,150.161 
  2247.9,150.161 2247.91,150.161 2248.18,150.161 2249.59,150.161 2249.68,150.161 2249.98,150.161 2250.06,150.161 2250.21,150.161 2250.92,150.161 2251.06,150.161 
  2251.32,150.161 2251.46,150.161 2251.7,150.161 2251.71,150.161 2251.99,150.161 2252,150.161 2252.85,150.161 2252.86,150.161 2253.05,150.161 2253.18,150.161 
  2253.74,150.161 2253.84,150.161 2254.42,150.161 2254.67,150.161 2254.78,150.161 2254.99,150.161 2255.03,150.161 2255.04,150.161 2255.84,150.161 2256.7,150.161 
  2256.84,118 2256.98,118 2257.01,118 2257.69,118 2257.72,118 2257.89,118 2258.24,118 2259.11,118 2259.73,118 2260.24,118 
  2260.33,118 2260.96,118 2261.44,118 2261.45,118 2261.64,118 2261.69,118 2261.79,118 2262.31,118 2262.86,118 2263.28,118 
  2263.7,118 2263.79,118 2263.83,118 2263.86,118 2264.41,118 2264.49,118 2264.53,118 2264.69,118 2265,118 2265.36,118 
  2265.59,118 2265.98,118 2266.01,118 2266.49,118 2267.08,118 2267.13,118 2267.26,118 2267.65,118 2268.01,118 2268.06,118 
  2268.07,118 2268.16,118 2268.48,118 2268.67,118 2269.1,118 2269.43,118 2269.78,118 2269.79,118 2269.9,118 2269.99,118 
  2270.83,118 2272.19,118 2272.81,118 2272.97,118 2272.98,118 2273.8,118 2273.86,118 2273.91,118 2274.53,118 2274.71,118 
  2275.27,118 2275.31,118 2275.89,118 2276.37,118 2277.04,118 2277.36,118 2278.56,118 2278.96,118 2279.19,118 2279.48,118 
  2279.76,118 2280.79,118 2280.84,118 2280.87,118 2281.72,118 2282.3,118 2282.41,118 2282.62,118 2282.62,118 2282.68,118 
  2282.79,118 2282.81,118 2283.77,118 2283.79,118 2283.87,118 2284.14,118 2284.2,118 2285.08,118 2285.69,118 2285.85,118 
  2286.02,118 2286.09,118 2286.21,118 2286.72,118 2286.9,118 2287.1,118 2287.54,118 2287.64,118 2287.95,118 2287.96,118 
  2288.08,118 2288.57,118 2288.68,118 2288.77,118 2289.3,118 2289.36,118 2289.51,118 2289.73,118 2289.85,118 2290.13,118 
  2290.16,118 2290.42,118 2290.55,118 2290.59,118 2290.8,118 2290.89,118 2291.13,85.838 
  "/>
</svg>
